<svg version="1.1" id="Capa_1" xmlns="http://www.w3.org/2000/svg" x="0" y="0" viewBox="0 0 325 96" xml:space="preserve"><style>.st0{fill:#0e59a2}</style><path class="st0" d="M49.66 67.04c-.06.23-.08.48-.08.76 0 .5.25.76.76.76.34 0 .74-.1 1.22-.29.48-.2.94-.42 1.39-.67.45-.25.87-.48 1.26-.67.39-.2.7-.29.93-.29.45 0 .8.24 1.05.72s.41.94.46 1.39c-.9.62-1.95 1.29-3.16 2.02s-2.44 1.4-3.7 2.02c-1.26.62-2.5 1.14-3.71 1.56s-2.26.63-3.16.63c-.96 0-1.68-.2-2.19-.59-.51-.39-.76-1.07-.76-2.02 0-.62.14-1.4.42-2.36l2.95-9.18-.34-.11c-2.36 4.55-4.9 8.05-7.62 10.52-2.72 2.47-5.43 3.71-8.13 3.71-.9 0-1.81-.13-2.74-.38-.93-.25-1.77-.72-2.53-1.39s-1.39-1.6-1.89-2.78c-.5-1.18-.76-2.69-.76-4.55 0-4.71.77-8.88 2.32-12.5 1.54-3.62 3.48-6.67 5.81-9.14 2.33-2.47 4.87-4.34 7.62-5.6 2.75-1.26 5.33-1.89 7.75-1.89.67 0 1.26.01 1.77.04.5.03 1.12.1 1.85.21l1.35-6.9c.22-1.18.42-2.46.59-3.83.17-1.38.25-2.54.25-3.49 0-.62-.25-.93-.76-.93-.56 0-1.25.07-2.06.21-.81.14-1.53.21-2.15.21-.5 0-.86-.22-1.05-.67-.2-.45-.29-1.01-.29-1.68 2.64-.79 5.21-1.56 7.7-2.32 2.5-.76 5.01-1.61 7.54-2.57 1.07.45 1.6 1.21 1.6 2.27 0 .22-.03.49-.08.8-.06.31-.11.58-.17.8l-9.26 48.17zm-4.21-26.27c-.51-.11-1.05-.22-1.64-.34-.59-.11-1.22-.17-1.89-.17-1.97 0-3.73.63-5.3 1.9-1.57 1.27-2.93 2.97-4.08 5.11s-2.04 4.59-2.65 7.35c-.62 2.76-.93 5.63-.93 8.61 0 2.31.21 3.87.63 4.69s1.02 1.22 1.81 1.22c.84 0 1.77-.45 2.78-1.35 1.01-.9 2.03-2.11 3.07-3.63s2.03-3.25 2.99-5.19c.95-1.94 1.81-3.97 2.57-6.08.76-2.11 1.38-4.21 1.85-6.29.46-2.08.73-4.03.79-5.83zM97.98 44.64c0 2.02-.51 3.78-1.52 5.26-1.01 1.49-2.44 2.72-4.29 3.7s-4.07 1.76-6.65 2.32c-2.58.56-5.44.93-8.59 1.09-.06.56-.1 1.09-.13 1.6s-.04 1.04-.04 1.6c0 1.24.1 2.44.29 3.62.2 1.18.55 2.22 1.05 3.12.51.9 1.19 1.63 2.06 2.19.87.56 1.98.84 3.33.84 1.01 0 2.23-.21 3.66-.63 1.43-.42 2.96-1.16 4.59-2.23.5-.34.91-.62 1.22-.84.31-.22.66-.34 1.05-.34.56 0 .94.29 1.14.88.2.59.29 1 .29 1.22-.73.67-1.64 1.42-2.74 2.23s-2.33 1.56-3.71 2.23a29.75 29.75 0 0 1-4.46 1.73c-1.6.48-3.24.72-4.93.72-2.58 0-4.69-.42-6.31-1.26-1.63-.84-2.89-1.94-3.79-3.28a12.38 12.38 0 0 1-1.85-4.46c-.34-1.63-.5-3.23-.5-4.8 0-3.03.49-6.01 1.47-8.92.98-2.92 2.38-5.53 4.21-7.83 1.82-2.3 4-4.15 6.53-5.56 2.53-1.4 5.33-2.1 8.42-2.1 2.86 0 5.28.6 7.24 1.81 1.98 1.2 2.96 3.23 2.96 6.09zM86.2 40.1c-1.07 0-2.08.38-3.03 1.14-.96.76-1.82 1.78-2.61 3.07-.79 1.29-1.46 2.77-2.02 4.42-.56 1.66-.98 3.41-1.26 5.26 2.24-.22 4.13-.64 5.64-1.26 1.52-.62 2.72-1.36 3.62-2.23.9-.87 1.54-1.85 1.94-2.95.39-1.09.59-2.23.59-3.41 0-1.29-.27-2.29-.8-2.99-.55-.7-1.23-1.05-2.07-1.05zM132.08 44.73c-.79 0-1.63.32-2.53.97-.9.65-1.84 1.52-2.82 2.61-.98 1.09-1.96 2.41-2.95 3.96-.98 1.54-1.89 3.19-2.74 4.93-.45.9-.87 1.95-1.26 3.16-.39 1.21-.74 2.46-1.05 3.75a38.71 38.71 0 0 0-.72 3.79c-.17 1.24-.25 2.33-.25 3.28 0 .9.08 1.71.25 2.44-1.35.17-2.71.36-4.08.59-1.38.22-2.85.56-4.42 1.01-.96-.39-1.43-.9-1.43-1.52 0-.28.03-.57.08-.88.06-.31.11-.55.17-.72l5.39-27.2c.11-.34.14-.63.08-.88-.06-.25-.2-.38-.42-.38-.17 0-.42.07-.76.21-.34.14-.72.29-1.14.46-.42.17-.84.32-1.26.46-.42.14-.77.21-1.05.21-.5 0-.88-.25-1.14-.76-.25-.5-.44-.98-.55-1.43 1.07-.67 2.33-1.36 3.79-2.06s2.91-1.35 4.34-1.94c1.43-.59 2.74-1.08 3.92-1.47 1.18-.39 2.05-.59 2.61-.59.45 0 .87.11 1.26.34.39.22.59.62.59 1.18v.67c0 .28-.06.56-.17.84l-2.95 11.2.34.08c2.92-5.16 5.49-8.84 7.7-11.03 2.22-2.19 4.45-3.28 6.69-3.28.73 0 1.43.11 2.11.34.67.22 1.15.48 1.43.76-.96 2.25-1.68 5.3-2.19 9.18h-1.68a6.03 6.03 0 0 0-1.26-1.6c-.5-.46-1.14-.68-1.93-.68zM175.02 44.64c0 2.02-.51 3.78-1.52 5.26-1.01 1.49-2.44 2.72-4.29 3.7s-4.07 1.76-6.65 2.32c-2.58.56-5.44.93-8.59 1.09-.06.56-.1 1.09-.13 1.6s-.04 1.04-.04 1.6c0 1.24.1 2.44.29 3.62.2 1.18.55 2.22 1.05 3.12.51.9 1.19 1.63 2.06 2.19.87.56 1.98.84 3.33.84 1.01 0 2.23-.21 3.66-.63 1.43-.42 2.96-1.16 4.59-2.23.5-.34.91-.62 1.22-.84.31-.22.66-.34 1.05-.34.56 0 .94.29 1.14.88.2.59.29 1 .29 1.22-.73.67-1.64 1.42-2.74 2.23s-2.33 1.56-3.71 2.23a29.75 29.75 0 0 1-4.46 1.73c-1.6.48-3.24.72-4.93.72-2.58 0-4.69-.42-6.31-1.26-1.63-.84-2.89-1.94-3.79-3.28a12.38 12.38 0 0 1-1.85-4.46c-.34-1.63-.5-3.23-.5-4.8 0-3.03.49-6.01 1.47-8.92.98-2.92 2.38-5.53 4.21-7.83 1.82-2.3 4-4.15 6.53-5.56 2.53-1.4 5.33-2.1 8.42-2.1 2.86 0 5.28.6 7.24 1.81 1.98 1.2 2.96 3.23 2.96 6.09zm-11.78-4.54c-1.07 0-2.08.38-3.03 1.14-.96.76-1.82 1.78-2.61 3.07-.79 1.29-1.46 2.77-2.02 4.42-.56 1.66-.98 3.41-1.26 5.26 2.24-.22 4.13-.64 5.64-1.26 1.52-.62 2.72-1.36 3.62-2.23.9-.87 1.54-1.85 1.94-2.95.39-1.09.59-2.23.59-3.41 0-1.29-.27-2.29-.8-2.99-.54-.7-1.23-1.05-2.07-1.05zM204.33 39.93c-2.02 0-3.71.79-5.05 2.36-1.35 1.57-2.41 3.48-3.2 5.73-.79 2.25-1.33 4.56-1.64 6.95-.31 2.39-.46 4.42-.46 6.1 0 2.64.5 4.8 1.52 6.48 1.01 1.68 2.69 2.53 5.05 2.53 1.01 0 1.96-.13 2.86-.38.9-.25 1.7-.56 2.4-.93s1.32-.73 1.85-1.09c.53-.36.97-.66 1.31-.88.17-.11.34-.22.5-.34s.39-.17.67-.17c.56 0 .95.24 1.18.72.22.48.36.94.42 1.39-.79.67-1.7 1.4-2.74 2.19-1.04.79-2.19 1.5-3.45 2.15-1.26.65-2.64 1.18-4.13 1.6s-3.04.63-4.67.63c-2.36 0-4.32-.37-5.89-1.09-1.57-.73-2.85-1.7-3.83-2.91-.98-1.21-1.68-2.6-2.1-4.17s-.63-3.2-.63-4.88c0-2.69.43-5.53 1.3-8.5.87-2.97 2.16-5.7 3.87-8.17 1.71-2.47 3.86-4.5 6.44-6.1 2.58-1.6 5.56-2.4 8.92-2.4 1.85 0 3.68.24 5.47.72 1.8.48 3.42 1.11 4.88 1.89-.11.34-.24.84-.38 1.52-.14.67-.27 1.4-.38 2.19-.11.79-.22 1.59-.34 2.4-.11.81-.2 1.56-.25 2.23l-1.35-.08c-.62-.06-1.07-.15-1.35-.29-.28-.14-.5-.49-.67-1.05-.73-2.36-1.53-4-2.4-4.92-.86-.97-2.11-1.43-3.73-1.43zM250.13 49.02c.22-.95.39-1.77.5-2.44.11-.67.17-1.26.17-1.77 0-1.12-.45-1.68-1.35-1.68-.62 0-1.42.44-2.4 1.31-.98.87-2.06 2.01-3.24 3.41-1.18 1.4-2.37 2.99-3.58 4.76a63.739 63.739 0 0 0-3.33 5.43c-1.01 1.8-1.87 3.94-2.57 6.44-.7 2.5-1.05 4.73-1.05 6.69 0 .9.08 1.71.25 2.44-1.35.17-2.71.36-4.08.59-1.38.22-2.85.56-4.42 1.01-.96-.39-1.43-.9-1.43-1.52 0-.28.03-.57.08-.88.06-.31.11-.55.17-.72l8.33-41.93c.28-1.18.49-2.47.63-3.87s.21-2.58.21-3.54c0-.62-.25-.93-.76-.93-.56 0-1.25.07-2.06.21-.81.14-1.53.21-2.15.21-.51 0-.86-.22-1.05-.67-.2-.45-.29-1.01-.29-1.68 2.64-.79 5.23-1.56 7.79-2.32 2.55-.76 5.09-1.61 7.62-2.57 1.07.45 1.6 1.21 1.6 2.27 0 .22-.03.49-.08.8-.06.31-.11.58-.17.8l-7.33 33.85.25.08c1.23-2.02 2.54-4 3.92-5.94 1.38-1.94 2.82-3.66 4.34-5.18 1.51-1.52 3.1-2.72 4.76-3.62 1.66-.9 3.38-1.35 5.18-1.35 1.52 0 2.83.35 3.96 1.05 1.12.7 1.68 1.98 1.68 3.83 0 .67-.04 1.47-.13 2.4-.08.93-.24 1.92-.46 2.99l-4.04 19.28c-.17.67-.25 1.18-.25 1.52 0 .5.25.76.76.76.34 0 .74-.1 1.22-.29.48-.2.94-.42 1.39-.67.45-.25.87-.48 1.26-.67.39-.2.7-.29.93-.29.45 0 .8.24 1.05.72s.41.94.46 1.39c-.9.62-1.95 1.29-3.16 2.02s-2.44 1.4-3.7 2.02c-1.26.62-2.5 1.14-3.71 1.56-1.21.42-2.26.63-3.16.63-.96 0-1.75-.2-2.4-.59-.65-.39-.97-1.07-.97-2.02 0-.34.03-.66.08-.97.05-.31.11-.57.17-.8l4.56-21.56zM296.27 60.81l-.34-.08c-2.64 5.05-5.39 8.69-8.25 10.9-2.86 2.22-5.39 3.33-7.58 3.33-1.01 0-1.98-.13-2.9-.38a6.03 6.03 0 0 1-2.48-1.35c-.73-.64-1.32-1.5-1.77-2.57-.45-1.07-.67-2.41-.67-4.04 0-4.77.8-9.01 2.4-12.71 1.6-3.7 3.61-6.83 6.02-9.39 2.41-2.55 5.02-4.49 7.83-5.81 2.81-1.32 5.42-1.98 7.83-1.98 1.8 0 3.62.11 5.47.34 1.85.22 4.01.59 6.48 1.09l-5.64 28.46c-.06.28-.1.52-.13.72-.03.2-.04.35-.04.46 0 .5.25.76.76.76.34 0 .74-.1 1.22-.29.48-.2.94-.42 1.39-.67.45-.25.87-.48 1.26-.67.39-.2.7-.29.93-.29.45 0 .8.24 1.05.72s.41.94.46 1.39c-.9.62-1.95 1.29-3.16 2.02s-2.44 1.4-3.7 2.02c-1.26.62-2.5 1.14-3.71 1.56-1.21.42-2.26.63-3.16.63-.96 0-1.68-.2-2.19-.59-.5-.39-.76-1.07-.76-2.02 0-.62.14-1.4.42-2.36l2.96-9.2zm2.19-20.04c-.45-.11-.94-.22-1.47-.34-.53-.11-1.03-.17-1.47-.17-1.97 0-3.76.62-5.39 1.86-1.63 1.24-3.03 2.93-4.21 5.07s-2.09 4.67-2.74 7.6c-.65 2.93-.97 6.11-.97 9.54 0 1.52.13 2.7.38 3.55.25.84.83 1.27 1.73 1.27s1.88-.46 2.95-1.39c1.07-.93 2.13-2.17 3.2-3.71 1.07-1.55 2.09-3.31 3.07-5.28.98-1.97 1.85-4.01 2.61-6.12a44.91 44.91 0 0 0 1.77-6.25c.41-2.07.59-3.94.54-5.63z"/></svg>