<svg version="1.1" id="Capa_1" xmlns="http://www.w3.org/2000/svg" x="0" y="0" viewBox="0 0 716.55 144.64" xml:space="preserve"><style>.st1{fill:#fff}</style><path d="M73.94 31.2c4.67.09 7.86.48 9.57 1.17s2.75 1.76 3.12 3.21c.37 1.45.25 3.1-.36 4.96l-3.83 11.61H91c.74 2.29 1.1 4.76 1.1 7.4 0 1.73-.37 3.14-1.1 4.22-.74 1.08-2.05 1.62-3.96 1.62h-8.89L71.86 84.6h9.6c.73 2.29 1.1 4.76 1.1 7.4 0 1.73-.37 3.14-1.1 4.22-.74 1.08-2.06 1.62-3.96 1.62h-9.93L59.6 122.3c-4.67-.09-7.86-.48-9.57-1.17s-2.76-1.76-3.15-3.21c-.39-1.45-.26-3.1.39-4.96l4.93-15.12H36.3l-7.98 24.46c-4.67-.09-7.86-.48-9.57-1.17s-2.76-1.76-3.15-3.21c-.39-1.45-.26-3.1.39-4.96l4.93-15.12H12.1c-.74-2.72-1.1-5.02-1.1-6.88 0-2.33.39-3.98 1.17-4.93.78-.95 1.84-1.43 3.18-1.43h9.86l6.29-19.2h-9.86c-.74-2.73-1.1-5.02-1.1-6.88 0-2.34.39-3.98 1.17-4.93.78-.95 1.84-1.43 3.18-1.43h10.9l6.88-20.96c4.67.09 7.86.48 9.57 1.17s2.75 1.76 3.11 3.21c.37 1.45.25 3.1-.36 4.96l-3.83 11.61h15.9l6.88-20.95zM40.59 84.6h15.9l6.29-19.21h-15.9L40.59 84.6z" fill="#fcfcfb"/><path class="st1" d="M119.47 36.83c0-.37-.15-.56-.45-.56-.15 0-.37.07-.67.2-.3.13-.62.26-.95.39-.34.13-.64.26-.92.39s-.49.2-.64.2c-.22 0-.39-.11-.5-.34a3.54 3.54 0 0 1-.28-.78c.67-.41 1.45-.85 2.35-1.31.89-.47 1.76-.89 2.6-1.29.84-.39 1.58-.72 2.24-.98.65-.26 1.09-.39 1.31-.39.26 0 .48.07.67.2.19.13.28.38.28.75 0 .26-.04.54-.11.84l-1.68 7.88h.17c1.86-3.39 3.71-5.85 5.54-7.38 1.83-1.53 3.65-2.29 5.48-2.29.93 0 1.71.19 2.35.56.63.37 1.14.87 1.51 1.48.37.61.63 1.32.78 2.12.15.8.22 1.61.22 2.43 0 2.94-.51 5.57-1.54 7.88-1.03 2.31-2.3 4.28-3.83 5.9s-3.21 2.86-5.06 3.72c-1.85.86-3.57 1.29-5.17 1.29-.48 0-1.04-.03-1.68-.08-.63-.06-1.17-.14-1.62-.25l-.84 4.47c-.37 2.09-.56 3.63-.56 4.64 0 .56.2.84.62.84.3 0 .78-.05 1.45-.14.67-.09 1.17-.14 1.51-.14.22 0 .38.11.48.34.09.22.16.47.2.73-1.71.48-3.27.96-4.67 1.43s-2.79 1-4.17 1.59c-.3-.19-.5-.36-.62-.53a1.05 1.05 0 0 1-.17-.59c0-.19.04-.47.11-.84l6.21-31.54c.04-.19.06-.35.06-.5-.01-.15-.01-.26-.01-.34zm1 17.89c.41.22.95.4 1.62.53.67.13 1.25.2 1.73.2 1.53 0 2.91-.38 4.14-1.15 1.23-.76 2.28-1.83 3.16-3.19.88-1.36 1.56-2.95 2.04-4.78s.73-3.8.73-5.93c0-1.68-.24-2.84-.73-3.49-.48-.65-1.1-.98-1.84-.98-.71 0-1.47.34-2.29 1.01s-1.63 1.55-2.43 2.63c-.8 1.08-1.57 2.3-2.29 3.66-.73 1.36-1.38 2.74-1.96 4.14s-1.03 2.74-1.37 4.03c-.34 1.28-.51 2.39-.51 3.32zM154.25 32.36c1.38 0 2.58.23 3.61.7 1.02.47 1.85 1.12 2.49 1.96.63.84 1.11 1.84 1.43 2.99.32 1.16.47 2.4.47 3.75 0 2.68-.43 5.03-1.29 7.05-.86 2.01-1.95 3.68-3.27 5-1.32 1.32-2.81 2.31-4.45 2.96-1.64.65-3.24.98-4.81.98-1.31 0-2.41-.21-3.33-.61a5.404 5.404 0 0 1-2.21-1.79c-.56-.78-.96-1.74-1.2-2.88s-.36-2.41-.36-3.83c0-2.46.42-4.7 1.26-6.71.84-2.01 1.9-3.73 3.19-5.14 1.29-1.42 2.68-2.51 4.19-3.27 1.51-.78 2.94-1.16 4.28-1.16zm-4.42 23.2c1.12 0 2.15-.34 3.1-1.01.95-.67 1.77-1.6 2.46-2.8.69-1.19 1.22-2.6 1.59-4.22.37-1.62.56-3.4.56-5.34 0-2.35-.28-4.21-.84-5.59-.56-1.38-1.55-2.07-2.96-2.07-1.23 0-2.33.41-3.3 1.23-.97.82-1.78 1.88-2.43 3.19-.65 1.31-1.15 2.76-1.48 4.36-.33 1.6-.5 3.19-.5 4.75 0 2.46.29 4.32.87 5.59.57 1.28 1.55 1.91 2.93 1.91zM181.2 37.67c-.6 0-1.28.26-2.04.78s-1.53 1.23-2.29 2.12a26.717 26.717 0 0 0-4.17 6.85 25.96 25.96 0 0 0-1.34 4.05c-.34 1.38-.5 2.7-.5 3.97 0 .52.06 1.03.17 1.51-.75.08-1.5.19-2.26.34-.76.15-1.52.32-2.26.5-.33-.19-.5-.41-.5-.67 0-.22.04-.48.11-.78.07-.3.15-.54.22-.73.08-.19.15-.41.22-.67.08-.26.15-.63.22-1.12l2.46-12.69c.26-1.45.43-2.44.5-2.96s.13-.89.17-1.12c0-.48-.17-.73-.5-.73-.15 0-.36.06-.64.17s-.58.24-.89.39c-.32.15-.62.28-.89.39s-.49.17-.64.17c-.19 0-.34-.11-.47-.34-.13-.22-.23-.48-.31-.78.67-.41 1.46-.85 2.38-1.31.91-.47 1.79-.89 2.63-1.29.84-.39 1.58-.72 2.24-.98.65-.26 1.07-.39 1.26-.39.26 0 .48.07.67.2.19.13.28.34.28.64 0 .08-.01.21-.03.39-.02.19-.05.37-.08.56l-1.79 8.39h.22c2.01-3.58 3.85-6.17 5.51-7.77 1.66-1.6 3.29-2.4 4.89-2.4.34 0 .64.06.92.17s.48.22.59.34c-.33.86-.63 1.75-.89 2.68-.26.93-.47 1.98-.62 3.13h-.89c-.41-.68-.96-1.01-1.66-1.01zM225.38 92.87c.3-1.42.45-2.55.45-3.41 0-.48-.06-.99-.17-1.51.71-.11 1.45-.22 2.24-.34.78-.11 1.57-.28 2.35-.5.3.22.45.45.45.67a6.76 6.76 0 0 1-.11 1.01l-.95 5.03h5.76c-.11.33-.22.75-.34 1.23-.11.49-.21.93-.28 1.34-.93-.17-1.88-.29-2.85-.37-.97-.08-1.88-.14-2.74-.19l-3.08 17.49c-.11.56-.17.95-.17 1.18 0 .9.54 1.35 1.62 1.35.56 0 1.07-.07 1.54-.2s.88-.29 1.26-.47c.34-.15.62-.29.87-.42.24-.13.44-.2.59-.2.41 0 .65.35.73 1.06-1.16.89-2.41 1.6-3.77 2.13-1.36.52-2.64.78-3.83.78-1.34 0-2.29-.21-2.85-.64-.56-.43-.84-1.07-.84-1.93 0-.41.04-.8.11-1.18l3.52-19.11h-4.08c.08-.62.2-1.08.36-1.38.17-.31.46-.46.87-.46h3.19l.15-.96zM242.21 113.28c-.04.15-.08.34-.11.59-.04.24-.06.42-.06.53 0 .45.22.67.67.67.26 0 .53-.06.81-.2.28-.13.56-.28.84-.45.28-.17.53-.32.75-.45.22-.13.41-.2.56-.2.37 0 .63.37.78 1.12-.63.48-1.31.94-2.04 1.37-.73.43-1.43.81-2.1 1.15s-1.31.61-1.9.81c-.6.21-1.08.31-1.45.31-.41 0-.8-.08-1.17-.25-.37-.17-.56-.57-.56-1.2 0-.11.02-.31.06-.59.04-.28.07-.48.11-.59.82-3.99 1.47-7.17 1.96-9.53s.85-4.17 1.09-5.42l.48-2.49c.07-.41.11-.65.11-.73 0-.45-.17-.67-.5-.67-.15 0-.37.07-.67.2-.3.13-.62.26-.95.39-.33.13-.64.26-.92.39s-.5.2-.64.2c-.22 0-.39-.11-.5-.33a3.54 3.54 0 0 1-.28-.78 106.234 106.234 0 0 1 4.95-2.57c.84-.41 1.58-.75 2.24-1.01.65-.26 1.09-.39 1.31-.39.63 0 .95.32.95.95 0 .26-.04.54-.11.84l-3.71 18.33zm5.81-32.49c.97.19 1.76.51 2.38.98.62.47.92.96.92 1.48 0 .6-.39 1.14-1.17 1.62-.75.45-1.43.88-2.04 1.29s-1.23.83-1.84 1.26c-.62.43-1.27.9-1.96 1.43-.69.52-1.45 1.12-2.26 1.79-.26-.19-.47-.35-.62-.5-.15-.15-.22-.35-.22-.61 0-.22.09-.45.28-.67l6.53-8.07zM248.13 125.52c-.56-.34-.84-.73-.84-1.17 0-.34.19-.65.56-.95 1.34-1.12 2.28-2.1 2.82-2.94.54-.84.81-1.57.81-2.21 0-.45-.13-.83-.39-1.15-.26-.32-.54-.61-.84-.87-.3-.26-.58-.51-.84-.76-.26-.24-.39-.53-.39-.87 0-.97 1.03-2.05 3.08-3.24 1.08.56 1.97 1.28 2.66 2.15a4.71 4.71 0 0 1 1.04 2.99c0 1.23-.56 2.63-1.68 4.19-1.12 1.59-3.12 3.19-5.99 4.83zM210.52 58.48c-1.7 0-3.16.03-4.38.1s-2.4.15-3.53.24c-.09-.46-.13-.9-.13-1.32 0-.32.08-.54.23-.66.15-.11.32-.2.49-.24 1.4-.28 2.35-.58 2.88-.9.52-.32.79-.83.79-1.52V35.9c0-1.38-.22-2.45-.65-3.19-.44-.74-1.46-1.18-3.07-1.32-.57-.09-.85-.46-.85-1.11v-.52c0-.21.04-.4.13-.59.26 0 .64-.01 1.14-.03.5-.02 1.04-.05 1.6-.07.57-.02 1.13-.06 1.7-.1.57-.05 1.09-.09 1.57-.14 1.09-.14 2.14-.32 3.14-.55 1-.23 1.68-.35 2.03-.35.7 0 1.05.35 1.05 1.04 0 .51-.07 1.18-.2 2.01s-.2 1.99-.2 3.46v19.74c0 .69.28 1.2.85 1.52.57.32 1.5.62 2.81.9.48.09.72.39.72.9v.69c0 .23-.04.44-.13.62-1.09-.09-2.27-.17-3.53-.24-1.28-.05-2.76-.09-4.46-.09zm-4.78-40.65c0-1.48.45-2.69 1.34-3.64.89-.95 2.02-1.42 3.37-1.42 1.4 0 2.53.47 3.4 1.42.87.95 1.31 2.16 1.31 3.64s-.44 2.69-1.31 3.64c-.87.95-2.01 1.42-3.4 1.42-1.35 0-2.48-.47-3.37-1.42-.89-.95-1.34-2.17-1.34-3.64zM252.51 54.26c0 .65.26 1.14.79 1.49.52.35 1.48.64 2.88.87.17.05.34.13.49.24.15.12.23.34.23.66 0 .28-.01.52-.03.73-.02.21-.05.4-.1.59-1.13-.09-2.27-.17-3.4-.24s-2.55-.1-4.25-.1c-1.4 0-2.71.03-3.92.1-1.22.07-2.4.15-3.53.24-.09-.23-.13-.67-.13-1.32 0-.51.24-.81.72-.9 1.13-.23 1.9-.51 2.29-.83.39-.32.59-.83.59-1.52V40.68c0-2.72-.32-4.61-.95-5.64-.63-1.04-1.65-1.56-3.04-1.56-1.96 0-3.64.7-5.04 2.11s-2.09 3.5-2.09 6.27v12.4c0 .69.2 1.2.59 1.52.39.32 1.16.6 2.29.83.48.09.72.39.72.9 0 .65-.04 1.08-.13 1.32-1.13-.09-2.31-.17-3.53-.24s-2.53-.1-3.92-.1c-1.7 0-3.13.03-4.28.1-1.16.07-2.28.15-3.37.24-.04-.19-.08-.38-.1-.59a7.75 7.75 0 0 1-.03-.73c0-.32.08-.54.23-.66.15-.11.32-.2.49-.24 1.4-.28 2.35-.58 2.88-.9.52-.32.79-.83.79-1.52V35.9c0-1.38-.24-2.45-.72-3.19-.48-.74-1.48-1.18-3.01-1.32-.57-.14-.85-.51-.85-1.11v-.52c0-.21.04-.4.13-.59.26 0 .64-.01 1.14-.03.5-.02 1.04-.05 1.6-.07.57-.02 1.13-.06 1.7-.1.57-.05 1.09-.09 1.57-.14 1.09-.14 2.14-.32 3.14-.55 1-.23 1.68-.35 2.03-.35.7 0 1.05.35 1.05 1.04 0 .51-.07 1.18-.2 2.01s-.2 1.99-.2 3.46c1.4-1.94 2.94-3.51 4.64-4.71 1.7-1.2 3.47-1.8 5.3-1.8 2.66 0 4.75.79 6.28 2.35 1.53 1.57 2.29 3.93 2.29 7.06v16.92zM277.7 53.98c.44-.28.81-.42 1.11-.42.44 0 .89.48 1.37 1.45-1.83 1.76-3.43 2.91-4.81 3.46s-2.82.83-4.35.83c-.87 0-1.71-.12-2.52-.35-.81-.23-1.54-.65-2.19-1.25-.65-.6-1.18-1.42-1.57-2.46-.39-1.04-.59-2.37-.59-3.98V32.23h-3.92V30.5c0-.18.04-.42.13-.69.09-.28.35-.42.79-.42 1.18 0 2.27-.36 3.27-1.07 1-.72 1.81-1.79 2.42-3.22.48-1.06 1.01-1.92 1.6-2.56.59-.65 1.17-.97 1.73-.97h1.37v7.2h7.65c0 1.48-.1 2.42-.29 2.84s-.56.62-1.08.62h-6.28v17.11c0 1.39.04 2.48.13 3.29s.23 1.42.43 1.83.46.68.79.8.71.17 1.14.17c.48 0 1.05-.13 1.7-.38.66-.25 1.31-.61 1.97-1.07zM307.47 52.11c.39-.32.74-.48 1.04-.48.22 0 .47.1.75.31s.58.61.88 1.21c-1.7 2.12-3.65 3.68-5.85 4.68-2.2.99-4.81 1.49-7.82 1.49-1.7 0-3.37-.29-5-.87-1.64-.58-3.11-1.48-4.42-2.7-1.31-1.22-2.37-2.76-3.17-4.61-.81-1.85-1.21-4.06-1.21-6.65 0-2.54.47-4.84 1.41-6.89s2.13-3.8 3.57-5.23c1.44-1.43 3.01-2.53 4.71-3.29 1.7-.76 3.34-1.14 4.91-1.14 4.23 0 7.42 1.29 9.58 3.88s3.24 6.12 3.24 10.6c0 .32-.15.48-.46.48l-18.71.83c0 3.6.76 6.36 2.28 8.28 1.52 1.92 3.8 2.87 6.85 2.87 1.35 0 2.67-.23 3.98-.69a10.01 10.01 0 0 0 3.44-2.08zm-11.16-21.12c-1.69 0-3.05.77-4.06 2.32-1.02 1.55-1.53 3.98-1.53 7.31l10.15-.48c.65-.05.97-.35.97-.9 0-.88-.11-1.8-.32-2.77-.22-.97-.55-1.86-1.01-2.67a6.603 6.603 0 0 0-1.72-2.01c-.71-.54-1.53-.8-2.48-.8zM318.84 57.3c-.87-.51-1.54-1.2-2-2.08-.46-.88-.69-1.85-.69-2.91 0-1.48.33-2.65.98-3.53.65-.88 1.68-1.78 3.08-2.7-1.13-.78-2.14-1.79-3.01-3.01-.87-1.22-1.31-2.81-1.31-4.74 0-1.48.32-2.85.95-4.12.63-1.27 1.47-2.37 2.52-3.29 1.05-.92 2.27-1.65 3.66-2.18 1.4-.53 2.88-.8 4.45-.8 2.14 0 3.96.34 5.46 1 1.5.67 2.69 1.35 3.57 2.04l6.41-3.32c.52.37.93.87 1.21 1.49.28.62.43 1.21.43 1.77 0 .46-.09.84-.26 1.14-.17.3-.5.45-.98.45-.17 0-.44-.01-.79-.03-.35-.02-.63-.03-.85-.03-.48 0-.96.03-1.44.1s-1.09.22-1.83.45c1.05 1.43 1.57 3.19 1.57 5.26 0 2.82-1.06 5.15-3.17 7-2.12 1.85-5.22 2.77-9.32 2.77-.92 0-1.79-.06-2.62-.17-.83-.11-1.61-.31-2.36-.59-.87.51-1.48 1-1.83 1.49-.35.48-.52.91-.52 1.28s.09.69.26.97.52.51 1.05.69c.52.19 1.28.34 2.26.45.98.12 2.28.17 3.89.17 2.18 0 4.19.2 6.02.59 1.83.39 3.41 1 4.74 1.84 1.33.83 2.37 1.9 3.11 3.22s1.11 2.9 1.11 4.74c0 1.66-.32 3.24-.95 4.74-.63 1.5-1.58 2.82-2.85 3.95-1.27 1.13-2.85 2.03-4.74 2.7-1.9.67-4.11 1-6.64 1-1.96 0-3.77-.17-5.43-.52s-3.08-.91-4.28-1.7c-1.2-.79-2.14-1.8-2.81-3.05-.68-1.25-1.01-2.79-1.01-4.64 0-1.8.49-3.36 1.47-4.67.97-1.31 2.14-2.39 3.49-3.22zm1.96 1.32c-.48.65-.8 1.36-.95 2.15-.15.78-.23 1.64-.23 2.56 0 1.06.16 2.09.49 3.08.33.99.86 1.87 1.6 2.63.74.76 1.7 1.38 2.88 1.87 1.18.48 2.59.73 4.25.73 2.7 0 4.68-.67 5.92-2.01 1.24-1.34 1.86-2.96 1.86-4.85 0-1.38-.68-2.55-2.03-3.5-1.35-.95-3.64-1.42-6.87-1.42-1.13 0-2.36-.12-3.66-.35-1.3-.22-2.39-.52-3.26-.89zm7.33-13.64c1.26 0 2.32-.46 3.17-1.39.85-.92 1.28-2.4 1.28-4.43 0-1.02-.06-2.01-.16-2.98-.11-.97-.36-1.84-.75-2.6s-.95-1.39-1.67-1.87-1.67-.73-2.85-.73-2.16.51-2.94 1.52c-.79 1.02-1.18 2.4-1.18 4.16 0 1.06.05 2.09.16 3.08.11.99.35 1.87.72 2.63.37.76.88 1.39 1.54 1.87.65.49 1.54.74 2.68.74zM368.1 28.01c1.26 0 2.21.35 2.85 1.04.63.69.95 1.57.95 2.63 0 .32-.05.6-.16.83-.11.23-.35.48-.72.76s-.88.59-1.54.94-1.5.77-2.55 1.28c-.7-.74-1.34-1.23-1.93-1.49-.59-.25-1.17-.38-1.73-.38-.52 0-1.04.09-1.54.28-.5.19-.95.54-1.34 1.07-.39.53-.71 1.24-.95 2.11-.24.88-.36 2.01-.36 3.39v12.88c0 .92.35 1.6 1.05 2.04.7.44 2.07.84 4.12 1.21.48.09.72.39.72.9 0 .65-.04 1.08-.13 1.32-.57-.05-1.27-.08-2.09-.1-.83-.02-1.7-.06-2.62-.1a107.735 107.735 0 0 0-5.1-.13c-1.66 0-3.07.03-4.25.1-1.18.07-2.29.15-3.34.24-.09-.23-.13-.67-.13-1.32 0-.51.24-.81.72-.9 1.4-.28 2.35-.58 2.88-.9.52-.32.79-.83.79-1.52V35.56c0-1.06-.19-1.92-.56-2.56-.37-.65-1.41-1.08-3.11-1.32-.61-.09-.92-.44-.92-1.04v-.55c0-.23.04-.42.13-.55.26 0 .63-.01 1.11-.03.48-.02 1-.05 1.57-.07.57-.02 1.13-.06 1.7-.1.57-.05 1.07-.11 1.5-.21.96-.14 1.95-.31 2.98-.52 1.02-.21 1.71-.31 2.06-.31.61 0 .92.35.92 1.04v3.74c1.53-1.75 2.99-3.04 4.38-3.84 1.39-.83 2.93-1.23 4.64-1.23zM402.44 56.33c.65 0 .98.58.98 1.73-.57.42-1.28.73-2.13.94-.85.21-1.71.31-2.58.31-1.96 0-3.47-.51-4.51-1.52-1.05-1.02-1.66-2.19-1.83-3.53-.87 1.85-2.04 3.15-3.5 3.91-1.46.76-3.17 1.14-5.13 1.14-.92 0-1.93-.08-3.04-.24-1.11-.16-2.14-.5-3.07-1-.94-.51-1.73-1.22-2.39-2.15-.65-.92-.98-2.15-.98-3.67 0-1.71.41-3.16 1.24-4.36.83-1.2 1.86-2.2 3.11-3.01 1.24-.81 2.6-1.45 4.09-1.94 1.48-.48 2.88-.89 4.19-1.21.57-.14 1.16-.29 1.77-.45.61-.16 1.09-.29 1.44-.38.48-.14.79-.33.92-.59.13-.25.2-.91.2-1.97 0-2.35-.33-4.17-.98-5.44-.65-1.27-1.77-1.9-3.34-1.9-1.27 0-2.17.42-2.71 1.25-.55.83-1.06 2.15-1.54 3.95-.13.51-.51.89-1.14 1.14-.63.25-1.43.52-2.39.8-.52.14-1.06.25-1.6.35-.55.09-1.04.14-1.47.14-.26 0-.44-.1-.52-.31-.09-.21-.13-.61-.13-1.21 0-1.15.4-2.29 1.21-3.39.81-1.11 1.82-2.09 3.04-2.94 1.22-.85 2.56-1.53 4.02-2.04 1.46-.51 2.87-.76 4.22-.76 1.61 0 3.07.15 4.38.45 1.31.3 2.43.83 3.37 1.59s1.67 1.77 2.19 3.04.79 2.89.79 4.87v12.16c0 1.61.03 2.79.1 3.52s.18 1.29.36 1.66c.39.83 1 1.24 1.83 1.24.35 0 .64-.02.88-.07.2-.08.43-.11.65-.11zm-11.25-12.95l-1.44.28c-1 .19-1.94.45-2.81.8-.87.35-1.63.81-2.26 1.39-.63.58-1.13 1.29-1.5 2.15-.37.85-.56 1.88-.56 3.08 0 1.8.27 3.06.82 3.77.54.72 1.34 1.07 2.39 1.07 1.66 0 2.97-.65 3.92-1.94.96-1.29 1.44-3.09 1.44-5.4v-5.2zM419.71 30.99c-1.83 0-3.21.96-4.12 2.87-.92 1.92-1.37 4.49-1.37 7.72 0 4.62.79 7.99 2.39 10.11 1.59 2.12 3.83 3.19 6.71 3.19 1.05 0 2.08-.13 3.11-.38 1.02-.25 2.15-.8 3.37-1.63.44-.28.83-.42 1.18-.42s.63.15.85.45c.22.3.46.77.72 1.42-1.44 1.38-3.15 2.56-5.14 3.53-1.98.97-4.42 1.45-7.29 1.45-1.92 0-3.74-.3-5.46-.9-1.72-.6-3.23-1.52-4.51-2.77-1.29-1.25-2.3-2.81-3.04-4.68-.74-1.87-1.11-4.07-1.11-6.61 0-2.45.45-4.67 1.34-6.68.89-2.01 2.04-3.74 3.43-5.19 1.4-1.45 2.96-2.57 4.71-3.36 1.74-.78 3.44-1.18 5.1-1.18 2.09 0 3.88.25 5.36.76 1.48.51 2.69 1.14 3.63 1.9s1.62 1.57 2.06 2.42c.44.85.65 1.63.65 2.32 0 .37-.32.67-.95.9-.63.23-1.34.4-2.13.52-.78.12-1.54.19-2.26.21-.72.02-1.19.03-1.41.03-.39 0-.71-.13-.95-.38s-.4-.52-.49-.8c-.22-.6-.44-1.19-.65-1.77-.22-.58-.47-1.1-.75-1.56-.28-.46-.67-.83-1.15-1.11-.48-.25-1.09-.38-1.83-.38zM444.11 58.48c-1.7 0-3.16.03-4.38.1-1.22.07-2.4.15-3.53.24-.09-.46-.13-.9-.13-1.32 0-.32.08-.54.23-.66.15-.11.32-.2.49-.24 1.39-.28 2.35-.58 2.88-.9.52-.32.79-.83.79-1.52V35.9c0-1.38-.22-2.45-.65-3.19-.44-.74-1.46-1.18-3.07-1.32-.57-.09-.85-.46-.85-1.11v-.52c0-.21.04-.4.13-.59.26 0 .64-.01 1.14-.03.5-.02 1.04-.05 1.6-.07.57-.02 1.13-.06 1.7-.1.57-.05 1.09-.09 1.57-.14 1.09-.14 2.14-.32 3.14-.55 1-.23 1.68-.35 2.03-.35.7 0 1.05.35 1.05 1.04 0 .51-.07 1.18-.2 2.01s-.2 1.99-.2 3.46v19.74c0 .69.28 1.2.85 1.52.57.32 1.5.62 2.81.9.48.09.72.39.72.9v.69c0 .23-.04.44-.13.62-1.09-.09-2.27-.17-3.53-.24-1.28-.05-2.76-.09-4.46-.09zm-4.78-40.65c0-1.48.45-2.69 1.34-3.64.89-.95 2.02-1.42 3.37-1.42 1.39 0 2.53.47 3.4 1.42.87.95 1.31 2.16 1.31 3.64s-.44 2.69-1.31 3.64c-.87.95-2.01 1.42-3.4 1.42-1.35 0-2.48-.47-3.37-1.42-.89-.95-1.34-2.17-1.34-3.64zM455.94 43.66c0-2.26.38-4.35 1.14-6.27.76-1.92 1.82-3.58 3.17-4.99 1.35-1.41 2.96-2.5 4.84-3.29 1.87-.78 3.92-1.18 6.15-1.18 2.31 0 4.4.39 6.28 1.18 1.87.79 3.49 1.88 4.84 3.29 1.35 1.41 2.39 3.07 3.11 4.99.72 1.92 1.08 4.01 1.08 6.27s-.38 4.35-1.15 6.27c-.76 1.92-1.83 3.57-3.21 4.95-1.37 1.39-3 2.47-4.87 3.26-1.88.78-3.92 1.18-6.15 1.18-2.31 0-4.41-.39-6.28-1.18-1.88-.78-3.48-1.87-4.81-3.26-1.33-1.38-2.36-3.04-3.08-4.95-.7-1.92-1.06-4.01-1.06-6.27zm8.25-1.39c0 4.25.66 7.64 2 10.18 1.33 2.54 3.24 3.81 5.72 3.81 2.31 0 3.96-.98 4.94-2.94.98-1.96 1.47-4.72 1.47-8.28 0-4.2-.68-7.59-2.03-10.18-1.35-2.59-3.25-3.88-5.69-3.88-2.31 0-3.96 1-4.94 3.01-.98 2.02-1.47 4.78-1.47 8.28zm8.11-30.47c1.7 0 3 .42 3.89 1.25.89.83 1.34 1.71 1.34 2.63 0 .92-.42 1.62-1.24 2.08-.79.51-1.52.97-2.19 1.39-.68.42-1.35.88-2.03 1.39-.68.51-1.38 1.07-2.13 1.7-.74.62-1.59 1.35-2.55 2.18-.57-.23-.95-.48-1.14-.76-.2-.28-.29-.55-.29-.83 0-.28.07-.53.2-.76l6.14-10.27zM521.16 54.26c0 .65.26 1.14.79 1.49.52.35 1.48.64 2.88.87.17.05.34.13.49.24.15.12.23.34.23.66 0 .28-.01.52-.03.73-.02.21-.05.4-.1.59-1.13-.09-2.27-.17-3.4-.24s-2.55-.1-4.25-.1c-1.4 0-2.71.03-3.92.1-1.22.07-2.4.15-3.53.24-.09-.23-.13-.67-.13-1.32 0-.51.24-.81.72-.9 1.13-.23 1.9-.51 2.29-.83.39-.32.59-.83.59-1.52V40.68c0-2.72-.32-4.61-.95-5.64-.63-1.04-1.65-1.56-3.04-1.56-1.96 0-3.64.7-5.04 2.11s-2.09 3.5-2.09 6.27v12.4c0 .69.2 1.2.59 1.52.39.32 1.16.6 2.29.83.48.09.72.39.72.9 0 .65-.04 1.08-.13 1.32-1.13-.09-2.31-.17-3.53-.24s-2.53-.1-3.92-.1c-1.7 0-3.13.03-4.28.1-1.16.07-2.28.15-3.37.24-.04-.19-.08-.38-.1-.59a7.75 7.75 0 0 1-.03-.73c0-.32.08-.54.23-.66.15-.11.32-.2.49-.24 1.4-.28 2.35-.58 2.88-.9.52-.32.79-.83.79-1.52V35.9c0-1.38-.24-2.45-.72-3.19-.48-.74-1.48-1.18-3.01-1.32-.57-.14-.85-.51-.85-1.11v-.52c0-.21.04-.4.13-.59.26 0 .64-.01 1.14-.03.5-.02 1.04-.05 1.6-.07.57-.02 1.13-.06 1.7-.1.57-.05 1.09-.09 1.57-.14 1.09-.14 2.14-.32 3.14-.55 1-.23 1.68-.35 2.03-.35.7 0 1.05.35 1.05 1.04 0 .51-.07 1.18-.2 2.01s-.2 1.99-.2 3.46c1.4-1.94 2.94-3.51 4.64-4.71 1.7-1.2 3.47-1.8 5.3-1.8 2.66 0 4.75.79 6.28 2.35 1.53 1.57 2.29 3.93 2.29 7.06v16.92z"/><g><path class="st1" d="M400.56 118.51c-3.66 0-6.87-.6-9.62-1.8-2.75-1.2-5.02-2.85-6.8-4.95-1.79-2.1-3.13-4.57-4.02-7.41-.89-2.84-1.34-5.9-1.34-9.18 0-2.72.44-5.47 1.31-8.24.87-2.77 2.25-5.27 4.12-7.51 1.88-2.24 4.27-4.06 7.2-5.47 2.92-1.41 6.41-2.11 10.47-2.11 2.22 0 4.31.16 6.25.48 1.94.32 4.04.81 6.31 1.45.09 1.25.26 2.84.52 4.78.26 1.94.63 3.83 1.11 5.68-.22.05-.5.1-.85.17s-.61.1-.79.1c-.35 0-.64-.06-.88-.17-.24-.11-.4-.36-.49-.73-.48-1.52-1.03-2.8-1.63-3.84-.61-1.04-1.34-1.87-2.19-2.49-.85-.62-1.84-1.07-2.98-1.35-1.13-.28-2.46-.42-3.99-.42-2.36 0-4.44.43-6.25 1.28-1.81.85-3.33 2.08-4.55 3.67s-2.15 3.51-2.78 5.75c-.63 2.24-.95 4.77-.95 7.58 0 3 .38 5.79 1.15 8.38.76 2.59 1.81 4.83 3.14 6.72 1.33 1.89 2.91 3.37 4.74 4.43 1.83 1.06 3.82 1.59 5.95 1.59 1.74 0 3.24-.17 4.48-.52 1.24-.35 2.31-.88 3.21-1.59.89-.71 1.66-1.63 2.29-2.73.63-1.11 1.21-2.4 1.73-3.88.13-.37.34-.63.62-.8.28-.16.58-.24.88-.24.22 0 .49.04.82.1.33.07.6.15.82.24-.26.79-.53 1.67-.82 2.67-.28.99-.58 2.01-.88 3.05-.31 1.04-.58 2.08-.82 3.12s-.45 2.04-.62 3.01c-2.14.42-4.32.71-6.54.9-2.23.18-4.67.28-7.33.28zM436.87 118.02c-1.13-.09-2.31-.17-3.53-.24s-2.53-.1-3.92-.1c-1.7 0-3.13.04-4.28.1-1.16.07-2.28.15-3.37.24-.09-.46-.13-.9-.13-1.32 0-.32.08-.54.23-.66.15-.12.32-.2.49-.24 1.4-.23 2.35-.52 2.88-.87s.79-.87.79-1.56V77.09c0-1.39-.22-2.44-.65-3.15-.44-.72-1.46-1.14-3.07-1.28-.57-.09-.85-.46-.85-1.11v-.52c0-.21.04-.4.13-.59.26 0 .64-.01 1.14-.03.5-.02 1.04-.05 1.6-.07.57-.02 1.13-.06 1.7-.1.57-.05 1.09-.09 1.57-.14 1.09-.14 2.14-.32 3.14-.55 1-.23 1.68-.35 2.03-.35.7 0 1.05.35 1.05 1.04 0 .51-.07 1.17-.2 1.97-.13.81-.2 1.95-.2 3.43v17.94c1.4-1.94 2.94-3.5 4.64-4.67 1.7-1.18 3.47-1.77 5.3-1.77 2.66 0 4.75.79 6.28 2.35 1.53 1.57 2.29 3.93 2.29 7.06v16.9c0 .65.25 1.13.75 1.46.5.32 1.47.62 2.91.9.17.05.34.13.49.24.15.12.23.34.23.66 0 .42-.04.85-.13 1.32-1.13-.09-2.27-.17-3.4-.24s-2.55-.1-4.25-.1c-1.4 0-2.71.04-3.92.1-1.22.07-2.4.15-3.53.24-.09-.18-.13-.39-.13-.62v-.69c0-.51.24-.81.72-.9 1.18-.23 1.95-.51 2.32-.83.37-.32.56-.83.56-1.52v-13.6c0-2.72-.32-4.61-.95-5.64-.63-1.04-1.65-1.56-3.04-1.56-1.96 0-3.64.71-5.04 2.11-1.4 1.41-2.09 3.5-2.09 6.27v12.4c0 .69.17 1.2.52 1.52.35.32 1.13.6 2.36.83.48.09.72.39.72.9v.69c-.03.24-.08.45-.16.63zM467.81 117.67c-1.7 0-3.16.04-4.38.1s-2.4.15-3.53.24c-.09-.46-.13-.9-.13-1.32 0-.32.08-.54.23-.66.15-.12.32-.2.49-.24 1.4-.28 2.35-.58 2.88-.9.52-.32.79-.83.79-1.52V95.1c0-1.38-.22-2.45-.65-3.19-.44-.74-1.46-1.18-3.07-1.32-.57-.09-.85-.46-.85-1.11v-.52c0-.21.04-.4.13-.59.26 0 .64-.01 1.14-.04s1.04-.04 1.6-.07c.57-.02 1.13-.06 1.7-.1.57-.04 1.09-.09 1.57-.14 1.09-.14 2.14-.32 3.14-.55 1-.23 1.68-.35 2.03-.35.7 0 1.05.35 1.05 1.04 0 .51-.07 1.18-.2 2.01-.13.83-.2 1.98-.2 3.46v19.74c0 .69.28 1.2.85 1.52.57.32 1.5.62 2.81.9.48.09.72.39.72.9v.69c0 .23-.04.44-.13.62-1.09-.09-2.27-.17-3.53-.24-1.28-.05-2.76-.09-4.46-.09zm-4.78-40.65c0-1.48.45-2.69 1.34-3.64.89-.95 2.02-1.42 3.37-1.42 1.4 0 2.53.47 3.4 1.42.87.95 1.31 2.16 1.31 3.64s-.44 2.69-1.31 3.64c-.87.95-2.01 1.42-3.4 1.42-1.35 0-2.48-.47-3.37-1.42-.89-.95-1.34-2.16-1.34-3.64zM495.54 118.02c-1.13-.09-2.43-.17-3.89-.24-1.46-.07-2.82-.1-4.09-.1-1.4 0-2.78.04-4.15.1-1.37.07-2.63.15-3.76.24-.04-.18-.08-.38-.1-.59a7.75 7.75 0 0 1-.03-.73c0-.32.08-.54.23-.66.15-.12.32-.2.49-.24 1.4-.28 2.35-.58 2.88-.9.52-.32.79-.83.79-1.52V77.09c0-1.39-.24-2.44-.72-3.15-.48-.72-1.48-1.14-3.01-1.28-.57-.14-.85-.51-.85-1.11V71c0-.23.04-.42.13-.55.26 0 .64-.01 1.14-.03.5-.02 1.04-.05 1.6-.07.57-.02 1.13-.06 1.7-.1.57-.05 1.09-.09 1.57-.14 1.09-.14 2.14-.32 3.14-.55 1-.23 1.68-.35 2.03-.35.7 0 1.05.35 1.05 1.04 0 .51-.07 1.17-.2 1.97-.13.81-.2 1.95-.2 3.43v37.75c0 .69.26 1.2.79 1.52.52.32 1.48.62 2.88.9.48.09.72.39.72.9-.01.63-.05 1.07-.14 1.3zM524.13 111.3c.39-.32.74-.48 1.04-.48.22 0 .47.1.75.31s.58.61.88 1.21c-1.7 2.12-3.65 3.68-5.85 4.67-2.2.99-4.81 1.49-7.82 1.49-1.7 0-3.37-.29-5-.87-1.64-.58-3.11-1.48-4.42-2.7-1.31-1.22-2.37-2.76-3.17-4.61s-1.21-4.06-1.21-6.65c0-2.54.47-4.84 1.41-6.89s2.13-3.8 3.57-5.23c1.44-1.43 3.01-2.53 4.71-3.29 1.7-.76 3.34-1.14 4.91-1.14 4.23 0 7.42 1.29 9.58 3.88s3.24 6.12 3.24 10.6c0 .32-.15.49-.46.49l-18.71.83c0 3.6.76 6.36 2.28 8.28 1.52 1.92 3.8 2.87 6.85 2.87 1.35 0 2.67-.23 3.98-.69a9.768 9.768 0 0 0 3.44-2.08zm-11.16-21.12c-1.69 0-3.05.77-4.06 2.32-1.02 1.55-1.53 3.98-1.53 7.31l10.15-.48c.65-.05.97-.35.97-.9 0-.88-.11-1.8-.32-2.77-.22-.97-.55-1.86-1.01-2.67a6.603 6.603 0 0 0-1.72-2.01c-.7-.54-1.52-.8-2.48-.8z"/></g><g><path class="st1" d="M560.36 36.94c-.35 0-.6-.08-.75-.24-.15-.16-.25-.33-.29-.52-.31-1.89-1.01-3.24-2.13-4.05-1.11-.81-2.5-1.21-4.15-1.21-1.27 0-2.39.38-3.37 1.14-.98.76-1.47 1.81-1.47 3.15 0 1.2.45 2.21 1.34 3.01.89.81 2.52 1.6 4.87 2.39 1.26.42 2.43.88 3.5 1.39 1.07.51 1.98 1.12 2.75 1.84.76.72 1.36 1.59 1.8 2.63.44 1.04.65 2.27.65 3.71 0 1.2-.21 2.35-.62 3.46a7.942 7.942 0 0 1-1.9 2.91c-.85.83-1.92 1.5-3.21 2.01-1.29.51-2.82.76-4.61.76-1.4 0-2.96-.17-4.68-.52-1.72-.35-3.28-.94-4.68-1.77-.09-1.2-.16-2.46-.23-3.77s-.1-2.64-.1-3.98h.65c.44 0 .81.08 1.11.24.3.16.48.43.52.8.17 1.94.88 3.5 2.13 4.67s2.98 1.77 5.2 1.77c1.79 0 3.16-.43 4.12-1.28.96-.85 1.44-2.02 1.44-3.5 0-1.52-.52-2.69-1.57-3.5s-2.59-1.53-4.64-2.18c-2.57-.83-4.59-1.92-6.05-3.25-1.46-1.34-2.19-3.3-2.19-5.89 0-1.2.22-2.33.65-3.39a8.575 8.575 0 0 1 1.83-2.77c.79-.78 1.74-1.41 2.88-1.87 1.13-.46 2.4-.69 3.79-.69 1.74 0 3.39.24 4.94.73s2.76 1 3.63 1.56c.04.37.09.82.13 1.35.04.53.08 1.09.1 1.66.02.58.04 1.15.07 1.73.02.58.03 1.1.03 1.56l-1.49-.09zM568.01 43.87c0-2.12.38-4.13 1.14-6.03.76-1.89 1.8-3.53 3.11-4.92s2.85-2.48 4.61-3.29c1.77-.81 3.67-1.21 5.72-1.21 2.14 0 4.1.38 5.89 1.14 1.79.76 3.33 1.81 4.61 3.15 1.29 1.34 2.29 2.97 3.01 4.88.72 1.92 1.08 4.01 1.08 6.27 0 2.17-.38 4.19-1.14 6.06-.76 1.87-1.8 3.5-3.11 4.88a14.876 14.876 0 0 1-4.61 3.29c-1.77.81-3.67 1.21-5.72 1.21-2.14 0-4.1-.38-5.89-1.14-1.79-.76-3.33-1.81-4.61-3.15-1.29-1.34-2.29-2.95-3.01-4.85-.72-1.88-1.08-3.98-1.08-6.29zm6.15-2.29c0 1.71.17 3.46.52 5.26.35 1.8.88 3.43 1.6 4.88.72 1.45 1.65 2.66 2.78 3.6 1.13.95 2.51 1.42 4.12 1.42 2.49 0 4.42-.92 5.79-2.77s2.06-4.22 2.06-7.13c0-1.71-.16-3.5-.49-5.37-.33-1.87-.85-3.58-1.57-5.13-.72-1.55-1.66-2.83-2.81-3.84-1.16-1.02-2.58-1.52-4.28-1.52-2.31 0-4.18.84-5.59 2.53-1.42 1.69-2.13 4.38-2.13 8.07zM614.85 31.05c-2.05 0-3.72.95-5 2.84-1.29 1.89-1.93 4.46-1.93 7.69 0 4.48.95 7.96 2.84 10.46 1.9 2.49 4.42 3.74 7.56 3.74 1.4 0 2.56-.23 3.5-.69.94-.46 1.75-.92 2.45-1.39.13-.09.28-.2.46-.31.17-.11.35-.17.52-.17.22 0 .46.16.72.48.26.32.44.58.52.76-.44.55-.98 1.11-1.64 1.66-.65.55-1.44 1.07-2.35 1.56s-2 .88-3.24 1.18c-1.24.3-2.65.45-4.22.45-1.79 0-3.48-.31-5.07-.94-1.59-.62-2.99-1.56-4.19-2.8-1.2-1.25-2.15-2.81-2.85-4.67-.7-1.87-1.05-4.05-1.05-6.54 0-2.35.43-4.51 1.28-6.48.85-1.96 1.94-3.64 3.27-5.02 1.33-1.38 2.81-2.47 4.45-3.25 1.64-.78 3.24-1.18 4.81-1.18 1.61 0 3.07.19 4.38.55 1.31.37 2.42.85 3.34 1.45.92.6 1.62 1.31 2.13 2.11.5.81.75 1.65.75 2.53 0 .28-.22.51-.65.69-.44.19-.93.34-1.47.45-.55.12-1.07.2-1.57.24-.5.05-.8.07-.88.07-.57 0-1.01-.29-1.34-.87-.33-.58-.69-1.2-1.08-1.87-.39-.67-.93-1.29-1.6-1.87-.69-.57-1.63-.86-2.85-.86zM637.25 58.48c-.75 0-1.51.01-2.28.03-.77.02-1.48.06-2.13.1-.65.05-1.22.09-1.7.14-.48.05-.79.07-.92.07 0-.05-.02-.21-.07-.48-.04-.28-.07-.48-.07-.62 0-.46.2-.74.59-.83 1.13-.23 2.05-.51 2.75-.83.7-.32 1.05-.85 1.05-1.59V35.63c0-1.39-.23-2.38-.69-2.98-.46-.6-1.45-.97-2.98-1.11-.57-.09-.85-.42-.85-.97 0-.23.04-.53.13-.9.57 0 1.36-.03 2.39-.1 1.02-.07 1.87-.15 2.52-.24 1.01-.18 1.92-.38 2.71-.59.79-.21 1.37-.31 1.72-.31.62 0 .93.35.93 1.04 0 .65-.07 1.42-.2 2.32s-.2 2.09-.2 3.57v19.11c0 .74.34 1.27 1.01 1.59.68.32 1.62.6 2.85.83.35.09.52.37.52.83 0 .14-.01.35-.03.62-.02.28-.05.44-.1.48-.13 0-.43-.02-.88-.07-.46-.05-1.01-.09-1.67-.14-.65-.05-1.37-.08-2.14-.1-.75-.02-1.51-.03-2.26-.03zm-3.83-41.62c0-1.11.36-2.07 1.08-2.87.72-.81 1.62-1.21 2.71-1.21 1.05 0 1.92.4 2.62 1.21.7.81 1.05 1.77 1.05 2.87 0 1.2-.35 2.17-1.05 2.91-.7.74-1.57 1.11-2.62 1.11-1.09 0-2-.37-2.71-1.11-.72-.74-1.08-1.71-1.08-2.91zM675.42 56.61c.48 0 .74.48.79 1.45-1.13.83-2.57 1.25-4.32 1.25-.96 0-1.8-.15-2.51-.45-.71-.3-1.3-.7-1.79-1.21s-.86-1.08-1.13-1.73c-.27-.65-.44-1.32-.53-2.01-1.09 2.08-2.39 3.5-3.89 4.26-1.5.76-3.24 1.14-5.2 1.14-.87 0-1.8-.08-2.78-.24-.98-.16-1.91-.5-2.78-1s-1.59-1.22-2.16-2.15c-.57-.92-.85-2.15-.85-3.67 0-1.71.38-3.15 1.14-4.33a9.495 9.495 0 0 1 2.94-2.91c1.2-.76 2.51-1.37 3.92-1.84 1.42-.46 2.78-.85 4.09-1.18.74-.14 1.43-.29 2.06-.45.63-.16 1.19-.33 1.67-.52.61-.18.99-.44 1.14-.76.15-.32.23-.95.23-1.87 0-2.17-.39-3.96-1.18-5.37-.79-1.41-2.18-2.11-4.19-2.11-.74 0-1.37.09-1.9.28-.52.19-.96.47-1.31.87-.35.39-.65.91-.92 1.56-.26.65-.52 1.41-.79 2.29-.13.51-.42.88-.88 1.11-.46.23-1.23.51-2.32.83-.26.09-.59.19-.98.28-.39.09-.72.14-.98.14-.44 0-.65-.48-.65-1.45 0-1.02.37-2.03 1.11-3.05.74-1.02 1.69-1.92 2.84-2.7 1.16-.78 2.41-1.42 3.76-1.9 1.35-.48 2.64-.73 3.86-.73 1.53 0 2.9.14 4.13.42 1.23.28 2.28.79 3.17 1.52.88.74 1.56 1.73 2.02 2.98.46 1.25.69 2.86.69 4.85V50.1c0 1.62.05 2.78.16 3.5.11.72.27 1.28.49 1.7.3.65.64 1.07 1.01 1.28.37.21.75.31 1.14.31.48 0 .82-.05 1.01-.14.24-.09.45-.14.67-.14zm-9.94-13.5l-2.11.35c-1.14.23-2.25.51-3.32.83-1.08.32-2.03.77-2.86 1.35-.83.58-1.5 1.31-2.01 2.18-.5.88-.76 1.96-.76 3.25 0 1.76.43 3.09 1.28 4.02.86.92 1.92 1.39 3.19 1.39.83 0 1.66-.2 2.47-.59.81-.39 1.51-.95 2.11-1.66.59-.72 1.08-1.56 1.45-2.53.37-.97.56-2.03.56-3.19v-5.4zM693.34 58.83c-1.13-.09-2.29-.17-3.47-.24s-2.37-.1-3.56-.1-2.41.03-3.66.1-2.42.15-3.51.24c-.09-.46-.13-.83-.13-1.11 0-.46.2-.74.59-.83.96-.18 1.85-.45 2.68-.8.83-.35 1.24-.89 1.24-1.63V17.2c0-1.48-.27-2.48-.82-3.01-.55-.53-1.58-.87-3.11-1-.57-.09-.85-.42-.85-.97 0-.28.04-.6.13-.97.57 0 1.35-.03 2.36-.1 1-.07 1.92-.15 2.75-.24 1.01-.14 1.92-.32 2.71-.55.79-.23 1.37-.35 1.72-.35.4 0 .66.09.79.28.13.19.2.44.2.76 0 .79-.07 1.7-.2 2.74-.13 1.04-.2 2.25-.2 3.64v37.05c0 .74.4 1.28 1.21 1.63.81.35 1.71.61 2.71.8.35.09.52.37.52.83.03.26-.01.63-.1 1.09zM699.16 68.38c-.65-.51-.98-1.06-.98-1.66 0-.37.13-.69.39-.97 1.22-1.29 2.08-2.42 2.58-3.39.5-.97.75-1.85.75-2.63 0-1.06-.34-1.88-1.01-2.46-.68-.58-1.38-1.05-2.13-1.42-.74-.37-1.11-.97-1.11-1.8 0-.65.25-1.37.75-2.18s1.32-1.53 2.45-2.18c.7.28 1.38.66 2.06 1.14.68.48 1.29 1.06 1.83 1.73.54.67.98 1.43 1.31 2.29.33.85.49 1.77.49 2.74 0 1.62-.55 3.34-1.64 5.16-1.07 1.81-2.99 3.7-5.74 5.63z"/></g><g><path class="st1" d="M120.14 94.54c0-1.29-.21-2.22-.62-2.77-.42-.55-1.36-.9-2.84-1.04-.57-.09-.85-.39-.85-.9 0-.28.04-.6.13-.97.57 0 1.34-.04 2.32-.1.98-.07 1.8-.17 2.45-.31.96-.14 1.82-.31 2.58-.52.76-.21 1.32-.31 1.67-.31.57 0 .85.35.85 1.04 0 .55-.03 1.21-.1 1.97s-.1 1.88-.1 3.36c1.31-1.8 2.78-3.31 4.42-4.54 1.63-1.22 3.65-1.83 6.05-1.83 1.48 0 2.91.32 4.28.97 1.37.65 2.58 1.61 3.63 2.88s1.89 2.83 2.52 4.67c.63 1.85.95 3.95.95 6.3 0 2.59-.46 4.87-1.37 6.86-.92 1.99-2.05 3.66-3.4 5.02-1.35 1.36-2.82 2.4-4.42 3.12-1.59.71-3.06 1.07-4.42 1.07-1.4 0-2.76-.14-4.09-.42-1.33-.28-2.71-.76-4.15-1.46v12.54c0 1.2.5 2.02 1.5 2.46 1 .44 2.64.77 4.91 1 .48.09.72.39.72.9 0 .28-.04.65-.13 1.11-1-.09-2.38-.17-4.12-.24-1.75-.07-3.38-.1-4.91-.1-1.13 0-2.33.03-3.6.1s-2.46.15-3.6.24c-.09-.46-.13-.83-.13-1.11 0-.46.2-.74.59-.83.96-.23 1.74-.51 2.35-.83.61-.32.92-.85.92-1.59V94.54zm5.49 17.52c1.09 1.2 2.29 2.16 3.6 2.87 1.31.72 2.79 1.07 4.45 1.07 1.26 0 2.38-.3 3.34-.9.96-.6 1.75-1.42 2.39-2.46.63-1.04 1.11-2.29 1.44-3.74s.49-3.04.49-4.74c0-1.75-.19-3.43-.56-5.02-.37-1.59-.92-2.99-1.64-4.19-.72-1.2-1.59-2.15-2.62-2.84a6.026 6.026 0 0 0-3.43-1.04c-.87 0-1.74.27-2.62.8-.87.53-1.67 1.21-2.39 2.04s-1.31 1.77-1.77 2.81c-.46 1.04-.69 2.09-.69 3.15v12.19zM152.13 103.06c0-2.12.38-4.13 1.14-6.03.76-1.89 1.8-3.53 3.11-4.92a14.6 14.6 0 0 1 4.61-3.29c1.77-.81 3.67-1.21 5.72-1.21 2.14 0 4.1.38 5.89 1.14 1.79.76 3.32 1.81 4.61 3.15 1.29 1.34 2.29 2.97 3.01 4.88.72 1.92 1.08 4.01 1.08 6.27 0 2.17-.38 4.19-1.14 6.06-.76 1.87-1.8 3.5-3.11 4.88a14.76 14.76 0 0 1-4.61 3.29c-1.77.81-3.67 1.21-5.72 1.21-2.14 0-4.1-.38-5.89-1.14-1.79-.76-3.33-1.81-4.61-3.15-1.29-1.34-2.29-2.95-3.01-4.85-.73-1.88-1.08-3.98-1.08-6.29zm6.14-2.29c0 1.71.17 3.46.52 5.26.35 1.8.88 3.43 1.6 4.88.72 1.45 1.65 2.66 2.78 3.6 1.13.95 2.51 1.42 4.12 1.42 2.49 0 4.42-.92 5.79-2.77s2.06-4.22 2.06-7.13c0-1.71-.16-3.5-.49-5.37-.33-1.87-.85-3.58-1.57-5.13s-1.66-2.83-2.81-3.84c-1.16-1.02-2.58-1.52-4.29-1.52-2.31 0-4.18.84-5.59 2.53-1.41 1.69-2.12 4.38-2.12 8.07zM204.65 87.69c1.26 0 2.2.32 2.81.97.61.65.92 1.36.92 2.15 0 .28-.04.53-.13.76-.09.23-.29.47-.62.73-.33.25-.79.55-1.37.9-.59.35-1.41.77-2.45 1.28-.39-.51-.86-.95-1.41-1.32-.55-.37-1.15-.55-1.8-.55-.74 0-1.42.22-2.03.66-.61.44-1.13 1.04-1.57 1.8-.44.76-.77 1.64-1.01 2.63s-.36 2.02-.36 3.08v11.91c0 1.02.5 1.77 1.5 2.25s2.44.87 4.32 1.14c.44.09.65.37.65.83 0 .28-.04.65-.13 1.11-.48-.05-1.08-.08-1.8-.1s-1.47-.06-2.26-.1c-.79-.05-1.59-.08-2.43-.1-.83-.02-1.6-.04-2.31-.04-1.19 0-2.42.04-3.69.1s-2.47.15-3.61.24c-.09-.46-.13-.83-.13-1.11 0-.46.2-.74.59-.83 1-.18 1.89-.46 2.65-.83.76-.37 1.14-.9 1.14-1.59V96.07c0-.97-.05-1.78-.16-2.42-.11-.65-.29-1.17-.56-1.56s-.64-.68-1.14-.87c-.5-.18-1.14-.32-1.93-.42-.57-.09-.85-.39-.85-.9 0-.28.04-.6.13-.97.57 0 1.36-.03 2.39-.1 1.02-.07 1.87-.15 2.52-.24.97-.18 1.82-.38 2.55-.59.73-.21 1.27-.31 1.62-.31.62 0 .93.35.93 1.04v4.64c1.39-1.62 2.8-2.97 4.22-4.05s3.02-1.63 4.81-1.63z"/></g><g><path class="st1" d="M276.12 94.54c0-1.29-.21-2.22-.62-2.77-.42-.55-1.36-.9-2.84-1.04-.57-.09-.85-.39-.85-.9 0-.28.04-.6.13-.97.57 0 1.34-.04 2.32-.1.98-.07 1.8-.17 2.45-.31.96-.14 1.82-.31 2.58-.52.76-.21 1.32-.31 1.67-.31.57 0 .85.35.85 1.04 0 .55-.03 1.21-.1 1.97s-.1 1.88-.1 3.36c1.31-1.8 2.78-3.31 4.42-4.54 1.63-1.22 3.65-1.83 6.05-1.83 1.48 0 2.91.32 4.28.97 1.37.65 2.58 1.61 3.63 2.88s1.89 2.83 2.52 4.67c.63 1.85.95 3.95.95 6.3 0 2.59-.46 4.87-1.37 6.86-.92 1.99-2.05 3.66-3.4 5.02-1.35 1.36-2.82 2.4-4.42 3.12-1.59.71-3.06 1.07-4.42 1.07-1.4 0-2.76-.14-4.09-.42-1.33-.28-2.71-.76-4.15-1.46v12.54c0 1.2.5 2.02 1.5 2.46 1 .44 2.64.77 4.91 1 .48.09.72.39.72.9 0 .28-.04.65-.13 1.11-1-.09-2.38-.17-4.12-.24-1.75-.07-3.38-.1-4.91-.1-1.13 0-2.33.03-3.6.1s-2.46.15-3.6.24c-.09-.46-.13-.83-.13-1.11 0-.46.2-.74.59-.83.96-.23 1.74-.51 2.35-.83.61-.32.92-.85.92-1.59V94.54zm5.49 17.52c1.09 1.2 2.29 2.16 3.6 2.87 1.31.72 2.79 1.07 4.45 1.07 1.26 0 2.38-.3 3.34-.9.96-.6 1.75-1.42 2.39-2.46.63-1.04 1.11-2.29 1.44-3.74s.49-3.04.49-4.74c0-1.75-.19-3.43-.56-5.02-.37-1.59-.92-2.99-1.64-4.19-.72-1.2-1.59-2.15-2.62-2.84a6.026 6.026 0 0 0-3.43-1.04c-.87 0-1.74.27-2.62.8-.87.53-1.67 1.21-2.39 2.04s-1.31 1.77-1.77 2.81c-.46 1.04-.69 2.09-.69 3.15v12.19zM308.11 103.06c0-2.12.38-4.13 1.14-6.03.76-1.89 1.8-3.53 3.11-4.92a14.6 14.6 0 0 1 4.61-3.29c1.77-.81 3.67-1.21 5.72-1.21 2.14 0 4.1.38 5.89 1.14 1.79.76 3.32 1.81 4.61 3.15 1.29 1.34 2.29 2.97 3.01 4.88.72 1.92 1.08 4.01 1.08 6.27 0 2.17-.38 4.19-1.14 6.06-.76 1.87-1.8 3.5-3.11 4.88a14.76 14.76 0 0 1-4.61 3.29c-1.77.81-3.67 1.21-5.72 1.21-2.14 0-4.1-.38-5.89-1.14-1.79-.76-3.33-1.81-4.61-3.15-1.29-1.34-2.29-2.95-3.01-4.85-.72-1.88-1.08-3.98-1.08-6.29zm6.15-2.29c0 1.71.17 3.46.52 5.26.35 1.8.88 3.43 1.6 4.88.72 1.45 1.65 2.66 2.78 3.6 1.13.95 2.51 1.42 4.12 1.42 2.49 0 4.42-.92 5.79-2.77s2.06-4.22 2.06-7.13c0-1.71-.16-3.5-.49-5.37-.33-1.87-.85-3.58-1.57-5.13s-1.66-2.83-2.81-3.84c-1.16-1.02-2.58-1.52-4.29-1.52-2.31 0-4.18.84-5.59 2.53-1.42 1.69-2.12 4.38-2.12 8.07zM360.63 87.69c1.26 0 2.2.32 2.81.97.61.65.92 1.36.92 2.15 0 .28-.04.53-.13.76-.09.23-.29.47-.62.73-.33.25-.79.55-1.37.9-.59.35-1.41.77-2.45 1.28-.39-.51-.86-.95-1.41-1.32-.55-.37-1.15-.55-1.8-.55-.74 0-1.42.22-2.03.66-.61.44-1.13 1.04-1.57 1.8-.44.76-.77 1.64-1.01 2.63s-.36 2.02-.36 3.08v11.91c0 1.02.5 1.77 1.5 2.25s2.44.87 4.32 1.14c.44.09.65.37.65.83 0 .28-.04.65-.13 1.11-.48-.05-1.08-.08-1.8-.1s-1.47-.06-2.26-.1c-.79-.05-1.59-.08-2.43-.1-.83-.02-1.6-.04-2.31-.04-1.19 0-2.42.04-3.69.1s-2.47.15-3.61.24c-.09-.46-.13-.83-.13-1.11 0-.46.2-.74.59-.83 1-.18 1.89-.46 2.65-.83.76-.37 1.14-.9 1.14-1.59V96.07c0-.97-.05-1.78-.16-2.42-.11-.65-.29-1.17-.56-1.56s-.64-.68-1.14-.87c-.5-.18-1.14-.32-1.93-.42-.57-.09-.85-.39-.85-.9 0-.28.04-.6.13-.97.57 0 1.36-.03 2.39-.1 1.02-.07 1.87-.15 2.52-.24.97-.18 1.82-.38 2.55-.59.73-.21 1.27-.31 1.62-.31.62 0 .93.35.93 1.04v4.64c1.39-1.62 2.8-2.97 4.22-4.05s3.03-1.63 4.81-1.63z"/></g></svg>