<svg xmlns="http://www.w3.org/2000/svg" viewBox="0 0 28.72 28.72"><path d="M14.79 27.8h-.84c-.04-.02-.08-.04-.12-.04-1.53-.28-2.63-1.61-2.5-3.14.1-1.15.31-2.3.5-3.44.08-.49.22-.96.34-1.44-.09.07-.15.15-.2.24-.78 1.31-1.62 2.59-2.64 3.74-.81.93-1.9 1.26-3.15.93-.9-.23-1.65-.89-1.97-1.76-.51-1.36-.22-2.57.85-3.51 1.15-1.01 2.42-1.84 3.73-2.62.07-.04.15-.1.27-.18-.09 0-.12-.01-.14 0-1.15.23-2.29.49-3.43.69-.9.16-1.81.28-2.73-.09-1.06-.44-1.8-1.5-1.83-2.65-.06-1.87 1.46-3.36 3.21-3.2 1.15.11 2.29.32 3.44.5.48.08.95.22 1.43.34-.15-.15-.32-.25-.49-.36-1.23-.74-2.42-1.54-3.5-2.49-.93-.81-1.25-1.88-.93-3.13.23-.9.9-1.66 1.77-1.99 1.38-.51 2.59-.2 3.53.88.99 1.15 1.82 2.41 2.6 3.71.05.08.1.15.18.28v-.14c-.24-1.15-.49-2.3-.7-3.46-.13-.71-.23-1.42-.08-2.14.31-1.51 1.83-2.6 3.35-2.39 1.62.22 2.81 1.58 2.68 3.14-.1 1.17-.31 2.32-.5 3.47-.1.49-.24.97-.36 1.45.09-.07.15-.15.2-.24.78-1.3 1.61-2.56 2.6-3.71.61-.71 1.39-1.08 2.33-1.08.97 0 1.92.45 2.48 1.24.97 1.37.7 3.11-.49 4.14-1.15 1-2.42 1.84-3.72 2.62-.09.05-.17.11-.26.17.06.03.12.02.16.01 1.39-.35 2.79-.63 4.21-.79 1.26-.15 2.33.17 3.13 1.22.32.41.46.89.58 1.38v.84c-.02.03-.04.06-.04.09-.31 1.58-1.58 2.65-3.17 2.52-1.15-.09-2.28-.31-3.42-.5-.49-.08-.96-.22-1.44-.34.07.1.15.15.24.2 1.32.79 2.59 1.62 3.74 2.63.92.81 1.25 1.88.94 3.12-.23.91-.89 1.67-1.77 2.01-1.37.52-2.58.22-3.51-.85-1-1.14-1.82-2.41-2.6-3.7-.05-.09-.11-.17-.16-.26-.03.07-.02.11-.01.16.39 1.55.73 3.11.82 4.71.06 1.22-.46 2.15-1.49 2.78-.33.2-.74.28-1.12.43m4.58-13.53c-.01-2.77-2.27-5-5.03-4.99-2.74.01-4.97 2.26-4.97 5.01 0 2.76 2.29 5.04 5.02 5.01 2.75-.03 4.99-2.3 4.98-5.03" fill="#fff"/></svg>