<svg version="1.1" id="Capa_1" xmlns="http://www.w3.org/2000/svg" x="0" y="0" viewBox="0 0 364.98 212.07" xml:space="preserve"><style>.st1{fill:#fff}.st2{fill:#ffcf00}</style><path fill="#1c63ad" d="M-14.51-8.43h394V220.5h-394z"/><path class="st1" d="M176.95 165.3c-.72 0-1.33.28-1.81.84-.48.56-.86 1.25-1.15 2.05-.28.8-.48 1.63-.59 2.49-.11.85-.17 1.58-.17 2.19 0 .95.18 1.72.54 2.32.36.6.96.9 1.81.9.36 0 .7-.05 1.03-.14.32-.09.61-.2.86-.33s.47-.26.66-.39c.19-.13.35-.24.47-.32l.18-.12c.06-.04.14-.06.24-.06.2 0 .34.09.42.26.08.17.13.34.15.5-.28.24-.61.5-.98.78s-.78.54-1.24.77c-.45.23-.95.42-1.48.57-.53.15-1.09.23-1.67.23-.84 0-1.55-.13-2.11-.39-.56-.26-1.02-.61-1.37-1.04-.35-.43-.6-.93-.75-1.49-.15-.56-.23-1.15-.23-1.75 0-.97.16-1.98.47-3.05a9.88 9.88 0 0 1 1.39-2.93c.61-.88 1.38-1.61 2.31-2.19.92-.57 1.99-.86 3.2-.86.66 0 1.32.09 1.96.26s1.23.4 1.75.68c-.04.12-.09.3-.14.54s-.1.5-.14.78l-.12.86c-.04.29-.07.56-.09.8l-.48-.03c-.22-.02-.38-.06-.48-.11-.1-.05-.18-.18-.24-.38-.26-.84-.55-1.43-.86-1.76-.31-.31-.76-.48-1.34-.48zM188.41 164.15c.78 0 1.46.13 2.02.39s1.04.62 1.42 1.09c.38.46.66 1 .84 1.61s.27 1.28.27 2.01c0 1.45-.23 2.71-.69 3.79-.46 1.08-1.07 1.97-1.81 2.68-.74.71-1.58 1.25-2.5 1.6s-1.84.53-2.74.53c-.76 0-1.42-.12-1.96-.36s-.98-.58-1.31-1.01c-.33-.43-.57-.95-.72-1.57-.15-.61-.23-1.28-.23-2.01 0-1.35.24-2.56.71-3.65.47-1.09 1.07-2.01 1.79-2.76s1.52-1.33 2.4-1.73c.86-.4 1.7-.61 2.51-.61zm-2.36 12.37c.5 0 .96-.18 1.39-.53.42-.35.78-.84 1.09-1.46.3-.62.54-1.37.71-2.23.17-.86.26-1.8.26-2.8 0-1.23-.11-2.2-.32-2.93s-.63-1.09-1.25-1.09c-.56 0-1.06.22-1.49.65-.43.43-.79.99-1.09 1.67-.29.68-.51 1.45-.66 2.29-.15.84-.23 1.68-.23 2.5 0 1.27.12 2.24.36 2.91.24.68.65 1.02 1.23 1.02zM204.06 168.56c.08-.34.14-.63.18-.88.04-.24.06-.45.06-.63 0-.4-.16-.6-.48-.6-.22 0-.51.16-.86.47-.35.31-.74.72-1.16 1.22-.42.5-.85 1.07-1.28 1.7a21.6 21.6 0 0 0-1.19 1.95c-.36.64-.67 1.41-.92 2.31-.25.9-.38 1.69-.38 2.4 0 .32.03.61.09.87-.48.06-.97.13-1.46.21-.49.08-1.02.2-1.58.36-.34-.14-.51-.32-.51-.54 0-.1.01-.21.03-.32.02-.11.04-.2.06-.26l1.93-9.74c.04-.12.05-.23.03-.32-.02-.09-.07-.14-.15-.14a.83.83 0 0 0-.27.08c-.12.05-.26.11-.41.17-.15.06-.3.12-.45.17-.15.05-.28.08-.38.08-.18 0-.32-.09-.41-.27s-.16-.35-.2-.51c.38-.24.83-.49 1.36-.74.52-.25 1.04-.48 1.55-.69s.98-.39 1.4-.53c.42-.14.73-.21.93-.21.16 0 .31.04.45.12.14.08.21.22.21.42v.24c0 .1-.02.2-.06.3l-1.15 4.64.09.03c.44-.72.91-1.43 1.4-2.13.49-.69 1.01-1.31 1.55-1.85s1.11-.98 1.7-1.3c.59-.32 1.21-.48 1.85-.48.54 0 1.02.13 1.42.38.4.25.6.71.6 1.37a9.946 9.946 0 0 1-.22 1.93l-1.45 6.91c-.06.24-.09.42-.09.54 0 .18.09.27.27.27.12 0 .27-.03.44-.11.17-.07.34-.15.5-.24.16-.09.31-.17.45-.24s.25-.11.33-.11c.16 0 .29.09.38.26.09.17.15.34.17.5-.32.22-.7.46-1.13.72-.43.26-.87.5-1.33.72-.45.22-.9.41-1.33.56-.43.15-.81.23-1.13.23-.34 0-.63-.07-.86-.21-.23-.14-.35-.38-.35-.72 0-.12.01-.24.03-.35.02-.11.04-.21.06-.29l1.67-7.72zM218.72 167.59c-.26 0-.43-.03-.51-.11-.08-.07-.15-.21-.21-.41-.16-.5-.39-.94-.69-1.33-.3-.38-.79-.57-1.48-.57-.48 0-.92.14-1.31.42-.39.28-.59.71-.59 1.3 0 .6.21 1.11.63 1.52.42.41.91.82 1.45 1.22.32.24.65.5 1 .77s.64.56.9.87c.26.31.48.65.65 1.03.17.37.26.79.26 1.25 0 .66-.15 1.26-.45 1.79-.3.53-.7.98-1.19 1.34-.49.36-1.06.64-1.69.84-.63.2-1.29.3-1.97.3-.72 0-1.44-.06-2.14-.17-.7-.11-1.38-.31-2.02-.59.14-.54.25-1.09.32-1.64.07-.55.12-1.18.14-1.89h.42c.36 0 .6.06.72.17.12.11.19.28.21.5.04.76.29 1.37.75 1.81.46.44 1.04.66 1.75.66.62 0 1.15-.17 1.58-.51.43-.34.65-.85.65-1.54 0-.3-.07-.58-.2-.84s-.31-.51-.53-.74c-.22-.23-.47-.45-.74-.66-.27-.21-.56-.43-.86-.65-.32-.24-.64-.48-.95-.72-.31-.24-.59-.51-.83-.8s-.44-.61-.59-.95-.23-.72-.23-1.15c0-.64.15-1.21.44-1.7.29-.49.67-.91 1.15-1.25.47-.34 1.01-.6 1.61-.77s1.23-.26 1.87-.26c1.27 0 2.44.26 3.53.78-.08.26-.16.65-.24 1.16-.08.51-.12 1.02-.12 1.52h-.49zM223.33 164.06c.16-.74.24-1.34.24-1.78 0-.32-.03-.62-.09-.9.44-.06.92-.12 1.43-.18.51-.06 1.07-.17 1.67-.33.16.08.28.15.36.21.08.06.12.16.12.3 0 .1-.02.25-.06.45l-.51 2.68h3.26c-.06.2-.14.47-.23.8-.09.33-.16.64-.2.92-.56-.1-1.12-.18-1.67-.23-.55-.05-1.02-.08-1.4-.11l-1.63 8.99c-.02.1-.04.19-.05.26-.01.07-.01.14-.01.2 0 .46.25.69.75.69.28 0 .54-.03.78-.11.24-.07.47-.16.69-.26.16-.08.31-.15.45-.2s.26-.08.36-.08c.18 0 .3.08.35.24.05.16.09.32.11.48-.66.52-1.43.94-2.31 1.25-.88.31-1.67.47-2.4.47-.84 0-1.43-.13-1.75-.38-.32-.25-.48-.63-.48-1.13 0-.1 0-.2.02-.3.01-.1.02-.2.04-.3l1.81-9.92h-2.29c.06-.38.14-.69.24-.94s.34-.36.72-.36h1.57l.11-.43zM234.04 174.74c-.06.24-.09.42-.09.54 0 .18.09.27.27.27.12 0 .27-.03.44-.11.17-.07.34-.15.5-.24.16-.09.31-.17.45-.24s.25-.11.33-.11c.16 0 .29.09.38.26.09.17.15.34.17.5-.32.22-.7.46-1.13.72-.43.26-.88.5-1.33.72-.45.22-.9.41-1.33.56-.43.15-.81.23-1.13.23-.34 0-.63-.07-.86-.21-.23-.14-.35-.38-.35-.72 0-.12.01-.24.03-.35.02-.11.04-.21.06-.29l1.93-9.2c.06-.3.01-.45-.15-.45a.83.83 0 0 0-.27.08c-.12.05-.26.11-.41.17-.15.06-.3.12-.45.17-.15.05-.28.08-.38.08-.18 0-.32-.09-.41-.27a2.55 2.55 0 0 1-.2-.51c.38-.2.84-.43 1.37-.69.53-.26 1.05-.5 1.57-.71.51-.21.98-.39 1.4-.54.42-.15.72-.23.9-.23.16 0 .31.04.45.12.14.08.21.22.21.42 0 .06 0 .14-.01.24-.01.1-.03.2-.04.3l-1.92 9.49zm.72-13.09c-.54 0-.98-.14-1.3-.41-.32-.27-.48-.64-.48-1.1 0-.62.24-1.16.72-1.6a2.47 2.47 0 0 1 1.72-.66c.58 0 1 .18 1.27.53.26.35.39.71.39 1.07 0 .64-.23 1.17-.68 1.57-.45.4-1 .6-1.64.6zM240.79 164.06c.16-.74.24-1.34.24-1.78 0-.32-.03-.62-.09-.9.44-.06.92-.12 1.43-.18.51-.06 1.07-.17 1.67-.33.16.08.28.15.36.21.08.06.12.16.12.3 0 .1-.02.25-.06.45l-.51 2.68h3.26c-.06.2-.14.47-.23.8-.09.33-.16.64-.2.92-.56-.1-1.12-.18-1.67-.23-.55-.05-1.02-.08-1.4-.11l-1.63 8.99c-.02.1-.04.19-.04.26-.01.07-.02.14-.02.2 0 .46.25.69.75.69.28 0 .54-.03.78-.11.24-.07.47-.16.69-.26.16-.08.31-.15.45-.2s.26-.08.36-.08c.18 0 .3.08.35.24.05.16.08.32.11.48-.66.52-1.43.94-2.31 1.25-.87.31-1.67.47-2.4.47-.84 0-1.43-.13-1.75-.38-.32-.25-.48-.63-.48-1.13 0-.1 0-.2.01-.3.01-.1.03-.2.05-.3l1.81-9.92h-2.29c.06-.38.14-.69.24-.94.1-.24.34-.36.72-.36h1.57l.11-.43zM251.77 173.44c-.08.34-.14.63-.18.88s-.06.45-.06.63c0 .4.16.6.48.6.2 0 .48-.16.84-.47.36-.31.75-.72 1.18-1.22.42-.5.85-1.07 1.28-1.7.43-.63.83-1.28 1.19-1.94.36-.64.67-1.41.92-2.31.25-.89.38-1.69.38-2.4 0-.3-.03-.59-.09-.87.48-.06.97-.13 1.46-.21.49-.08 1.02-.2 1.58-.36.34.14.51.32.51.54 0 .1-.01.21-.03.32-.02.11-.04.2-.06.26l-1.93 9.62c-.06.32-.07.53-.01.62.05.09.14.14.26.14.24 0 .52-.1.83-.29.31-.19.56-.29.74-.29.18 0 .29.08.33.23s.07.31.09.47c-.38.24-.8.49-1.27.75-.46.26-.92.5-1.37.71-.45.21-.88.38-1.28.51s-.72.2-.96.2c-.62 0-.94-.27-.94-.81 0-.16.03-.35.09-.57l1.03-4.34-.09-.03c-.46.72-.93 1.43-1.42 2.13-.48.69-1 1.31-1.54 1.85s-1.11.98-1.7 1.3-1.21.48-1.85.48c-.54 0-1.02-.13-1.42-.38-.4-.25-.6-.71-.6-1.37 0-.24.01-.53.04-.86.03-.33.08-.69.17-1.07l1.42-6.73c.06-.28.09-.49.08-.62-.01-.13-.1-.2-.26-.2-.12 0-.26.03-.42.08-.16.05-.32.11-.48.18-.16.07-.31.13-.45.18-.14.05-.25.08-.33.08-.16 0-.29-.09-.38-.26-.09-.17-.15-.34-.17-.5.28-.18.66-.4 1.15-.65.48-.25.98-.5 1.49-.74s1-.44 1.48-.6c.47-.16.83-.24 1.07-.24.28 0 .51.07.68.21.17.14.26.38.26.72 0 .12-.01.24-.03.35-.02.11-.04.21-.06.29l-1.65 7.7zM267.63 183.76c.78 0 1.43-.35 1.95-1.04.51-.69.91-1.69 1.19-3l1.63-7.6-.09-.03c-.46.72-.93 1.43-1.42 2.13-.48.69-1 1.31-1.54 1.85s-1.11.98-1.7 1.3c-.59.32-1.21.48-1.85.48-.54 0-1.02-.13-1.42-.38-.4-.25-.6-.71-.6-1.37 0-.24.02-.53.05-.86.03-.33.08-.69.17-1.07l1.42-6.73c.06-.24.09-.42.09-.54 0-.18-.09-.27-.27-.27-.12 0-.26.03-.42.08-.16.05-.32.11-.48.18s-.31.13-.45.18c-.14.05-.25.08-.33.08-.16 0-.29-.09-.38-.26-.09-.17-.15-.34-.17-.5.28-.18.66-.4 1.15-.65.48-.25.98-.5 1.49-.74s1-.44 1.48-.6c.47-.16.83-.24 1.07-.24.28 0 .51.07.68.21.17.14.26.38.26.72 0 .12-.01.24-.03.35-.02.11-.04.21-.06.29l-1.63 7.72c-.08.34-.14.63-.18.88s-.06.45-.06.63c0 .4.16.6.48.6.2 0 .48-.16.84-.47.36-.31.75-.72 1.18-1.22.42-.5.85-1.07 1.28-1.7.43-.63.83-1.28 1.19-1.94.36-.64.67-1.41.92-2.31.25-.89.38-1.69.38-2.4 0-.3-.03-.59-.09-.87.48-.06.97-.13 1.46-.21.49-.08 1.02-.2 1.58-.36.34.14.51.32.51.54 0 .1-.01.21-.03.32-.02.11-.04.2-.06.26l-2.68 13.48c-.22 1.09-.59 2.03-1.12 2.83-.52.8-1.13 1.47-1.81 2.01-.68.53-1.41.93-2.19 1.19-.77.26-1.52.39-2.25.39-.83 0-1.53-.06-2.13-.18-.59-.12-1.14-.29-1.64-.51.38-.9.63-1.85.75-2.83l.75-.12c.32.66.76 1.22 1.33 1.66.56.42 1.16.64 1.8.64zM289.16 166.99c0 .72-.18 1.35-.54 1.88-.36.53-.88.98-1.54 1.33-.66.35-1.46.63-2.38.83-.92.2-1.95.33-3.08.39-.02.2-.04.39-.04.57a8.05 8.05 0 0 0 .09 1.87c.07.43.2.79.38 1.12.18.32.43.58.74.78.31.2.71.3 1.19.3.36 0 .8-.08 1.31-.23s1.06-.42 1.64-.8c.18-.12.33-.22.44-.3.11-.08.24-.12.38-.12.2 0 .34.11.41.32.07.21.11.36.11.44-.26.24-.59.51-.98.8-.39.29-.83.56-1.33.8-.49.24-1.03.45-1.6.62-.57.17-1.16.26-1.76.26-.92 0-1.68-.15-2.26-.45-.58-.3-1.04-.69-1.36-1.18-.32-.48-.54-1.02-.66-1.6-.12-.58-.18-1.16-.18-1.72 0-1.09.18-2.15.53-3.2s.85-1.98 1.51-2.81c.65-.82 1.43-1.49 2.34-1.99.9-.5 1.91-.75 3.02-.75 1.03 0 1.89.22 2.59.65.68.44 1.03 1.16 1.03 2.19zm-4.22-1.63c-.38 0-.74.14-1.09.41s-.65.64-.93 1.1-.52.99-.72 1.58c-.2.59-.35 1.22-.45 1.89.8-.08 1.48-.23 2.02-.45s.97-.49 1.3-.8c.32-.31.55-.66.69-1.06s.21-.8.21-1.22c0-.46-.1-.82-.29-1.07a.897.897 0 0 0-.74-.38zM299.87 168.56c.08-.34.14-.63.18-.88s.06-.45.06-.63c0-.4-.16-.6-.48-.6-.22 0-.51.16-.86.47-.35.31-.74.72-1.16 1.22s-.85 1.07-1.28 1.7a21.6 21.6 0 0 0-1.19 1.95c-.36.64-.67 1.41-.92 2.31-.25.9-.38 1.69-.38 2.4 0 .32.03.61.09.87-.48.06-.97.13-1.46.21-.49.08-1.02.2-1.58.36-.34-.14-.51-.32-.51-.54 0-.1.01-.21.03-.32.02-.11.04-.2.06-.26l1.93-9.74c.04-.12.05-.23.03-.32-.02-.09-.07-.14-.15-.14a.83.83 0 0 0-.27.08c-.12.05-.26.11-.41.17-.15.06-.3.12-.45.17-.15.05-.28.08-.38.08-.18 0-.32-.09-.41-.27a2.55 2.55 0 0 1-.2-.51c.38-.24.83-.49 1.36-.74.52-.25 1.04-.48 1.55-.69s.98-.39 1.4-.53c.42-.14.73-.21.93-.21.16 0 .31.04.45.12.14.08.21.22.21.42v.24c0 .1-.02.2-.06.3l-1.15 4.64.09.03c.44-.72.91-1.43 1.4-2.13.49-.69 1.01-1.31 1.55-1.85s1.11-.98 1.7-1.3c.59-.32 1.21-.48 1.85-.48.54 0 1.01.13 1.42.38s.6.71.6 1.37c0 .24-.01.53-.04.86-.03.33-.09.69-.17 1.07l-1.45 6.91c-.06.24-.09.42-.09.54 0 .18.09.27.27.27.12 0 .27-.03.44-.11.17-.07.34-.15.5-.24.16-.09.31-.17.45-.24s.25-.11.33-.11c.16 0 .29.09.38.26.09.17.15.34.17.5-.32.22-.7.46-1.13.72-.43.26-.88.5-1.33.72-.45.22-.89.41-1.33.56s-.81.23-1.13.23c-.34 0-.63-.07-.86-.21-.23-.14-.35-.38-.35-.72 0-.12.01-.24.03-.35.02-.11.04-.21.06-.29l1.66-7.72zM308.62 164.06c.16-.74.24-1.34.24-1.78 0-.32-.03-.62-.09-.9.44-.06.92-.12 1.43-.18.51-.06 1.07-.17 1.67-.33.16.08.28.15.36.21.08.06.12.16.12.3 0 .1-.02.25-.06.45l-.51 2.68h3.26c-.06.2-.14.47-.23.8-.09.33-.16.64-.2.92-.56-.1-1.12-.18-1.67-.23-.55-.05-1.02-.08-1.4-.11l-1.63 8.99c-.02.1-.04.19-.04.26-.01.07-.02.14-.02.2 0 .46.25.69.75.69.28 0 .54-.03.78-.11.24-.07.47-.16.69-.26.16-.08.31-.15.45-.2s.26-.08.36-.08c.18 0 .3.08.35.24.05.16.08.32.11.48-.66.52-1.43.94-2.31 1.25-.87.31-1.67.47-2.4.47-.84 0-1.43-.13-1.75-.38-.32-.25-.48-.63-.48-1.13 0-.1 0-.2.01-.3.01-.1.03-.2.05-.3l1.81-9.92h-2.29c.06-.38.14-.69.24-.94.1-.24.34-.36.72-.36h1.57l.11-.43zM325.93 166.99c0 .72-.18 1.35-.54 1.88-.36.53-.87.98-1.54 1.33-.66.35-1.46.63-2.38.83-.93.2-1.95.33-3.08.39-.02.2-.04.39-.05.57-.01.18-.01.37-.01.57 0 .44.04.87.11 1.3s.2.79.38 1.12.43.58.74.78c.31.2.71.3 1.19.3.36 0 .8-.08 1.31-.23s1.06-.42 1.64-.8c.18-.12.33-.22.44-.3.11-.08.24-.12.38-.12.2 0 .34.11.41.32.07.21.11.36.11.44-.26.24-.59.51-.98.8-.39.29-.83.56-1.33.8-.49.24-1.03.45-1.6.62-.57.17-1.16.26-1.76.26-.92 0-1.68-.15-2.26-.45-.58-.3-1.04-.69-1.36-1.18-.32-.48-.54-1.02-.66-1.6-.12-.58-.18-1.16-.18-1.72 0-1.09.18-2.15.53-3.2.35-1.05.85-1.98 1.51-2.81.65-.82 1.43-1.49 2.34-1.99.91-.5 1.91-.75 3.02-.75 1.03 0 1.89.22 2.59.65.68.44 1.03 1.16 1.03 2.19zm-4.22-1.63c-.38 0-.74.14-1.09.41s-.65.64-.93 1.1c-.28.46-.52.99-.72 1.58-.2.59-.35 1.22-.45 1.89.8-.08 1.48-.23 2.02-.45s.98-.49 1.3-.8c.32-.31.55-.66.69-1.06.14-.39.21-.8.21-1.22 0-.46-.1-.82-.29-1.07-.2-.25-.44-.38-.74-.38z"/><g><path class="st2" d="M48.64 63.77c-.75 3.73-1.52 6.94-2.32 9.63-.8 2.69-1.88 5.14-3.24 7.35-1.36 2.21-3.11 4.32-5.24 6.32-2.13 2-4.88 4.17-8.23 6.52-.53-.48-.8-1.04-.8-1.68 0-.27.07-.48.2-.64.13-.16.28-.32.44-.48 1.76-1.76 3.24-3.4 4.44-4.92s2.21-3.03 3.04-4.52c.83-1.49 1.5-3.02 2.04-4.6.53-1.57.96-3.26 1.28-5.08l7.2-38.13c.21-1.07.03-1.89-.56-2.48-.59-.59-1.84-.99-3.76-1.2-.43-.05-.73-.2-.92-.44a1.31 1.31 0 0 1-.28-.84c0-.27.05-.67.16-1.2 1.6.16 3.3.28 5.12.36 1.81.08 3.38.12 4.72.12 1.12 0 2.44-.04 3.96-.12 1.52-.08 3-.2 4.44-.36.11.53.16.93.16 1.2 0 .69-.4 1.12-1.2 1.28-1.55.21-2.68.57-3.4 1.08-.72.51-1.19 1.29-1.4 2.36l-5.85 30.47zM80.78 66.56h-.32c-1.33 2.61-2.69 4.82-4.08 6.64-1.39 1.81-2.76 3.28-4.12 4.4-1.36 1.12-2.69 1.93-4 2.44s-2.54.76-3.72.76c-.8 0-1.56-.12-2.28-.36-.72-.24-1.36-.65-1.92-1.24-.56-.59-1-1.39-1.32-2.4-.32-1.01-.48-2.29-.48-3.84 0-4.53.73-8.55 2.2-12.07 1.47-3.52 3.29-6.49 5.48-8.91 2.18-2.42 4.54-4.28 7.08-5.56 2.53-1.28 4.89-1.92 7.08-1.92 1.71 0 3.34.08 4.92.24 1.57.16 3.34.45 5.32.88L85.1 73.36c-.11.53-.16 1.01-.16 1.44 0 .69.29 1.04.88 1.04.37 0 .76-.09 1.16-.28.4-.19.8-.4 1.2-.64.4-.24.77-.45 1.12-.64.35-.19.63-.28.84-.28.53 0 .91.53 1.12 1.6-.96.69-1.96 1.35-3 1.96-1.04.61-2.04 1.16-3 1.64s-1.87.87-2.72 1.16c-.85.29-1.55.44-2.08.44-.59 0-1.12-.12-1.6-.36s-.72-.76-.72-1.56c0-.27.03-.57.08-.92.05-.35.13-.71.24-1.08l2.32-10.32zm2.87-18.14c-.64-.21-1.35-.39-2.12-.52s-1.51-.2-2.2-.2c-2.13 0-4.05.56-5.76 1.68-1.71 1.12-3.17 2.69-4.4 4.72-1.23 2.03-2.17 4.42-2.84 7.2-.67 2.77-1 5.78-1 9.03 0 1.92.24 3.29.72 4.12.48.83 1.15 1.24 2 1.24 1.07 0 2.21-.48 3.44-1.44s2.41-2.21 3.56-3.76c1.15-1.54 2.25-3.29 3.32-5.24 1.07-1.94 1.99-3.93 2.76-5.96.77-2.02 1.38-3.98 1.84-5.88.46-1.89.68-3.56.68-4.99zM104.76 73.28c-.05.21-.11.49-.16.84s-.08.6-.08.76c0 .64.32.96.96.96.37 0 .76-.09 1.16-.28.4-.19.8-.4 1.2-.64.4-.24.76-.45 1.08-.64.32-.19.59-.28.8-.28.53 0 .91.53 1.12 1.6-.91.69-1.88 1.35-2.92 1.96-1.04.61-2.04 1.16-3 1.64s-1.87.87-2.72 1.16c-.85.29-1.55.44-2.08.44-.59 0-1.15-.12-1.68-.36s-.8-.81-.8-1.72c0-.16.03-.44.08-.84.05-.4.11-.68.16-.84 1.17-5.7 2.11-10.25 2.8-13.63.69-3.38 1.21-5.97 1.56-7.75.35-1.79.57-2.97.68-3.56.11-.59.16-.93.16-1.04 0-.64-.24-.96-.72-.96-.21 0-.53.09-.96.28-.43.19-.88.37-1.36.56-.48.19-.92.37-1.32.56-.4.19-.71.28-.92.28-.32 0-.56-.16-.72-.48-.16-.32-.29-.69-.4-1.12a163.92 163.92 0 0 1 7.08-3.68c1.2-.59 2.26-1.07 3.2-1.44.93-.37 1.56-.56 1.88-.56.91 0 1.36.45 1.36 1.36 0 .37-.05.77-.16 1.2l-5.28 26.22zm4.08-37.34c-1.01 0-1.81-.31-2.4-.92-.59-.61-.88-1.43-.88-2.44 0-1.44.49-2.73 1.48-3.88s2.17-1.72 3.56-1.72c1.07 0 1.83.35 2.28 1.04.45.69.68 1.57.68 2.64 0 1.33-.45 2.55-1.36 3.64-.91 1.1-2.03 1.64-3.36 1.64zM142.09 55.69c.32-1.44.48-2.64.48-3.6 0-1.54-.59-2.32-1.76-2.32-.75 0-1.67.44-2.76 1.32-1.09.88-2.25 2.03-3.48 3.44-1.23 1.41-2.45 3-3.68 4.76a51.378 51.378 0 0 0-3.28 5.36c-.48.91-.95 1.91-1.4 3-.45 1.09-.85 2.21-1.2 3.36s-.61 2.28-.8 3.4c-.19 1.12-.28 2.16-.28 3.12 0 .75.08 1.47.24 2.16-2.03.21-4.13.61-6.32 1.2-.43-.27-.64-.59-.64-.96 0-.11.03-.33.08-.68.05-.35.11-.63.16-.84 1.17-6.13 2.1-10.99 2.79-14.59.69-3.6 1.22-6.32 1.6-8.15.37-1.84.6-3.04.68-3.6.08-.56.12-.89.12-1 0-.64-.21-.96-.64-.96-.21 0-.53.09-.96.28-.43.19-.86.37-1.32.56-.45.19-.89.37-1.32.56-.43.19-.75.28-.96.28-.27 0-.49-.16-.68-.48-.19-.32-.33-.69-.44-1.12.96-.59 2.08-1.21 3.35-1.88 1.28-.67 2.51-1.28 3.71-1.84 1.2-.56 2.26-1.03 3.19-1.4.93-.37 1.56-.56 1.88-.56.37 0 .69.09.96.28.27.19.4.49.4.92 0 .11-.01.29-.04.56-.03.27-.07.53-.12.8l-2.88 13.91h.32c1.38-2.34 2.79-4.53 4.22-6.56 1.43-2.02 2.88-3.77 4.34-5.24 1.46-1.47 2.94-2.61 4.42-3.44 1.49-.83 3-1.24 4.54-1.24 1.17 0 2.19.39 3.07 1.16.88.77 1.32 2.01 1.32 3.72 0 .69-.05 1.43-.16 2.2-.11.77-.26 1.67-.47 2.68l-1.27 6.4h.24c1.38-2.29 2.79-4.42 4.23-6.4 1.44-1.97 2.89-3.68 4.35-5.12s2.94-2.57 4.43-3.4c1.49-.83 2.98-1.24 4.47-1.24 1.17 0 2.18.37 3.04 1.12.85.75 1.28 1.97 1.28 3.68 0 .75-.05 1.53-.16 2.36-.1.83-.24 1.64-.39 2.44l-4.03 19.19c-.05.27-.11.55-.16.84-.05.29-.08.52-.08.68 0 .69.31 1.04.95 1.04.37 0 .75-.09 1.15-.28.39-.19.79-.4 1.18-.64.4-.24.76-.45 1.11-.64.34-.19.62-.28.83-.28.53 0 .88.53 1.04 1.6-.91.69-1.87 1.35-2.9 1.96-1.03.61-2.01 1.16-2.96 1.64-.95.48-1.85.87-2.7 1.16-.85.29-1.54.44-2.08.44-.59 0-1.15-.12-1.68-.36s-.8-.81-.8-1.72c0-.16.03-.44.08-.84.05-.4.11-.68.16-.84l4.56-21.35c.27-1.33.4-2.53.4-3.6 0-1.54-.56-2.32-1.68-2.32-.75 0-1.67.44-2.76 1.32-1.09.88-2.25 2.03-3.48 3.44-1.23 1.41-2.47 3-3.72 4.76a48.604 48.604 0 0 0-3.32 5.36c-.43.75-.85 1.65-1.28 2.72-.43 1.07-.83 2.17-1.2 3.32s-.67 2.32-.88 3.52c-.21 1.2-.32 2.31-.32 3.32 0 .75.08 1.47.24 2.16-2.08.27-4.18.67-6.32 1.2-.43-.32-.64-.64-.64-.96 0-.11.03-.32.08-.64s.11-.61.16-.88l4.55-22.73zM182.79 63.61c-.05.53-.09 1.07-.12 1.6s-.04 1.09-.04 1.68c0 1.23.11 2.43.32 3.6.21 1.17.59 2.21 1.12 3.12.53.91 1.27 1.64 2.2 2.2.93.56 2.12.84 3.56.84 1.39 0 2.82-.25 4.32-.76 1.49-.51 3.01-1.29 4.56-2.36.53-.37.91-.56 1.12-.56.43 0 .71.21.84.64.13.43.2.75.2.96-.8.75-1.71 1.49-2.72 2.24a22.41 22.41 0 0 1-3.28 2c-1.17.59-2.43 1.07-3.76 1.44-1.33.37-2.72.56-4.16.56-2.24 0-4.06-.41-5.48-1.24s-2.53-1.89-3.36-3.2c-.83-1.31-1.39-2.73-1.68-4.28-.29-1.55-.44-3.04-.44-4.48 0-2.82.44-5.62 1.32-8.39.88-2.77 2.12-5.25 3.72-7.44 1.6-2.18 3.54-3.94 5.84-5.28 2.29-1.33 4.85-2 7.67-2 1.12 0 2.21.15 3.28.44 1.07.29 2.01.73 2.84 1.32.83.59 1.49 1.36 2 2.32.51.96.76 2.11.76 3.44 0 1.97-.52 3.67-1.56 5.08-1.04 1.41-2.48 2.59-4.32 3.52-1.84.93-4.01 1.64-6.52 2.12-2.51.47-5.25.76-8.23.87zm.24-2.4c5.06-.43 8.66-1.47 10.79-3.12 2.13-1.65 3.2-3.73 3.2-6.24 0-1.49-.36-2.62-1.08-3.4-.72-.77-1.69-1.16-2.92-1.16-1.28 0-2.47.39-3.56 1.16-1.09.77-2.08 1.8-2.96 3.08-.88 1.28-1.61 2.76-2.2 4.44-.58 1.68-1.01 3.43-1.27 5.24z"/></g><g><path class="st2" d="M48.09 93.56h35.32c1.57 0 2.64.22 3.22.66.58.44.87 1.32.87 2.64 0 1.68-.52 3.41-1.57 5.2-5.2-2.12-12.35-3.18-21.46-3.18h-3.59c-.19 3.11-.29 9.7-.29 19.77h20.38c.36 1.07.54 2.2.54 3.38 0 .77-.14 1.29-.41 1.55-.28.26-.81.39-1.61.39h-18.9c.03 11.28.12 18.5.29 21.66h6.64c.33.83.5 1.62.5 2.39 0 .69-.14 1.17-.41 1.44-.28.28-.76.41-1.44.41h-19.4c-.36-.94-.54-1.8-.54-2.6 0-.58.14-1 .43-1.26s.76-.39 1.42-.39h3.05c.19-3.82.29-13.63.29-29.42 0-8.45-.1-14.58-.29-18.4h-4.37c-.36-.94-.54-1.8-.54-2.6 0-.58.14-1 .43-1.26.31-.25.78-.38 1.44-.38zM105.62 144.56h3.51c8.36 0 15.05-.96 20.05-2.89.88 1.51 1.32 3.08 1.32 4.7 0 1.21-.4 2.1-1.2 2.66-.8.56-2.42.85-4.87.85l-32.93.04c-.36-.93-.54-1.82-.54-2.64 0-.55.14-.96.43-1.22s.76-.39 1.42-.39h3.05c.19-3.85.29-13.67.29-29.46 0-8.45-.11-14.58-.33-18.4h-4.33c-.36-.94-.54-1.8-.54-2.6 0-.58.14-1 .43-1.26s.76-.39 1.42-.39h17.87c.36.83.54 1.62.54 2.39 0 .69-.14 1.17-.41 1.44-.28.28-.77.41-1.49.41h-3.71c-.19 3.82-.29 10.12-.29 18.9.02 15.47.12 24.75.31 27.86zM210.13 145.64h5.9c.33.83.5 1.62.5 2.39 0 .69-.14 1.17-.41 1.44-.28.28-.76.41-1.44.41h-19.39c-.36-.94-.54-1.8-.54-2.6 0-.58.14-1 .43-1.26s.76-.39 1.42-.39h3.75c.22-3.82.33-13.63.33-29.42 0-8.45-.11-14.58-.33-18.4h-4.79c-.33-.94-.5-1.8-.5-2.6 0-.58.14-1 .43-1.26s.76-.39 1.42-.39h17.79c8.39 0 14.36 1.16 17.91 3.47 3.55 2.31 5.32 5.96 5.32 10.94 0 7.62-4.57 12.82-13.7 15.6 2.61.8 4.73 2.26 6.35 4.39 1.62 2.13 3.33 5.18 5.14 9.14 1.8 3.96 3.22 6.39 4.25 7.28 1.03.89 2.5 1.31 4.39 1.26.58 1.98.51 3.32-.21 4.02-.72.7-2.49 1.05-5.32 1.05-3.27 0-5.63-.43-7.06-1.28-1.43-.85-2.92-3.89-4.48-9.1-1.55-5.21-3.2-8.88-4.93-11-1.73-2.12-4.24-3.18-7.51-3.18-1.71 0-3.4.14-5.08.41.09 9.5.2 15.86.36 19.08zm-.33-24.68h3.47c4.79 0 8.41-.84 10.87-2.52 2.46-1.68 3.69-4.18 3.69-7.51 0-3.91-1.11-6.77-3.34-8.6-2.23-1.83-5.42-2.74-9.57-2.74-1.9 0-3.49.14-4.79.41-.22 2.37-.33 7.94-.33 16.71v4.25zM250.5 93.56h35.32c1.57 0 2.64.22 3.22.66.58.44.87 1.32.87 2.64 0 1.68-.52 3.41-1.57 5.2-5.2-2.12-12.35-3.18-21.46-3.18h-3.59c-.19 3.11-.28 9.28-.25 18.53h21.58c.36 1.07.54 2.2.54 3.38 0 .77-.14 1.29-.41 1.55-.27.26-.81.39-1.61.39H263c.03 11.88.12 19.16.29 21.83h5.78c8.77 0 15.67-.96 20.67-2.89.88 1.51 1.32 3.08 1.32 4.7 0 1.21-.4 2.1-1.2 2.66-.8.56-2.42.85-4.87.85l-35.82.04c-.36-.93-.54-1.82-.54-2.64 0-.55.14-.96.43-1.22s.76-.39 1.42-.39h3.05c.19-3.85.29-13.67.29-29.46 0-8.45-.1-14.58-.29-18.4h-4.37c-.36-.94-.54-1.8-.54-2.6 0-.58.14-1 .43-1.26.31-.26.79-.39 1.45-.39zM318.22 92.74c5.97 0 10.11.35 12.42 1.05 2.31.7 3.47 2.06 3.47 4.06 0 1.84-.74 3.48-2.23 4.91-5.78-2.64-11.14-3.96-16.09-3.96-3.49 0-5.96.69-7.41 2.08-1.44 1.39-2.17 3.31-2.17 5.76 0 2.56.86 4.59 2.58 6.11 1.72 1.51 4.99 3.03 9.8 4.54 5.69 1.71 10.01 3.67 12.94 5.88 2.93 2.21 4.48 5.8 4.64 10.75 0 5.53-1.89 9.71-5.67 12.54-3.78 2.83-9.57 4.25-17.35 4.25-5.42 0-9.53-.39-12.34-1.16-2.81-.77-4.21-2.2-4.21-4.29 0-1.9.8-3.58 2.39-5.03 5.45 2.97 11.11 4.46 17 4.46 4.04 0 6.92-.66 8.62-1.98 1.71-1.32 2.56-3.36 2.56-6.11 0-3.3-1.23-5.78-3.69-7.43-2.46-1.65-6.39-3.33-11.78-5.03-5.23-1.59-8.95-3.6-11.16-6-2.21-2.41-3.32-5.56-3.32-9.47 0-4.87 1.81-8.74 5.43-11.62 3.61-2.88 8.81-4.31 15.57-4.31z"/></g><path class="st1" d="M161.55 152.64h-2.06c-.1-.04-.19-.1-.29-.12-3.75-.68-6.45-3.95-6.12-7.71.25-2.83.76-5.64 1.22-8.44.2-1.19.55-2.36.83-3.54-.23.16-.37.37-.5.58-1.93 3.23-3.99 6.36-6.47 9.2-1.74 1.99-3.98 2.86-6.56 2.52-3.15-.41-5.35-2.22-6.26-5.27-.91-3.06-.11-5.77 2.33-7.9 2.82-2.47 5.94-4.51 9.15-6.43.19-.11.37-.24.69-.44-.23 0-.3-.01-.36 0-2.81.57-5.61 1.19-8.42 1.71-1.73.32-3.48.56-5.24.21-3.73-.75-6.38-4.43-5.91-8.18.5-3.98 3.91-6.96 7.83-6.61 2.83.26 5.64.77 8.44 1.23 1.19.19 2.35.54 3.52.82-.37-.36-.79-.62-1.2-.87-3.01-1.82-5.94-3.78-8.59-6.1-1.99-1.74-2.84-3.99-2.5-6.57.42-3.15 2.24-5.34 5.29-6.24 3.09-.91 5.8-.07 7.94 2.4 2.44 2.82 4.47 5.92 6.38 9.1.11.19.23.37.43.68 0-.23.01-.3 0-.36-.58-2.83-1.21-5.65-1.72-8.49-.31-1.73-.55-3.48-.19-5.24.76-3.72 4.5-6.38 8.21-5.86 3.96.55 6.91 3.88 6.57 7.73-.25 2.85-.77 5.68-1.23 8.51-.2 1.19-.55 2.36-.83 3.54.23-.17.37-.37.5-.58 1.91-3.19 3.95-6.28 6.38-9.1 1.53-1.78 3.47-2.68 5.82-2.66 3.12.02 5.9 1.97 6.97 4.9 1.09 2.96.22 6.23-2.17 8.29-2.83 2.45-5.94 4.51-9.14 6.43-.21.13-.42.27-.62.41.16.06.28.05.4.02 3.4-.87 6.84-1.54 10.34-1.95 3.11-.36 5.73.42 7.69 2.99.77 1.01 1.13 2.19 1.43 3.4v2.06c-.04.07-.09.15-.11.23-.75 3.88-3.88 6.49-7.78 6.18-2.81-.22-5.59-.76-8.38-1.22-1.19-.2-2.36-.55-3.54-.83.17.23.38.37.59.5 3.23 1.93 6.36 3.99 9.19 6.47 1.99 1.74 2.85 3.99 2.51 6.57-.42 3.15-2.23 5.35-5.28 6.25-3.06.91-5.77.1-7.9-2.34-2.45-2.8-4.48-5.91-6.39-9.09-.13-.21-.27-.42-.4-.62a.62.62 0 0 0-.02.4c.95 3.81 1.81 7.63 2 11.56.15 2.99-1.11 5.29-3.65 6.82-.87.49-1.88.7-2.82 1.05m11.25-33.22c-.04-6.8-5.57-12.29-12.36-12.26-6.71.03-12.2 5.56-12.19 12.3 0 6.78 5.61 12.38 12.33 12.31 6.76-.07 12.26-5.62 12.22-12.35"/></svg>