<svg version="1.1" id="Capa_1" xmlns="http://www.w3.org/2000/svg" x="0" y="0" viewBox="0 0 182 180" xml:space="preserve"><style>.st0{fill:#fdfdfc}.st1{fill:none}</style><path class="st0" d="M159.93 36.93h-15.04c-1.06 0-1.07-.01-1.07-1.04V5.62c0-1.01.02-1.04 1.01-1.04h30.66c.55.02.65.12.67.65.01.15 0 .31 0 .46v30.15c0 1.09 0 1.1-1.07 1.1h-15.16zm.07-4.65h10.48c1.04 0 1.04 0 1.04-1.06V9.99c-.01-.68-.08-.76-.74-.77h-21.37c-.92 0-.94.02-.94.96v21.11c0 .99 0 .99 1.03.99H160zM37.68 20.83v15.04c0 1.05-.01 1.06-1.05 1.06H6.35c-1.01 0-1.03-.02-1.03-1.02V5.64c0-1.04.01-1.06 1.05-1.06h30.35c.91 0 .96.05.96.96v15.29zm-27.7-.06v10.75c0 .68.07.75.74.76h21.3c1 0 1 0 1-1.03V10.28c0-1.06 0-1.06-1.04-1.06H10.95c-.96 0-.96.01-.97 1v10.55zM37.68 159.33v15.04c0 1.04-.01 1.05-1.05 1.05H6.41c-1.09 0-1.09 0-1.09-1.08v-30.22c0-1.04.01-1.05 1.06-1.05h30.41c.82 0 .89.06.89.89v15.37zm-27.7-.14V170c0 .68.07.75.74.77h21.3c1 0 1.01 0 1.01-1.03v-20.97c0-1.06 0-1.06-1.04-1.06H10.63c-.54.02-.62.12-.64.67-.01.15 0 .31 0 .46v10.35zM5.32 85.35v-6.06c0-.78.07-.84.87-.85h2.93c.79 0 .86.07.86.86v11.91c0 .22 0 .44.01.65 0 .26.13.4.4.41.2 0 .39.01.58.01h7.16c.19 0 .39 0 .58.01.31.02.48.19.48.5v3.64c0 .31-.18.48-.5.48-.2.01-.39.01-.58.01h-7.56c-.52.02-.57.06-.58.56-.01.28 0 .56 0 .84v2.48c.01.67.04.71.7.71 2.43 0 4.86.01 7.3 0 1.28 0 1.24-.04 1.24 1.26-.01.89 0 1.78-.01 2.67 0 .62-.11.73-.72.73-2.6.01-5.21.01-7.81 0-.61 0-.71-.11-.72-.73-.01-1.06 0-2.13-.01-3.19 0-.66-.03-.69-.7-.7-1.04-.01-2.08 0-3.13 0-.7 0-.79-.09-.79-.79-.01-.99 0-1.99 0-2.99 0-.79.07-.86.84-.87h2.99c.77 0 .78-.02.78-.75.01-1.07.01-2.12 0-3.19 0-.58-.05-.63-.63-.64-1.04-.01-2.09 0-3.13-.01-.79 0-.86-.06-.87-.84.02-2.04.02-4.08.02-6.12"/><path class="st0" d="M153.06 20.7v-5.8c0-.17-.01-.35.01-.52.04-.43.14-.53.55-.57.13-.01.26 0 .39 0h11.98c.15 0 .3 0 .46.01.31.01.47.19.49.5.01.17.01.35.01.52v12.25c-.03.46-.13.56-.59.6-.13.01-.26 0-.39 0h-11.92c-.96 0-.98-.02-.98-.99v-6zM21.48 27.69h-5.93c-.17 0-.35 0-.52-.01-.29-.01-.43-.17-.45-.45-.01-.15-.01-.3-.01-.46V14.78c0-.15-.01-.31.01-.46.04-.38.15-.47.54-.5.15-.01.3-.01.46-.01h11.86c.17 0 .35 0 .52.01.32.01.48.18.5.49.01.17.01.35.01.52v11.99c-.01.81-.06.86-.84.86-2.06.01-4.11.01-6.15.01M21.47 166.18h-6.32c-.45-.03-.55-.13-.58-.6V153.2c.01-.84.05-.89.89-.89h12.12c.13 0 .26 0 .39.01.31.02.47.2.48.5.01.15.01.3.01.46v12.18c-.02.62-.1.72-.73.72-1.63.01-3.26 0-4.89 0h-1.37z"/><path class="st1" d="M130.61 36.9c1.08.01 2.17.01 3.26 0 .62-.01.71-.09.71-.73.01-2.58.01-5.17 0-7.75 0-.64-.08-.72-.71-.73-1.06-.01-2.13-.01-3.19 0-.63 0-.66.04-.67.67-.01 1.32 0 2.65 0 3.97 0 1.33-.01 2.65 0 3.97.01.55.05.59.6.6zM129.3 69.24c-1.11-.01-2.22 0-3.32 0h-.13c-.29 0-.45.13-.45.43 0 .15-.01.3-.01.45v2.67c0 1.06 0 1.06-1.1 1.07h-2.53c-.13 0-.26-.01-.39 0-.47.03-.56.12-.6.58-.01.11 0 .22 0 .33v7.41c0 .15 0 .3.01.46.01.26.13.4.4.41.15 0 .3.01.46.01h7.67c.58-.02.66-.1.67-.7v-6.18-6.25c-.01-.59-.1-.68-.68-.69zM115.59 60.01c-1.17 0-2.34-.01-3.52 0-.45.01-.52.07-.52.55-.01 1.15-.01 2.3 0 3.45 0 .5.07.57.56.58 1.17.01 2.34.01 3.52 0 .12 0 .25-.04.38-.07.04-.09.09-.17.09-.25.01-1.28.01-2.56.01-3.84.01-.36-.23-.42-.52-.42zM112.09 78.44c1.17.01 2.34.01 3.5 0 .39 0 .51-.12.51-.51.02-1.17.02-2.33 0-3.5-.01-.43-.12-.55-.55-.55-1.17-.01-2.33-.01-3.5 0-.42 0-.49.09-.51.51-.01.58 0 1.17 0 1.75 0 .58-.01 1.17 0 1.75.03.43.12.54.55.55zM98.21 55.36c.11.01.22 0 .33 0h7.62c.13 0 .26 0 .39-.01.2-.01.32-.12.33-.33.01-.2.01-.39.01-.59v-7.49c0-.74.08-.81.83-.82 1.04 0 2.08.01 3.13 0 .62 0 .66-.05.66-.68 0-2.63.01-5.26 0-7.88 0-.58-.06-.63-.64-.63-1.08-.01-2.17-.01-3.25 0-.65 0-.68.04-.68.72-.01 1.02 0 2.04 0 3.06 0 .77-.06.83-.81.84-.98.01-1.95 0-2.93 0-.8 0-.86.06-.87.84-.01 1 0 2 0 3-.01.67-.09.76-.75.76-1.07.01-2.13 0-3.19.01-.63 0-.67.04-.67.66-.01 1.28 0 2.56 0 3.84v2.35c0 .61-.01 1.22.01 1.82-.01.41.09.49.48.53zM126.02 27.65c.56.01 1.13 0 1.69 0 .58 0 1.17.01 1.76 0 .43-.01.5-.07.51-.49.01-1.19.01-2.39 0-3.58 0-.41-.09-.5-.51-.5-1.15-.01-2.3-.02-3.45 0-.5 0-.6.12-.61.63-.01 1.1-.01 2.21 0 3.32-.01.52.09.61.61.62z"/><path class="st1" d="M121.25 41.51h.52c1 0 2-.01 3 .01.5.01.62.12.62.62.02.89.01 1.78.01 2.67 0 .24-.01.48 0 .72.02.48.11.57.58.6.17.01.35 0 .52 0h7.3c.75 0 .83.07.83.82.01 2.37 0 4.73 0 7.1v.59c.02.63.09.72.71.73 1.07.01 2.13.01 3.19 0 .64 0 .66-.04.67-.66V42.52c0-.97 0-.97-.96-.97h-7.3c-.96 0-.97-.01-.97-.99v-2.93c0-.66-.04-.68-.71-.69h-2.73c-1.17 0-1.17 0-1.17-1.13 0-.91.01-1.83 0-2.74-.01-.67-.07-.74-.76-.74-1.04-.01-2.09-.01-3.13 0-.66 0-.7.04-.7.71-.01 1.28 0 2.56 0 3.84v3.71c0 .15.01.31 0 .46-.01.31.15.46.48.46zM126.11 50.78c-.63.01-.71.09-.71.72-.01 1.09 0 2.17 0 3.25 0 .17.04.34.06.52.16.04.28.09.41.09 1.17.01 2.34.01 3.51 0 .5 0 .6-.12.6-.63.01-1.09.01-2.17 0-3.25 0-.6-.08-.68-.68-.69-1.06-.02-2.13-.02-3.19-.01zM116.64 46.13c.58-.01 1.17 0 1.75 0s1.17.01 1.76 0c.45-.01.57-.1.57-.51.02-1.19 0-2.38.01-3.58 0-.32-.15-.47-.47-.47-1.19 0-2.38-.01-3.58.01-.39 0-.5.12-.51.52-.02 1.19-.01 2.38-.01 3.58 0 .3.15.45.48.45zM112.15 50.74c1.13.01 2.26.01 3.38 0 .47-.01.57-.11.58-.59.01-1.15.01-2.3 0-3.45-.01-.46-.07-.53-.53-.53-1.17-.01-2.34-.01-3.51 0-.45 0-.51.07-.52.55-.01.54 0 1.09 0 1.63 0 .58-.01 1.17 0 1.75.02.52.1.63.6.64zM78.62 60.02c-1.17-.01-2.34-.01-3.51 0-.42 0-.48.07-.49.5-.01.58 0 1.17 0 1.75s-.01 1.17 0 1.76c.01.48.06.55.51.56 1.17.01 2.34.01 3.51 0 .46 0 .55-.08.55-.53.01-1.15.01-2.29 0-3.44-.01-.48-.12-.6-.57-.6zM79.19 27.09c.01-1.13.01-2.26 0-3.38 0-.56-.08-.63-.65-.63-1.06-.01-2.12-.01-3.19 0-.66.01-.73.09-.74.77-.01 1.27-.01 2.55-.01 3.82 1.34 0 2.68 0 4.02-.01.5-.01.57-.07.57-.57zM75.22 36.89c1.15.01 2.3.01 3.44 0 .43-.01.52-.08.52-.48.01-1.19.01-2.38 0-3.57 0-.42-.09-.51-.5-.51-1.19-.01-2.38-.01-3.58 0-.43 0-.48.07-.5.5-.01.56 0 1.12 0 1.69 0 .58-.01 1.17 0 1.75.03.5.12.62.62.62zM60.77 63.94c0 .59.05.64.62.65 2.63.01 5.25.01 7.88 0 .62 0 .67-.05.67-.67.01-1.07 0-2.12 0-3.19.01-.65.1-.75.77-.76 1.07-.01 2.13 0 3.19 0 .63-.01.67-.05.67-.67v-3.9-3.91c0-.7-.02-.72-.74-.72-1.04-.01-2.08-.01-3.12 0-.63.01-.71.1-.71.73-.01.93 0 1.86 0 2.8 0 1.1 0 1.1-1.07 1.1h-7.49c-.62 0-.66.04-.66.67-.02 2.62-.02 5.25-.01 7.87zM65.38 28.26c-.01 2.67-.01 5.33 0 8 0 .54.11.63.66.64 1.06.01 2.13.01 3.19 0 .63-.01.71-.09.71-.72.01-.96 0-1.91 0-2.86 0-1.02.01-1.03 1-1.04h2.93c.66 0 .69-.03.7-.71v-3.89h-8.5c-.63.01-.69.05-.69.58zM83.84 45.55c-.02.46-.14.57-.58.6-.17.01-.34.01-.52.01h-8.07c-.03.29-.06.46-.06.63 0 1.11-.01 2.21 0 3.32 0 .59.04.63.63.64 1.04.01 2.08 0 3.12 0 .8 0 .87.07.87.84 0 1.02-.01 2.04 0 3.06 0 .63.08.7.72.71.39.01.78 0 1.17 0 .7 0 1.39.01 2.09-.01.47-.01.56-.11.59-.58.01-.15 0-.3 0-.46V51.7c0-.94.03-.97 1-.97h2.74c.83 0 .86-.04.87-.9v-.46c0-.87-.01-1.74 0-2.6.01-.54.12-.63.66-.66.17-.01.35 0 .52 0h7.29c.75 0 .76-.01.76-.77.01-1 .01-2 0-3 0-.74-.07-.8-.83-.81-1.02 0-2.04.01-3.06-.01-.62-.01-.71-.1-.71-.73-.01-1.07 0-2.13 0-3.19 0-.67-.02-.69-.71-.7H89.2c-.71 0-.79-.09-.79-.79-.01-1.07 0-2.12 0-3.19-.01-.58-.06-.62-.65-.63-1.08-.01-2.17-.01-3.25 0-.62 0-.66.05-.67.67-.01 1.04 0 2.08 0 3.12 0 .73-.09.81-.84.81-1 .01-2 0-2.99.01-.23 0-.46.04-.74.06-.02.27-.04.48-.04.7-.01 1-.01 1.99 0 2.99 0 .77.05.82.81.83.98.01 1.95 0 2.93 0 .8 0 .87.07.88.84v2.02c0 .42 0 .82-.01 1.21zM110.86 55.4c-1.13-.01-2.26-.01-3.39 0-.47.01-.54.07-.55.52-.01 1.15-.01 2.3 0 3.45.01.5.1.59.63.6.54.01 1.09 0 1.63 0 .56 0 1.13.01 1.7 0 .55-.01.61-.06.62-.58.01-1.11.01-2.21 0-3.32-.01-.55-.11-.66-.64-.67zM89.01 32.27c1.15.01 2.3.01 3.45 0 .52 0 .57-.06.58-.62.01-.57 0-1.13 0-1.69s.01-1.13 0-1.7c-.01-.5-.06-.57-.56-.57-1.13-.01-2.26-.01-3.39 0-.51 0-.63.12-.64.6-.01 1.15-.01 2.3 0 3.45.01.46.08.53.56.53zM97.09 36.89c.45-.01.56-.12.57-.61.01-1.13.01-2.25 0-3.38 0-.52-.07-.58-.62-.59-1.1-.01-2.21-.01-3.32 0-.59.01-.63.05-.64.63-.01 1.02 0 2.04 0 3.05v.8c.21.05.29.09.37.09 1.21.01 2.43.02 3.64.01zM79.79 32.27c.58.02 1.17 0 1.75 0s1.17.01 1.75 0c.43-.01.51-.07.51-.49.01-1.17.01-2.34 0-3.51-.01-.46-.12-.57-.59-.57-1.15-.01-2.3-.01-3.44 0-.46.01-.52.07-.52.55-.01 1.17-.01 2.34 0 3.51 0 .43.07.5.54.51zM116.84 59.98c1.06.01 2.13 0 3.19 0 .63.01.72.09.73.72.01.97.01 1.95 0 2.93 0 .99-.01 1-1.03 1-1 0-2 0-3 .01-.47 0-.56.06-.57.44-.02 1.21-.01 2.43 0 3.64 0 .31.17.48.48.49.17 0 .35.01.52.01h7.23c.96 0 .96 0 .96-.97 0-.99-.01-1.99 0-2.99.01-.53.12-.63.66-.66.15-.01.3 0 .45 0h11.92c.76 0 .81-.06.81-.82.01-.93 0-1.86 0-2.8 0-.96 0-.96-.97-.96h-12.05c-.75 0-.82-.08-.83-.82 0-1.06.01-2.13 0-3.19-.01-.55-.06-.6-.61-.6-2.64-.01-5.29-.01-7.94 0-.55 0-.64.1-.65.66-.01 1.09-.01 2.17 0 3.25.03.61.07.65.7.66zM15.37 59.98h3.84c1.3 0 2.6.01 3.9 0 .66 0 .69-.04.69-.71 0-1.06.01-2.12 0-3.19 0-.59-.09-.68-.68-.68-2.6-.01-5.2-.01-7.8 0-.6 0-.68.09-.69.68-.01 1.06-.01 2.12 0 3.19-.02.68.01.7.74.71zM24.36 64.59c1.13.01 2.26.01 3.38 0 .58-.01.67-.1.67-.7.01-1.06.01-2.12 0-3.18 0-.59-.1-.69-.68-.69-1.1-.01-2.21-.01-3.32 0-.55 0-.59.04-.59.6-.01 1.13-.01 2.25 0 3.38 0 .17.04.34.06.52.19.02.34.07.48.07zM32.59 78.48H29.2c-.7-.01-.76-.08-.78-.8v-7.3c0-.17.01-.35 0-.52-.02-.5-.11-.6-.63-.61-.93-.01-1.86-.01-2.8-.01-.2 0-.39.01-.58 0-.46-.03-.57-.14-.6-.59-.01-.17-.01-.35-.01-.52 0-.96.01-1.91 0-2.87 0-.56-.06-.63-.58-.63-2.67-.01-5.34-.01-8.01 0-.5 0-.57.07-.58.57-.01 1.13-.01 2.26 0 3.39.01.51.1.61.62.62.98.01 1.95 0 2.93.01.17 0 .35-.01.52.01.39.03.49.14.52.52.02.17.01.35.01.52v7.16c0 .2 0 .4.01.59.01.26.16.4.41.42.17.01.35.01.52.01h2.93c.62.01.72.11.74.72.01.15 0 .3 0 .46v2.6c0 .79.05.83.86.83h7.56c.21 0 .43-.02.65-.03.06-.15.1-.21.1-.27.01-1.28.01-2.56.02-3.84-.01-.29-.14-.45-.44-.44zM32.49 50.78c-1.13-.01-2.25-.01-3.38 0-.56 0-.65.08-.65.64-.01 1.11-.01 2.21 0 3.31 0 .52.1.62.6.63 1.15.01 2.3.01 3.44 0 .45 0 .51-.07.52-.54.01-.57 0-1.13 0-1.69 0-.61.01-1.22 0-1.82-.01-.47-.06-.53-.53-.53zM135.36 92.32c-.65 0-.73.08-.73.7-.01 2.61-.01 5.2 0 7.81 0 .61.1.7.74.7 1.04.01 2.08.01 3.12 0 .69 0 .72-.03.72-.75v-3.77c0-1.32.01-2.64 0-3.97 0-.63-.09-.71-.72-.72-1.05-.01-2.09-.01-3.13 0zM116.69 161.52c1.19.01 2.38 0 3.58 0 .32 0 .47-.15.47-.47 0-1.19.01-2.38-.01-3.58 0-.45-.07-.5-.56-.51-.56-.01-1.12 0-1.69 0-.58 0-1.17-.01-1.75 0-.45.01-.55.1-.56.53-.01 1.17-.01 2.34 0 3.51.01.41.11.51.52.52zM166.91 139.17c0-.63-.04-.67-.67-.67-1.04-.01-2.08 0-3.12 0-.74 0-.82-.08-.83-.82-.01-1.02 0-2.04 0-3.06-.01-.66-.09-.73-.76-.74-.68-.01-1.35 0-2.02 0-.43 0-.87-.01-1.3 0-.42.02-.47.08-.5.51-.01.15 0 .3 0 .46v8.23h9.2v-3.91zM143.83 147.11c-.01-1.15-.01-2.3 0-3.44.01-.45.13-.58.59-.59h.53c.12-.01.26-.01.43-.01h7.68v-3.57-.39c-.03-.5-.12-.58-.64-.61-.11-.01-.22 0-.32 0h-11.92c-.92 0-.93.02-.93.96v11.92c0 .15 0 .31.01.46.01.32.19.47.5.48.17 0 .35.01.52.01h4.06v-4.62c-.4-.05-.51-.16-.51-.6zM167.5 78.44c1.15.01 2.3.01 3.44 0 .47 0 .57-.11.57-.59.01-1.14.01-2.29 0-3.44 0-.46-.08-.54-.53-.54-1.14-.01-2.3-.01-3.44 0-.47.01-.57.11-.59.58-.02.57 0 1.13 0 1.69 0 .58-.01 1.17.01 1.75.01.43.1.54.54.55zM167.52 138.45c1.15.01 2.3.01 3.44 0 .48-.01.55-.07.56-.58.01-1.14.01-2.29 0-3.44 0-.49-.07-.55-.58-.56-.54-.01-1.08 0-1.63 0-.56 0-1.12-.01-1.69 0-.56.01-.66.1-.67.63-.01 1.12-.01 2.25 0 3.38 0 .49.08.56.57.57zM162.96 69.21c.54.01 1.08 0 1.63 0 .59 0 1.17.01 1.76 0 .43-.01.56-.13.57-.55.01-1.15.01-2.3 0-3.45-.01-.46-.12-.57-.6-.58-1.13-.01-2.25-.01-3.39 0-.5.01-.59.12-.6.64-.01 1.11-.01 2.21 0 3.32 0 .51.11.6.63.62zM161.65 110.8c-1.1-.01-2.21-.01-3.32 0-.52.01-.62.11-.63.61-.01 1.14-.01 2.29 0 3.44.01.45.08.51.55.52.57.01 1.13 0 1.69 0s1.13.01 1.69 0c.54-.01.64-.11.65-.66.01-1.08.01-2.16 0-3.25 0-.55-.09-.65-.63-.66zM157.12 60.02c-1.17-.01-2.34-.01-3.51 0-.42 0-.49.07-.5.5-.02.58-.01 1.17-.01 1.76 0 .58-.01 1.17 0 1.76.01.49.08.56.58.56 1.13.01 2.25.01 3.38 0 .48 0 .59-.1.6-.57.01-1.15.01-2.3 0-3.45 0-.44-.11-.56-.54-.56zM158.26 78.44c.57.01 1.13 0 1.69 0 .58 0 1.17.01 1.75 0 .47-.01.57-.11.58-.59.01-1.13.01-2.25 0-3.38 0-.48-.11-.59-.57-.6-1.15-.01-2.3-.01-3.45 0-.43.01-.55.12-.55.55-.01 1.17-.01 2.34 0 3.51.01.45.07.5.55.51zM139.24 59.08c0 .15.01.3 0 .46 0 .3.15.44.44.44h12.64c.71 0 .74-.04.74-.73v-2.74-.46c.02-.58.11-.68.7-.68.93-.01 1.86 0 2.8 0 .17 0 .35.01.52 0 .47-.03.58-.12.59-.58.01-1.15.01-2.3 0-3.45-.01-.43-.11-.51-.56-.54-.17-.01-.35-.01-.52-.01-.96 0-1.91.01-2.87 0-.53-.01-.65-.12-.66-.66-.01-.96 0-1.91 0-2.87 0-.17 0-.35-.01-.52-.04-.44-.13-.53-.55-.56-.13-.01-.26 0-.39 0h-7.29c-.15 0-.31 0-.46.01-.32 0-.48.17-.5.48-.01.19-.01.39-.01.58v7.1c0 .2 0 .39-.01.58-.01.28-.17.44-.45.47-.15.01-.3.01-.46.01h-2.67c-1.15-.01-1.04-.01-1.04 1.01.01.88.02 1.77.02 2.66zM134.62 79.25c-.01 1.02-.01 2.04 0 3.05.01.67.09.75.75.76 1.28.01 2.56 0 3.84 0 1.32 0 2.64.01 3.97 0 .58 0 .63-.06.63-.64.01-1.11.01-2.21 0-3.32 0-.56-.06-.62-.65-.63h-7.8c-.65.01-.73.1-.74.78zM144.6 78.44h3.07c.77 0 .78 0 .78-.75v-3.78V70c0-.71.07-.78.78-.79 1.04-.01 2.09 0 3.13 0 .59-.01.69-.1.7-.68.01-1.08.01-2.17 0-3.26-.01-.57-.07-.64-.65-.64-2.61-.01-5.21-.01-7.82 0-.65 0-.73.09-.73.78-.01 1 0 2 0 3 0 .75-.08.83-.81.83-1.04.01-2.09-.01-3.13.01-.59 0-.67.1-.68.7-.01 1.04-.01 2.09 0 3.13.01.67.08.75.75.76 1.02.01 2.04 0 3.06 0 .74 0 .81.07.81.83.01 1.02 0 2.04 0 3.06 0 .69.02.71.74.71zM158.42 106.14c2.58.01 5.17.01 7.75 0 .65 0 .73-.1.74-.78.01-1.04 0-2.09 0-3.13 0-.65-.03-.68-.72-.68h-3.91c-1.33 0-2.65-.01-3.97 0-.55 0-.6.05-.61.6-.01 1.08-.01 2.17 0 3.26.01.64.1.73.72.73zM156.95 124.64c-1.02.01-2.04.01-3.06 0-.75 0-.82-.08-.83-.82v-.46-2.73c-.01-.54-.07-.59-.61-.6-.43-.01-.87 0-1.3 0-.7 0-1.39-.01-2.09 0-.47.01-.55.11-.58.59-.01.09 0 .17 0 .26v7.55c0 .23.03.46.05.7.21.03.36.07.5.07 1.06.01 2.12 0 3.19.01.79 0 .87.08.87.85.01 1.04-.01 2.08.01 3.12.01.56.09.65.65.65 1.08.01 2.17.01 3.25 0 .62 0 .65-.03.65-.67.01-1.04 0-2.09.01-3.13 0-.74.09-.82.83-.83 1.04-.01 2.08 0 3.12-.01.57-.01.66-.09.66-.64.01-2.62.01-5.25 0-7.88 0-.57-.1-.66-.7-.67h-3.25c-.57.01-.62.06-.62.65-.01 1.06 0 2.13 0 3.19-.01.69-.09.79-.75.8zM157.26 78.48c-.15 0-.3-.01-.46-.01h-7.48c-.15 0-.31 0-.46.01-.23.01-.37.12-.38.36-.01.17-.01.35-.01.52 0 1.02.01 2.04 0 3.06-.01.54-.12.65-.65.66-.56.01-1.13 0-1.7 0-.61 0-1.22.01-1.82 0-.3 0-.44.14-.44.43v12.62c0 .67.08.74.75.75 1.02.01 2.04.01 3.06 0 .69 0 .76-.07.77-.73v-.39-7.36c0-.64.08-.72.71-.73.98-.01 1.95 0 2.93 0 .97 0 .97 0 .97-.96 0-1-.01-2 0-2.99.01-.55.12-.65.65-.67.17-.01.35 0 .52 0 .93 0 1.86 0 2.8-.01.49 0 .62-.09.63-.46.02-1.24.01-2.47.01-3.71.01-.26-.14-.39-.4-.39zM153.56 120h3.65c.33 0 .46-.16.46-.48v-1.82-1.83c0-.32-.13-.47-.46-.47-1.19.01-2.39-.01-3.58.01-.4.01-.51.12-.51.52-.02 1.19-.01 2.39-.01 3.58-.01.31.11.49.45.49zM64.66 46.13c.58-.01.66-.09.67-.7.01-1.07.01-2.13 0-3.19-.01-.59-.1-.67-.69-.68-1.06-.01-2.13-.01-3.19 0-.59 0-.68.09-.68.68-.01 1.11 0 2.21 0 3.32 0 .15.04.3.06.5.21.02.36.06.51.06 1.11.01 2.21.02 3.32.01zM92.42 156.96c-1.02-.01-2.04 0-3.06 0-.88 0-.93-.05-.93-.91v-3c-.01-.63-.09-.71-.73-.71-2.56-.01-5.13-.01-7.69 0-.69 0-.76.07-.76.74-.01 1.04-.01 2.09 0 3.13 0 .68.03.71.75.72 1.02.01 2.04 0 3.06.01.71 0 .79.08.79.79v3.84c0 1.3-.01 2.61 0 3.91 0 .63.04.67.66.68 1.07.01 2.13.01 3.19 0 .7 0 .71-.02.71-.75v-3.06c0-.73.09-.81.83-.82 1.07-.01 2.13 0 3.19-.01.55 0 .59-.05.6-.61.01-1.11.01-2.21 0-3.32.01-.59-.03-.63-.61-.63zM93.81 96.9c2.59.01 5.17.01 7.75 0 .62 0 .7-.08.7-.73v-3.13c0-.64-.09-.72-.72-.72-1.04-.01-2.09 0-3.13-.01-.67 0-.76-.09-.76-.75-.01-1.04 0-2.09-.01-3.13-.01-.65-.08-.72-.72-.72-1.06-.01-2.12-.01-3.19 0-.63 0-.67.04-.67.67-.01 1.28 0 2.56 0 3.84v3.9c.02.7.09.78.75.78zM92.55 87.68c.42-.01.5-.07.5-.5.01-1.19.01-2.39 0-3.58 0-.45-.06-.5-.55-.51-.58-.01-1.17 0-1.76 0s-1.17-.01-1.76 0c-.47.01-.52.06-.52.54-.01 1.15-.01 2.3 0 3.45.01.47.13.6.58.6 1.16.02 2.33.02 3.51 0zM110.81 138.5c-1.02-.01-2.04-.01-3.06 0-.79 0-.83.04-.83.86 0 1.04.01 2.09-.01 3.13-.01.47-.11.57-.57.61-.17.01-.35 0-.52.01-.98 0-1.96-.01-2.93 0-.5.01-.55.08-.58.57-.01.15 0 .3 0 .46v7.17c0 1.03 0 1.04-1.07 1.04h-7.36c-.73 0-.8.06-.8.77-.01 1.04-.01 2.09 0 3.13 0 .65.04.69.71.69 1.28.01 2.56 0 3.84 0h3.91c.68 0 .76.08.77.74.01 1.04 0 2.09.01 3.13 0 .64.09.71.72.72 1.02.01 2.04 0 3.06 0 .75 0 .82.07.82.82.01 1 0 2 0 2.99 0 .73.07.8.76.81 1.02.01 2.04.01 3.06 0 .67 0 .76-.09.76-.75v-7.69c0-.68-.07-.75-.75-.76-1.02-.01-2.04 0-3.06 0-.71-.01-.8-.09-.8-.78v-7.69c0-.71.09-.8.78-.8 1.07-.01 2.13 0 3.19-.01.58 0 .63-.06.63-.64.01-2.63 0-5.26 0-7.88.01-.59-.05-.65-.68-.65zM97.66 146.93c.01-1 0-2 0-2.99 0-.79.07-.86.85-.87 1.04 0 2.08.01 3.12 0 .58-.01.63-.05.63-.64v-7.88c0-.58-.1-.68-.7-.68-2.6-.01-5.21-.01-7.81 0-.58 0-.67.1-.68.7-.01.99 0 1.99 0 2.99 0 .88-.05.94-.91.94H79.92c-.64 0-.69.05-.69.65-.01 2.6-.01 5.21 0 7.81 0 .64.07.71.71.72 1.02.01 2.04.01 3.06 0 .74 0 .79-.06.8-.83v-2.93c0-.76.08-.84.81-.85 1.02-.01 2.04-.01 3.06 0 .66 0 .76.1.77.75v3.06c0 .73.06.79.77.79 2.56.01 5.12.01 7.68 0 .68.01.76-.07.77-.74zM83.21 101.56c-1.13-.01-2.25-.01-3.38 0-.5.01-.59.11-.6.63-.01 1.11-.01 2.21 0 3.31 0 .51.11.62.61.63 1.13.02 2.25.01 3.38 0 .51-.01.57-.07.58-.56.01-.56 0-1.13 0-1.69s.01-1.12 0-1.69c-.01-.51-.1-.62-.59-.63zM50.93 133.88c-1.15-.01-2.3-.01-3.45 0-.42 0-.54.12-.55.55-.01 1.15-.01 2.3 0 3.45.01.43.12.56.54.56 1.18.02 2.35.02 3.52 0 .41-.01.48-.09.5-.51.02-.56 0-1.13 0-1.69 0-.61.01-1.22 0-1.82-.02-.43-.13-.54-.56-.54zM74.57 148.27c-.01-.41-.13-.54-.55-.55-1.15-.01-2.3-.01-3.44 0-.43.01-.57.13-.57.53-.02 1.17-.02 2.34 0 3.51.01.42.12.53.56.54 1.15.01 2.3.01 3.44 0 .46-.01.56-.12.57-.6.01-.56 0-1.12 0-1.69-.01-.57.01-1.16-.01-1.74zM46.87 91.57c.01-1.04.01-2.08 0-3.12 0-.65-.08-.73-.7-.73H38.3c-.57 0-.62.06-.62.65-.01 1.08-.01 2.17 0 3.25 0 .62.05.66.67.67 1.3.01 2.6 0 3.9 0s2.6.01 3.9 0c.63-.01.72-.09.72-.72z"/><path class="st1" d="M79.99 129.21h3.07c.68-.01.74-.06.75-.75.01-1.02 0-2.04.01-3.07 0-.7.09-.78.79-.79 1.02-.01 2.04 0 3.06-.01.67 0 .75-.08.75-.75.01-1.04 0-2.09 0-3.13.01-.63.09-.71.72-.72.93-.01 1.87 0 2.8 0 1.1 0 1.1 0 1.1-1.13 0-.95-.01-1.91.01-2.86 0-.51.11-.61.61-.63.17-.01.35 0 .52 0h6.9c1.23 0 1.17.13 1.17-1.15v-7.1c0-.95.02-.97 1-.98h7.1c1.14 0 1.14 0 1.14-1.17v-2.48c0-.92-.03-.94-.96-.94h-21.3c-.72 0-.79.07-.79.77-.01 1.02-.01 2.04 0 3.06 0 .71.04.74.73.75 1.06.01 2.12-.01 3.19.01.6.01.69.1.7.67.01 1.09.01 2.17 0 3.26 0 .58-.1.7-.68.71-1.09.01-2.17.01-3.26 0-.61-.01-.71-.12-.72-.73-.01-1.07 0-2.13 0-3.19 0-.63-.04-.67-.67-.67-1-.01-2 0-3 0-.9 0-.9 0-.9.89v11.79c0 .22 0 .43-.01.65-.02.3-.17.5-.49.5h-3.65c-.31 0-.48-.17-.49-.48-.01-.2-.01-.4-.01-.59v-7.36c0-.7-.09-.78-.79-.79-1.02-.01-2.04 0-3.06 0-.67-.01-.76-.1-.77-.75-.01-1.04 0-2.09 0-3.13-.01-.65-.07-.72-.71-.72-.96-.01-1.91 0-2.87 0-1.04 0-1.05-.01-1.05-1.06V88.72c0-.15-.01-.3 0-.46.03-.42.12-.55.55-.55 1.17-.02 2.35-.02 3.52 0 .46 0 .55.12.58.59.01.2 0 .39 0 .59v7.3c0 .65.07.72.71.72 2.6.01 5.21.01 7.81 0 .58 0 .67-.09.67-.7.01-1.04.01-2.09 0-3.13-.01-.67-.09-.75-.75-.76-.98-.01-1.95 0-2.93 0-.88 0-.93-.05-.93-.91v-5.8c0-.63-.01-1.26 0-1.89.01-.54.12-.64.65-.66.17-.01.35 0 .52 0h7.3c.71 0 .74-.02.74-.72.01-.98 0-1.96 0-2.93 0-.92-.02-.93-.97-.93h-7.49c-.67 0-.76-.09-.77-.75-.01-1.02 0-2.04 0-3.06 0-.71-.09-.79-.78-.8-.98-.01-1.96 0-2.93 0-.85 0-.9-.05-.9-.87v-3-4.69c0-.62-.05-.66-.67-.67h-3.19c-.66 0-.71.06-.72.7-.01.93 0 1.86 0 2.8v.46c-.02.53-.12.63-.67.65-.17.01-.35 0-.52 0h-7.1c-.17 0-.35 0-.52.01-.26 0-.4.14-.4.4 0 .04-.01.09-.01.13 0 1.15-.01 2.3.01 3.45 0 .48.1.56.58.59.22.01.43 0 .65.01.91 0 1.82-.01 2.73 0 .46 0 .61.11.62.49.02 1.22.01 2.43 0 3.65 0 .3-.17.48-.48.49-.19.01-.39.01-.58.01h-8.79c-1.06 0-2.13-.01-3.19 0-.71 0-.78.07-.78.8 0 1.02-.01 2.04 0 3.06 0 .64.09.72.71.73 1.02.01 2.04 0 3.06 0 .76 0 .83.07.83.81 0 1.04-.01 2.09 0 3.13.01.58.1.68.69.68 1.07.01 2.13.01 3.19 0 .7 0 .71-.02.71-.75 0-1.06-.01-2.12 0-3.19.01-.58.1-.68.69-.68 1.09-.01 2.17-.01 3.26 0 .57 0 .67.11.68.7.01 1.06.01 2.12 0 3.19 0 .66-.1.75-.76.76-1.04.01-2.09 0-3.13 0-.68 0-.71.03-.71.68-.01 1.04-.01 2.09 0 3.13 0 .69.06.75.74.76 1 .01 2 0 3 0 .79 0 .86.07.87.85v6.12c0 .55.01 1.09 0 1.63-.01.55-.12.65-.65.67-.17.01-.35 0-.52 0H52.73c-1.24 0-1.24 0-1.24-1.26 0-.91.01-1.82-.01-2.73-.01-.52-.1-.59-.61-.62h-7.83c-.67 0-.75.08-.75.75-.01 2.58-.01 5.17 0 7.75 0 .66.04.68.71.7h7.42c.2 0 .39 0 .59.01.31.01.5.16.5.48.01 1.21 0 2.43 0 3.65 0 .31-.17.48-.48.5-.19.01-.39.01-.58.01h-7.42c-.7 0-.73.03-.73.74-.01 1.78 0 3.56 0 5.34 0 .84-.01 1.69 0 2.54.01.51.06.57.56.57 1.15.01 2.3.01 3.45 0 .49-.01.54-.08.56-.58.01-.17 0-.35 0-.52 0-.93-.01-1.86 0-2.8.01-.62.11-.7.73-.72h7.82c.63 0 .66-.04.68-.66v-.46-7.23c0-.83.05-.88.89-.88h7.5c.82 0 .87.06.88.9v2.87c-.01.81-.07.87-.91.87h-2.74c-.94 0-.96.01-.96.93v2.86c-.01.72-.08.79-.78.81-.39.01-.78 0-1.17 0-.7 0-1.39-.01-2.09 0-.55.01-.58.04-.59.61-.01.43 0 .87 0 1.3 0 .69.01 1.39 0 2.09-.01.5-.12.61-.62.63-.17.01-.35 0-.52 0H47.37c-.29 0-.45.14-.45.43v3.65c0 .31.17.48.48.49.2 0 .39.01.58.01h7.1c.2 0 .39 0 .58.01.28.02.44.17.45.46.01.17.01.35.01.52V137.7c0 .7.04.73.74.73 1.04.01 2.09.01 3.13 0 .63 0 .72-.1.72-.72.01-1.04 0-2.09.01-3.13 0-.66.09-.75.75-.75 1.04-.01 2.09 0 3.13-.01.63 0 .71-.08.71-.72.01-.74 0-1.48 0-2.22.01-1.88-.18-1.68 1.66-1.69 2.23-.01 4.47 0 6.71 0 .84 0 .87-.04.87-.89v-2.74c0-.94 0-.94-.91-.94h-2.8c-.85 0-.91-.06-.91-.94v-2.87c0-.75-.06-.8-.83-.81h-2.99c-.72 0-.74.02-.75.72-.01 1.06 0 2.13-.01 3.19-.01.57-.12.69-.7.69-1.07.01-2.13.01-3.19 0-.65-.01-.74-.1-.74-.77-.01-1.02-.01-2.04 0-3.06 0-.74.06-.79.83-.8h3.06c.67 0 .7-.03.7-.71v-3.13c0-.71.09-.79.79-.79h5.67c.72 0 1.43-.01 2.15 0 .54.01.64.12.66.65.01.17 0 .35 0 .52v7.23c0 .82 0 .82.84.83 1 0 2-.01 3 0 .69.01.78.1.78.8v3.06c.05.71.11.78.79.78zM143.24 156.97c-1.15-.02-2.3-.02-3.44 0-.44 0-.55.11-.56.53-.01 1.17-.01 2.34 0 3.51 0 .45.07.5.56.51.56.01 1.12 0 1.69 0 .58 0 1.17.01 1.75-.01.47-.01.57-.11.57-.58.01-1.12.01-2.25 0-3.38 0-.47-.1-.57-.57-.58zM120.25 106.14c.32 0 .48-.15.48-.47v-3.64c0-.33-.15-.47-.48-.46-.56.01-1.13 0-1.69 0-.61 0-1.22-.01-1.83 0-.45.01-.57.11-.57.52-.02 1.17-.02 2.34 0 3.51.01.39.13.52.51.53 1.19.02 2.39.01 3.58.01zM70.59 46.12c.58.02 1.17 0 1.75.01.56 0 1.13.01 1.69 0 .47-.01.53-.06.54-.52.01-1.15.01-2.3 0-3.44-.01-.48-.1-.59-.57-.6-1.14-.01-2.3-.01-3.44 0-.43.01-.55.13-.56.55-.02 1.14-.02 2.3 0 3.44.01.45.12.55.59.56zM143.29 120.04c-1.19-.01-2.39-.01-3.58 0-.41 0-.46.08-.47.53-.01.58 0 1.17 0 1.76v1.82c0 .29.12.46.42.46 1.22 0 2.43.01 3.64 0 .39-.01.5-.13.5-.53.01-1.17.01-2.34 0-3.51 0-.41-.11-.53-.51-.53zM115.53 133.88c-1.12-.01-2.25-.01-3.38 0-.48 0-.58.11-.59.57-.01 1.15-.01 2.3 0 3.45 0 .48.08.54.59.55.56.01 1.12 0 1.69 0 .56 0 1.13.01 1.69 0 .52-.01.58-.06.59-.55.01-1.15.01-2.3 0-3.45-.01-.46-.13-.57-.59-.57zM115.6 147.71c-1.17-.01-2.34-.01-3.51 0-.46 0-.52.07-.53.53-.01.57 0 1.13 0 1.69 0 .58-.01 1.17 0 1.75.01.51.1.61.62.61 1.1.01 2.21.01 3.31 0 .51 0 .62-.1.63-.6.01-1.15.01-2.3 0-3.45-.01-.45-.06-.52-.52-.53z"/><path class="st1" d="M148.45 111.87c0-1.07 0-1.07-1.09-1.08-.93 0-1.87.01-2.8 0-.63-.01-.72-.11-.73-.72-.01-.45 0-.91 0-1.37 0-.66-.01-1.31.01-1.96.01-.47.12-.56.58-.6.17-.01.34 0 .52-.01.93 0 1.87.01 2.8 0 .62-.01.71-.09.72-.73.01-1.04.01-2.09 0-3.13 0-.64-.09-.72-.72-.72h-7.82c-.63 0-.67.04-.67.66-.01 1.04 0 2.09-.01 3.13 0 .76-.07.83-.81.84-.98.01-1.96 0-2.93 0-.81 0-.86.05-.86.84v2.93c0 .75-.08.83-.82.84-1.04.01-2.09 0-3.13 0-.63.01-.66.04-.67.67-.01 1.06 0 2.13 0 3.19-.01.63-.11.73-.71.74-1.08.01-2.17.01-3.25 0-.57 0-.67-.12-.68-.71-.01-1.04-.01-2.09 0-3.13 0-.7.1-.79.78-.8 1-.01 2 0 3-.01.23 0 .47-.02.78-.05.02-.27.05-.47.05-.66V97.72c0-.74-.07-.8-.84-.8h-3c-.7-.01-.77-.09-.78-.8v-3.06c0-.7.09-.78.8-.78 1.04-.01 2.09.01 3.13-.01.59 0 .68-.09.68-.68.01-1.04.01-2.09 0-3.13 0-.68-.07-.74-.74-.76H121.69c-.89 0-.94-.05-.94-.91v-2.8c0-.92 0-.92-.94-.92h-12.05c-.79 0-.85-.06-.85-.86v-7.56c0-.78.07-.84.87-.84h3.06c.63 0 .68-.06.68-.66 0-2.63.01-5.26 0-7.88 0-.57-.07-.64-.64-.64-1.04-.01-2.09-.01-3.13 0-.75 0-.81.07-.82.83 0 1.04 0 2.08-.01 3.13-.01.53-.12.65-.66.65-.85.01-1.69 0-2.54 0-.31 0-.61.01-.91-.01-.38-.03-.5-.15-.53-.52-.01-.17-.01-.35-.01-.52 0-.98.01-1.96 0-2.93-.01-.51-.11-.61-.61-.62-.57-.01-1.13 0-1.7-.01-.56 0-1.13.01-1.69 0-.47-.02-.56-.12-.6-.59-.01-.15 0-.3 0-.45v-2.67c0-.87-.04-.9-.94-.9h-1.89c-.4 0-.78-.01-1.18.01-.47.02-.56.11-.58.59-.01.21 0 .43 0 .65 0 .91.01 1.83 0 2.74-.01.5-.12.61-.61.63-.22.01-.44 0-.65 0H80.03c-.75 0-.77.03-.78.77v2.93c0 .84.04.88.88.88H87.62c.76 0 .83.07.84.81v2.93c0 .83.04.87.89.87h.59c.82 0 1.65-.01 2.48 0 .53.01.64.13.66.65.01.17 0 .35 0 .52v7.1c0 .2 0 .39.01.59.01.23.14.35.37.36.17.01.35.01.52.01h7.82c.32.01.48.17.5.48.01.17.01.35.01.52 0 1-.01 2 .01 2.99.01.51.11.61.62.62.61.01 1.22 0 1.83 0 .52 0 1.04-.01 1.56.01.47.02.56.11.58.59.01.17 0 .35 0 .52v7.03c0 .17-.01.35 0 .52.04.43.12.51.57.54.17.01.35 0 .52 0h5.67c.61 0 1.22.01 1.82 0 .51-.01.59-.1.62-.62.01-.21 0-.43 0-.65 0-.89-.01-1.78.01-2.67.01-.54.12-.66.66-.66 1.1-.01 2.22-.01 3.32 0 .55.01.63.11.66.66.01.17 0 .35 0 .52v7.3c0 .73.03.76.78.76h3.13c.62.01.71.09.72.72.01 1.04.01 2.09 0 3.13 0 .71-.09.79-.78.8-1.07.01-2.13 0-3.19.01-.59 0-.64.05-.65.63-.01.98 0 1.95 0 2.93 0 1.04 0 1.04-1.06 1.04h-11.92c-.81 0-.86.05-.86.84v2.99c-.01.67-.09.76-.74.77-1.07.01-2.13 0-3.19 0-.62.01-.66.04-.67.68-.01 1.02 0 2.04 0 3.06 0 .86 0 .86.88.86h7.56c.71 0 .79.08.8.78.01 1.04 0 2.09 0 3.13 0 .65.05.69.71.7h2.8c1.06 0 1.06 0 1.06-1.04v-7.42c0-.67.1-.76.75-.77 1.04-.01 2.08-.01 3.13 0 .68.01.76.09.76.75.01 1.04 0 2.08.01 3.13 0 .66.09.75.76.75h17c.64 0 .67-.04.67-.66.01-.95 0-1.91 0-2.87 0-1.1 0-1.1 1.07-1.1h7.36c.74 0 .81-.07.81-.83-.01-.88-.01-1.77-.01-2.66zM110.86 124.64h-7.75c-.74 0-.83-.09-.84-.82v-.52c0-.87.01-1.74 0-2.6-.01-.62-.05-.66-.68-.66h-1.56c-.59 0-1.17-.01-1.76 0-.45.01-.53.11-.56.54-.01.11-.01.22-.01.33v7.49c0 .11.01.22.01.32 0 .31.14.49.47.5h12.64c.6 0 .69-.1.69-.68.01-1.08.01-2.17 0-3.26-.02-.58-.06-.62-.65-.64zM78.43 133.87h-3.84c-1.28 0-2.56-.01-3.84 0-.67 0-.75.09-.76.76-.01 1.02 0 2.04-.01 3.06 0 .73-.08.81-.83.81-1.04 0-2.09-.01-3.13 0-.56.01-.65.09-.65.65-.01 1.08-.01 2.17 0 3.25 0 .57.09.66.7.66 2.58.01 5.17.01 7.75 0 .68 0 .75-.07.75-.75v-3.06c0-.71.07-.79.78-.8 1.06-.01 2.12.01 3.19-.01.57 0 .64-.07.65-.64.01-1.07.01-2.13 0-3.19 0-.65-.09-.74-.76-.74zM47.52 73.82c1.11.01 2.21.01 3.32 0 .56-.01.63-.09.64-.66.01-.96 0-1.91 0-2.87 0-1.08 0-1.08 1.09-1.08h7.49c.62 0 .66-.04.66-.67v-3.13c0-.76-.02-.78-.76-.78h-2.93c-.9 0-.94-.03-.94-.9v-3c-.01-.63-.09-.71-.72-.72-1.07-.01-2.13-.01-3.19 0-.62.01-.66.05-.67.67-.01 1.07 0 2.13-.01 3.19-.01.66-.09.74-.76.75-1.04.01-2.09 0-3.13 0-.66 0-.71.05-.72.7-.01 1.3 0 2.6 0 3.91 0 1.33-.01 2.65 0 3.97.04.55.1.61.63.62zM42.98 60.01c-.59 0-.68.1-.68.68-.01 1.11 0 2.21 0 3.32 0 .15.04.29.06.47.12.04.19.09.24.09 1.28.01 2.56.02 3.83.01.37 0 .44-.1.44-.56.01-1.15.01-2.3 0-3.44 0-.5-.07-.56-.58-.56-1.1-.02-2.21-.02-3.31-.01zM47.65 50.75h7.68c.72 0 .79.07.8.78.01 1.02 0 2.04 0 3.06 0 .72.06.77.79.78 1.04 0 2.09.01 3.13 0 .62 0 .67-.05.67-.67.01-2.62 0-5.25 0-7.88 0-.06-.01-.13 0-.19.01-.34-.17-.47-.49-.46-.26.01-.52 0-.78 0-.89 0-1.78.01-2.67 0-.57-.01-.67-.11-.69-.7-.01-.17 0-.35 0-.52V37.08c-.18-.07-.24-.11-.3-.11-1.28-.01-2.56-.01-3.84-.02-.3 0-.43.16-.43.45v8.01c0 .66-.1.76-.76.76-1.04.01-2.09 0-3.13.01-.64 0-.72.07-.72.71-.01 1.04-.01 2.09 0 3.13.01.68.05.71.74.73zM42.3 54.83c.01.41.11.52.51.52 1.19.02 2.38 0 3.58.01.32 0 .48-.13.48-.46v-3.64c0-.32-.15-.48-.47-.48-1.21 0-2.43.01-3.64 0-.34 0-.47.16-.46.48.01.56 0 1.13 0 1.69 0 .63-.02 1.26 0 1.88zM47.48 55.4c-.49 0-.55.07-.56.58-.01 1.13-.01 2.25 0 3.38 0 .55.06.6.59.61.56.01 1.13 0 1.69 0 .58 0 1.17.01 1.75 0 .47-.01.52-.06.53-.53.01-1.14.01-2.29 0-3.44-.01-.51-.1-.6-.62-.6-1.13-.01-2.26-.01-3.38 0zM60.11 32.32c-1.15-.01-2.3-.01-3.44 0-.46 0-.52.07-.52.54-.01 1.17-.01 2.34 0 3.51 0 .46.07.51.54.52.54.01 1.08 0 1.63 0 .59 0 1.17.01 1.76 0 .55-.01.66-.11.66-.64.01-1.1.01-2.21 0-3.32-.02-.51-.12-.6-.63-.61zM47.58 36.89c1.1.01 2.21.01 3.32 0 .54 0 .58-.05.58-.61.01-1.13 0-2.25 0-3.38 0-.15-.03-.3-.05-.48-.12-.04-.18-.08-.25-.09-1.25-.01-2.52-.02-3.77-.01-.4 0-.49.12-.5.6-.01 1.1-.01 2.21 0 3.32.02.56.11.65.67.65zM56.82 27.65c2.12.01 4.25 0 6.38 0 .52 0 1.04.01 1.56 0 .5-.01.57-.06.57-.56.01-1 0-2 0-3 0-.17-.01-.35.01-.52.04-.38.15-.5.52-.54.15-.01.3-.01.45-.01.96 0 1.91.01 2.86 0 .7-.01.75-.07.76-.73v-.06c0-1 .01-2 0-3 0-.71-.06-.76-.79-.77H56.91c-.7 0-.77.07-.77.72v7.81c0 .64.04.66.68.66zM52.04 32.27c1.17.01 2.34.01 3.51 0 .48-.01.53-.07.55-.6.01-.56 0-1.13 0-1.69 0-.61-.01-1.22 0-1.83 0-.32-.14-.47-.47-.47-1.19.01-2.38-.01-3.58.01-.43 0-.51.09-.52.49-.01 1.19-.01 2.39 0 3.58.01.43.09.5.51.51zM36.99 83.09c-.56-.01-1.12 0-1.69 0-.56 0-1.13-.01-1.69 0-.48.01-.55.06-.55.52-.01 1.15-.01 2.29 0 3.44.01.53.12.63.67.63 1.08.01 2.16.01 3.25 0 .6-.01.64-.04.65-.62.01-1.1.01-2.21 0-3.31 0-.56-.09-.64-.64-.66zM37 129.26c-1.11-.01-2.21-.01-3.32 0-.5.01-.61.12-.61.63-.01 1.11-.01 2.21 0 3.32.01.54.11.62.67.63.54.01 1.08 0 1.63 0s1.08.01 1.63 0c.56-.01.64-.09.65-.65.01-1.08.01-2.17 0-3.25-.02-.56-.12-.67-.65-.68zM41.63 78.45c.27 0 .54.02.63.34.04.16.03.34.04.52 0 1.04-.01 2.08 0 3.12.01.52.1.62.6.63 1.13.01 2.26.01 3.38 0 .46-.01.56-.12.59-.59.01-.13 0-.26 0-.39v-7.29c0-.15-.01-.3-.01-.46 0-.33-.17-.47-.48-.47H33.82c-.68 0-.75.07-.76.74-.01 1.02-.01 2.04 0 3.06 0 .77.01.77.76.77h5.34c.82.01 1.64.02 2.47.02zM41.74 106.2c-1.17-.01-2.34-.01-3.51 0-.47 0-.54.07-.55.53-.01 1.17-.01 2.34 0 3.51 0 .44.07.51.48.52 1.19.01 2.38.01 3.58 0 .45-.01.5-.07.51-.56.01-.57 0-1.13 0-1.69 0-.58.01-1.17 0-1.76 0-.48-.06-.55-.51-.55zM33.74 50.74c1.3.01 2.6 0 3.9 0h4.03c.52 0 .58-.06.58-.55.01-1.13.01-2.26 0-3.39-.01-.54-.11-.64-.66-.64-2.64-.01-5.29-.01-7.93 0-.54 0-.6.06-.6.6-.01 1.1-.01 2.21 0 3.32.01.61.06.66.68.66zM41.62 120.03h-7.87c-.66 0-.68.04-.69.72-.01 1.02-.01 2.04 0 3.05 0 .74.06.8.84.81h3.71c1.32 0 2.64.01 3.97 0 .59-.01.68-.1.68-.7.01-1.08 0-2.17 0-3.25 0-.59-.04-.63-.64-.63zM37.24 92.33c-1.22-.01-2.43-.01-3.65 0-.41 0-.52.13-.53.57-.01 1.15-.01 2.3 0 3.45 0 .47.07.54.52.54 1.15.01 2.3.01 3.45 0 .47 0 .58-.1.58-.57.01-1.19 0-2.39 0-3.58 0-.1-.05-.2-.07-.32-.1-.03-.2-.09-.3-.09zM33.81 69.21c1.28.01 2.56 0 3.85 0 1.3 0 2.6.01 3.9 0 .6-.01.7-.1.7-.68.01-1.08 0-2.17 0-3.25 0-.6-.05-.64-.63-.64-2.63-.01-5.25-.01-7.88 0-.59 0-.68.1-.68.69-.01 1.04-.01 2.08 0 3.13 0 .66.08.75.74.75zM33.61 55.4c-.46 0-.53.07-.54.53-.01 1.14-.01 2.3 0 3.44.01.5.11.59.63.6.54.01 1.08 0 1.62 0 .58 0 1.17.01 1.75 0 .44-.01.55-.11.56-.54.01-1.15.01-2.3 0-3.44 0-.47-.11-.58-.58-.58-1.15-.02-2.29-.02-3.44-.01z"/><path class="st0" d="M74.6 27.66h-.02v.02h.02v-.02z"/><path class="st0" d="M144.32 174.34v-22.03h-4.06c-.17 0-.35 0-.52-.01-.31-.01-.48-.16-.5-.48-.01-.15-.01-.3-.01-.46v-11.92c0-.94.01-.96.93-.96h12.24c.52.02.61.11.64.61v3.96h4.64v-2.31-5.92-.46c.03-.43.08-.49.5-.51.43-.01.87 0 1.3 0 .67 0 1.34-.01 2.02 0 .67.01.75.09.76.74.01 1.02 0 2.04 0 3.06 0 .74.08.82.83.82h3.12c.63 0 .67.04.67.67v3.9h4.65v-3.69c0-.88 0-.88.91-.88 1 0 2 .01 3 0 .59 0 .7-.11.7-.68.01-1.09.01-2.17 0-3.26-.01-.61-.1-.71-.73-.71-1-.01-2 0-3 0-.88 0-.88 0-.88-.91 0-.98.01-1.96 0-2.93 0-.69-.1-.78-.81-.78-.95-.01-1.91 0-2.86 0-.93 0-.94-.01-.94-.96V116.4c0-1 0-1 1.03-1h2.8c.7 0 .77-.1.79-.8v-.07-12.18c0-.74-.08-.81-.82-.82h-3.07c-.7 0-.72-.02-.72-.74-.01-1.02-.01-2.04 0-3.06 0-.72.07-.78.79-.78 1.04-.01 2.08.01 3.13-.01.58 0 .68-.1.69-.69.01-1.04.01-2.09 0-3.13 0-.74-.09-.82-.82-.83h-11.99c-1.08 0-1.08 0-1.08 1.1v7.49c0 .6-.04.65-.61.65-1.09.01-2.17.01-3.26 0-.6-.01-.68-.09-.69-.68-.01-.83 0-1.65 0-2.48v-9.83c0-.81.01-.81.78-.82h7.24c1.2 0 1.2 0 1.2-1.23 0-.89-.01-1.78 0-2.67.01-.64.08-.72.71-.72 1.02-.01 2.05 0 3.07 0 .75 0 .81.07.81.82v2.93c0 .8.07.87.84.87h2.99c.71 0 .8-.09.8-.78.01-1.04 0-2.09.01-3.13.01-.63.08-.71.72-.72 1.04-.01 2.09 0 3.13 0 .68-.01.76-.08.76-.75.01-2.58.01-5.17 0-7.75 0-.67-.09-.75-.75-.76-1.07-.01-2.13 0-3.19 0-.63 0-.67-.04-.67-.67v-7.75c0-.7.07-.77.8-.77h3.13c.58-.01.67-.1.68-.7.01-1.06.01-2.13 0-3.19 0-.66-.09-.75-.75-.76-1.02-.01-2.04 0-3.06 0-.73 0-.79-.07-.79-.77-.01-.98 0-1.96 0-2.93 0-.84-.06-.9-.88-.9-1-.01-2 0-3-.01-.66 0-.73-.07-.73-.7-.01-1.09-.01-2.17 0-3.26 0-.19.05-.37.07-.57.19-.02.31-.06.44-.06 1.1-.01 2.21 0 3.32-.01.67-.01.77-.1.77-.75.01-1.04 0-2.09.01-3.13 0-.71.03-.73.73-.74h3.13c.66 0 .74-.09.75-.76.01-1.06.01-2.13 0-3.19-.01-.58-.11-.68-.69-.68-1.07-.01-2.13-.01-3.19 0-.66.01-.76.1-.76.76-.01 1.06 0 2.13-.01 3.19 0 .63-.04.66-.67.66-1.09.01-2.17 0-3.26.01-.56.01-.65.1-.67.64-.01.15 0 .3 0 .46 0 .96.01 1.91 0 2.86 0 .6-.04.64-.63.65-.67.01-1.34 0-2.02 0-.43 0-.87.01-1.3 0-.52-.02-.61-.1-.64-.61-.01-.15 0-.3 0-.46v-7.1c0-.2 0-.39-.01-.58-.01-.28-.17-.44-.45-.47-.19-.02-.39-.01-.58-.01h-21.3c-.72 0-.73-.02-.74-.73V24.17c0-.2.01-.39-.01-.58-.04-.41-.15-.52-.57-.55-.19-.01-.39-.01-.58-.01h-7.43c-.59 0-.62-.04-.63-.63-.01-1.11 0-2.21 0-3.32 0-.19.04-.37.07-.61h.77c1.02 0 2.04.01 3.06 0 .58-.01.69-.11.7-.68.01-1.09.01-2.17 0-3.26-.01-.61-.11-.69-.75-.69-1.02-.01-2.05-.01-3.07 0-.76 0-.82.06-.82.81-.01 1.06 0 2.13-.01 3.19 0 .55-.06.61-.6.61h-8.01c-.53 0-.58-.06-.59-.62-.01-.91 0-1.83 0-2.74-.01-1.34.02-1.24 1.26-1.23.91 0 1.83.01 2.74-.01.5-.01.6-.12.63-.62.01-.15 0-.3 0-.46v-2.74c0-.74.07-.8.83-.81h7.62c.68 0 .76-.08.77-.74.01-1.04.01-2.09 0-3.13-.01-.67-.11-.77-.75-.77-4.13-.01-8.26-.01-12.38 0-.65 0-.75.11-.75.77-.01 1.04 0 2.09-.01 3.13 0 .63-.07.71-.72.71h-12.38c-.64 0-.71-.08-.72-.72-.01-1.02 0-2.04 0-3.07 0-.74-.08-.82-.82-.82-4.06-.01-8.12 0-12.18 0-.79 0-.87.07-.87.85V13.12c.01.63.1.72.71.73.84.01 1.69 0 2.54 0 .26 0 .52.01.78-.01.46-.02.57-.13.61-.58.01-.17 0-.35 0-.52 0-.96-.01-1.91.01-2.87.01-.55.11-.65.66-.65 1.09-.01 2.17-.01 3.26 0 .54 0 .63.1.65.65v7.82c0 .66.11.76.76.77 1.04.01 2.09.01 3.13 0 .67 0 .76-.09.77-.75.01-1.02 0-2.04 0-3.06 0-.74.06-.8.77-.81h7.69c.67 0 .74.08.75.76.01 1.02 0 2.05 0 3.07.01.7.1.78.79.79 1.02.01 2.04 0 3.06.01.72 0 .75.02.75.71v3.07c0 .73-.05.78-.78.79H107.7c-.75 0-.82.07-.82.83-.01 1-.01 2 0 3 0 .75.07.82.82.83h11.92c.19 0 .39-.01.58.01.39.03.48.13.52.52v.06c0 1.15.01 2.31 0 3.45-.01.46-.07.51-.54.54-.15.01-.3 0-.46 0h-2.74c-.82 0-.87.06-.87.9v.98c0 .7.01 1.39 0 2.09-.01.54-.11.64-.65.65-1.09.01-2.17.01-3.25 0-.62 0-.66-.04-.66-.68-.01-1.02 0-2.04 0-3.07 0-.8-.07-.87-.84-.88h-3c-.76.01-.82.07-.82.82-.01 1.07 0 2.13-.01 3.19 0 .56-.05.6-.6.6-1.06.01-2.12.01-3.19 0-.71 0-.78-.07-.78-.79-.01-1.02 0-2.04 0-3.06-.01-.67-.09-.76-.75-.77h-1.3c-.67 0-1.35.01-2.02-.01-.46-.01-.53-.07-.54-.53-.01-.83 0-1.65-.01-2.47 0-.33.01-.65 0-.98-.02-.49-.14-.6-.63-.62-.15-.01-.31 0-.46 0h-2.8c-.7 0-.72-.02-.72-.74v-7.43c0-1.05 0-1.05-1.05-1.05-1 0-2 0-2.99-.01-.52 0-.56-.06-.58-.56-.01-.19 0-.39 0-.58V5.49c0-.87-.05-.91-.93-.92-.98 0-1.95-.01-2.93 0-.66 0-.77.11-.77.75V17.7c0 .65.11.74.77.75 1.02.01 2.04 0 3.06.01.23 0 .46.04.69.05.04.17.07.28.07.38.01 1.15.01 2.3 0 3.45 0 .59-.09.68-.69.68-2.61.01-5.21.01-7.82 0-.62 0-.66-.05-.67-.67-.01-1.07 0-2.13-.01-3.19 0-.63-.1-.72-.72-.73-.95-.01-1.91 0-2.86 0-1.04 0-1.04 0-1.04-1.06V9.95c0-.66-.1-.76-.76-.76-.94-.01-1.87 0-2.8 0-1.1 0-1.1 0-1.1 1.08 0 .98 0 1.95-.01 2.93-.01.47-.09.6-.49.61-1.19.02-2.38.01-3.58.01-.32 0-.48-.17-.49-.48-.01-.2-.01-.39-.01-.58v-7.3c0-.79-.08-.87-.85-.87h-5.93c-.63 0-1.26-.01-1.89.01-.46.01-.56.14-.59.6-.01.15-.01.33-.01.5v7.36c0 .68-.07.75-.75.76-.95.01-1.91 0-2.86 0-.97 0-.97 0-.97-.97V5.36c0-.68-.09-.78-.73-.78-2.6-.01-5.21-.01-7.81 0-.61 0-.71.11-.71.74-.01 1.04 0 2.09 0 3.13 0 .67.09.76.74.77 1.03.01 2.05 0 3.07 0 .71 0 .79.08.8.78.01 1.04 0 2.09.01 3.13.01.62.11.71.73.72 1.02.01 2.04 0 3.06 0 .23 0 .47.02.76.04.02.3.05.55.05.81.01 1.5 0 3 0 4.49v7.75c0 .71-.02.72-.74.72h-2.99c-.79 0-.83-.05-.84-.86v-.39-7.1c0-.81-.06-.87-.84-.87h-2.74c-1.07 0-1.07 0-1.07 1.08v21.11c0 .84-.04.88-.89.88h-7.56c-.7 0-.78.09-.79.79-.01 1.07 0 2.12-.01 3.19 0 .59-.05.62-.64.63-1.06.01-2.13.01-3.19 0-.67 0-.74-.07-.74-.76v-3.13c0-.62-.1-.72-.73-.73-1.06-.01-2.12-.01-3.19 0-.65.01-.73.09-.73.78-.01 1 0 2 0 3 0 .79-.05.83-.86.84-1 0-2-.01-3 0-.66 0-.75.1-.75.76-.01 1.04 0 2.09-.01 3.13 0 .63-.08.71-.72.72-1.02.01-2.04.01-3.07 0-.72 0-.78-.07-.78-.79-.01-1.02 0-2.04 0-3.06-.01-.67-.1-.76-.76-.76-1.02-.01-2.04 0-3.07 0-.75-.01-.8-.06-.8-.83 0-1.03.01-2.05 0-3.07-.01-.61-.11-.72-.73-.72-1.04-.01-2.08-.01-3.13 0-.72 0-.79.08-.8.78v12.31c0 .7.09.78.8.78 1.02.01 2.04 0 3.06.01.68 0 .76.07.76.74.01.97 0 1.95 0 2.93 0 .89.04.93.91.93h3.06c.59.01.63.05.64.63.01.93 0 1.87 0 2.8 0 1.27.06 1.14-1.18 1.15-.93 0-1.86-.01-2.8.01-.51.01-.6.11-.63.62-.01.11 0 .22 0 .32v7.36c0 .17 0 .35.01.52.02.26.17.4.41.42.17.02.35.01.52.01 1 0 2 0 2.99.01.55.01.64.11.66.65.01.2 0 .39 0 .59v7.16c0 .74.07.81.83.82h3.06c.64.01.71.08.72.72.01.93 0 1.87 0 2.8 0 1.11 0 1.11 1.13 1.11.96 0 1.91-.01 2.87.01.52.01.6.1.62.62.01.17 0 .35 0 .52v7.23c0 .79.05.84.86.85h7.62c.72 0 .74.03.75.72.01 1.04 0 2.09.01 3.13 0 .66.1.76.75.76 1.04.01 2.09 0 3.13 0 .65.01.72.07.73.71.01 1.04 0 2.08 0 3.13 0 .7-.04.74-.73.75-1.04.01-2.09 0-3.13 0-.66.01-.74.09-.74.77-.01 1.02-.01 2.04 0 3.06 0 .73.09.81.84.82 1 .01 2 0 3 0 .23 0 .46.04.71.06.02.24.05.4.06.57 0 1.06.01 2.13 0 3.19-.01.67-.08.74-.76.74-1.02.01-2.04 0-3.07 0-.7.01-.78.08-.78.8-.01 1.06 0 2.13-.01 3.19 0 .59-.05.63-.64.64h-7.95c-.58 0-.61-.05-.61-.65-.01-1.11-.01-2.21 0-3.33 0-.58.04-.62.63-.62 1.09-.01 2.17 0 3.26 0 .62-.01.72-.11.73-.72.01-1.06.01-2.13 0-3.19 0-.61-.11-.71-.73-.72-1.04-.01-2.09-.01-3.13 0-.71 0-.79.09-.79.79-.01 1.02 0 2.04 0 3.06 0 .74-.02.76-.78.76-1.02 0-2.04.01-3.06 0-.71 0-.73-.03-.74-.73-.01-1.04 0-2.09 0-3.13-.01-.63-.1-.74-.71-.75-1.08-.01-2.17-.01-3.25 0-.57.01-.67.12-.68.71-.01 1.07-.01 2.13 0 3.19.01.64.1.73.78.73 1.04.01 2.09 0 3.13 0 .68 0 .7.02.7.69v2.93c0 .99.02 1.01 1.04 1.01h2.61c.97 0 .97 0 .97.95 0 1-.01 2 .01 3 .01.54.11.63.66.66.17.01.35 0 .52 0 .91 0 1.83-.01 2.73 0 .6.01.7.1.7.67.01 1.08.01 2.17 0 3.25-.01.55-.1.62-.67.64H15.57c-.96 0-.96 0-.96-.99v-7.42c0-.71-.09-.79-.79-.79-.97-.01-1.95 0-2.93 0-.9 0-.9 0-.9-.89v-7.55c0-.71-.09-.79-.8-.79-.99-.01-1.99-.01-2.99 0-.78 0-.86.07-.86.86v7.55c0 .79.07.85.85.85 1.07 0 2.13 0 3.19.01.51 0 .57.05.58.49.01 1.17.01 2.35 0 3.52-.01.43-.12.53-.55.56-.39.02-.78.01-1.17.01-.76 0-1.52-.01-2.28.01-.5.01-.59.13-.62.63V132.9c0 .15 0 .3.01.45.01.29.16.45.44.47.17.01.35.01.52.01h5.34c.72 0 1.43-.01 2.15 0 .68.01.76.09.77.74.01.35 0 .7 0 1.04 0 .74-.01 1.48.01 2.21.01.5.13.6.62.63.15.01.31 0 .46 0 .96 0 1.91.01 2.87 0 .57-.01.67-.12.69-.7.01-.3 0-.61 0-.91 0-.81-.01-1.61.01-2.41.01-.48.11-.57.57-.6.09-.01.17 0 .26 0h7.89c.32.01.47.19.48.5.01.17.01.35.01.52 0 .98-.01 1.95.01 2.93.01.54.12.65.65.67.17.01.35 0 .52 0h11.73c.93 0 .94.02.94.96v7.42c0 .76.07.83.81.83 1 .01 2 0 2.99 0 .72 0 .8.09.8.78.01 1.04.01 2.09 0 3.13 0 .66-.03.69-.71.69-1.06.01-2.12 0-3.19.01-.59.01-.7.1-.7.68-.01 1.08-.01 2.17 0 3.26.01.6.11.7.74.7 1.03.01 2.05.01 3.07 0 .76 0 .84-.09.84-.88.01-1.02 0-2.05 0-3.07.01-.62.05-.67.67-.67 1.08-.01 2.17 0 3.26 0 .19 0 .37.04.59.06.02.25.05.44.05.63 0 4.15.01 8.29 0 12.44 0 .64-.03.67-.66.67-1.07.01-2.13 0-3.19.01-.67 0-.76.08-.76.75-.01 1 0 2 0 3 0 .8-.06.86-.84.87h-2.93c-.76.01-.83.07-.83.81v3.07c0 .7.09.78.8.78h7.69c.68 0 .76-.09.77-.74.01-.24 0-.48 0-.72v-7.1c0-.62.05-.67.67-.67 1.02-.01 2.04 0 3.06 0 .85 0 .85 0 .85.88v7.62c0 .63.11.74.71.74h7.82c.62 0 .72-.11.73-.73.01-1.04.01-2.09 0-3.13-.01-.71-.09-.79-.79-.79-1.04-.01-2.09 0-3.13-.01-.6-.01-.68-.09-.69-.68-.01-1.08-.01-2.17 0-3.26 0-.62.03-.65.68-.65h3.19c.62 0 .72-.1.72-.72.01-1.07.01-2.13 0-3.19 0-.64-.11-.73-.78-.74-1.02-.01-2.04-.01-3.06 0-.7 0-.78.09-.78.8-.01 1.06 0 2.12-.01 3.19 0 .59-.04.63-.63.63-1 .01-2 0-2.99 0-.97 0-.97 0-.97-.96v-11.98c0-.85-.05-.89-.87-.9h-1.17c-.68 0-1.35.01-2.02-.01-.47-.01-.52-.06-.54-.53-.01-.17 0-.35 0-.52v-9.64c0-.84-.01-1.69 0-2.54.01-.5.07-.57.57-.57 1.15-.01 2.3-.01 3.45 0 .49 0 .53.07.55.58.01.17 0 .35 0 .52v7.23c0 .81.06.86.84.87 1.02.01 2.04 0 3.06.01.63 0 .72.09.72.72.01.91 0 1.83 0 2.74 0 1.17 0 1.17 1.19 1.17h2.61c.74 0 .79.06.81.83v.78c0 .76-.01 1.52 0 2.28.01.61.12.71.73.72H78.14c.22 0 .43 0 .65.01.26.01.4.14.41.4 0 .17.01.35.01.52V165c0 .17-.01.35 0 .52.03.48.12.57.58.6.17.01.35 0 .52 0 .98 0 1.95-.01 2.93 0 .51.01.56.06.58.56.01.46 0 .91 0 1.37v1.82c-.01.78-.06.83-.87.84h-7.42c-.91 0-.91 0-.91-.89v-7.56c0-.7-.1-.79-.79-.8-1.02-.01-2.04-.01-3.06 0-.73 0-.81.08-.81.84v7.56c0 .82.06.88.91.88h1.76c.48 0 .96-.01 1.44 0 .46.01.5.07.52.54.01.17 0 .35 0 .52 0 .96-.01 1.91 0 2.87.01.55.12.65.65.68.17.01.35 0 .52 0h20.85c1.1 0 1.1 0 1.1-1.07V172c.01-1.36.02-1.3-1.27-1.3h-7.17c-.74 0-.81-.07-.81-.83-.01-1.04-.01-2.09 0-3.13 0-.58.05-.62.63-.63 1.06-.01 2.13 0 3.19-.01.72 0 .79-.08.8-.78 0-1.07-.01-2.13 0-3.19 0-.58.06-.63.64-.64 1.07-.01 2.13-.01 3.19 0 .65.01.74.09.74.77.01 1.02 0 2.04 0 3.06 0 .7.09.77.8.78.93.01 1.87 0 2.8 0 1.01 0 1.01 0 1.01 1.02v7.42c0 .7.1.79.79.79h3.07c.71 0 .78-.07.79-.78.01-1.02 0-2.04 0-3.07 0-.68.07-.76.74-.76 1.02-.01 2.04-.01 3.07 0 .71 0 .77.07.78.79.01 1.02 0 2.04.01 3.07 0 .66.1.75.76.75h7.95c.41-.04.51-.15.54-.58.01-.19 0-.39 0-.58v-10.68c0-.48-.01-.96.01-1.43.01-.49.07-.55.58-.57.17-.01.35 0 .52 0h7.04c.2 0 .39.01.58-.01.38-.04.5-.15.51-.54.01-1.19 0-2.38 0-3.58 0-.31-.17-.48-.48-.5-.2-.01-.39-.01-.58-.01h-7.42c-.72 0-.73-.02-.74-.73-.01-.31 0-.61 0-.91v-6.84c0-.67-.09-.76-.75-.76-1.04-.01-2.09 0-3.13 0-.68 0-.72-.03-.72-.68v-7.82c0-.65.04-.68.72-.68 1-.01 2 0 3 0 .83 0 .88-.06.89-.89v-.91-11.2c0-.8.04-.85.85-.85h7.49c.81 0 .86.05.86.84v2.93c0 .78.05.83.8.84 1.02 0 2.04.01 3.06 0 .71 0 .78-.07.78-.79.01-1.04 0-2.09.01-3.13 0-.59.09-.68.69-.68 1.11-.01 2.21-.01 3.32 0 .16 0 .33.05.57.09v3.67c0 .78.06.83.87.84H147.98c.31 0 .49.12.49.46 0 1.19.01 2.39-.01 3.58 0 .39-.13.5-.51.53-.2.01-.39.01-.58.01h-16.61c-.65 0-.75.09-.75.69-.01 2.62-.01 5.25 0 7.88 0 .57.11.67.7.68.96.01 1.91 0 2.87.01 1.03 0 1.03 0 1.03 1.06v16.22c0 .19-.01.39 0 .58.03.45.14.56.6.59.2.01.39 0 .59 0 .96 0 1.91-.01 2.87.01.5.01.55.07.57.57.01.17 0 .35 0 .52v7.16c0 .95.03.98 1 .98h2.87c.67 0 .74.08.74.76.01 1.02 0 2.04 0 3.06.01.7.09.79.79.79h.43c-.74.08-.75-.05-.75-.99zm22.63-39.84c0-.53.1-.62.67-.63.57-.01 1.13 0 1.69 0 .54 0 1.08-.01 1.63 0 .51.01.58.07.58.56.01 1.14.01 2.29 0 3.44-.01.51-.07.58-.56.58-1.15.01-2.3.01-3.44 0-.49-.01-.56-.08-.57-.57-.01-1.13-.01-2.26 0-3.38zm0-60.05c.01-.46.11-.57.59-.58 1.14-.01 2.3-.01 3.44 0 .46 0 .53.08.53.54.01 1.14.01 2.29 0 3.44-.01.48-.1.59-.57.59-1.15.01-2.29.01-3.44 0-.43-.01-.53-.11-.54-.55-.02-.58-.01-1.17-.01-1.75 0-.56-.02-1.13 0-1.69zm-4.63-9.18c.01-.52.1-.63.6-.64 1.13-.01 2.26-.01 3.39 0 .47.01.59.12.6.58.01 1.15.01 2.3 0 3.45-.01.42-.14.53-.57.55-.58.01-1.17 0-1.76 0-.54 0-1.09.01-1.63 0-.52-.01-.62-.11-.63-.61-.01-1.11-.01-2.22 0-3.33zM23.83 60.61c0-.56.04-.6.59-.6 1.1-.01 2.21-.01 3.32 0 .57 0 .67.1.68.69.01 1.06.01 2.12 0 3.18-.01.61-.09.7-.67.7-1.12.01-2.25 0-3.38 0-.15 0-.29-.04-.47-.07-.02-.19-.06-.35-.06-.52-.02-1.13-.02-2.25-.01-3.38zm-9.22-4.53c0-.58.09-.68.69-.68 2.6-.01 5.2-.01 7.8 0 .59 0 .68.09.68.68.01 1.06.01 2.12 0 3.19 0 .67-.04.71-.69.71-1.3.01-2.6 0-3.9 0h-3.84c-.73 0-.75-.03-.76-.71.01-1.07.01-2.13.02-3.19zM33 82.76c0 .06-.05.12-.1.27-.22.01-.44.03-.65.03h-7.56c-.82 0-.86-.04-.86-.83v-2.6-.46c-.02-.61-.11-.71-.74-.72-.98-.01-1.95 0-2.93 0-.17 0-.35 0-.52-.01-.25-.02-.4-.16-.41-.42-.01-.19-.01-.39-.01-.59v-7.16c0-.17.01-.35-.01-.52-.03-.38-.13-.49-.52-.52-.17-.02-.35-.01-.52-.01-.98 0-1.95.01-2.93-.01-.52-.01-.61-.11-.62-.62-.01-1.13-.01-2.26 0-3.39.01-.49.08-.57.58-.57 2.67-.01 5.34-.01 8.01 0 .52 0 .58.07.58.63.01.96 0 1.91 0 2.87 0 .17-.01.35.01.52.03.45.14.56.6.59.19.01.39 0 .58 0 .94 0 1.87-.01 2.8.01.52.01.61.11.63.61.01.17 0 .35 0 .52v7.3c.01.72.08.79.78.8.98.01 1.95 0 2.93 0h.46c.3 0 .44.15.43.44.01 1.28 0 2.56-.01 3.84zm.02-27.94c-.01.47-.07.54-.52.54-1.14.01-2.29.01-3.44 0-.5 0-.6-.1-.6-.63-.01-1.1-.01-2.21 0-3.31 0-.56.09-.63.65-.64 1.13-.01 2.25-.01 3.38 0 .47 0 .52.06.53.52.01.61 0 1.22 0 1.82 0 .57.01 1.13 0 1.7zm83.71 102.14c.58-.02 1.17 0 1.75 0 .57 0 1.13-.01 1.69 0 .49.01.55.06.56.51.01 1.19 0 2.38.01 3.58 0 .32-.15.48-.47.47-1.19 0-2.38.01-3.58 0-.4-.01-.51-.11-.52-.5-.02-1.17-.02-2.35 0-3.51 0-.44.11-.53.56-.55zm45.55-42.25c0 .55-.11.64-.65.66-.56.01-1.13 0-1.69 0s-1.12.01-1.69 0c-.47-.01-.54-.07-.55-.52-.01-1.14-.01-2.29 0-3.44.01-.5.11-.6.63-.61 1.1-.01 2.21-.01 3.32 0 .53.01.63.11.63.67.01 1.08.01 2.16 0 3.24zm-4.58-12.55c.01-.55.05-.59.61-.6 1.33-.01 2.65 0 3.97 0h3.91c.69 0 .72.02.72.68 0 1.04.01 2.09 0 3.13-.01.68-.09.78-.74.78-2.58.01-5.17.01-7.75 0-.62 0-.71-.1-.72-.73v-3.26zm0 21.71c.01-1.06 0-2.13 0-3.19 0-.6.05-.65.62-.65h3.25c.61.01.7.09.7.67.01 2.62.01 5.25 0 7.88 0 .55-.09.63-.66.64-1.04.01-2.08 0-3.12.01-.74 0-.82.09-.83.83-.01 1.04 0 2.08-.01 3.13 0 .64-.03.66-.65.67-1.09.01-2.17.01-3.25 0-.56 0-.65-.09-.65-.65-.01-1.04 0-2.08-.01-3.12 0-.77-.08-.84-.87-.85-1.07-.01-2.13 0-3.19-.01-.15 0-.29-.04-.5-.07-.02-.24-.05-.47-.05-.7v-7.55-.26c.03-.48.11-.57.58-.59.7-.01 1.39 0 2.09 0 .43 0 .87-.01 1.3 0 .54.01.6.06.61.6.01.91 0 1.82 0 2.73v.46c.01.74.08.81.83.82 1.02.01 2.04.01 3.06 0 .66-.04.74-.14.75-.8zm-4.59-7.94c0-.4.11-.51.51-.52 1.19-.01 2.39 0 3.58-.01.33 0 .46.15.46.47V119.52c0 .32-.12.48-.46.48h-3.65c-.34 0-.46-.18-.46-.49.02-1.2.01-2.39.02-3.58zm4.55-33.34c0 .38-.14.46-.63.46-.93.01-1.87 0-2.8.01-.17 0-.35-.01-.52 0-.52.02-.64.13-.65.67-.01.99 0 1.99 0 2.99 0 .96 0 .96-.97.96h-2.93c-.62.01-.71.09-.71.73-.01 2.45 0 4.9 0 7.36v.39c-.01.66-.08.73-.77.73-1.02.01-2.04.01-3.06 0-.67 0-.75-.07-.75-.75v-12.1-.52c0-.3.15-.43.44-.43h1.82c.56 0 1.13.01 1.7 0 .53-.01.64-.12.65-.66.01-1.02 0-2.04 0-3.06 0-.17 0-.35.01-.52.01-.24.15-.35.38-.36.15-.01.3-.01.46-.01h7.48c.15 0 .3 0 .46.01.26 0 .41.13.41.4-.01 1.23-.01 2.46-.02 3.7zm-13.8-7.93c0-.76-.07-.83-.81-.83-1.02-.01-2.04 0-3.06 0-.67-.01-.74-.08-.75-.76 0-1.04-.01-2.09 0-3.13 0-.6.09-.69.68-.7 1.04-.01 2.08 0 3.13-.01.73-.01.81-.09.81-.83.01-1 0-2 0-3 .01-.69.08-.77.73-.78h7.82c.57 0 .64.07.65.64.01 1.09.01 2.17 0 3.26-.01.58-.11.67-.7.68-1.04.01-2.09 0-3.13 0-.71.01-.78.08-.78.79V77.68c0 .74-.01.74-.78.75h-3.07c-.72 0-.74-.02-.74-.72v-3.05zm13.81-10.64c-.01.47-.11.56-.6.57-1.13.01-2.26.01-3.38 0-.5 0-.57-.07-.58-.56-.01-.59 0-1.17 0-1.76 0-.58-.01-1.17.01-1.76.01-.42.08-.49.5-.5 1.17-.01 2.34-.01 3.51 0 .43 0 .54.12.55.56 0 1.15 0 2.3-.01 3.45zm.04 10.4c0-.42.12-.54.55-.55 1.15-.01 2.3-.01 3.45 0 .46.01.56.12.57.6.01 1.13.01 2.25 0 3.38-.01.48-.1.58-.58.59-.58.01-1.17 0-1.75 0-.56 0-1.12.01-1.69 0-.48-.01-.55-.06-.55-.51-.01-1.17-.01-2.34 0-3.51zM140.28 55.4h2.67c.15 0 .31 0 .46-.01.28-.03.43-.19.45-.47 0-.2.01-.39.01-.58v-7.1c0-.2 0-.39.01-.58.01-.31.18-.48.5-.48.15 0 .3-.01.46-.01h7.29c.13 0 .26-.01.39 0 .42.04.52.12.55.56.01.17.01.35.01.52 0 .96-.01 1.91 0 2.87.01.54.12.65.66.66.96.01 1.91 0 2.87 0 .17 0 .35-.01.52.01.44.03.55.11.56.54.01 1.15.01 2.31 0 3.45 0 .47-.11.56-.59.58-.17.01-.35 0-.52 0-.93 0-1.86-.01-2.8 0-.59.01-.68.1-.7.68v3.2c0 .7-.04.73-.74.73H139.7c-.29 0-.44-.14-.44-.44v-.46-2.67c-.02-1.01-.13-1.01 1.02-1zm2.89 23.07c.59 0 .65.06.65.63.01 1.11.01 2.21 0 3.32 0 .58-.06.63-.63.64-1.32.01-2.64 0-3.97 0-1.28 0-2.56.01-3.84 0-.67 0-.74-.08-.75-.76-.01-1.02-.01-2.04 0-3.05.01-.68.09-.77.74-.77 2.59-.01 5.2-.01 7.8-.01zm-3.97 14.57c.01 1.32 0 2.64 0 3.97v3.77c0 .72-.02.75-.72.75-1.04.01-2.08.01-3.12 0-.64 0-.74-.09-.74-.7-.01-2.6-.01-5.2 0-7.81 0-.62.09-.7.73-.7 1.04-.01 2.08-.01 3.12 0 .64.01.73.09.73.72zm-9.19-64.69c0-.63.04-.66.67-.67 1.06 0 2.13-.01 3.19 0 .62 0 .71.09.71.73.01 2.58.01 5.17 0 7.75 0 .64-.08.72-.71.73-1.09.01-2.17.01-3.26 0-.55-.01-.6-.05-.6-.6-.01-1.32 0-2.64 0-3.97 0-1.32-.01-2.64 0-3.97zm-4.61-4.63c0-.52.1-.63.61-.63 1.15-.02 2.3-.01 3.45 0 .43 0 .51.09.51.5.01 1.19.01 2.39 0 3.58 0 .42-.08.48-.51.49-.58.02-1.17 0-1.76 0-.56 0-1.13.01-1.69 0-.51-.01-.61-.11-.62-.62 0-1.11 0-2.22.01-3.32zm-4.63 13.14v-3.84c0-.66.04-.7.7-.71 1.04-.01 2.08-.01 3.13 0 .69 0 .75.07.76.74.01.91 0 1.83 0 2.74 0 1.13 0 1.13 1.17 1.13h2.73c.68.01.71.04.71.69v2.93c0 .98.01.99.97.99h7.3c.96 0 .96 0 .96.97v12.18c-.01.63-.04.66-.67.66-1.06 0-2.12.01-3.19 0-.62 0-.7-.09-.71-.73v-.59-7.1c0-.74-.08-.82-.83-.82h-7.3c-.17 0-.35.01-.52 0-.46-.03-.55-.12-.58-.6-.01-.24 0-.48 0-.72 0-.89.01-1.78-.01-2.67-.01-.5-.12-.62-.62-.62-1-.01-2 0-3-.01h-.52c-.32 0-.48-.15-.48-.48V36.86zm9.2 14.61c.01 1.09.01 2.17 0 3.25-.01.52-.11.63-.6.63-1.17.01-2.34.01-3.51 0-.13 0-.25-.05-.41-.09-.02-.18-.06-.35-.06-.52 0-1.09-.01-2.17 0-3.25 0-.63.08-.71.71-.72 1.06-.01 2.13-.01 3.19 0 .6.01.68.1.68.7zm-13.8-9.39c0-.4.12-.52.51-.52 1.19-.02 2.38-.01 3.58-.01.32 0 .48.15.47.47 0 1.19.01 2.38-.01 3.58 0 .42-.12.5-.57.51-.58.02-1.17 0-1.76 0s-1.17-.01-1.75 0c-.33 0-.48-.15-.48-.47 0-1.17-.01-2.37.01-3.56zm-.01 13.98c0-.55.1-.65.65-.66 2.65-.01 5.3-.01 7.94 0 .55 0 .6.05.61.6.01 1.06 0 2.12 0 3.19.01.73.08.82.83.82h12.05c.96 0 .96 0 .97.96v2.8c0 .77-.05.82-.81.82h-12.37c-.54.02-.65.12-.66.66-.01 1 0 2 0 2.99 0 .96 0 .97-.96.97h-7.23c-.17 0-.35 0-.52-.01-.32-.01-.48-.18-.48-.49 0-1.22-.01-2.43 0-3.64.01-.37.1-.43.57-.44 1-.01 2 0 3-.01 1.02 0 1.03-.01 1.03-1 0-.97.01-1.95 0-2.93-.01-.62-.1-.71-.73-.72-1.06-.01-2.13 0-3.19 0-.63-.01-.67-.05-.68-.67-.03-1.07-.03-2.16-.02-3.24zm13.82 20.12v6.18c-.02.6-.1.68-.67.7h-7.67c-.15 0-.31 0-.46-.01-.27 0-.39-.15-.4-.41 0-.15-.01-.3-.01-.46v-7.41-.33c.03-.46.12-.55.6-.58.13-.01.26 0 .39 0h2.53c1.1 0 1.1 0 1.1-1.07v-2.67c0-.15.01-.3.01-.45 0-.3.16-.43.45-.43h.13c1.1 0 2.21-.01 3.32 0 .59.01.68.1.68.69v6.25zm-18.43-27.84c0-.54-.01-1.09 0-1.63.01-.47.07-.55.52-.55 1.17-.01 2.35-.01 3.51 0 .46 0 .52.07.53.53.01 1.15.01 2.3 0 3.45-.01.47-.11.58-.58.59-1.13.01-2.26.01-3.38 0-.5-.01-.58-.11-.6-.64-.01-.58 0-1.16 0-1.75zm4.57 12.09c0 1.28-.01 2.56-.01 3.84 0 .08-.05.16-.09.25-.13.02-.26.07-.38.07-1.18.01-2.35.01-3.52 0-.49 0-.56-.07-.56-.58-.01-1.15-.01-2.3 0-3.45 0-.47.07-.54.52-.55 1.18-.01 2.35 0 3.52 0 .28 0 .52.06.52.42zm-4.57 13.95c.01-.42.09-.5.51-.51 1.17-.02 2.33-.02 3.5 0 .43.01.55.12.55.55.01 1.17.01 2.33 0 3.5 0 .39-.12.51-.51.51-1.17.01-2.34.01-3.5 0-.43-.01-.52-.11-.54-.56-.01-.58 0-1.17 0-1.75-.01-.58-.02-1.16-.01-1.74zM97.69 50.66v-3.84c0-.62.04-.66.67-.66 1.06-.01 2.12 0 3.19-.01.66 0 .74-.1.75-.76.01-1 0-2 0-3 0-.78.07-.84.87-.84h2.93c.74-.01.8-.07.81-.84v-3.06c0-.68.04-.72.68-.72 1.08-.01 2.17-.01 3.25 0 .58 0 .64.06.64.63.01 2.62 0 5.25 0 7.88 0 .63-.04.67-.66.68-1.04.01-2.09 0-3.13 0-.75.01-.83.08-.83.82v7.49c0 .2 0 .39-.01.59-.01.2-.12.31-.33.33-.13.01-.26.01-.39.01h-7.95c-.39-.04-.49-.12-.51-.53-.02-.6-.01-1.21-.01-1.82v-2.35zm13.81 5.41c.01 1.11.01 2.21 0 3.32 0 .52-.06.58-.62.58-.57.01-1.13 0-1.7 0-.54 0-1.08.01-1.63 0-.53-.01-.63-.1-.63-.6-.01-1.15-.01-2.3 0-3.45 0-.45.07-.51.55-.52 1.13-.01 2.26-.01 3.39 0 .53.01.63.12.64.67zM93.08 36c0-1.02-.01-2.03 0-3.05.01-.58.05-.62.64-.63 1.1-.01 2.21-.01 3.32 0 .55.01.61.06.62.59.01 1.13.01 2.25 0 3.38-.01.48-.12.6-.57.61-1.21.01-2.42 0-3.64 0-.09 0-.16-.04-.37-.09V36zm-4.63-7.71c.01-.48.14-.6.64-.6 1.13-.01 2.26-.01 3.39 0 .5 0 .55.07.56.57.01.57 0 1.13 0 1.7 0 .56.01 1.13 0 1.69s-.06.62-.58.62c-1.15.01-2.31.01-3.45 0-.47 0-.55-.07-.55-.52-.01-1.16-.01-2.31-.01-3.46zm-9.2-.05c0-.47.07-.54.52-.55 1.14-.01 2.3-.01 3.44 0 .47 0 .58.11.59.57.01 1.17.01 2.34 0 3.51 0 .42-.08.48-.51.49-.58.02-1.17 0-1.75 0s-1.17.01-1.75 0c-.46-.01-.54-.08-.54-.53-.02-1.16-.02-2.33 0-3.49zm3.72 13.27h-2.93c-.76 0-.8-.05-.81-.83v-2.99c0-.21.02-.42.04-.7.27-.02.51-.06.74-.06 1-.01 2 0 2.99-.01.75 0 .83-.08.84-.81v-3.12c0-.62.05-.67.67-.67 1.09-.01 2.17-.01 3.25 0 .59.01.64.05.65.63.01 1.07 0 2.12 0 3.19 0 .7.09.78.79.79 1.04.01 2.08 0 3.13 0 .68.01.7.03.71.7v3.19c0 .63.09.72.71.73 1.02.01 2.04 0 3.06.01.77 0 .83.06.83.81.01 1 .01 2 0 3 0 .76-.01.77-.76.77H89.08c-.54.02-.65.11-.66.66-.01.87 0 1.73 0 2.6v.46c0 .86-.04.89-.87.9h-2.74c-.97 0-1 .03-1 .97v2.61c0 .15.01.31 0 .46-.03.47-.12.57-.59.58-.7.02-1.39.01-2.09.01-.39 0-.78.01-1.17 0-.65-.01-.72-.09-.72-.71-.01-1.02 0-2.04 0-3.06 0-.78-.07-.84-.87-.84-1.04 0-2.08.01-3.12 0-.59 0-.63-.05-.63-.64-.01-1.11 0-2.21 0-3.32 0-.17.03-.34.06-.63h8.07c.17 0 .35.01.52-.01.45-.03.56-.14.58-.6.01-.39.01-.78.01-1.17v-2.02c-.02-.81-.09-.87-.89-.88zm-3.78 19.11c.01 1.15.01 2.3 0 3.44 0 .45-.09.52-.55.53-1.17.01-2.34.01-3.51 0-.45-.01-.5-.08-.51-.56-.01-.59 0-1.17 0-1.76s-.01-1.17 0-1.75c.01-.43.07-.5.49-.5 1.17-.01 2.34-.01 3.51 0 .45 0 .56.12.57.6zm-4.58-26.11c0-.56-.01-1.13 0-1.69.01-.43.07-.5.5-.5 1.19-.01 2.38-.01 3.58 0 .41 0 .49.09.5.51.01 1.19.01 2.38 0 3.57 0 .4-.09.48-.52.48-1.14.01-2.29.01-3.44 0-.5-.01-.6-.12-.61-.63-.02-.57-.01-1.16-.01-1.74zm-.4-6.82h.37v-.02h.02c0-1.27 0-2.55.01-3.82 0-.68.08-.76.74-.77 1.06-.01 2.12-.01 3.19 0 .57.01.65.07.65.63.01 1.13.01 2.26 0 3.38 0 .5-.07.56-.57.56-1.34.01-2.68.01-4.02.01v.02h-.02v3.89c0 .68-.03.7-.7.71-.98.01-1.95 0-2.93 0-.99 0-1 .02-1 1.04v2.86c-.01.63-.08.71-.71.72-1.06.01-2.13.01-3.19 0-.56 0-.66-.1-.66-.64-.01-2.67-.01-5.33 0-8 0-.53.06-.57.7-.57 2.7-.01 5.41 0 8.12 0zM61.43 55.4c2.5-.01 4.99 0 7.49 0 1.07 0 1.07 0 1.07-1.1 0-.93-.01-1.86 0-2.8.01-.63.09-.71.72-.72 1.04-.01 2.08-.01 3.12 0 .72 0 .74.02.74.72V59.31c0 .62-.05.66-.67.67-1.06.01-2.12 0-3.19 0-.66.01-.76.1-.77.76-.01 1.06 0 2.12 0 3.19-.01.61-.05.67-.67.67-2.63.01-5.25.01-7.88 0-.57 0-.62-.06-.62-.65-.01-2.62-.01-5.25 0-7.88 0-.63.05-.67.66-.67zm-.66-9.84c0-1.11-.01-2.21 0-3.32 0-.59.09-.68.68-.68 1.06-.01 2.13-.01 3.19 0 .6 0 .68.09.69.68.01 1.07.01 2.13 0 3.19-.01.61-.09.69-.67.7-1.11.01-2.21 0-3.32 0-.15 0-.29-.04-.51-.06-.02-.21-.06-.36-.06-.51zm9.23-.02c-.01-1.14-.01-2.3 0-3.44.01-.42.13-.54.56-.55 1.14-.01 2.3-.01 3.44 0 .47.01.56.12.57.6.01 1.15.01 2.29 0 3.44-.01.46-.06.51-.54.52-.56.01-1.13 0-1.69 0-.58 0-1.17.01-1.75-.01-.47.01-.58-.09-.59-.56zM56.14 19.19c0-.65.08-.72.77-.72 2.04-.01 4.08 0 6.12 0h6.12c.73.01.79.07.79.77.01 1 0 2 0 3v.06c-.01.67-.07.73-.76.73-.95.01-1.91 0-2.86 0-.15 0-.3-.01-.45.01-.37.04-.48.15-.52.54-.02.17-.01.35-.01.52 0 1 .01 2 0 3-.01.5-.07.55-.57.56-.52.01-1.04 0-1.56 0h-6.38c-.64 0-.68-.03-.68-.65-.01-2.61-.01-5.22-.01-7.82zm4.59 17.07c-.01.53-.11.63-.66.64-.58.01-1.17 0-1.76 0-.54 0-1.08.01-1.63 0-.47-.01-.54-.06-.54-.52-.01-1.17-.01-2.34 0-3.51 0-.47.07-.54.52-.54 1.15-.01 2.3-.01 3.44 0 .51.01.61.1.62.62.02 1.09.02 2.2.01 3.31zm-9.2-8.07c.01-.41.09-.49.52-.49 1.19-.01 2.39 0 3.58-.01.33 0 .47.15.47.47-.01.61 0 1.22 0 1.83 0 .56.01 1.13 0 1.69-.01.52-.06.59-.55.6-1.17.01-2.35.01-3.51 0-.42-.01-.5-.08-.51-.5-.01-1.21-.01-2.4 0-3.59zm-4.61 4.74c.01-.48.1-.6.5-.6 1.25-.01 2.52 0 3.77.01.06 0 .12.04.25.09.02.18.05.33.05.48 0 1.13.01 2.26 0 3.38 0 .56-.05.61-.58.61-1.1.01-2.21.01-3.32 0-.57 0-.65-.09-.66-.64-.02-1.12-.02-2.23-.01-3.33zm0 13.94c0-.64.08-.71.72-.71 1.04-.01 2.09 0 3.13-.01.66 0 .75-.1.76-.76.01-2.47 0-4.95 0-7.42v-.59c0-.29.12-.45.43-.45 1.28.01 2.56.01 3.84.02.06 0 .12.04.3.11V45.45c.02.58.11.69.69.7.89.01 1.78 0 2.67 0 .26 0 .52.01.78 0 .32-.01.5.12.49.46v8.07c0 .62-.05.67-.67.67-1.04.01-2.08.01-3.13 0-.74-.01-.79-.06-.79-.78-.01-1.02 0-2.04 0-3.06-.01-.7-.08-.78-.8-.78-2.38-.01-4.77 0-7.16 0h-.52c-.7-.01-.73-.04-.73-.74-.01-1.03-.02-2.08-.01-3.12zM51.48 56c.01 1.14.01 2.29 0 3.44 0 .47-.06.52-.53.53-.58.01-1.17 0-1.75 0-.56 0-1.13.01-1.69 0-.53-.01-.58-.06-.59-.61-.01-1.12-.01-2.25 0-3.38.01-.51.07-.58.56-.58 1.13-.01 2.25-.01 3.38 0 .53.01.61.09.62.6zm-4.56 9.33c0-.65.05-.7.72-.7h3.13c.67 0 .76-.09.76-.75.01-1.06 0-2.13.01-3.19 0-.62.05-.67.67-.67 1.06-.01 2.12-.01 3.19 0 .63 0 .71.09.72.72.01 1 0 2 0 3 0 .87.04.9.94.9h2.93c.74 0 .76.02.76.78v3.13c-.01.63-.04.67-.66.67H52.6c-1.09 0-1.09 0-1.09 1.08 0 .96.01 1.91 0 2.87-.01.57-.08.65-.64.66-1.11.01-2.21.01-3.32 0-.53 0-.6-.07-.6-.61-.01-1.32 0-2.65 0-3.97-.03-1.32-.04-2.62-.03-3.92zm-4.16-14.55c1.22.01 2.43 0 3.64 0 .32 0 .47.16.47.48v3.64c0 .33-.16.47-.48.46-1.19 0-2.38.01-3.58-.01-.4-.01-.5-.12-.51-.52-.02-.62-.01-1.25-.01-1.89v-1.69c0-.32.13-.48.47-.47zm4.11 9.79c.01 1.14.01 2.29 0 3.44 0 .46-.07.56-.44.56-1.28.01-2.55 0-3.83-.01-.06 0-.12-.04-.24-.09-.02-.18-.06-.32-.06-.47 0-1.11-.01-2.21 0-3.32.01-.59.1-.68.68-.68 1.1-.01 2.21-.01 3.31 0 .51.02.58.07.58.57zM33.06 46.76c.01-.54.06-.6.6-.6 2.64-.01 5.29-.01 7.93 0 .55 0 .65.1.66.64.01 1.13.01 2.26 0 3.39-.01.49-.07.55-.58.55-1.34.01-2.68 0-4.03 0h-3.9c-.63 0-.68-.05-.68-.66 0-1.11-.01-2.21 0-3.32zm4.57 9.23c.01 1.14.01 2.29 0 3.44-.01.43-.11.53-.56.54-.58.02-1.17 0-1.75 0-.54 0-1.08.01-1.62 0-.52-.01-.63-.1-.63-.6-.01-1.14-.01-2.3 0-3.44.01-.46.08-.52.54-.53 1.15-.01 2.29-.01 3.44 0 .47.01.58.12.58.59zm-4.57 9.33c.01-.6.1-.69.68-.69 2.63-.01 5.25-.01 7.88 0 .58 0 .63.05.63.64 0 1.09.01 2.17 0 3.25-.01.58-.11.67-.7.68-1.3.01-2.6 0-3.9 0-1.28 0-2.56.01-3.85 0-.66 0-.74-.09-.74-.76 0-1.03-.01-2.08 0-3.12zm4.57 31c0 .47-.11.57-.58.57-1.15.01-2.3.01-3.45 0-.46 0-.52-.07-.52-.54-.01-1.15-.01-2.3 0-3.45.01-.44.12-.57.53-.57 1.22-.01 2.43-.01 3.65 0 .1 0 .2.06.31.09.03.12.07.22.07.32-.01 1.19 0 2.39-.01 3.58zm0-9.26c0 .58-.04.62-.65.62-1.08.01-2.16.01-3.25 0-.56 0-.67-.1-.67-.63-.01-1.15-.01-2.3 0-3.44 0-.46.06-.51.55-.52.56-.01 1.12 0 1.69 0 .57 0 1.13-.01 1.69 0 .55.01.64.1.64.66.01 1.11.01 2.21 0 3.31zm-3.81-8.62c-.74 0-.75 0-.76-.77v-3.06c0-.67.08-.74.76-.74 2.06-.01 4.12 0 6.18 0H46.38c.31 0 .49.14.48.47 0 .15.01.3.01.46v7.68c-.03.47-.12.58-.59.59-1.13.01-2.25.01-3.38 0-.5-.01-.6-.11-.6-.63-.01-1.04 0-2.08 0-3.12 0-.17 0-.35-.04-.52-.09-.32-.36-.34-.63-.34h-2.47c-1.79-.02-3.57-.01-5.34-.02zm3.81 54.75c0 .56-.09.64-.65.65-.54.01-1.08 0-1.63 0s-1.09.01-1.63 0c-.56-.01-.66-.09-.67-.63-.01-1.11-.01-2.21 0-3.32 0-.51.11-.62.61-.63 1.1-.01 2.21-.01 3.32 0 .53.01.63.12.63.67.03 1.09.03 2.17.02 3.26zm4.63-9.28c-.01.59-.1.69-.68.7-1.32.01-2.64 0-3.97 0H33.9c-.77 0-.83-.06-.84-.81-.01-1.02-.01-2.04 0-3.05 0-.68.03-.72.69-.72h7.87c.6 0 .63.04.64.63 0 1.08.01 2.17 0 3.25zm0-15.41c0 .56.01 1.13 0 1.69-.01.48-.06.55-.51.56-1.19.01-2.39.01-3.58 0-.42 0-.48-.07-.48-.52-.01-1.17-.01-2.34 0-3.51 0-.46.08-.52.55-.53 1.17-.01 2.34-.01 3.51 0 .45 0 .51.07.52.55 0 .59-.01 1.18-.01 1.76zm-.01-16.21c-1.3 0-2.6.01-3.9 0-.62 0-.67-.05-.67-.67-.01-1.08-.01-2.17 0-3.25 0-.59.05-.65.62-.65h7.87c.62 0 .7.09.7.73.01 1.04.01 2.08 0 3.12 0 .63-.09.71-.72.72h-3.9zm9.23 45.65c-.01.42-.08.5-.5.51-1.17.01-2.35.01-3.52 0-.42 0-.53-.13-.54-.56-.01-1.15-.01-2.3 0-3.45.01-.43.12-.55.55-.55 1.15-.01 2.31-.01 3.45 0 .43 0 .55.11.56.55.02.61 0 1.21 0 1.82.01.55.02 1.11 0 1.68zm23.09 13.77c-.01.47-.11.59-.57.6-1.15.01-2.3.01-3.44 0-.43-.01-.55-.12-.56-.54-.02-1.17-.02-2.34 0-3.51.01-.41.14-.53.57-.53 1.14-.01 2.29-.01 3.44 0 .42.01.54.14.55.55.02.58 0 1.17 0 1.76.02.55.03 1.11.01 1.67zm4.62-13.9c-.01.56-.08.63-.65.64-1.06.01-2.12 0-3.19.01-.71.01-.78.09-.78.8-.01 1.02 0 2.04 0 3.06 0 .68-.07.75-.75.75-2.58.01-5.16.01-7.75 0-.61 0-.7-.09-.7-.66-.01-1.09-.01-2.17 0-3.25 0-.56.09-.64.65-.65 1.04-.01 2.09 0 3.13 0 .75 0 .83-.08.83-.81.01-1.02 0-2.04.01-3.06 0-.66.09-.75.76-.76 1.28-.01 2.56 0 3.84 0h3.84c.67 0 .76.09.76.75.01 1.05.01 2.12 0 3.18zm-.74-13.2c-1-.01-2 0-3 0-.84 0-.84-.01-.84-.83v-7.23c0-.17.01-.35 0-.52-.02-.53-.12-.64-.66-.65-.72-.01-1.43 0-2.15 0h-5.67c-.7 0-.78.08-.79.79-.01 1.04 0 2.09 0 3.13-.01.67-.03.7-.7.71-1.02.01-2.04 0-3.06 0-.77 0-.83.06-.83.8-.01 1.02-.01 2.04 0 3.06 0 .67.09.77.74.77 1.06.01 2.13.01 3.19 0 .57 0 .69-.12.7-.69.01-1.06 0-2.13.01-3.19 0-.7.02-.72.75-.72h2.99c.77 0 .82.06.83.81.01.96 0 1.91 0 2.87 0 .87.06.93.91.94.93.01 1.87 0 2.8 0 .91 0 .91 0 .91.94v2.74c0 .86-.03.89-.87.89H67c-1.84 0-1.65-.19-1.66 1.69 0 .74.01 1.48 0 2.22-.01.64-.08.71-.71.72-1.04.01-2.09 0-3.13.01-.66 0-.75.09-.75.75-.01 1.04 0 2.09-.01 3.13 0 .63-.09.72-.72.72-1.04.01-2.09.01-3.13 0-.71 0-.74-.03-.74-.73-.01-1.6 0-3.21 0-4.82v-7.3c0-.17 0-.35-.01-.52-.01-.29-.17-.44-.45-.46-.19-.01-.39-.01-.58-.01H48c-.2 0-.39 0-.58-.01-.31-.01-.48-.18-.48-.49v-3.65c0-.3.16-.43.45-.43H55.01c.17 0 .35.01.52 0 .5-.02.6-.13.62-.63.01-.7 0-1.39 0-2.09 0-.43-.01-.87 0-1.3.01-.56.04-.6.59-.61.7-.01 1.39 0 2.09 0H60c.7-.01.77-.09.78-.81v-2.86c0-.92.02-.93.96-.93h2.74c.84 0 .9-.06.91-.87v-.72-2.15c0-.84-.06-.9-.88-.9-.83-.01-1.65 0-2.48 0h-5.02c-.85 0-.89.05-.89.88v7.69c-.01.62-.04.66-.68.66h-7.82c-.63.01-.73.1-.73.72-.01.93 0 1.86 0 2.8v.52c-.02.51-.07.58-.56.58-1.15.01-2.3.01-3.45 0-.5 0-.55-.06-.56-.57-.01-.85 0-1.7 0-2.54v-5.34c0-.71.03-.74.73-.74h7.42c.2 0 .39 0 .58-.01.31-.02.48-.2.48-.5 0-1.22.01-2.43 0-3.65 0-.31-.19-.47-.5-.48-.2 0-.39-.01-.59-.01h-7.42c-.67-.01-.71-.04-.71-.7-.01-2.58-.01-5.17 0-7.75 0-.67.08-.75.75-.75h7.83c.51.03.61.1.61.62.02.91.01 1.82.01 2.73 0 1.26 0 1.26 1.24 1.26H64.2c.17 0 .35.01.52 0 .53-.02.64-.12.65-.67.01-.54 0-1.08 0-1.63v-6.12c0-.78-.07-.85-.87-.85h-3c-.67-.01-.73-.07-.74-.76-.01-1.04-.01-2.08 0-3.13 0-.65.03-.68.71-.68 1.04-.01 2.09 0 3.13 0 .66-.01.76-.1.76-.76.01-1.07.01-2.13 0-3.19-.01-.59-.11-.7-.68-.7-1.09-.01-2.17-.01-3.26 0-.59 0-.68.1-.69.68-.01 1.07 0 2.13 0 3.19 0 .73-.01.75-.71.75-1.06 0-2.13.01-3.19 0-.58 0-.68-.1-.69-.68-.01-1.04 0-2.09 0-3.13 0-.74-.07-.81-.83-.81h-3.06c-.62-.01-.71-.09-.71-.73-.01-1.02-.01-2.04 0-3.06 0-.72.07-.79.78-.8 1.06-.01 2.13 0 3.19 0h8.79c.2 0 .39 0 .58-.01.32-.01.48-.19.48-.49.01-1.22.02-2.43 0-3.65-.01-.38-.16-.49-.62-.49-.91-.01-1.83 0-2.73 0-.22 0-.43.01-.65-.01-.48-.02-.57-.11-.58-.59-.01-1.15-.01-2.3-.01-3.45 0-.04.01-.09.01-.13 0-.27.14-.4.4-.4.17 0 .35-.01.52-.01H69.32c.55-.02.65-.11.67-.65.01-.15 0-.3 0-.46 0-.93-.01-1.87 0-2.8 0-.65.05-.7.72-.7h3.19c.63.01.67.05.67.67v7.69c0 .82.05.87.9.87.97.01 1.95 0 2.93 0 .7.01.78.09.78.8.01 1.02 0 2.04 0 3.06.01.66.09.74.77.75h7.49c.95 0 .97.01.97.93 0 .97.01 1.95 0 2.93 0 .7-.03.72-.74.72h-7.3c-.17 0-.35-.01-.52 0-.53.02-.64.12-.65.66-.01.63 0 1.26 0 1.89v5.8c0 .86.05.91.93.91.98 0 1.95-.01 2.93 0 .67.01.74.09.75.76.01 1.04.01 2.09 0 3.13-.01.61-.09.69-.67.7-2.6.01-5.21.01-7.81 0-.63 0-.71-.08-.71-.72-.01-2.43 0-4.87 0-7.3 0-.2.01-.39 0-.59-.02-.47-.11-.59-.58-.59-1.17-.02-2.35-.02-3.52 0-.43.01-.52.13-.55.55-.01.15 0 .31 0 .46v16.42c0 1.05.01 1.06 1.05 1.06.96 0 1.91-.01 2.87 0 .64.01.7.07.71.72.01 1.04 0 2.09 0 3.13 0 .65.09.74.77.75 1.02.01 2.04 0 3.06 0 .7.01.79.09.79.79v7.36c0 .19 0 .39.01.59.01.31.18.48.49.48h3.65c.32 0 .47-.2.49-.5.01-.22.01-.43.01-.65v-11.79c0-.89 0-.89.9-.89h3c.62 0 .66.04.67.67.01 1.07 0 2.13 0 3.19.01.62.1.73.72.73 1.09.01 2.17.01 3.26 0 .57-.01.67-.12.68-.71.01-1.08.01-2.17 0-3.26-.01-.57-.1-.67-.7-.67-1.07-.01-2.13 0-3.19-.01-.7 0-.73-.04-.73-.75-.01-1.02-.01-2.04 0-3.06 0-.71.07-.77.79-.77h21.3c.93 0 .95.02.96.94v2.48c0 1.17 0 1.17-1.14 1.17h-7.1c-.98.01-1 .02-1 .98v7.1c0 1.28.06 1.15-1.17 1.15h-6.9c-.17 0-.35-.01-.52 0-.5.02-.61.12-.61.63-.01.95-.01 1.91-.01 2.86 0 1.13 0 1.13-1.1 1.13h-2.8c-.63.01-.72.09-.72.72-.01 1.04 0 2.09 0 3.13 0 .67-.08.75-.75.75-1.02.01-2.04 0-3.06.01-.7 0-.78.09-.79.79-.01 1.02 0 2.05-.01 3.07 0 .68-.06.74-.75.75h-3.07c-.68-.01-.75-.07-.75-.74-.01-1.02 0-2.04 0-3.06-.05-.74-.14-.83-.83-.84zm5.36-20.72c0 .56.01 1.13 0 1.69-.01.5-.07.56-.58.56-1.13.01-2.25.01-3.38 0-.5-.01-.61-.11-.61-.63-.01-1.1-.01-2.21 0-3.31 0-.53.09-.63.6-.63 1.12-.01 2.25-.01 3.38 0 .49.01.58.11.6.63 0 .57-.01 1.13-.01 1.69zm4.64-16.81c-.01-1.15-.01-2.3 0-3.45 0-.48.05-.53.52-.54.58-.01 1.17 0 1.76 0s1.17-.01 1.76 0c.49.01.55.06.55.51.01 1.19.01 2.39 0 3.58 0 .43-.07.49-.5.5-1.17.01-2.34.01-3.51 0-.45 0-.57-.13-.58-.6zm4.63 5.15v-3.84c0-.63.04-.66.67-.67 1.07-.01 2.13-.01 3.19 0 .64 0 .71.07.72.72.01 1.04 0 2.08.01 3.13 0 .66.09.74.76.75 1.04.01 2.08 0 3.13.01.63 0 .71.08.72.72v3.13c0 .65-.08.73-.7.73-2.58.01-5.17.01-7.75 0-.66 0-.73-.07-.73-.77-.03-1.31-.02-2.61-.02-3.91zm-.04 68.68c0 .56-.05.6-.6.61-1.06.01-2.13 0-3.19.01-.74 0-.83.09-.83.82-.01 1.02 0 2.04 0 3.06 0 .73-.02.75-.71.75h-3.19c-.62 0-.66-.05-.66-.68-.01-1.3 0-2.61 0-3.91v-3.84c0-.71-.08-.79-.79-.79-1.02-.01-2.04 0-3.06-.01-.72 0-.75-.03-.75-.72-.01-1.04-.01-2.09 0-3.13 0-.67.07-.74.76-.74h7.69c.64 0 .72.08.73.71.01 1 0 2 0 3 0 .86.05.91.93.91h3.06c.59 0 .63.04.63.63-.01 1.11-.01 2.22-.02 3.32zm-3.82-13.23c-.71 0-.77-.06-.77-.79-.01-1.02 0-2.04 0-3.06-.01-.65-.11-.75-.77-.75-1.02-.01-2.04-.01-3.06 0-.72 0-.8.09-.81.85-.01.97 0 1.95 0 2.93 0 .77-.06.83-.8.83-1.02 0-2.04.01-3.06 0-.64 0-.71-.08-.71-.72-.01-2.6-.01-5.21 0-7.81 0-.6.05-.65.69-.65 2.06-.01 4.12 0 6.18 0h6.06c.86 0 .91-.05.91-.94 0-1-.01-2 0-2.99.01-.6.1-.7.68-.7 2.6-.01 5.21-.01 7.81 0 .6 0 .7.09.7.68v7.88c0 .59-.05.63-.63.64-1.04.01-2.08 0-3.12 0-.78.01-.85.07-.85.87v2.99c0 .67-.08.75-.75.75-2.57 0-5.14 0-7.7-.01zm22.28-.64c0 .58-.06.63-.63.64-1.06.01-2.13 0-3.19.01-.69 0-.78.1-.78.8v7.69c0 .69.09.78.8.78 1.02.01 2.04 0 3.06 0 .68.01.75.07.75.76v7.69c0 .66-.09.74-.76.75-1.02.01-2.04.01-3.06 0-.7 0-.76-.07-.76-.81-.01-1 0-2 0-2.99 0-.75-.07-.82-.82-.82-1.02-.01-2.04 0-3.06 0-.63-.01-.71-.08-.72-.72-.01-1.04 0-2.09-.01-3.13-.01-.66-.09-.74-.77-.74-1.3-.01-2.6 0-3.91 0H93.8c-.67 0-.71-.04-.71-.69-.01-1.04-.01-2.09 0-3.13 0-.7.07-.76.8-.77h7.36c1.07 0 1.07 0 1.07-1.04v-7.17c0-.15-.01-.3 0-.46.02-.49.08-.56.58-.57.98-.01 1.95 0 2.93 0 .17 0 .35 0 .52-.01.46-.04.57-.14.57-.61.01-1.04 0-2.08.01-3.13 0-.82.04-.86.83-.86 1.02-.01 2.04-.01 3.06 0 .63 0 .68.06.69.66-.01 2.61 0 5.24-.01 7.87zm0-18.51c0 .58-.1.68-.69.68-2.06.01-4.12 0-6.19 0h-6.45c-.33-.01-.47-.19-.47-.5 0-.11-.01-.22-.01-.32v-7.49c0-.11 0-.22.01-.33.04-.43.11-.52.56-.54.59-.01 1.17 0 1.76 0h1.56c.63.01.67.05.68.66.01.87 0 1.74 0 2.6v.52c.01.73.1.82.84.82h7.75c.59.02.64.06.65.63.01 1.1.01 2.19 0 3.27zm4.61 23.17c0 .5-.11.6-.63.6-1.1.01-2.21.01-3.31 0-.52 0-.61-.1-.62-.61-.01-.58 0-1.17 0-1.75 0-.56-.01-1.12 0-1.69.01-.46.07-.53.53-.53 1.17-.01 2.34-.01 3.51 0 .46.01.52.07.52.54.02 1.15.02 2.3 0 3.44zm-.58-13.25c-.56.01-1.13 0-1.69 0-.57 0-1.13.01-1.69 0-.51-.01-.59-.07-.59-.55-.01-1.15-.01-2.3 0-3.45.01-.47.11-.57.59-.57 1.13-.01 2.26-.01 3.38 0 .47 0 .58.11.59.58.01 1.15.01 2.3 0 3.45-.01.48-.08.53-.59.54zm28.28-14.39c0 .4-.11.52-.5.53-1.22.02-2.43.01-3.64 0-.3 0-.42-.17-.42-.46v-1.82c0-.59-.01-1.17 0-1.76.01-.45.06-.52.47-.53 1.19-.01 2.39-.01 3.58 0 .4.01.51.12.52.51 0 1.19 0 2.36-.01 3.53zm3.83-8.69h-7.36c-1.07 0-1.07 0-1.07 1.1v2.87c0 .63-.04.66-.67.66h-17c-.67 0-.75-.09-.76-.75-.01-1.04 0-2.09-.01-3.13 0-.66-.09-.74-.76-.75-1.04-.01-2.09-.01-3.13 0-.65.01-.74.1-.75.77v7.42c0 1.04 0 1.04-1.06 1.04h-2.8c-.66-.01-.71-.05-.71-.7-.01-1.04 0-2.09 0-3.13-.01-.7-.09-.78-.8-.78h-7.56c-.87 0-.88 0-.88-.86 0-1.02-.01-2.04 0-3.06.01-.63.05-.67.67-.68 1.06-.01 2.12 0 3.19 0 .66-.01.74-.09.74-.77.01-.99 0-2 0-2.99 0-.79.05-.84.86-.84h11.92c1.06 0 1.06 0 1.06-1.04v-2.93c.01-.58.06-.62.65-.63 1.06-.01 2.12 0 3.19-.01.69 0 .78-.09.78-.8 0-1.04.01-2.09 0-3.13 0-.63-.09-.72-.72-.72-1.04-.01-2.09 0-3.13 0-.75 0-.78-.02-.78-.76v-7.3c0-.17.01-.35 0-.52-.02-.55-.11-.65-.66-.66-1.11-.01-2.22-.01-3.32 0-.53.01-.65.12-.66.66-.01.89 0 1.78-.01 2.67 0 .22.01.43 0 .65-.02.52-.1.61-.62.62-.61.01-1.21 0-1.82 0h-5.67c-.17 0-.35.01-.52 0-.45-.03-.53-.11-.57-.54-.01-.17 0-.35 0-.52V88.8c0-.17.01-.35 0-.52-.03-.47-.11-.57-.58-.59-.52-.02-1.04 0-1.56-.01-.61 0-1.22.01-1.83 0-.51-.01-.62-.11-.62-.62-.02-1-.01-2-.01-2.99 0-.17 0-.35-.01-.52-.02-.31-.18-.47-.5-.48h-7.82c-.17 0-.35 0-.52-.01-.23-.01-.36-.13-.37-.36-.01-.2-.01-.39-.01-.59V75c0-.17.01-.35 0-.52-.02-.52-.13-.65-.66-.65-.83-.01-1.65 0-2.48 0h-.59c-.86 0-.89-.04-.89-.87v-2.47-.46c-.01-.73-.08-.8-.84-.81H80.12c-.85-.01-.88-.04-.88-.88v-2.93c0-.74.03-.77.78-.77h11.79c.21 0 .43.01.65 0 .49-.02.61-.13.61-.63.01-.91 0-1.83 0-2.74 0-.21-.01-.43 0-.65.02-.48.11-.57.58-.59.39-.02.78-.01 1.18-.01h1.89c.9 0 .93.03.94.9v2.67c0 .15-.01.3 0 .45.03.47.13.57.6.59.57.01 1.13 0 1.69 0s1.13 0 1.7.01c.51.01.61.11.61.62.01.98 0 1.95 0 2.93 0 .17-.01.35.01.52.04.37.15.5.53.52.3.02.61.01.91.01.84 0 1.69.01 2.54 0 .54-.01.65-.12.66-.65.01-1.04 0-2.09.01-3.13 0-.76.06-.82.82-.83h3.13c.57 0 .63.07.64.64.01 2.63 0 5.26 0 7.88 0 .61-.06.66-.68.66-1.02.01-2.04 0-3.06 0-.8 0-.87.06-.87.84v7.56c0 .8.06.86.85.86h12.05c.94 0 .94 0 .94.92v2.8c0 .86.05.91.94.91H129.23c.68.01.74.07.74.76 0 1.04.01 2.09 0 3.13 0 .59-.09.68-.68.68-1.04.01-2.09 0-3.13.01-.71.01-.79.09-.8.78-.01 1.02-.01 2.04 0 3.06.01.72.08.79.78.8 1 .01 2 0 3 0 .77 0 .84.06.84.8v12.31c0 .19-.03.38-.05.66-.31.02-.55.05-.78.05-1 .01-2 0-3 .01-.69 0-.78.1-.78.8-.01 1.04-.01 2.08 0 3.13.01.59.11.7.68.71 1.08.01 2.17.01 3.25 0 .61 0 .71-.11.71-.74.01-1.07 0-2.13 0-3.19 0-.63.04-.66.67-.67 1.04-.01 2.09 0 3.13 0 .73-.01.81-.09.82-.84.01-.98 0-1.95 0-2.93 0-.79.05-.83.86-.84h2.93c.74 0 .81-.08.81-.84.01-1.04 0-2.09.01-3.13 0-.62.04-.66.67-.66h7.82c.63 0 .71.09.72.72.01 1.04.01 2.09 0 3.13 0 .63-.09.72-.72.73-.93.01-1.87 0-2.8 0-.17 0-.35 0-.52.01-.46.04-.57.13-.58.6-.02.65-.01 1.3-.01 1.96 0 .46-.01.91 0 1.37.01.61.1.71.73.72.93.01 1.86 0 2.8 0 1.09 0 1.09 0 1.09 1.08v2.67c0 .76-.06.83-.8.83zm-31.47-9.77c-.01-1.17-.01-2.35 0-3.51 0-.42.12-.51.57-.52.61-.01 1.22 0 1.83 0 .56 0 1.13.01 1.69 0 .32-.01.48.14.48.46v3.64c0 .33-.16.47-.48.47-1.19 0-2.39.01-3.58-.01-.38 0-.51-.13-.51-.53zm27.64 55.33c-.01.48-.11.57-.57.58-.58.02-1.17.01-1.75.01-.56 0-1.13.01-1.69 0-.49-.01-.55-.06-.56-.51-.01-1.17-.01-2.34 0-3.51 0-.42.11-.53.56-.53 1.14-.02 2.29-.02 3.44 0 .47.01.57.11.57.59.02 1.12.02 2.25 0 3.37z"/><path class="st0" d="M133.84 166.16c-1.04-.01-2.08-.01-3.12 0-.65 0-.74.09-.74.77-.01 1.02 0 2.04 0 3.05 0 .72-.07.79-.78.79-1.02.01-2.04 0-3.06.01-.7 0-.77.09-.78.8v3.05c.01.7.1.79.79.79 2.56.01 5.12.01 7.67 0 .7 0 .79-.09.79-.79.01-1.28 0-2.56 0-3.84v-3.84c.01-.7-.08-.79-.77-.79zM129.3 152.34c.59-.01.7-.11.7-.67.01-1.1.01-2.21 0-3.32-.01-.54-.12-.66-.65-.66-1.1-.01-2.21-.01-3.31 0-.54.01-.66.12-.67.65-.01 1.13-.01 2.25 0 3.38 0 .5.12.61.62.62.56.02 1.13 0 1.69 0 .54 0 1.08.01 1.62 0zM144.95 143.08h-.53c-.46.01-.58.14-.59.59-.01 1.15-.01 2.3 0 3.44.01.43.11.55.5.58v-3.57c-.01-.86.01-1.01.62-1.04zM166.91 145.73v-2.66h-9.2v2.66h9.2zM175.79 143.07h-4.24v2.66h2.68v6.58h1.09c.76 0 .84.07.84.8.01 2.56.01 5.13 0 7.69 0 .67-.08.76-.74.76h-1.19v9.21h.75c.2 0 .39-.01.58.01.47.03.58.12.59.59.01 1.15.01 2.3 0 3.45-.01.46-.12.56-.58.6-.15.01-.3 0-.46 0h-16.42c-1.03 0-1.04 0-1.04-1.07v-1.62h-4.57v1.9c0 .69-.1.79-.79.79h-7.26H175.61c1.04 0 1.05-.01 1.05-1.05V143.96c.02-.82-.05-.88-.87-.89zM146.09 147.71c-.56 0-1.12.01-1.69 0-.03 0-.05-.01-.08-.01v4.62H146.23v-4.61h-.14zM144.95 143.08c.97-.01 1.94-.02 2.9 0 .49.01.61.14.61.63.01.67 0 1.35 0 2.02h4.59v-2.66h-7.68c-.16 0-.3.01-.42.01z"/><path class="st0" d="M175.42 161.56c.67 0 .74-.09.74-.76.01-2.56.01-5.13 0-7.69 0-.73-.08-.8-.84-.8h-1.09v9.25c.4 0 .8.01 1.19 0zM157.67 172.73v1.62c0 1.07.01 1.07 1.04 1.07h16.42c.15 0 .31.01.46 0 .46-.04.58-.14.58-.6.01-1.15.01-2.3 0-3.45-.01-.47-.12-.56-.59-.59-.2-.01-.39-.01-.58-.01h-.75v1.96h-16.58zM157.7 145.73v-2.66h-4.64v2.66h4.64zM166.91 145.73h4.65v-2.66h-4.65v2.66zM153.1 174.63v-1.9h-6.86v-20.42H144.33v22.03c0 .94 0 1.06.72 1.08h7.26c.69 0 .79-.09.79-.79zM147.86 143.08c-.97-.01-1.94-.01-2.9 0-.61.03-.63.18-.63 1.04v3.57c.03 0 .05.01.08.01.56.02 1.13 0 1.69 0h.15v-1.98h2.23c0-.67.01-1.34 0-2.02-.01-.49-.13-.62-.62-.62z"/><path class="st0" d="M148.99 170c-.01-2.81 0-5.61 0-8.42-.42.03-.5.17-.5.75-.01 1.28 0 2.56 0 3.84 0 1.3-.01 2.6 0 3.91 0 .59.1.68.69.68h.49c-.61-.01-.68-.1-.68-.76zM157.7 146.95c0 .65.08.73.7.73 2.63.01 5.25.01 7.88 0 .59 0 .63-.04.63-.63v-1.31h-9.2c0 .4-.01.8-.01 1.21zM148.98 148.84v-.46c.02-.55.1-.65.64-.67h3.43v-1.98h-4.59c0 .45.01.91 0 1.36-.01.5-.12.6-.62.62-.54.02-1.07.01-1.61 0v4.61h2.74v-3.48zM171.56 146.81c-.01.84-.06.9-.88.9-.73.01-1.45 0-2.18 0h2.49c1.03 0 1.04 0 1.04 1.06v3.54h2.21v-6.58h-2.68v1.08zM157.63 170.87c-.24-.02-.42-.05-.61-.06-1.07 0-2.13-.01-3.19 0-.67 0-.71.04-.72.7v1.22h4.57v-1.12c-.01-.23-.04-.46-.05-.74zM172.03 161.55v8.19c0 .62-.01.86-.23.96.09.04.21.06.39.06.68.01 1.36.01 2.05.01v-9.21c-.65 0-1.29.01-1.94 0-.11 0-.19 0-.27-.01z"/><path class="st0" d="M172.03 161.55c.08.01.17.01.27.01.65.01 1.29 0 1.94 0v-9.25h-2.21v9.24zM166.91 147.04c0 .6-.04.63-.63.63-2.63.01-5.25.01-7.88 0-.62 0-.7-.09-.7-.73v-1.21h-4.64v1.98h17.62c.82 0 .87-.06.88-.9v-1.08h-4.65v1.31zM171.8 170.7c-.15.06-.38.07-.78.07H149.17c-.6-.01-.69-.1-.69-.68-.01-1.3 0-2.61 0-3.91v-3.84c0-.58.08-.72.5-.75v-9.27h-2.74v20.42h6.86v-1.22c.01-.65.05-.69.72-.7 1.07-.01 2.13 0 3.19 0 .19 0 .37.03.61.06.02.28.04.51.04.74v1.12h16.57v-1.96c-.68 0-1.37.01-2.05-.01-.17-.01-.29-.03-.38-.07zM146.24 147.71c.54 0 1.07.01 1.61 0 .51-.01.62-.12.62-.62.01-.45 0-.91 0-1.36h-2.23v1.98z"/><path class="st0" d="M162.32 157.71v7.75c0 .19.03.38.05.63.29.02.53.05.79.05h3.92c.3-.05.35-.22.36-.69v-8.5h-4.38c-.67.01-.74.08-.74.76zM153.57 165.58c.03.4.12.53.42.58 1.03 0 2.06.01 3.08 0 .55 0 .6-.05.6-.6.01-2.65.01-5.3 0-7.95 0-.55-.09-.64-.65-.64-1.07-.01-2.13-.01-3.19 0-.11 0-.18.01-.26.02v8.21c-.01.12-.01.25 0 .38z"/><path class="st0" d="M157.02 156.96c.56 0 .65.09.65.64.01 2.65.01 5.3 0 7.95 0 .55-.05.59-.6.6-1.02.01-2.05 0-3.08 0 .05.01.1.02.16.02.15.01.3 0 .45 0H166.72c.15 0 .27-.01.36-.03h-3.92c-.25 0-.5-.03-.79-.05-.02-.25-.05-.44-.05-.63v-7.75c0-.68.07-.75.74-.75h4.38v-3.68c0-.15 0-.3-.01-.46-.01-.31-.17-.48-.48-.5-.13-.01-.26-.01-.39-.01h-12.12c-.84 0-.88.05-.89.89v3.78c.08-.01.15-.01.26-.02 1.08-.01 2.14-.01 3.21 0z"/><g><path class="st0" d="M69.24 93.23v-1c0-11.82 9.68-21.5 21.5-21.5h1c11.83 0 21.5 9.67 21.5 21.5v1c0 11.82-9.67 21.5-21.5 21.5h-1c-11.83 0-21.5-9.67-21.5-21.5z"/><path d="M78.35 105.18l1.83-6.84a12.558 12.558 0 0 1-1.59-6.1c0-6.97 5.67-12.64 12.64-12.64 6.97 0 12.64 5.67 12.64 12.64 0 6.97-5.67 12.64-12.64 12.64-2.09 0-4.16-.53-6.01-1.53l-6.87 1.83zm7.22-4.41l.43.26c1.59.95 3.4 1.45 5.23 1.45 5.65 0 10.25-4.6 10.25-10.25s-4.6-10.25-10.25-10.25-10.25 4.6-10.25 10.25c0 1.87.52 3.7 1.5 5.31l.27.44-1.02 3.82 3.84-1.03z" fill="#0e59a3"/><path d="M95.94 93.99c-.52-.31-1.2-.66-1.81-.41-.47.19-.77.93-1.07 1.3-.16.19-.34.22-.58.13-1.76-.7-3.12-1.88-4.09-3.5-.16-.25-.14-.45.06-.69.29-.35.66-.74.74-1.21.08-.47-.14-1.01-.33-1.43-.25-.53-.52-1.29-1.05-1.59-.49-.28-1.13-.12-1.57.23-.75.61-1.11 1.57-1.1 2.52 0 .27.04.54.1.8.15.63.44 1.21.77 1.77.25.42.51.83.8 1.22.94 1.28 2.12 2.4 3.48 3.23.68.42 1.41.78 2.17 1.03.85.28 1.61.57 2.52.4.96-.18 1.91-.78 2.29-1.7.11-.27.17-.58.11-.87-.15-.59-.96-.94-1.44-1.23z" fill-rule="evenodd" clip-rule="evenodd" fill="#0e59a3"/></g></svg>