<svg version="1.1" id="Capa_1" xmlns="http://www.w3.org/2000/svg" x="0" y="0" viewBox="0 0 530.55 144.64" xml:space="preserve"><style>.st0{fill:#fcfcfb}</style><path class="st0" d="M443.11 48.39c0-.79-.14-1.35-.4-1.69-.27-.34-.88-.55-1.83-.63-.37-.06-.55-.24-.55-.55 0-.17.03-.37.08-.59.37 0 .87-.02 1.5-.06.63-.04 1.16-.1 1.58-.19.62-.08 1.17-.19 1.67-.32.49-.13.85-.19 1.08-.19.37 0 .55.21.55.63 0 .34-.02.74-.06 1.2-.04.46-.06 1.15-.06 2.05.85-1.1 1.79-2.02 2.85-2.77 1.06-.74 2.36-1.12 3.91-1.12.95 0 1.88.2 2.76.59.89.39 1.67.98 2.34 1.75.67.77 1.22 1.72 1.62 2.85.41 1.12.61 2.4.61 3.84 0 1.58-.3 2.97-.89 4.18-.59 1.21-1.32 2.23-2.19 3.06-.87.83-1.82 1.46-2.85 1.9-1.03.43-1.98.65-2.85.65-.9 0-1.78-.08-2.64-.25-.86-.17-1.75-.46-2.68-.89v7.64c0 .73.32 1.23.97 1.5.65.27 1.7.47 3.17.61.31.06.46.24.46.55 0 .17-.03.39-.08.68-.65-.06-1.54-.11-2.66-.15a89.2 89.2 0 0 0-3.17-.06c-.73 0-1.5.02-2.32.06-.82.04-1.59.09-2.32.15-.06-.28-.08-.51-.08-.68 0-.28.13-.45.38-.51.62-.14 1.12-.31 1.52-.51.39-.2.59-.52.59-.97V48.39zm3.54 10.68c.7.73 1.48 1.32 2.32 1.75.84.44 1.8.66 2.87.66.81 0 1.53-.18 2.15-.55.62-.37 1.13-.87 1.54-1.5.41-.63.72-1.39.93-2.28.21-.89.32-1.85.32-2.89 0-1.07-.12-2.09-.36-3.06-.24-.97-.59-1.82-1.06-2.55a5.484 5.484 0 0 0-1.69-1.73c-.66-.42-1.4-.63-2.21-.63-.56 0-1.13.16-1.69.49-.56.32-1.08.74-1.54 1.25-.47.51-.85 1.08-1.14 1.71-.3.63-.45 1.27-.45 1.92v7.41zM481.52 61.35c.31 0 .48.29.51.89-.73.51-1.66.76-2.79.76-.62 0-1.16-.09-1.62-.27a3.35 3.35 0 0 1-1.89-1.8c-.17-.39-.28-.8-.34-1.23-.7 1.27-1.54 2.13-2.51 2.6-.97.46-2.09.7-3.36.7-.56 0-1.16-.05-1.79-.15-.64-.1-1.23-.3-1.79-.61s-1.03-.74-1.39-1.31c-.37-.56-.55-1.31-.55-2.24 0-1.04.24-1.92.74-2.64.49-.72 1.12-1.31 1.9-1.77.77-.46 1.62-.84 2.53-1.12.91-.28 1.79-.52 2.64-.72.48-.08.92-.18 1.33-.27.41-.1.77-.2 1.08-.32.39-.11.64-.26.74-.46.1-.2.15-.58.15-1.14 0-1.32-.25-2.41-.76-3.27-.51-.86-1.41-1.29-2.7-1.29-.48 0-.89.05-1.22.17-.34.12-.62.29-.85.53s-.42.56-.59.95c-.17.39-.34.86-.51 1.39-.08.31-.27.53-.57.68-.29.14-.79.31-1.5.51-.17.06-.38.12-.63.17a2.7 2.7 0 0 1-.63.08c-.28 0-.42-.29-.42-.89 0-.62.24-1.24.72-1.86.48-.62 1.09-1.17 1.83-1.64.74-.48 1.56-.87 2.43-1.16.87-.29 1.7-.44 2.49-.44.98 0 1.87.09 2.66.25.79.17 1.47.48 2.04.93.57.45 1.01 1.06 1.31 1.81.3.76.45 1.75.45 2.96v7.26c0 .99.03 1.7.1 2.13.07.44.18.78.32 1.04.2.39.42.65.66.78.24.13.49.19.74.19.31 0 .53-.03.65-.08.11-.07.25-.1.39-.1zm-6.42-8.23l-1.36.21c-.74.14-1.45.31-2.14.51-.7.2-1.31.47-1.85.82s-.97.8-1.29 1.33c-.32.53-.49 1.2-.49 1.98 0 1.07.28 1.88.83 2.45.55.56 1.24.84 2.06.84.54 0 1.07-.12 1.59-.36s.97-.58 1.36-1.02c.38-.43.7-.95.93-1.54.24-.59.36-1.24.36-1.94v-3.28zM496.12 44.21c.82 0 1.42.2 1.81.59.39.4.59.83.59 1.31 0 .17-.03.32-.09.47-.06.14-.19.29-.4.44-.21.16-.51.34-.89.55-.38.21-.91.47-1.58.78-.25-.31-.56-.58-.91-.8-.35-.22-.74-.34-1.16-.34-.48 0-.91.14-1.31.4-.39.27-.73.64-1.01 1.1-.28.46-.5 1-.66 1.6-.16.6-.23 1.23-.23 1.88v7.26c0 .62.32 1.08.97 1.37.65.3 1.58.53 2.79.7.28.06.42.23.42.51 0 .17-.03.39-.09.67-.31-.03-.7-.05-1.16-.06-.47-.01-.95-.03-1.46-.06s-1.03-.05-1.57-.06-1.04-.02-1.49-.02c-.77 0-1.56.02-2.38.06-.82.04-1.6.09-2.33.15-.06-.28-.09-.51-.09-.67 0-.28.13-.45.38-.51.65-.11 1.22-.28 1.71-.51.49-.22.74-.55.74-.97V49.32c0-.59-.04-1.08-.11-1.48-.07-.39-.19-.71-.36-.95-.17-.24-.41-.41-.74-.53-.32-.11-.74-.2-1.25-.25-.37-.05-.55-.24-.55-.55 0-.17.03-.37.08-.59.37 0 .88-.02 1.54-.06.66-.04 1.2-.09 1.63-.15.63-.11 1.17-.23 1.64-.36.47-.13.82-.19 1.05-.19.4 0 .6.21.6.63v2.83c.9-.98 1.81-1.81 2.72-2.47.96-.66 2-.99 3.15-.99zM517.02 61.35c.31 0 .48.29.51.89-.73.51-1.66.76-2.79.76-.62 0-1.16-.09-1.62-.27a3.35 3.35 0 0 1-1.89-1.8c-.17-.39-.28-.8-.34-1.23-.7 1.27-1.54 2.13-2.51 2.6-.97.46-2.09.7-3.36.7-.56 0-1.16-.05-1.79-.15-.64-.1-1.23-.3-1.79-.61s-1.03-.74-1.39-1.31c-.37-.56-.55-1.31-.55-2.24 0-1.04.24-1.92.74-2.64.49-.72 1.12-1.31 1.9-1.77.77-.46 1.62-.84 2.53-1.12.91-.28 1.79-.52 2.64-.72.48-.08.92-.18 1.33-.27.41-.1.77-.2 1.08-.32.39-.11.64-.26.74-.46.1-.2.15-.58.15-1.14 0-1.32-.25-2.41-.76-3.27-.51-.86-1.41-1.29-2.7-1.29-.48 0-.89.05-1.22.17-.34.12-.62.29-.85.53-.22.24-.42.56-.59.95-.17.39-.34.86-.51 1.39-.08.31-.27.53-.57.68-.29.14-.79.31-1.5.51-.17.06-.38.12-.63.17a2.7 2.7 0 0 1-.63.08c-.28 0-.42-.29-.42-.89 0-.62.24-1.24.72-1.86.48-.62 1.09-1.17 1.83-1.64.74-.48 1.56-.87 2.43-1.16.87-.29 1.7-.44 2.49-.44.98 0 1.87.09 2.66.25.79.17 1.47.48 2.04.93.57.45 1.01 1.06 1.31 1.81.3.76.45 1.75.45 2.96v7.26c0 .99.03 1.7.1 2.13.07.44.18.78.32 1.04.2.39.42.65.66.78.24.13.49.19.74.19.31 0 .53-.03.65-.08.11-.07.24-.1.39-.1zm-6.42-8.23l-1.36.21c-.74.14-1.45.31-2.14.51-.7.2-1.31.47-1.85.82s-.97.8-1.29 1.33c-.32.53-.49 1.2-.49 1.98 0 1.07.28 1.88.83 2.45.55.56 1.24.84 2.06.84.54 0 1.07-.12 1.59-.36s.97-.58 1.36-1.02c.38-.43.7-.95.93-1.54.24-.59.36-1.24.36-1.94v-3.28z"/><g><path class="st0" d="M131.26 40.01c-.71-.05-1.11-.33-1.21-.83-.35-2.07-1.16-3.58-2.42-4.54s-2.85-1.44-4.76-1.44c-1.71 0-3.02.43-3.93 1.28-.91.86-1.36 1.87-1.36 3.03 0 .55.08 1.06.23 1.51.15.45.46.88.95 1.29.48.4 1.14.79 2 1.17.86.38 2.02.79 3.48 1.25 1.71.5 3.23 1.05 4.54 1.62 1.31.58 2.42 1.27 3.33 2.08s1.6 1.78 2.08 2.91c.48 1.14.72 2.48.72 4.05 0 1.46-.24 2.85-.72 4.16a8.724 8.724 0 0 1-2.31 3.44c-1.06.98-2.39 1.75-4.01 2.3-1.61.55-3.55.83-5.82.83-1.61 0-3.47-.18-5.56-.53-2.09-.35-4-.98-5.71-1.89-.1-1.31-.19-2.71-.27-4.19-.07-1.49-.11-2.96-.11-4.42h.98c.55 0 1.03.09 1.44.27.4.18.63.47.68.87.2 2.12 1.03 3.74 2.5 4.88 1.46 1.13 3.48 1.7 6.05 1.7 1.76 0 3.2-.4 4.31-1.21 1.11-.81 1.66-1.86 1.66-3.18 0-1.21-.49-2.24-1.48-3.1-.98-.86-2.84-1.69-5.56-2.5-3.68-1.06-6.26-2.46-7.75-4.2-1.49-1.74-2.23-3.82-2.23-6.24 0-3.18 1.07-5.72 3.21-7.64 2.14-1.91 4.92-2.87 8.35-2.87 1.97 0 3.87.24 5.71.72 1.84.48 3.31 1 4.42 1.55.05.41.1.95.15 1.63.05.68.1 1.41.15 2.19.05.78.09 1.54.11 2.27.03.73.04 1.35.04 1.85l-1.88-.07zM168.39 56.27c.45-.35.85-.53 1.21-.53.25 0 .54.11.87.34.33.23.67.67 1.02 1.32-1.96 2.32-4.22 4.02-6.77 5.1s-5.56 1.63-9.04 1.63c-1.96 0-3.89-.32-5.78-.95s-3.59-1.61-5.1-2.95c-1.51-1.34-2.74-3.01-3.67-5.03-.93-2.02-1.4-4.44-1.4-7.26 0-2.77.54-5.28 1.63-7.52 1.08-2.24 2.46-4.14 4.12-5.71 1.66-1.56 3.48-2.76 5.44-3.59 1.96-.83 3.86-1.25 5.67-1.25 4.89 0 8.58 1.41 11.08 4.23 2.5 2.82 3.74 6.68 3.74 11.57 0 .35-.18.53-.53.53l-21.62.91c0 3.93.88 6.94 2.64 9.04 1.76 2.09 4.4 3.14 7.91 3.14 1.56 0 3.09-.25 4.6-.76 1.49-.5 2.82-1.25 3.98-2.26zm-12.9-23.06c-1.96 0-3.52.84-4.7 2.53-1.18 1.69-1.77 4.35-1.77 7.98l11.73-.53c.75-.05 1.13-.38 1.13-.98 0-.96-.12-1.97-.37-3.03-.25-1.06-.64-2.03-1.17-2.91a7.343 7.343 0 0 0-1.99-2.19c-.81-.58-1.76-.87-2.86-.87zM181.53 61.94c-1.01-.55-1.78-1.31-2.3-2.27-.53-.96-.8-2.02-.8-3.18 0-1.61.38-2.9 1.14-3.86.76-.96 1.94-1.94 3.55-2.95-1.31-.86-2.47-1.95-3.48-3.29-1.01-1.34-1.51-3.06-1.51-5.18 0-1.61.37-3.11 1.1-4.5.73-1.39 1.7-2.58 2.91-3.59s2.62-1.8 4.23-2.38c1.61-.58 3.33-.87 5.14-.87 2.47 0 4.57.37 6.31 1.1 1.74.73 3.11 1.47 4.12 2.23l7.41-3.63c.61.4 1.07.95 1.4 1.62.33.68.49 1.32.49 1.93 0 .5-.1.92-.3 1.25-.2.33-.58.49-1.13.49-.2 0-.5-.01-.91-.04-.4-.03-.73-.04-.98-.04-.55 0-1.11.04-1.66.11-.55.08-1.26.24-2.12.49 1.21 1.56 1.81 3.48 1.81 5.75 0 3.07-1.22 5.62-3.67 7.64-2.44 2.02-6.04 3.02-10.78 3.02-1.06 0-2.07-.06-3.02-.19-.96-.12-1.87-.34-2.72-.64-1.01.55-1.71 1.1-2.12 1.62-.41.53-.61 1-.61 1.4 0 .4.1.76.3 1.06.2.3.61.55 1.21.76.6.2 1.47.37 2.61.49 1.13.12 2.63.19 4.5.19 2.52 0 4.84.21 6.96.64 2.12.43 3.94 1.1 5.48 2 1.54.91 2.73 2.08 3.59 3.51.86 1.44 1.29 3.16 1.29 5.18 0 1.82-.37 3.54-1.1 5.18-.73 1.64-1.83 3.07-3.29 4.31-1.46 1.23-3.29 2.22-5.48 2.95-2.19.73-4.75 1.1-7.67 1.1-2.27 0-4.36-.19-6.28-.57-1.92-.38-3.57-1-4.95-1.85-1.39-.86-2.47-1.96-3.25-3.33-.78-1.36-1.17-3.05-1.17-5.07 0-1.97.57-3.67 1.7-5.1a14.86 14.86 0 0 1 4.05-3.49zm2.27 1.44c-.56.71-.92 1.49-1.1 2.34-.18.86-.27 1.79-.27 2.8 0 1.16.19 2.28.57 3.36.38 1.08.99 2.04 1.85 2.87.86.83 1.97 1.51 3.33 2.04s3 .79 4.91.79c3.12 0 5.41-.73 6.84-2.19 1.44-1.46 2.16-3.23 2.16-5.29 0-1.51-.78-2.79-2.34-3.82-1.56-1.03-4.21-1.55-7.94-1.55-1.31 0-2.72-.13-4.23-.38-1.51-.24-2.77-.57-3.78-.97zm8.47-14.9c1.46 0 2.68-.5 3.67-1.51.98-1.01 1.48-2.62 1.48-4.84 0-1.11-.06-2.19-.19-3.25-.12-1.06-.41-2-.87-2.84-.45-.83-1.1-1.51-1.93-2.04-.83-.53-1.93-.79-3.29-.79s-2.5.55-3.4 1.66-1.36 2.62-1.36 4.54c0 1.16.06 2.28.19 3.36.12 1.09.4 2.04.83 2.87.43.83 1.02 1.51 1.78 2.04.75.54 1.78.8 3.09.8zM218.81 37.44c0-1.21-.19-2.09-.57-2.65-.38-.55-1.43-.93-3.14-1.13-.71-.15-1.06-.5-1.06-1.06V32c0-.25.05-.5.15-.76.3 0 .73-.01 1.28-.04.55-.02 1.13-.05 1.74-.07.61-.02 1.22-.06 1.85-.11.63-.05 1.2-.12 1.7-.23 1.16-.15 2.27-.34 3.33-.57 1.06-.23 1.79-.34 2.19-.34.45 0 .74.1.87.3.12.2.19.48.19.83v19.36c0 2.92.37 4.95 1.1 6.09.73 1.13 1.9 1.7 3.52 1.7 2.27 0 4.21-.76 5.82-2.27 1.61-1.51 2.42-3.8 2.42-6.88V37.44c0-.61-.04-1.12-.11-1.55-.07-.43-.24-.79-.49-1.1s-.62-.54-1.1-.72c-.48-.18-1.15-.32-2-.42-.3-.1-.57-.2-.79-.3-.23-.1-.34-.35-.34-.76 0-.15.01-.35.04-.6s.06-.5.11-.76c.35 0 .79-.01 1.32-.04.53-.02 1.11-.05 1.74-.07.63-.02 1.26-.06 1.89-.11.63-.05 1.2-.12 1.7-.23 1.11-.15 2.2-.34 3.29-.57 1.08-.23 1.83-.34 2.23-.34.71 0 1.06.38 1.06 1.13v25.18c0 .61.04 1.12.11 1.55.08.43.24.79.49 1.1.25.3.63.54 1.13.72.5.18 1.18.31 2.04.41.65.05.98.38.98.98v.75c0 .25-.05.45-.15.61-.66 0-1.68.04-3.06.11-1.39.07-2.56.19-3.52.34-1.11.15-2.21.34-3.29.57-1.08.23-1.83.34-2.23.34-.45 0-.75-.09-.87-.27-.12-.18-.19-.46-.19-.87V57.1c-1.61 2.12-3.4 3.82-5.37 5.1-1.97 1.29-4.01 1.93-6.12 1.93-3.08 0-5.49-.84-7.26-2.53-1.77-1.69-2.65-4.22-2.65-7.6V37.44zM282.02 29.95c1.46 0 2.56.38 3.29 1.14.73.76 1.1 1.71 1.1 2.87 0 .35-.06.66-.19.91s-.4.53-.83.83c-.43.3-1.02.64-1.78 1.02s-1.74.84-2.95 1.4c-.81-.81-1.55-1.35-2.23-1.63a5.224 5.224 0 0 0-3.78-.11c-.58.2-1.1.59-1.55 1.17-.45.58-.82 1.35-1.1 2.31-.28.96-.42 2.19-.42 3.7v14.06c0 1.01.4 1.75 1.21 2.23.81.48 2.39.92 4.76 1.32.55.1.83.43.83.98 0 .71-.05 1.18-.15 1.44a44.5 44.5 0 0 0-2.42-.11c-.96-.03-1.96-.06-3.02-.11s-2.11-.09-3.14-.11a94.4 94.4 0 0 0-2.76-.04c-1.91 0-3.55.04-4.91.11-1.36.07-2.65.16-3.86.26-.1-.25-.15-.73-.15-1.44 0-.55.28-.88.83-.98 1.61-.3 2.72-.63 3.33-.98.61-.35.91-.91.91-1.66V38.2c0-1.16-.21-2.09-.64-2.8-.43-.7-1.63-1.18-3.59-1.44-.71-.1-1.06-.48-1.06-1.13v-.61c0-.25.05-.45.15-.61.3 0 .73-.01 1.28-.04.55-.02 1.16-.05 1.82-.08.65-.02 1.31-.06 1.96-.11.66-.05 1.23-.12 1.74-.23 1.11-.15 2.26-.34 3.44-.57 1.18-.23 1.98-.34 2.38-.34.7 0 1.06.38 1.06 1.14v4.08c1.77-1.92 3.45-3.32 5.07-4.2 1.62-.86 3.4-1.31 5.37-1.31zM298.13 63.22c-1.97 0-3.66.04-5.07.11-1.41.07-2.77.16-4.09.26-.1-.5-.15-.98-.15-1.44 0-.35.09-.59.27-.72.18-.12.37-.21.57-.27 1.61-.3 2.72-.63 3.33-.98.61-.35.91-.91.91-1.66V38.58c0-1.51-.25-2.67-.76-3.48-.5-.8-1.69-1.28-3.55-1.44-.66-.1-.98-.5-.98-1.21v-.57c0-.23.05-.44.15-.64.3 0 .74-.01 1.32-.04.58-.02 1.2-.05 1.85-.07.66-.02 1.31-.06 1.97-.11.65-.05 1.26-.1 1.81-.15 1.26-.15 2.47-.35 3.63-.61 1.16-.25 1.94-.38 2.34-.38.8 0 1.21.38 1.21 1.13 0 .55-.07 1.28-.23 2.19-.15.91-.23 2.17-.23 3.78v21.55c0 .76.33 1.31.98 1.66.65.35 1.74.68 3.25.98.55.1.83.43.83.98v.76c0 .25-.05.48-.15.68a107.877 107.877 0 0 0-9.21-.37zm-5.52-44.38c0-1.61.52-2.93 1.55-3.97 1.03-1.03 2.33-1.55 3.89-1.55 1.61 0 2.92.52 3.93 1.55 1.01 1.03 1.51 2.36 1.51 3.97 0 1.61-.5 2.94-1.51 3.97-1.01 1.03-2.32 1.55-3.93 1.55-1.56 0-2.86-.52-3.89-1.55-1.04-1.03-1.55-2.36-1.55-3.97zM345.46 56.19c0 .61.03 1.12.08 1.55.05.43.2.79.45 1.1.25.3.63.54 1.13.72.5.18 1.18.31 2.04.41.71.1 1.06.43 1.06.98v.75c0 .25-.05.45-.15.61-.66 0-1.68.04-3.06.11-1.39.07-2.56.19-3.51.34-1.11.15-2.21.34-3.29.57-1.09.23-1.83.34-2.23.34-.45 0-.75-.09-.87-.27-.13-.18-.19-.46-.19-.87v-4.54c-.66.91-1.34 1.74-2.04 2.5-.71.75-1.5 1.4-2.38 1.93-.88.53-1.88.95-2.99 1.25-1.11.3-2.37.45-3.78.45-1.96 0-3.79-.35-5.48-1.06-1.69-.71-3.16-1.75-4.42-3.14-1.26-1.39-2.24-3.09-2.95-5.1-.71-2.02-1.06-4.31-1.06-6.88 0-2.77.54-5.28 1.63-7.52 1.08-2.24 2.46-4.14 4.12-5.71 1.66-1.56 3.48-2.76 5.44-3.59 1.96-.83 3.86-1.25 5.67-1.25 1.46 0 2.81.14 4.05.42 1.23.28 2.63.67 4.2 1.17V18.92c0-1.56-.25-2.71-.76-3.44-.5-.73-1.69-1.2-3.55-1.4-.3-.1-.55-.23-.76-.38s-.3-.43-.3-.83c0-.3.05-.7.15-1.21.35 0 .81-.01 1.36-.04.55-.02 1.16-.05 1.82-.07.65-.02 1.31-.06 1.96-.11.66-.05 1.26-.1 1.82-.15 1.31-.15 2.53-.35 3.67-.61 1.14-.25 1.9-.38 2.31-.38.86 0 1.28.38 1.28 1.13 0 .96-.07 2.05-.23 3.29-.15 1.24-.23 2.66-.23 4.27v37.2zm-8.55-19.51c-2.32-2.32-4.94-3.48-7.86-3.48-2.62 0-4.56 1.15-5.82 3.44-1.26 2.3-1.89 5.43-1.89 9.41 0 1.92.16 3.72.49 5.41.33 1.69.82 3.15 1.48 4.39.65 1.23 1.5 2.21 2.53 2.91 1.03.71 2.28 1.06 3.74 1.06.91 0 1.8-.29 2.68-.87.88-.58 1.66-1.32 2.34-2.23.68-.91 1.23-1.94 1.66-3.1.43-1.16.64-2.32.64-3.48V36.68zM387.42 60.88c.75 0 1.13.63 1.13 1.89-.66.45-1.48.79-2.46 1.02-.98.23-1.98.34-2.99.34-2.27 0-4.01-.55-5.22-1.66-1.21-1.11-1.92-2.39-2.12-3.85-1.01 2.02-2.36 3.44-4.05 4.27-1.69.83-3.67 1.25-5.94 1.25-1.06 0-2.23-.09-3.51-.27-1.28-.18-2.47-.54-3.55-1.1-1.08-.55-2-1.34-2.76-2.34-.76-1.01-1.14-2.34-1.14-4.01 0-1.87.48-3.45 1.44-4.76.96-1.31 2.15-2.41 3.59-3.29 1.44-.88 3.01-1.59 4.73-2.12 1.71-.53 3.33-.97 4.84-1.32.65-.15 1.33-.31 2.04-.49.7-.18 1.26-.31 1.66-.42.55-.15.91-.36 1.06-.64.15-.28.23-.99.23-2.16 0-2.57-.38-4.55-1.13-5.93s-2.04-2.08-3.85-2.08c-1.46 0-2.51.45-3.14 1.36-.63.91-1.22 2.34-1.78 4.31-.15.56-.59.97-1.32 1.25-.73.28-1.65.57-2.76.87-.61.15-1.22.28-1.85.38-.63.1-1.2.15-1.7.15-.3 0-.5-.11-.6-.34-.1-.23-.15-.67-.15-1.32 0-1.26.46-2.5 1.4-3.71.93-1.21 2.1-2.28 3.51-3.21 1.41-.93 2.96-1.68 4.65-2.23 1.69-.55 3.31-.83 4.88-.83 1.86 0 3.55.16 5.07.49 1.51.33 2.81.91 3.89 1.73 1.08.83 1.93 1.94 2.53 3.32.61 1.38.91 3.16.91 5.32v13.27c0 1.76.04 3.04.11 3.85.07.8.21 1.41.41 1.81.45.91 1.16 1.36 2.12 1.36.4 0 .74-.02 1.02-.07.29-.06.55-.09.8-.09zm-13-14.14l-1.66.3c-1.16.2-2.24.49-3.25.87-1.01.38-1.88.88-2.61 1.51a6.83 6.83 0 0 0-1.74 2.34c-.43.93-.64 2.05-.64 3.36 0 1.97.32 3.34.95 4.12.63.78 1.55 1.17 2.76 1.17 1.91 0 3.43-.71 4.54-2.12 1.11-1.41 1.66-3.38 1.66-5.9v-5.65zM425.15 56.19c0 .61.03 1.12.08 1.55.05.43.2.79.45 1.1.25.3.63.54 1.13.72.5.18 1.18.31 2.04.41.71.1 1.06.43 1.06.98v.75c0 .25-.05.45-.15.61-.66 0-1.68.04-3.06.11-1.39.07-2.56.19-3.51.34-1.11.15-2.21.34-3.29.57-1.09.23-1.83.34-2.23.34-.45 0-.75-.09-.87-.27-.13-.18-.19-.46-.19-.87v-4.54c-.66.91-1.34 1.74-2.04 2.5-.71.75-1.5 1.4-2.38 1.93-.88.53-1.88.95-2.99 1.25-1.11.3-2.37.45-3.78.45-1.96 0-3.79-.35-5.48-1.06-1.69-.71-3.16-1.75-4.42-3.14-1.26-1.39-2.24-3.09-2.95-5.1-.71-2.02-1.06-4.31-1.06-6.88 0-2.77.54-5.28 1.63-7.52 1.08-2.24 2.46-4.14 4.12-5.71 1.66-1.56 3.48-2.76 5.44-3.59 1.96-.83 3.86-1.25 5.67-1.25 1.46 0 2.81.14 4.05.42 1.23.28 2.63.67 4.2 1.17V18.92c0-1.56-.25-2.71-.76-3.44-.5-.73-1.69-1.2-3.55-1.4-.3-.1-.55-.23-.76-.38s-.3-.43-.3-.83c0-.3.05-.7.15-1.21.35 0 .81-.01 1.36-.04.55-.02 1.16-.05 1.82-.07.65-.02 1.31-.06 1.96-.11.66-.05 1.26-.1 1.82-.15 1.31-.15 2.53-.35 3.67-.61 1.14-.25 1.9-.38 2.31-.38.86 0 1.28.38 1.28 1.13 0 .96-.07 2.05-.23 3.29-.15 1.24-.23 2.66-.23 4.27v37.2zm-8.54-19.51c-2.32-2.32-4.94-3.48-7.86-3.48-2.62 0-4.56 1.15-5.82 3.44-1.26 2.3-1.89 5.43-1.89 9.41 0 1.92.16 3.72.49 5.41.33 1.69.82 3.15 1.48 4.39.65 1.23 1.5 2.21 2.53 2.91 1.03.71 2.28 1.06 3.74 1.06.91 0 1.8-.29 2.68-.87.88-.58 1.66-1.32 2.34-2.23.68-.91 1.23-1.94 1.66-3.1.43-1.16.64-2.32.64-3.48V36.68z"/></g><g><path class="st0" d="M113.04 111.84c-.09.7-.14 1.22-.14 1.59 0 .42.06.71.18.86.12.15.35.23.68.23.48 0 1.02-.2 1.61-.61.59-.41 1.17-.95 1.75-1.61.57-.66 1.13-1.43 1.68-2.31.54-.87 1.03-1.77 1.45-2.67.42-.91.75-1.81 1-2.72s.36-1.72.36-2.44c0-.66-.1-1.32-.29-1.97-.2-.65-.54-1.2-1.02-1.65l.5-.72c.97-.06 1.85-.16 2.65-.29.8-.14 1.59-.32 2.38-.57.27.81.41 1.63.41 2.44 0 .85-.23 1.89-.68 3.12-.45 1.24-1.06 2.54-1.81 3.89-.75 1.36-1.64 2.72-2.65 4.08a30.212 30.212 0 0 1-3.19 3.65c-1.12 1.07-2.26 1.94-3.42 2.6-1.16.66-2.27 1-3.33 1-1.21 0-2.08-.23-2.63-.7-.54-.47-.82-1.2-.82-2.2 0-.39.02-.79.05-1.2.03-.41.07-.87.14-1.38l1.27-10.24c.06-.39.07-.68.05-.86-.03-.18-.14-.27-.32-.27s-.39.04-.63.11c-.24.08-.48.17-.72.27-.24.11-.47.2-.68.27-.21.08-.38.11-.5.11-.24 0-.43-.13-.57-.39-.14-.26-.22-.5-.25-.75.42-.27 1-.59 1.72-.97s1.46-.75 2.21-1.11c.75-.36 1.47-.66 2.16-.91.69-.24 1.21-.36 1.57-.36.42 0 .74.11.96.32.22.21.34.57.34 1.09v.57c0 .2-.03.45-.09.75l-1.38 11.95zM133.83 113.06c-.09.36-.14.64-.14.82 0 .27.14.41.41.41.18 0 .4-.05.66-.16s.5-.23.75-.36c.24-.14.47-.26.68-.36.21-.11.38-.16.5-.16.24 0 .43.13.57.39.14.26.22.5.25.75-.48.33-1.05.7-1.7 1.09-.65.39-1.31.75-1.99 1.09-.68.33-1.34.61-1.99.84-.65.23-1.22.34-1.7.34-.51 0-.95-.11-1.29-.32s-.52-.57-.52-1.09c0-.18.02-.36.04-.52.03-.16.06-.31.09-.43l2.9-13.81c.09-.45.01-.68-.23-.68-.09 0-.23.04-.41.11a18.643 18.643 0 0 1-1.29.5c-.23.08-.42.11-.57.11-.27 0-.48-.14-.61-.41-.14-.27-.23-.53-.29-.77.57-.3 1.26-.65 2.06-1.04s1.59-.75 2.35-1.06c.77-.32 1.47-.59 2.11-.82.63-.23 1.09-.34 1.36-.34.24 0 .47.06.68.18.21.12.32.33.32.64 0 .09-.01.21-.02.36s-.04.3-.07.45l-2.91 14.25zm1.08-19.65c-.81 0-1.46-.2-1.95-.61-.48-.41-.72-.96-.72-1.65 0-.94.36-1.74 1.09-2.4.73-.66 1.59-1 2.58-1 .87 0 1.51.26 1.9.79.39.53.59 1.07.59 1.61 0 .97-.34 1.75-1.02 2.35-.68.61-1.5.91-2.47.91zM147.1 111.84c-.09.7-.14 1.22-.14 1.59 0 .42.06.71.18.86s.35.23.68.23c.48 0 1.02-.2 1.61-.61.59-.41 1.17-.95 1.75-1.61.57-.66 1.13-1.43 1.68-2.31.54-.87 1.03-1.77 1.45-2.67.42-.91.75-1.81 1-2.72s.36-1.72.36-2.44c0-.66-.1-1.32-.29-1.97-.2-.65-.54-1.2-1.02-1.65l.5-.72c.97-.06 1.85-.16 2.65-.29.8-.14 1.59-.32 2.38-.57.27.81.41 1.63.41 2.44 0 .85-.23 1.89-.68 3.12-.45 1.24-1.06 2.54-1.81 3.89-.75 1.36-1.64 2.72-2.65 4.08a30.212 30.212 0 0 1-3.19 3.65c-1.12 1.07-2.26 1.94-3.42 2.6-1.16.66-2.27 1-3.33 1-1.21 0-2.08-.23-2.63-.7-.54-.47-.82-1.2-.82-2.2 0-.39.02-.79.05-1.2.03-.41.07-.87.14-1.38l1.27-10.24c.06-.39.07-.68.05-.86-.03-.18-.14-.27-.32-.27s-.39.04-.63.11c-.24.08-.48.17-.72.27-.24.11-.47.2-.68.27-.21.08-.38.11-.5.11-.24 0-.43-.13-.57-.39-.14-.26-.22-.5-.25-.75.42-.27 1-.59 1.72-.97s1.46-.75 2.21-1.11c.75-.36 1.47-.66 2.16-.91s1.21-.36 1.57-.36c.42 0 .74.11.96.32.22.21.34.57.34 1.09v.57c0 .2-.03.45-.09.75l-1.38 11.95zM167.88 113.06c-.09.36-.14.64-.14.82 0 .27.14.41.41.41.18 0 .4-.05.66-.16s.5-.23.75-.36c.24-.14.47-.26.68-.36.21-.11.38-.16.5-.16.24 0 .43.13.57.39.14.26.22.5.25.75-.48.33-1.05.7-1.7 1.09-.65.39-1.31.75-1.99 1.09-.68.33-1.34.61-1.99.84-.65.23-1.22.34-1.7.34-.51 0-.95-.11-1.29-.32s-.52-.57-.52-1.09c0-.18.02-.36.04-.52.03-.16.06-.31.09-.43l2.9-13.81c.09-.45.01-.68-.23-.68-.09 0-.23.04-.41.11a18.643 18.643 0 0 1-1.29.5c-.23.08-.42.11-.57.11-.27 0-.48-.14-.61-.41-.14-.27-.23-.53-.29-.77.57-.3 1.26-.65 2.06-1.04s1.59-.75 2.35-1.06c.77-.32 1.47-.59 2.11-.82.63-.23 1.09-.34 1.36-.34.24 0 .47.06.68.18.21.12.32.33.32.64 0 .09-.01.21-.02.36s-.04.3-.07.45l-2.91 14.25zm1.09-19.65c-.81 0-1.46-.2-1.95-.61-.48-.41-.72-.96-.72-1.65 0-.94.36-1.74 1.09-2.4.73-.66 1.59-1 2.58-1 .87 0 1.51.26 1.9.79s.59 1.07.59 1.61c0 .97-.34 1.75-1.02 2.35-.68.61-1.5.91-2.47.91zM187.13 101.47c-.42 0-.88.17-1.36.52-.48.35-.99.81-1.52 1.4-.53.59-1.06 1.3-1.58 2.13-.53.83-1.02 1.71-1.47 2.65-.24.48-.47 1.05-.68 1.7-.21.65-.4 1.32-.57 2.02-.17.7-.29 1.37-.38 2.04-.09.66-.14 1.25-.14 1.77 0 .48.04.92.14 1.31-.73.09-1.46.2-2.2.32-.74.12-1.53.3-2.38.54-.52-.21-.77-.48-.77-.82 0-.15.01-.31.04-.48.03-.16.06-.29.09-.38l2.9-14.63c.06-.18.08-.34.05-.48s-.11-.2-.23-.2c-.09 0-.23.04-.41.11-.18.08-.39.16-.61.25-.23.09-.45.17-.68.25-.23.08-.41.11-.57.11-.27 0-.48-.14-.61-.41-.14-.27-.23-.53-.29-.77.57-.36 1.25-.73 2.04-1.11s1.56-.73 2.33-1.04c.77-.32 1.47-.58 2.11-.79.63-.21 1.1-.32 1.4-.32.24 0 .47.06.68.18.21.12.32.33.32.64v.36c0 .15-.03.3-.09.45l-1.59 6.02.18.05c1.57-2.78 2.95-4.76 4.14-5.93 1.19-1.18 2.39-1.77 3.6-1.77.39 0 .77.06 1.13.18.36.12.62.26.77.41-.51 1.21-.91 2.85-1.18 4.94h-.91c-.18-.33-.41-.62-.68-.86-.25-.24-.6-.36-1.02-.36z"/></g><g><path class="st0" d="M215.51 114.49c.43-.26.79-.39 1.09-.39.43 0 .88.45 1.35 1.35-1.79 1.62-3.36 2.69-4.71 3.2s-2.77.77-4.26.77c-.85 0-1.68-.11-2.47-.32-.79-.21-1.51-.6-2.15-1.15-.64-.56-1.15-1.31-1.54-2.28-.39-.96-.58-2.19-.58-3.68V94.37h-3.84v-1.6c0-.17.04-.39.13-.64.08-.26.34-.39.77-.39 1.15 0 2.22-.33 3.2-.99.98-.66 1.77-1.65 2.37-2.98.47-.98.99-1.77 1.57-2.37.58-.6 1.14-.9 1.7-.9h1.35v6.66h7.5c0 1.37-.1 2.24-.29 2.63-.19.39-.54.58-1.06.58h-6.15v15.82c0 1.28.04 2.3.13 3.04.09.75.22 1.31.42 1.7.19.39.45.63.77.74.32.11.69.16 1.12.16.47 0 1.02-.12 1.67-.35.63-.24 1.27-.57 1.91-.99zM240.88 90.46c1.24 0 2.17.32 2.79.96.62.64.93 1.45.93 2.44 0 .3-.05.56-.16.77-.11.21-.34.45-.71.7-.36.26-.86.55-1.51.87-.64.32-1.47.72-2.5 1.18-.68-.68-1.31-1.14-1.89-1.38-.58-.23-1.14-.35-1.7-.35-.51 0-1.01.09-1.51.26-.49.17-.93.5-1.31.99s-.69 1.14-.93 1.96-.35 1.86-.35 3.14v11.92c0 .85.34 1.48 1.02 1.89.68.41 2.03.78 4.04 1.12.47.09.7.36.7.83 0 .6-.04 1-.13 1.22-.56-.04-1.24-.08-2.05-.1-.81-.02-1.67-.06-2.56-.1-.9-.04-1.78-.08-2.66-.1-.88-.02-1.66-.03-2.34-.03-1.62 0-3.01.03-4.16.1-1.15.06-2.24.14-3.27.22-.09-.22-.13-.62-.13-1.22 0-.47.23-.75.7-.83 1.37-.26 2.31-.53 2.82-.83.51-.3.77-.77.77-1.41V97.45c0-.98-.18-1.77-.54-2.37-.36-.6-1.38-1-3.04-1.22-.6-.09-.9-.41-.9-.96v-.51c0-.21.04-.39.13-.51.26 0 .62-.01 1.09-.03.47-.02.98-.04 1.54-.06.56-.02 1.11-.05 1.67-.1s1.05-.11 1.47-.19c.94-.13 1.91-.29 2.91-.48 1-.19 1.68-.29 2.02-.29.6 0 .9.32.9.96v3.46c1.49-1.62 2.92-2.81 4.29-3.56 1.38-.75 2.9-1.13 4.56-1.13zM273.56 116.66c.64 0 .96.54.96 1.6-.56.39-1.25.67-2.08.87-.83.19-1.68.29-2.53.29-1.92 0-3.4-.47-4.42-1.41s-1.62-2.03-1.79-3.27c-.85 1.71-2 2.92-3.43 3.62-1.43.7-3.11 1.06-5.03 1.06-.9 0-1.89-.07-2.98-.22a9.36 9.36 0 0 1-3.01-.93c-.92-.47-1.7-1.13-2.34-1.98-.64-.85-.96-1.99-.96-3.4 0-1.58.4-2.92 1.22-4.04.81-1.11 1.83-2.04 3.04-2.79 1.22-.75 2.55-1.35 4-1.79 1.45-.45 2.82-.82 4.1-1.12.56-.13 1.13-.27 1.73-.42.6-.15 1.07-.27 1.41-.35.47-.13.77-.31.9-.55.13-.23.19-.84.19-1.83 0-2.18-.32-3.85-.96-5.03-.64-1.17-1.73-1.76-3.27-1.76-1.24 0-2.13.39-2.66 1.15-.53.77-1.04 1.99-1.51 3.65-.13.47-.5.82-1.12 1.06-.62.24-1.4.48-2.34.74-.51.13-1.04.23-1.57.32-.54.09-1.01.13-1.44.13-.26 0-.43-.1-.51-.29-.09-.19-.13-.56-.13-1.12 0-1.07.39-2.12 1.18-3.14.79-1.02 1.78-1.93 2.98-2.72 1.19-.79 2.51-1.42 3.94-1.89 1.43-.47 2.81-.71 4.13-.71 1.58 0 3.01.14 4.29.42s2.38.77 3.3 1.47c.92.7 1.63 1.64 2.14 2.81.51 1.17.77 2.67.77 4.51v11.25c0 1.49.03 2.58.1 3.26.06.68.18 1.19.35 1.53.38.77.98 1.15 1.79 1.15.34 0 .63-.02.87-.06.25-.04.47-.07.69-.07zm-11.02-11.97l-1.41.26c-.98.17-1.9.42-2.75.73-.85.32-1.59.75-2.21 1.28-.62.53-1.11 1.2-1.47 1.99-.36.79-.55 1.74-.55 2.85 0 1.67.27 2.83.8 3.49.53.66 1.31.99 2.34.99 1.62 0 2.9-.6 3.84-1.79s1.41-2.86 1.41-5v-4.8zM306.8 114.74c0 .6.26 1.06.77 1.38.51.32 1.45.59 2.82.8.17.04.33.12.48.22.15.11.22.31.22.61 0 .26-.01.48-.03.67-.02.19-.05.37-.1.55-1.11-.09-2.22-.16-3.33-.22-1.11-.06-2.5-.1-4.16-.1-1.37 0-2.65.03-3.84.1-1.2.06-2.35.14-3.46.22-.09-.22-.13-.62-.13-1.22 0-.47.23-.75.71-.83 1.11-.21 1.86-.47 2.24-.77.38-.3.57-.77.57-1.41v-12.56c0-2.52-.31-4.26-.93-5.22-.62-.96-1.61-1.44-2.98-1.44-1.92 0-3.57.65-4.93 1.95-1.37 1.3-2.05 3.24-2.05 5.8v11.47c0 .64.19 1.11.58 1.41.38.3 1.13.56 2.24.77.47.09.7.36.7.83 0 .6-.04 1-.13 1.22-1.11-.09-2.26-.16-3.46-.22-1.2-.06-2.48-.1-3.84-.1-1.67 0-3.07.03-4.2.1-1.13.06-2.23.14-3.3.22-.04-.17-.07-.35-.1-.55-.02-.19-.03-.42-.03-.67 0-.3.07-.5.22-.61.15-.11.31-.18.48-.22 1.37-.26 2.31-.53 2.82-.83.51-.3.77-.77.77-1.41V97.77c0-1.28-.23-2.26-.7-2.95-.47-.68-1.45-1.09-2.95-1.22-.56-.13-.83-.47-.83-1.03v-.48c0-.19.04-.37.13-.55.26 0 .63-.01 1.12-.03.49-.02 1.01-.04 1.57-.06s1.11-.05 1.67-.1c.56-.04 1.07-.09 1.54-.13 1.07-.13 2.09-.3 3.08-.51.98-.21 1.64-.32 1.99-.32.68 0 1.02.32 1.02.96 0 .47-.06 1.09-.19 1.86s-.19 1.84-.19 3.2c1.37-1.79 2.88-3.25 4.55-4.36 1.67-1.11 3.4-1.67 5.19-1.67 2.6 0 4.65.73 6.15 2.18 1.5 1.45 2.24 3.63 2.24 6.54v15.64zM343.32 130.12c0 .64.16 1.1.48 1.38.32.28 1.1.55 2.34.8.47.08.7.36.7.83 0 .38-.04.79-.13 1.22-1.15-.09-2.42-.16-3.81-.22-1.39-.06-2.83-.1-4.32-.1-1.67 0-3.35.03-5.06.1-1.71.06-3.1.14-4.16.22-.09-.17-.13-.37-.13-.61v-.61c0-.34.09-.57.26-.67.17-.11.36-.18.58-.22 1.41-.17 2.52-.35 3.33-.55.81-.19 1.41-.42 1.79-.67.39-.26.63-.56.74-.93.11-.36.16-.8.16-1.31v-14.54c-.56.77-1.13 1.47-1.73 2.11-.6.64-1.27 1.19-2.02 1.63-.75.45-1.59.8-2.53 1.06-.94.26-2.01.38-3.2.38-1.66 0-3.21-.3-4.64-.9-1.43-.6-2.68-1.48-3.75-2.66-1.07-1.18-1.9-2.62-2.5-4.32s-.9-3.65-.9-5.83c0-2.35.45-4.47 1.35-6.38.9-1.9 2.05-3.51 3.46-4.84 1.41-1.32 2.96-2.34 4.64-3.04 1.69-.71 3.3-1.06 4.84-1.06 1.41 0 2.91.2 4.48.61 1.58.41 3.27.99 5.06 1.76.51-.09.97-.23 1.38-.45.41-.21.77-.44 1.09-.67.32-.23.6-.44.83-.61s.44-.26.61-.26c.26 0 .48.03.67.1.19.06.35.12.48.16-.26 2.39-.39 4.65-.39 6.79v32.3zm-7.24-33.83c-1.79-2.05-4.01-3.08-6.66-3.08-2.22 0-3.87.98-4.93 2.95-1.07 1.96-1.6 4.61-1.6 7.95 0 1.62.14 3.15.42 4.58s.69 2.67 1.25 3.71c.56 1.05 1.27 1.87 2.15 2.47.87.6 1.93.9 3.17.9.77 0 1.53-.24 2.27-.73a7.9 7.9 0 0 0 1.99-1.89c.58-.77 1.05-1.64 1.41-2.63.36-.98.54-1.96.54-2.95V96.29zM354.21 96.8c0-1.02-.16-1.77-.48-2.24-.32-.47-1.21-.79-2.66-.96-.6-.13-.9-.43-.9-.9v-.51c0-.21.04-.43.13-.64.26 0 .62-.01 1.09-.03l1.47-.06c.51-.02 1.03-.05 1.57-.1.53-.04 1.01-.11 1.44-.19.98-.13 1.92-.29 2.82-.48.9-.19 1.51-.29 1.86-.29.39 0 .63.09.74.26.11.17.16.41.16.71v16.4c0 2.48.31 4.2.93 5.16.62.96 1.61 1.44 2.98 1.44 1.92 0 3.57-.64 4.93-1.92 1.37-1.28 2.05-3.22 2.05-5.83v-9.8c0-.51-.03-.95-.1-1.31-.06-.36-.2-.67-.42-.93-.21-.26-.52-.46-.93-.61-.41-.15-.97-.27-1.7-.35-.26-.09-.48-.17-.67-.26-.19-.09-.29-.3-.29-.64 0-.13.01-.3.03-.51.02-.21.05-.43.1-.64.3 0 .67-.01 1.12-.03.45-.02.94-.04 1.47-.06.53-.02 1.07-.05 1.6-.1.53-.04 1.01-.11 1.44-.19.94-.13 1.87-.29 2.79-.48.92-.19 1.55-.29 1.89-.29.6 0 .9.32.9.96v21.33c0 .51.03.95.1 1.31.06.36.2.67.42.93.21.26.53.46.96.61.43.15 1 .27 1.73.35.56.04.83.32.83.83v.64c0 .21-.04.38-.13.51-.56 0-1.42.03-2.59.1-1.18.06-2.17.16-2.98.29-.94.13-1.87.29-2.79.48s-1.55.29-1.89.29c-.38 0-.63-.08-.74-.22-.11-.15-.16-.39-.16-.74v-4.61c-1.37 1.79-2.88 3.24-4.55 4.32-1.67 1.09-3.4 1.63-5.19 1.63-2.61 0-4.66-.72-6.15-2.15-1.5-1.43-2.24-3.58-2.24-6.44V96.8zM395.53 118.65c-1.67 0-3.1.03-4.29.1-1.2.06-2.35.14-3.46.22-.09-.43-.13-.83-.13-1.22 0-.3.07-.5.22-.61.15-.11.31-.18.48-.22 1.37-.26 2.31-.53 2.82-.83.51-.3.77-.77.77-1.41V97.77c0-1.28-.21-2.26-.64-2.95-.43-.68-1.43-1.09-3.01-1.22-.56-.09-.83-.43-.83-1.03v-.48c0-.19.04-.37.13-.55.26 0 .63-.01 1.12-.03s1.01-.04 1.57-.06 1.11-.05 1.67-.1c.56-.04 1.07-.09 1.54-.13 1.07-.13 2.09-.3 3.08-.51.98-.21 1.64-.32 1.99-.32.68 0 1.02.32 1.02.96 0 .47-.06 1.09-.19 1.86s-.19 1.84-.19 3.2v18.26c0 .64.28 1.11.83 1.41.56.3 1.47.58 2.75.83.47.09.7.36.7.83v.64c0 .21-.04.4-.13.58a91.57 91.57 0 0 0-7.82-.31zm-4.67-37.6c0-1.37.44-2.49 1.31-3.36.87-.88 1.97-1.31 3.3-1.31 1.37 0 2.48.44 3.33 1.31s1.28 2 1.28 3.36-.43 2.49-1.28 3.36c-.85.88-1.96 1.31-3.33 1.31-1.32 0-2.42-.44-3.3-1.31-.88-.88-1.31-2-1.31-3.36zM422.95 118.97a99.93 99.93 0 0 0-3.81-.22c-1.43-.06-2.77-.1-4-.1-1.37 0-2.72.03-4.07.1-1.35.06-2.57.14-3.68.22-.04-.17-.07-.35-.1-.55-.02-.19-.03-.42-.03-.67 0-.3.07-.5.22-.61.15-.11.31-.18.48-.22 1.37-.26 2.31-.53 2.82-.83.51-.3.77-.77.77-1.41V81.11c0-1.28-.23-2.25-.7-2.92-.47-.66-1.45-1.06-2.95-1.18-.56-.13-.83-.47-.83-1.03v-.51c0-.21.04-.38.13-.51.26 0 .63-.01 1.12-.03.49-.02 1.01-.04 1.57-.06.56-.02 1.11-.05 1.67-.1s1.07-.09 1.54-.13c1.07-.13 2.09-.3 3.08-.51.98-.21 1.64-.32 1.99-.32.68 0 1.02.32 1.02.96 0 .47-.06 1.08-.19 1.83s-.19 1.8-.19 3.17v34.91c0 .64.26 1.11.77 1.41.51.3 1.45.58 2.82.83.47.09.7.36.7.83-.02.6-.07 1.01-.15 1.22zM426.86 104.94c0-2.09.37-4.03 1.12-5.8.75-1.77 1.78-3.31 3.11-4.61 1.32-1.3 2.9-2.32 4.74-3.04 1.84-.73 3.84-1.09 6.02-1.09 2.26 0 4.31.36 6.15 1.09 1.84.73 3.42 1.74 4.74 3.04 1.32 1.3 2.34 2.84 3.04 4.61.7 1.77 1.06 3.7 1.06 5.8 0 2.09-.38 4.03-1.12 5.8-.75 1.77-1.79 3.3-3.14 4.58-1.35 1.28-2.94 2.29-4.77 3.01-1.84.73-3.84 1.09-6.02 1.09-2.26 0-4.32-.36-6.15-1.09-1.84-.73-3.41-1.73-4.71-3.01-1.3-1.28-2.31-2.81-3.01-4.58-.71-1.77-1.06-3.71-1.06-5.8zm8.07-1.28c0 3.93.65 7.07 1.95 9.42 1.3 2.35 3.17 3.52 5.61 3.52 2.26 0 3.87-.91 4.84-2.72.96-1.82 1.44-4.37 1.44-7.66 0-3.89-.66-7.02-1.99-9.42-1.32-2.39-3.18-3.59-5.57-3.59-2.26 0-3.87.93-4.84 2.79-.96 1.86-1.44 4.41-1.44 7.66zM479.45 98.98c-.6-.04-.94-.28-1.03-.7-.3-1.75-.98-3.03-2.05-3.84-1.07-.81-2.41-1.22-4.04-1.22-1.45 0-2.56.36-3.33 1.09-.77.73-1.15 1.58-1.15 2.56 0 .47.06.9.19 1.28.13.39.39.75.8 1.09.4.34.97.67 1.7.99.73.32 1.71.67 2.95 1.06 1.45.43 2.73.89 3.84 1.38 1.11.49 2.05 1.08 2.82 1.76.77.68 1.36 1.51 1.76 2.47.41.96.61 2.1.61 3.43 0 1.24-.2 2.41-.61 3.52-.4 1.11-1.06 2.08-1.95 2.92-.9.83-2.03 1.49-3.4 1.96s-3.01.7-4.93.7c-1.37 0-2.94-.15-4.71-.45-1.77-.3-3.39-.83-4.84-1.6-.09-1.11-.16-2.3-.22-3.56-.06-1.26-.1-2.51-.1-3.75h.83c.47 0 .87.07 1.22.22.34.15.53.39.58.74.17 1.79.88 3.17 2.12 4.13 1.24.96 2.95 1.44 5.12 1.44 1.5 0 2.71-.34 3.65-1.02.94-.68 1.41-1.58 1.41-2.69 0-1.02-.42-1.9-1.25-2.63-.83-.73-2.4-1.43-4.71-2.11-3.12-.9-5.31-2.08-6.56-3.56-1.26-1.47-1.89-3.23-1.89-5.28 0-2.69.91-4.85 2.72-6.47s4.17-2.43 7.08-2.43c1.67 0 3.28.2 4.84.61s2.81.84 3.75 1.31c.04.34.09.8.13 1.38.04.58.08 1.2.13 1.86.04.66.07 1.3.1 1.92.02.62.03 1.14.03 1.57l-1.61-.08z"/></g><g><path class="st0" d="M75.97 28.94c4.67.09 7.86.48 9.57 1.17s2.75 1.76 3.11 3.21c.37 1.45.25 3.1-.36 4.96l-3.83 11.61h8.56c.73 2.29 1.1 4.76 1.1 7.4 0 1.73-.37 3.14-1.1 4.22-.74 1.08-2.05 1.62-3.96 1.62h-8.89l-6.29 19.21h9.6c.73 2.29 1.1 4.76 1.1 7.4 0 1.73-.37 3.14-1.1 4.22-.74 1.08-2.06 1.62-3.96 1.62h-9.93l-7.98 24.46c-4.67-.09-7.86-.48-9.57-1.17s-2.76-1.76-3.15-3.21-.26-3.1.39-4.96l4.93-15.12h-15.9l-7.98 24.46c-4.67-.09-7.86-.48-9.57-1.17s-2.76-1.76-3.15-3.21c-.39-1.45-.26-3.1.39-4.96l4.93-15.12h-8.82c-.74-2.72-1.1-5.02-1.1-6.88 0-2.34.39-3.98 1.17-4.93.78-.95 1.84-1.43 3.18-1.43h9.86l6.29-19.21h-9.86c-.74-2.72-1.1-5.02-1.1-6.88 0-2.34.39-3.98 1.17-4.93.78-.95 1.84-1.43 3.18-1.43h10.9l6.88-20.96c4.67.09 7.86.48 9.57 1.17s2.75 1.76 3.11 3.21c.37 1.45.25 3.1-.36 4.96l-3.8 11.62h15.9l6.87-20.95zM42.62 82.33h15.9l6.29-19.21h-15.9l-6.29 19.21z"/></g></svg>