<svg version="1.1" id="Capa_1" xmlns="http://www.w3.org/2000/svg" x="0" y="0" viewBox="0 0 396 155" xml:space="preserve"><style>.st0{fill:#fcfcfb}</style><path class="st0" d="M13.33 119.26c-.49-1.74-1.07-2.84-1.74-3.3-.67-.46-1.93-.52-3.76-.18-.71.09-1.15-.16-1.32-.74-.09-.32-.14-.7-.15-1.15.68-.19 1.58-.49 2.69-.89 1.11-.4 2.04-.79 2.78-1.17 1.11-.48 2.07-.97 2.88-1.45.8-.48 1.41-.78 1.84-.9.74-.21 1.22.08 1.44.87l5.57 19.75c.37 1.32.79 2.51 1.26 3.57s1.03 1.94 1.68 2.64c.65.7 1.44 1.16 2.35 1.38.92.23 1.98.17 3.19-.18a12 12 0 0 0 3.68-1.76c1.14-.8 2.07-1.78 2.8-2.92s1.2-2.43 1.43-3.86c.22-1.43.1-2.98-.38-4.67l-3.25-11.54c-.48-1.68-1.05-2.77-1.73-3.26-.68-.49-1.96-.56-3.85-.19-.71.09-1.15-.16-1.32-.74-.09-.32-.14-.7-.15-1.15.68-.19 1.58-.49 2.69-.89 1.11-.4 2.06-.79 2.86-1.19 1.13-.49 2.09-.97 2.87-1.45s1.39-.78 1.82-.9c.75-.21 1.23.08 1.45.87l7.24 25.68c.25.9.51 1.61.77 2.13.26.52.6.91 1.01 1.16.41.25.92.4 1.53.42.6.03 1.36-.06 2.27-.26.71-.09 1.15.16 1.32.74.09.32.14.7.15 1.15-1 .28-2.03.66-3.09 1.13-1.06.47-2.08.93-3.04 1.37-.97.44-1.82.85-2.54 1.23-.73.38-1.25.61-1.57.7-.75.21-1.23-.08-1.45-.87l-1.85-6.56c-.11.2-.42.83-.92 1.88-.5 1.05-1.21 2.22-2.13 3.5-.92 1.28-2.05 2.53-3.38 3.73a11.62 11.62 0 0 1-4.69 2.56c-3.21.91-5.88.66-8.01-.73-2.13-1.39-3.67-3.77-4.62-7.14l-4.63-16.42zM97.08 118.92c.22.79.86 1.25 1.92 1.38 1.06.13 2.2.13 3.42.02.5-.03.83.22.98.75.09.32.16.75.2 1.31-1.4.28-2.77.57-4.11.86-1.34.29-2.77.65-4.3 1.08-1.42.4-2.82.84-4.19 1.31-1.37.47-2.73.95-4.07 1.45-.25-.5-.42-.9-.51-1.22-.15-.53 0-.91.44-1.15 1.05-.52 1.96-1.11 2.75-1.75.78-.65 1.06-1.37.84-2.16l-4.37-15.49c-.37-1.32-.79-2.51-1.26-3.57s-1.04-1.94-1.72-2.63c-.68-.69-1.46-1.15-2.34-1.39s-1.93-.18-3.14.16c-1.31.37-2.53.96-3.66 1.76-1.13.8-2.06 1.77-2.79 2.92a10.02 10.02 0 0 0-1.42 3.85c-.22 1.43-.1 2.96.36 4.59l4.06 14.38c.22.79.85 1.25 1.88 1.39 1.03.13 2.11.16 3.22.07.5-.03.83.22.98.75.09.32.16.75.2 1.31-1.4.28-2.77.57-4.12.86-1.34.29-2.76.65-4.25 1.07-1.55.44-3 .89-4.35 1.35-1.35.47-2.67.94-3.96 1.41-.25-.5-.43-.9-.52-1.22-.15-.53 0-.91.44-1.15 1.1-.54 2.07-1.14 2.9-1.8.84-.66 1.14-1.42.9-2.26l-6.06-21.49c-.45-1.58-1.04-2.63-1.79-3.16-.75-.53-2.06-.61-3.95-.25-.71.09-1.16-.18-1.34-.82-.08-.26-.12-.62-.13-1.07.68-.19 1.63-.5 2.85-.93 1.21-.43 2.21-.81 2.97-1.14 1.17-.56 2.19-1.09 3.08-1.6.89-.51 1.55-.82 1.98-.94.75-.21 1.23.08 1.45.87.21.74.38 1.64.51 2.71s.44 2.45.91 4.14c1.54-3.16 3.16-5.72 4.85-7.68 1.69-1.95 3.76-3.28 6.23-3.98 3.2-.9 5.87-.64 8 .77 2.13 1.42 3.66 3.79 4.6 7.11l5.43 19.22zM143.89 108.28c.58-.16 1.05.3 1.42 1.39-1.1 1.33-2.71 2.3-4.81 2.89-1.17.33-2.22.44-3.17.34-.95-.1-1.8-.36-2.55-.77-.75-.41-1.39-.94-1.92-1.59-.53-.65-.96-1.35-1.29-2.11-.65 2.74-1.76 4.8-3.33 6.19-1.57 1.38-3.54 2.41-5.91 3.08-1.05.3-2.2.52-3.44.67-1.24.15-2.46.08-3.68-.2-1.22-.28-2.32-.85-3.3-1.71s-1.72-2.16-2.21-3.9c-.55-1.95-.55-3.73-.01-5.33s1.42-3.04 2.62-4.32c1.2-1.28 2.59-2.42 4.15-3.43 1.56-1.01 3.08-1.92 4.56-2.74.85-.41 1.63-.81 2.34-1.21.71-.4 1.33-.79 1.85-1.16.68-.42 1.06-.84 1.14-1.26.08-.42-.03-1.16-.32-2.21-.7-2.48-1.75-4.38-3.15-5.72-1.4-1.34-3.31-1.67-5.74-.98-.9.25-1.63.57-2.2.96-.57.39-1.01.87-1.3 1.43-.3.57-.5 1.26-.6 2.09-.11.83-.18 1.79-.21 2.88.01.63-.23 1.15-.71 1.56-.48.42-1.33 1-2.54 1.74-.29.2-.65.41-1.1.65-.44.24-.82.4-1.14.49-.53.15-.95-.33-1.26-1.44-.33-1.16-.21-2.44.36-3.86.57-1.41 1.42-2.76 2.57-4.05 1.14-1.29 2.45-2.44 3.93-3.45 1.48-1.01 2.95-1.73 4.43-2.14 1.84-.52 3.55-.83 5.12-.93 1.57-.1 3.01.12 4.31.66 1.3.54 2.44 1.45 3.4 2.71s1.76 3.03 2.4 5.29l3.83 13.59c.52 1.84.96 3.16 1.32 3.93.36.78.74 1.37 1.14 1.77.58.63 1.12 1.01 1.64 1.12.51.11 1.01.1 1.48-.04.58-.16.97-.33 1.18-.5.2-.18.44-.31.7-.38zm-16.36-12.02l-2.43 1.11c-1.3.65-2.55 1.35-3.75 2.08-1.2.74-2.2 1.57-3.02 2.52-.82.94-1.4 2-1.72 3.17-.33 1.17-.28 2.5.13 3.97.56 2 1.51 3.38 2.84 4.15 1.33.76 2.76.93 4.3.49 1.01-.28 1.94-.79 2.79-1.51.85-.72 1.52-1.59 2.01-2.61.49-1.02.8-2.14.94-3.38.14-1.23.02-2.51-.35-3.83l-1.74-6.16zM206.74 87.65c.21.74.68 1.21 1.43 1.43.74.22 1.99.22 3.75.01.22-.01.45.03.67.11.22.08.38.31.49.67.09.32.15.6.2.84.04.24.06.48.07.7-1.4.28-2.79.58-4.19.88s-3.11.75-5.17 1.33c-1.69.48-3.26.96-4.71 1.46s-2.85.99-4.19 1.48c-.18-.23-.37-.72-.58-1.46-.16-.58.03-1 .58-1.27 1.29-.65 2.13-1.23 2.5-1.73.37-.5.44-1.15.22-1.94l-4.37-15.49c-.88-3.11-1.87-5.15-2.96-6.12-1.1-.97-2.49-1.22-4.17-.74-2.37.67-4.17 2.04-5.4 4.13-1.23 2.08-1.4 4.7-.51 7.86l3.99 14.14c.22.79.62 1.3 1.2 1.54s1.59.29 3.03.17c.61-.06 1 .2 1.16.78.21.74.3 1.25.27 1.55-1.4.28-2.85.59-4.34.93-1.5.34-3.09.74-4.77 1.22-2.05.58-3.77 1.1-5.14 1.58-1.37.47-2.71.95-3.99 1.42-.11-.2-.21-.41-.31-.64-.09-.23-.18-.5-.27-.82-.1-.37-.08-.64.07-.83.15-.18.32-.33.51-.44 1.6-.79 2.66-1.46 3.19-2.01.53-.55.68-1.21.46-2.01l-5.88-20.86c-.45-1.58-1.08-2.71-1.89-3.39-.82-.68-2.17-.84-4.06-.48-.73.04-1.19-.29-1.38-.98-.04-.16-.1-.36-.17-.59-.07-.24-.08-.47-.03-.72.32-.09.77-.23 1.37-.43.6-.2 1.24-.4 1.91-.63.68-.22 1.35-.45 2.02-.7.67-.24 1.29-.48 1.85-.69 1.27-.53 2.48-1.1 3.62-1.7 1.14-.6 1.92-.97 2.34-1.09.84-.24 1.38.04 1.6.83.16.58.3 1.37.41 2.36.11.99.4 2.33.88 4.02 1.06-2.69 2.43-5.01 4.09-6.96 1.67-1.95 3.61-3.23 5.82-3.86 3.21-.91 5.99-.72 8.34.55 2.35 1.27 4.03 3.7 5.04 7.28l5.4 19.31zM217.72 60.67c-.36-1.26-.81-2.13-1.37-2.6-.56-.47-1.76-.56-3.61-.26-.78.05-1.25-.21-1.42-.79-.04-.16-.1-.37-.18-.63-.07-.26-.1-.54-.07-.83.32-.09.76-.23 1.33-.42.57-.19 1.17-.39 1.8-.59.62-.2 1.26-.43 1.9-.67.64-.24 1.21-.48 1.71-.74 1.17-.5 2.27-1.02 3.31-1.57s1.77-.88 2.19-1c.47-.13.81-.11 1 .06.19.17.34.45.44.81l5.71 20.23c.86 3.06 1.84 5.07 2.94 6.04 1.1.97 2.49 1.22 4.18.74 2.37-.67 4.17-2.03 5.42-4.09 1.24-2.06 1.41-4.69.5-7.9l-3.41-12.09c-.18-.63-.37-1.16-.58-1.59-.21-.42-.48-.76-.84-1-.35-.24-.81-.38-1.36-.43-.55-.04-1.29.01-2.22.16-.35-.02-.65-.04-.92-.08s-.46-.27-.58-.69c-.04-.16-.09-.37-.14-.64-.05-.27-.08-.54-.1-.82.37-.1.83-.25 1.37-.43.55-.18 1.14-.38 1.79-.59.65-.21 1.3-.44 1.94-.68.64-.24 1.21-.48 1.71-.74 1.12-.48 2.2-1 3.27-1.56 1.06-.56 1.81-.89 2.23-1.01.74-.21 1.22.08 1.44.87l7.42 26.31c.18.63.37 1.16.58 1.59.21.43.48.76.84 1 .35.24.82.38 1.4.42.58.04 1.33-.02 2.26-.17.7-.14 1.14.11 1.32.74.07.26.15.53.22.79s.08.49.02.68c-.68.19-1.74.53-3.17 1.02s-2.62.95-3.57 1.39c-1.11.48-2.21 1-3.27 1.56-1.07.56-1.81.89-2.23 1.01-.47.13-.8.13-.99-.02-.18-.15-.33-.43-.45-.85l-1.6-5.69c-1.06 2.69-2.43 4.99-4.11 6.92-1.68 1.92-3.62 3.2-5.83 3.82-3.21.91-5.99.74-8.33-.51-2.34-1.24-4.01-3.63-5-7.16l-4.89-17.32zM297.48 59.42c.37-.5.74-.81 1.1-.91.26-.07.6-.04 1.01.1.41.14.89.5 1.45 1.08-1.37 3-3.23 5.45-5.57 7.33-2.34 1.88-5.33 3.34-8.96 4.36-2.05.58-4.16.82-6.32.72-2.16-.1-4.23-.63-6.2-1.58-1.97-.95-3.75-2.34-5.31-4.17-1.57-1.83-2.77-4.22-3.6-7.17-.82-2.9-.99-5.68-.52-8.34s1.35-5.06 2.62-7.18c1.28-2.12 2.82-3.91 4.63-5.36 1.81-1.45 3.66-2.44 5.56-2.98 5.11-1.44 9.38-1.05 12.82 1.16 3.44 2.22 5.88 5.88 7.32 10.99.1.37-.03.61-.4.71l-22.33 7.32c1.16 4.11 2.97 7 5.42 8.67 2.45 1.67 5.52 1.98 9.19.95 1.63-.46 3.15-1.17 4.58-2.15 1.43-.98 2.6-2.16 3.51-3.55zm-20.28-20.3c-2.04.58-3.43 1.92-4.16 4.03-.73 2.11-.56 5.06.51 8.86l12.1-4.01c.77-.27 1.07-.73.89-1.36-.28-1-.71-2.02-1.28-3.05-.57-1.03-1.27-1.93-2.08-2.7a7.826 7.826 0 0 0-2.73-1.7c-1.02-.37-2.1-.39-3.25-.07zM326.05 46.75c.39-3.46.7-6.34.94-8.62.24-2.29.39-4.15.47-5.59.08-1.44.1-2.57.07-3.39-.03-.82-.12-1.49-.27-2.01-.3-1.05-1.35-1.55-3.15-1.5-.4 0-.7-.04-.89-.13-.19-.09-.35-.34-.47-.76-.04-.16-.07-.36-.09-.62-.01-.25-.03-.52-.05-.8 2.15-.44 4.46-1 6.94-1.7 2.21-.62 4.22-1.27 6.02-1.95.18.24.33.51.44.81.12.31.19.52.22.62.16.58-.08 1.05-.71 1.4-.69.37-1.25.68-1.65.94-.41.26-.75.58-1.01.97s-.46.84-.6 1.36c-.14.52-.25 1.22-.34 2.1l-3.64 31.56c-.23.18-.5.31-.79.39-.29.08-.57.16-.83.23-.37.1-.78-.01-1.24-.33-.46-.32-1.17-1.09-2.14-2.3l-17.91-22.07c-.59-.69-1.09-1.23-1.48-1.63-.4-.4-.79-.69-1.18-.86-.39-.17-.82-.27-1.27-.28-.46-.01-1.05.02-1.76.11-.7.14-1.16-.18-1.38-.97-.1-.37-.16-.87-.16-1.49 1.35-.26 2.66-.56 3.93-.89 1.27-.33 2.94-.79 4.99-1.36 1.9-.53 3.55-1.02 4.97-1.44 1.42-.43 2.82-.89 4.21-1.4.32.54.53.96.62 1.28.19.68-.04 1.18-.69 1.47-1.22.51-1.93.96-2.14 1.33-.21.37-.25.77-.13 1.19.07.26.33.77.77 1.53s1.4 2.04 2.87 3.84l8.51 10.96zM382.89 40.53c.79-.22 1.37.32 1.74 1.64-.55.67-1.31 1.26-2.27 1.79s-1.97.94-3.02 1.24c-2.37.67-4.35.6-5.94-.2-1.59-.8-2.71-1.94-3.35-3.41-.46 2.4-1.45 4.29-2.97 5.66-1.52 1.37-3.46 2.38-5.83 3.05-1.11.31-2.36.56-3.75.76-1.4.19-2.74.16-4.04-.1a8.55 8.55 0 0 1-3.57-1.64c-1.09-.83-1.88-2.12-2.37-3.85-.55-1.95-.52-3.75.1-5.4.61-1.65 1.54-3.15 2.78-4.5 1.24-1.34 2.68-2.55 4.31-3.61 1.63-1.06 3.19-1.99 4.67-2.81.64-.35 1.3-.72 1.99-1.12.69-.39 1.22-.7 1.62-.92.53-.32.84-.65.92-.99.08-.33-.06-1.11-.4-2.32-.76-2.69-1.74-4.64-2.93-5.87-1.2-1.22-2.75-1.57-4.64-1.04-1.53.43-2.49 1.21-2.88 2.35-.39 1.13-.59 2.81-.59 5.03.01.63-.33 1.19-1.01 1.69-.68.51-1.56 1.08-2.63 1.72-.59.34-1.2.65-1.82.94-.63.29-1.21.51-1.73.66-.32.09-.56.03-.73-.18-.17-.21-.36-.65-.55-1.34-.37-1.32-.25-2.74.37-4.28s1.53-3 2.73-4.39c1.2-1.39 2.6-2.62 4.2-3.7s3.22-1.84 4.85-2.31c1.95-.55 3.76-.88 5.44-.98 1.68-.1 3.2.12 4.58.67s2.58 1.46 3.63 2.72c1.04 1.27 1.88 3.03 2.52 5.29l3.91 13.87c.52 1.84.94 3.17 1.25 3.99.32.82.64 1.41.97 1.77.74.81 1.61 1.08 2.61.79.42-.12.77-.25 1.04-.38.26-.11.53-.21.79-.29zm-17.75-10.94l-1.65.81c-1.15.55-2.2 1.17-3.14 1.87-.94.69-1.7 1.48-2.28 2.35-.58.87-.95 1.86-1.13 2.96-.17 1.1-.07 2.34.32 3.71.58 2.05 1.31 3.4 2.2 4.03.89.63 1.96.77 3.23.41 2-.56 3.37-1.75 4.12-3.55.74-1.8.74-4.02 0-6.65l-1.67-5.94z"/></svg>