<svg version="1.1" id="Capa_1" xmlns="http://www.w3.org/2000/svg" x="0" y="0" viewBox="0 0 266 96" xml:space="preserve"><style>.st0{fill:#e85644}</style><path class="st0" d="M48.45 41.65c.13-.69.17-1.23.1-1.63-.12-.69-.53-1.14-1.23-1.35-.7-.21-1.86-.27-3.48-.19-.6.06-.98-.36-1.14-1.26-.02-.1-.02-.21-.02-.34 0-.13-.01-.27-.03-.42l-.03-.61c.46-.03 1.01-.07 1.66-.14.65-.06 1.36-.15 2.14-.26l2.32-.33c.77-.11 1.48-.22 2.13-.33 1.44-.25 2.81-.52 4.11-.8 1.3-.28 2.41-.58 3.33-.89l.18.58c.07.14.13.28.15.43.03.15.05.27.06.37.17.94-.05 1.49-.63 1.64-1.56.43-2.64.88-3.25 1.37-.6.49-1.02 1.24-1.25 2.25L42.88 86.82c-.24.09-.43.15-.58.18s-.32.06-.52.09c-.4.07-.7.04-.89-.07-.2-.12-.45-.43-.74-.94L15.21 46.09c-.21-.32-.42-.6-.65-.84-.22-.24-.52-.43-.9-.57-.38-.14-.87-.22-1.46-.24-.59-.02-1.37 0-2.33.06-.65.06-1.07-.4-1.24-1.39-.03-.15-.06-.36-.11-.63s-.04-.49.04-.66c.75-.08 1.6-.18 2.55-.29.95-.11 1.91-.24 2.88-.39.97-.14 1.92-.28 2.84-.42.92-.13 1.73-.26 2.42-.39 1.64-.29 3.41-.64 5.33-1.05 1.92-.41 3.64-.8 5.16-1.17.14.23.24.47.28.72.04.25.08.45.1.59.16.89-.06 1.42-.64 1.57-1.56.43-2.63.87-3.21 1.33-.58.46-.82.99-.72 1.58.06.35.2.73.43 1.15l16 27.45 6.47-30.85zM64.37 57.32c-.61-3.47-.52-6.83.26-10.08s2.12-6.22 4-8.9c1.88-2.68 4.23-4.94 7.05-6.79 2.82-1.85 5.96-3.07 9.43-3.68 3.57-.62 7-.59 10.29.11 3.29.7 6.26 1.97 8.9 3.8 2.65 1.84 4.88 4.18 6.71 7.02 1.83 2.85 3.06 6.08 3.69 9.7.61 3.47.52 6.84-.26 10.12-.78 3.28-2.11 6.24-4 8.9-1.88 2.65-4.25 4.91-7.09 6.76-2.84 1.85-6 3.08-9.47 3.69-3.57.62-7 .59-10.28-.11-3.29-.7-6.24-1.97-8.86-3.81-2.62-1.84-4.84-4.17-6.66-6.99-1.84-2.83-3.07-6.07-3.71-9.74zm29.95 16.59c2.08-.36 3.88-1.15 5.41-2.36 1.52-1.21 2.75-2.72 3.69-4.52.94-1.8 1.55-3.82 1.85-6.07.3-2.25.23-4.59-.19-7.01-.62-3.52-1.52-6.73-2.72-9.64-1.2-2.9-2.67-5.34-4.42-7.31-1.75-1.97-3.76-3.4-6.04-4.3-2.28-.9-4.78-1.12-7.5-.64-1.73.3-3.35.98-4.85 2.04-1.5 1.06-2.74 2.42-3.73 4.1-.98 1.68-1.66 3.62-2.04 5.84-.38 2.21-.34 4.63.12 7.26.64 3.67 1.6 7 2.86 9.99 1.26 3 2.78 5.5 4.53 7.52 1.76 2.02 3.74 3.48 5.94 4.4 2.19.9 4.56 1.14 7.09.7zM137.74 65.54l15.01-2.63c1.49-.26 2.71-.65 3.66-1.18.95-.52 1.72-1.19 2.29-2.01.57-.81 1.03-1.79 1.37-2.92.34-1.13.63-2.46.87-3.98.03-.41.17-.73.41-.95.24-.22.49-.35.73-.4.45-.08 1.04-.03 1.79.15-.06 2.26-.03 4.49.1 6.69s.26 3.95.38 5.26c.05.6-.05 1.04-.31 1.32-.26.27-.61.45-1.06.53-.94.16-2.11.29-3.5.38-1.39.09-2.88.27-4.46.55l-29.51 5.17c-.08-.45-.05-.88.08-1.32l18.87-47.97-13.82 2.42c-1.54.27-2.8.58-3.78.93-.99.35-1.79.86-2.41 1.53-.62.67-1.06 1.53-1.31 2.57-.25 1.04-.41 2.41-.47 4.1-.02.77-.52 1.24-1.51 1.41-.25.04-.52.05-.8.03-.29-.03-.54-.1-.76-.21-.04-2.24-.13-4.33-.29-6.27-.16-1.94-.3-3.51-.4-4.72-.03-1.02.41-1.6 1.3-1.76.99-.17 2.08-.3 3.27-.38 1.19-.08 2.57-.26 4.16-.54l28.99-5.08c.05.3.09.57.11.82.02.25-.03.49-.14.71l-18.86 47.75z"/><g><path class="st0" d="M217.91 49.96c.09.54.22.99.38 1.35.16.37.39.66.71.88.31.22.72.37 1.22.44s1.13.09 1.91.04c.6-.01.94.23 1.03.72.05.27.06.59.03.96-.58.1-1.35.27-2.3.51-.95.24-1.75.46-2.41.66-.96.35-1.8.7-2.52 1.03-.71.33-1.25.53-1.61.59-.63.11-1.01-.17-1.13-.84l-.89-5.1c-.48.96-.96 1.89-1.45 2.78-.49.89-1.09 1.71-1.82 2.46-.72.75-1.59 1.4-2.6 1.94-1.01.55-2.28.95-3.8 1.22s-3.03.21-4.52-.18c-1.5-.38-2.89-1.09-4.18-2.14-1.29-1.04-2.41-2.4-3.38-4.08-.96-1.67-1.64-3.65-2.04-5.93-.43-2.46-.35-4.74.25-6.85.6-2.11 1.47-3.95 2.63-5.51 1.15-1.56 2.49-2.83 4-3.81 1.51-.98 2.96-1.59 4.35-1.83 1.7-.3 3.24-.39 4.62-.29 1.38.1 2.76.31 4.15.62l-2.22-12.68c-.23-1.34-.64-2.25-1.2-2.73-.57-.48-1.65-.65-3.23-.51-.6.01-.94-.25-1.04-.79-.05-.27-.06-.59-.03-.96.58-.1 1.39-.28 2.43-.53 1.04-.25 1.89-.48 2.55-.69 1.02-.32 1.91-.66 2.69-1.02s1.34-.58 1.71-.64c.63-.11 1.01.17 1.13.84.13.76.22 1.65.26 2.65s.18 2.23.43 3.66l5.89 33.76zm-8.61-15.98c-1.32-.97-2.71-1.67-4.17-2.1-1.46-.44-3.04-.51-4.74-.21-2.59.45-4.36 1.87-5.3 4.25-.94 2.38-1.12 5.24-.53 8.6.3 1.7.77 3.29 1.42 4.76.65 1.48 1.45 2.73 2.39 3.77.94 1.03 2 1.79 3.16 2.28s2.4.62 3.7.39c.89-.16 1.74-.58 2.54-1.27.8-.69 1.5-1.52 2.09-2.48.59-.96 1.03-2 1.32-3.13.29-1.13.34-2.21.16-3.24l-2.04-11.62zM253.42 43.47c.26-.37.56-.58.92-.65.45-.08.94.23 1.47.92-.44.91-.97 1.81-1.6 2.7-.63.89-1.41 1.73-2.36 2.52s-2.06 1.48-3.34 2.07c-1.28.59-2.79 1.04-4.53 1.35-1.79.31-3.54.32-5.25.02s-3.29-.94-4.73-1.94c-1.44-.99-2.69-2.32-3.74-3.98-1.05-1.66-1.79-3.7-2.21-6.11-.4-2.28-.33-4.46.2-6.53.54-2.08 1.38-3.92 2.52-5.52 1.15-1.61 2.49-2.94 4.04-3.99s3.1-1.72 4.66-1.99c4.16-.73 7.4-.05 9.72 2.03 2.32 2.08 3.83 5.07 4.51 8.96.05.27-.06.43-.33.47l-19.23 4.27c.31 1.74.83 3.31 1.58 4.7.75 1.39 1.66 2.54 2.74 3.46 1.08.92 2.31 1.57 3.68 1.95 1.38.38 2.87.43 4.47.15 1.43-.25 2.74-.83 3.94-1.73 1.2-.91 2.16-1.95 2.87-3.13zM238.99 24.9c-2.23.39-3.81 1.57-4.75 3.53-.94 1.96-1.16 4.35-.67 7.17l12.51-2.81c.67-.12.95-.46.85-1.05-.15-.85-.44-1.72-.87-2.61-.43-.89-.98-1.68-1.66-2.37a6.819 6.819 0 0 0-2.38-1.59c-.9-.37-1.91-.46-3.03-.27z"/></g></svg>