<?xml version="1.0" encoding="utf-8"?>
<!-- Generator: Adobe Illustrator 23.0.1, SVG Export Plug-In . SVG Version: 6.00 Build 0)  -->
<svg version="1.1" id="Capa_1" xmlns="http://www.w3.org/2000/svg" xmlns:xlink="http://www.w3.org/1999/xlink" x="0px" y="0px"
	 viewBox="0 0 325 96" style="enable-background:new 0 0 325 96;" xml:space="preserve">
<style type="text/css">
	.st0{fill:#0E59A2;}
</style>
<g>
	<path class="st0" d="M49.66,67.04c-0.06,0.23-0.08,0.48-0.08,0.76c0,0.5,0.25,0.76,0.76,0.76c0.34,0,0.74-0.1,1.22-0.29
		c0.48-0.2,0.94-0.42,1.39-0.67c0.45-0.25,0.87-0.48,1.26-0.67c0.39-0.2,0.7-0.29,0.93-0.29c0.45,0,0.8,0.24,1.05,0.72
		c0.25,0.48,0.41,0.94,0.46,1.39c-0.9,0.62-1.95,1.29-3.16,2.02s-2.44,1.4-3.7,2.02c-1.26,0.62-2.5,1.14-3.71,1.56
		s-2.26,0.63-3.16,0.63c-0.96,0-1.68-0.2-2.19-0.59c-0.51-0.39-0.76-1.07-0.76-2.02c0-0.62,0.14-1.4,0.42-2.36l2.95-9.18L43,60.72
		c-2.36,4.55-4.9,8.05-7.62,10.52c-2.72,2.47-5.43,3.71-8.13,3.71c-0.9,0-1.81-0.13-2.74-0.38c-0.93-0.25-1.77-0.72-2.53-1.39
		s-1.39-1.6-1.89-2.78c-0.5-1.18-0.76-2.69-0.76-4.55c0-4.71,0.77-8.88,2.32-12.5c1.54-3.62,3.48-6.67,5.81-9.14
		c2.33-2.47,4.87-4.34,7.62-5.6c2.75-1.26,5.33-1.89,7.75-1.89c0.67,0,1.26,0.01,1.77,0.04c0.5,0.03,1.12,0.1,1.85,0.21l1.35-6.9
		c0.22-1.18,0.42-2.46,0.59-3.83c0.17-1.38,0.25-2.54,0.25-3.49c0-0.62-0.25-0.93-0.76-0.93c-0.56,0-1.25,0.07-2.06,0.21
		c-0.81,0.14-1.53,0.21-2.15,0.21c-0.5,0-0.86-0.22-1.05-0.67c-0.2-0.45-0.29-1.01-0.29-1.68c2.64-0.79,5.21-1.56,7.7-2.32
		c2.5-0.76,5.01-1.61,7.54-2.57c1.07,0.45,1.6,1.21,1.6,2.27c0,0.22-0.03,0.49-0.08,0.8c-0.06,0.31-0.11,0.58-0.17,0.8L49.66,67.04z
		 M45.45,40.77c-0.51-0.11-1.05-0.22-1.64-0.34c-0.59-0.11-1.22-0.17-1.89-0.17c-1.97,0-3.73,0.63-5.3,1.9
		c-1.57,1.27-2.93,2.97-4.08,5.11c-1.15,2.14-2.04,4.59-2.65,7.35c-0.62,2.76-0.93,5.63-0.93,8.61c0,2.31,0.21,3.87,0.63,4.69
		s1.02,1.22,1.81,1.22c0.84,0,1.77-0.45,2.78-1.35c1.01-0.9,2.03-2.11,3.07-3.63c1.04-1.52,2.03-3.25,2.99-5.19
		c0.95-1.94,1.81-3.97,2.57-6.08c0.76-2.11,1.38-4.21,1.85-6.29C45.12,44.52,45.39,42.57,45.45,40.77z"/>
	<path class="st0" d="M97.98,44.64c0,2.02-0.51,3.78-1.52,5.26c-1.01,1.49-2.44,2.72-4.29,3.7c-1.85,0.98-4.07,1.76-6.65,2.32
		c-2.58,0.56-5.44,0.93-8.59,1.09c-0.06,0.56-0.1,1.09-0.13,1.6c-0.03,0.51-0.04,1.04-0.04,1.6c0,1.24,0.1,2.44,0.29,3.62
		c0.2,1.18,0.55,2.22,1.05,3.12c0.51,0.9,1.19,1.63,2.06,2.19c0.87,0.56,1.98,0.84,3.33,0.84c1.01,0,2.23-0.21,3.66-0.63
		c1.43-0.42,2.96-1.16,4.59-2.23c0.5-0.34,0.91-0.62,1.22-0.84c0.31-0.22,0.66-0.34,1.05-0.34c0.56,0,0.94,0.29,1.14,0.88
		c0.2,0.59,0.29,1,0.29,1.22c-0.73,0.67-1.64,1.42-2.74,2.23s-2.33,1.56-3.71,2.23c-1.38,0.67-2.86,1.25-4.46,1.73
		c-1.6,0.48-3.24,0.72-4.93,0.72c-2.58,0-4.69-0.42-6.31-1.26c-1.63-0.84-2.89-1.94-3.79-3.28c-0.9-1.35-1.52-2.83-1.85-4.46
		c-0.34-1.63-0.5-3.23-0.5-4.8c0-3.03,0.49-6.01,1.47-8.92c0.98-2.92,2.38-5.53,4.21-7.83c1.82-2.3,4-4.15,6.53-5.56
		c2.53-1.4,5.33-2.1,8.42-2.1c2.86,0,5.28,0.6,7.24,1.81C97,39.75,97.98,41.78,97.98,44.64z M86.2,40.1c-1.07,0-2.08,0.38-3.03,1.14
		c-0.96,0.76-1.82,1.78-2.61,3.07c-0.79,1.29-1.46,2.77-2.02,4.42c-0.56,1.66-0.98,3.41-1.26,5.26c2.24-0.22,4.13-0.64,5.64-1.26
		c1.52-0.62,2.72-1.36,3.62-2.23c0.9-0.87,1.54-1.85,1.94-2.95c0.39-1.09,0.59-2.23,0.59-3.41c0-1.29-0.27-2.29-0.8-2.99
		C87.72,40.45,87.04,40.1,86.2,40.1z"/>
	<path class="st0" d="M132.08,44.73c-0.79,0-1.63,0.32-2.53,0.97c-0.9,0.65-1.84,1.52-2.82,2.61c-0.98,1.09-1.96,2.41-2.95,3.96
		c-0.98,1.54-1.89,3.19-2.74,4.93c-0.45,0.9-0.87,1.95-1.26,3.16c-0.39,1.21-0.74,2.46-1.05,3.75c-0.31,1.29-0.55,2.55-0.72,3.79
		c-0.17,1.24-0.25,2.33-0.25,3.28c0,0.9,0.08,1.71,0.25,2.44c-1.35,0.17-2.71,0.36-4.08,0.59c-1.38,0.22-2.85,0.56-4.42,1.01
		c-0.96-0.39-1.43-0.9-1.43-1.52c0-0.28,0.03-0.57,0.08-0.88c0.06-0.31,0.11-0.55,0.17-0.72l5.39-27.2
		c0.11-0.34,0.14-0.63,0.08-0.88c-0.06-0.25-0.2-0.38-0.42-0.38c-0.17,0-0.42,0.07-0.76,0.21c-0.34,0.14-0.72,0.29-1.14,0.46
		c-0.42,0.17-0.84,0.32-1.26,0.46c-0.42,0.14-0.77,0.21-1.05,0.21c-0.5,0-0.88-0.25-1.14-0.76c-0.25-0.5-0.44-0.98-0.55-1.43
		c1.07-0.67,2.33-1.36,3.79-2.06c1.46-0.7,2.91-1.35,4.34-1.94c1.43-0.59,2.74-1.08,3.92-1.47c1.18-0.39,2.05-0.59,2.61-0.59
		c0.45,0,0.87,0.11,1.26,0.34c0.39,0.22,0.59,0.62,0.59,1.18c0,0.17,0,0.39,0,0.67c0,0.28-0.06,0.56-0.17,0.84l-2.95,11.2l0.34,0.08
		c2.92-5.16,5.49-8.84,7.7-11.03c2.22-2.19,4.45-3.28,6.69-3.28c0.73,0,1.43,0.11,2.11,0.34c0.67,0.22,1.15,0.48,1.43,0.76
		c-0.96,2.25-1.68,5.3-2.19,9.18h-1.68c-0.34-0.62-0.76-1.15-1.26-1.6C133.51,44.95,132.87,44.73,132.08,44.73z"/>
	<path class="st0" d="M175.02,44.64c0,2.02-0.51,3.78-1.52,5.26c-1.01,1.49-2.44,2.72-4.29,3.7c-1.85,0.98-4.07,1.76-6.65,2.32
		c-2.58,0.56-5.44,0.93-8.59,1.09c-0.06,0.56-0.1,1.09-0.13,1.6c-0.03,0.51-0.04,1.04-0.04,1.6c0,1.24,0.1,2.44,0.29,3.62
		c0.2,1.18,0.55,2.22,1.05,3.12c0.51,0.9,1.19,1.63,2.06,2.19c0.87,0.56,1.98,0.84,3.33,0.84c1.01,0,2.23-0.21,3.66-0.63
		c1.43-0.42,2.96-1.16,4.59-2.23c0.5-0.34,0.91-0.62,1.22-0.84c0.31-0.22,0.66-0.34,1.05-0.34c0.56,0,0.94,0.29,1.14,0.88
		c0.2,0.59,0.29,1,0.29,1.22c-0.73,0.67-1.64,1.42-2.74,2.23s-2.33,1.56-3.71,2.23c-1.38,0.67-2.86,1.25-4.46,1.73
		c-1.6,0.48-3.24,0.72-4.93,0.72c-2.58,0-4.69-0.42-6.31-1.26c-1.63-0.84-2.89-1.94-3.79-3.28c-0.9-1.35-1.52-2.83-1.85-4.46
		c-0.34-1.63-0.5-3.23-0.5-4.8c0-3.03,0.49-6.01,1.47-8.92c0.98-2.92,2.38-5.53,4.21-7.83c1.82-2.3,4-4.15,6.53-5.56
		c2.53-1.4,5.33-2.1,8.42-2.1c2.86,0,5.28,0.6,7.24,1.81C174.04,39.75,175.02,41.78,175.02,44.64z M163.24,40.1
		c-1.07,0-2.08,0.38-3.03,1.14c-0.96,0.76-1.82,1.78-2.61,3.07c-0.79,1.29-1.46,2.77-2.02,4.42c-0.56,1.66-0.98,3.41-1.26,5.26
		c2.24-0.22,4.13-0.64,5.64-1.26c1.52-0.62,2.72-1.36,3.62-2.23c0.9-0.87,1.54-1.85,1.94-2.95c0.39-1.09,0.59-2.23,0.59-3.41
		c0-1.29-0.27-2.29-0.8-2.99C164.77,40.45,164.08,40.1,163.24,40.1z"/>
	<path class="st0" d="M204.33,39.93c-2.02,0-3.71,0.79-5.05,2.36c-1.35,1.57-2.41,3.48-3.2,5.73c-0.79,2.25-1.33,4.56-1.64,6.95
		c-0.31,2.39-0.46,4.42-0.46,6.1c0,2.64,0.5,4.8,1.52,6.48c1.01,1.68,2.69,2.53,5.05,2.53c1.01,0,1.96-0.13,2.86-0.38
		c0.9-0.25,1.7-0.56,2.4-0.93c0.7-0.37,1.32-0.73,1.85-1.09c0.53-0.36,0.97-0.66,1.31-0.88c0.17-0.11,0.34-0.22,0.5-0.34
		s0.39-0.17,0.67-0.17c0.56,0,0.95,0.24,1.18,0.72c0.22,0.48,0.36,0.94,0.42,1.39c-0.79,0.67-1.7,1.4-2.74,2.19
		c-1.04,0.79-2.19,1.5-3.45,2.15c-1.26,0.65-2.64,1.18-4.13,1.6s-3.04,0.63-4.67,0.63c-2.36,0-4.32-0.37-5.89-1.09
		c-1.57-0.73-2.85-1.7-3.83-2.91c-0.98-1.21-1.68-2.6-2.1-4.17s-0.63-3.2-0.63-4.88c0-2.69,0.43-5.53,1.3-8.5
		c0.87-2.97,2.16-5.7,3.87-8.17c1.71-2.47,3.86-4.5,6.44-6.1c2.58-1.6,5.56-2.4,8.92-2.4c1.85,0,3.68,0.24,5.47,0.72
		c1.8,0.48,3.42,1.11,4.88,1.89c-0.11,0.34-0.24,0.84-0.38,1.52c-0.14,0.67-0.27,1.4-0.38,2.19c-0.11,0.79-0.22,1.59-0.34,2.4
		c-0.11,0.81-0.2,1.56-0.25,2.23l-1.35-0.08c-0.62-0.06-1.07-0.15-1.35-0.29c-0.28-0.14-0.5-0.49-0.67-1.05
		c-0.73-2.36-1.53-4-2.4-4.92C207.2,40.39,205.95,39.93,204.33,39.93z"/>
	<path class="st0" d="M250.13,49.02c0.22-0.95,0.39-1.77,0.5-2.44c0.11-0.67,0.17-1.26,0.17-1.77c0-1.12-0.45-1.68-1.35-1.68
		c-0.62,0-1.42,0.44-2.4,1.31c-0.98,0.87-2.06,2.01-3.24,3.41c-1.18,1.4-2.37,2.99-3.58,4.76c-1.21,1.77-2.32,3.58-3.33,5.43
		c-1.01,1.8-1.87,3.94-2.57,6.44c-0.7,2.5-1.05,4.73-1.05,6.69c0,0.9,0.08,1.71,0.25,2.44c-1.35,0.17-2.71,0.36-4.08,0.59
		c-1.38,0.22-2.85,0.56-4.42,1.01c-0.96-0.39-1.43-0.9-1.43-1.52c0-0.28,0.03-0.57,0.08-0.88c0.06-0.31,0.11-0.55,0.17-0.72
		l8.33-41.93c0.28-1.18,0.49-2.47,0.63-3.87c0.14-1.4,0.21-2.58,0.21-3.54c0-0.62-0.25-0.93-0.76-0.93c-0.56,0-1.25,0.07-2.06,0.21
		c-0.81,0.14-1.53,0.21-2.15,0.21c-0.51,0-0.86-0.22-1.05-0.67c-0.2-0.45-0.29-1.01-0.29-1.68c2.64-0.79,5.23-1.56,7.79-2.32
		c2.55-0.76,5.09-1.61,7.62-2.57c1.07,0.45,1.6,1.21,1.6,2.27c0,0.22-0.03,0.49-0.08,0.8c-0.06,0.31-0.11,0.58-0.17,0.8l-7.33,33.85
		l0.25,0.08c1.23-2.02,2.54-4,3.92-5.94c1.38-1.94,2.82-3.66,4.34-5.18c1.51-1.52,3.1-2.72,4.76-3.62c1.66-0.9,3.38-1.35,5.18-1.35
		c1.52,0,2.83,0.35,3.96,1.05c1.12,0.7,1.68,1.98,1.68,3.83c0,0.67-0.04,1.47-0.13,2.4c-0.08,0.93-0.24,1.92-0.46,2.99l-4.04,19.28
		c-0.17,0.67-0.25,1.18-0.25,1.52c0,0.5,0.25,0.76,0.76,0.76c0.34,0,0.74-0.1,1.22-0.29c0.48-0.2,0.94-0.42,1.39-0.67
		c0.45-0.25,0.87-0.48,1.26-0.67c0.39-0.2,0.7-0.29,0.93-0.29c0.45,0,0.8,0.24,1.05,0.72c0.25,0.48,0.41,0.94,0.46,1.39
		c-0.9,0.62-1.95,1.29-3.16,2.02s-2.44,1.4-3.7,2.02c-1.26,0.62-2.5,1.14-3.71,1.56c-1.21,0.42-2.26,0.63-3.16,0.63
		c-0.96,0-1.75-0.2-2.4-0.59c-0.65-0.39-0.97-1.07-0.97-2.02c0-0.34,0.03-0.66,0.08-0.97c0.05-0.31,0.11-0.57,0.17-0.8L250.13,49.02
		z"/>
	<path class="st0" d="M296.27,60.81l-0.34-0.08c-2.64,5.05-5.39,8.69-8.25,10.9c-2.86,2.22-5.39,3.33-7.58,3.33
		c-1.01,0-1.98-0.13-2.9-0.38c-0.93-0.25-1.75-0.7-2.48-1.35c-0.73-0.64-1.32-1.5-1.77-2.57c-0.45-1.07-0.67-2.41-0.67-4.04
		c0-4.77,0.8-9.01,2.4-12.71c1.6-3.7,3.61-6.83,6.02-9.39c2.41-2.55,5.02-4.49,7.83-5.81c2.81-1.32,5.42-1.98,7.83-1.98
		c1.8,0,3.62,0.11,5.47,0.34c1.85,0.22,4.01,0.59,6.48,1.09l-5.64,28.46c-0.06,0.28-0.1,0.52-0.13,0.72
		c-0.03,0.2-0.04,0.35-0.04,0.46c0,0.5,0.25,0.76,0.76,0.76c0.34,0,0.74-0.1,1.22-0.29c0.48-0.2,0.94-0.42,1.39-0.67
		c0.45-0.25,0.87-0.48,1.26-0.67c0.39-0.2,0.7-0.29,0.93-0.29c0.45,0,0.8,0.24,1.05,0.72c0.25,0.48,0.41,0.94,0.46,1.39
		c-0.9,0.62-1.95,1.29-3.16,2.02s-2.44,1.4-3.7,2.02c-1.26,0.62-2.5,1.14-3.71,1.56c-1.21,0.42-2.26,0.63-3.16,0.63
		c-0.96,0-1.68-0.2-2.19-0.59c-0.5-0.39-0.76-1.07-0.76-2.02c0-0.62,0.14-1.4,0.42-2.36L296.27,60.81z M298.46,40.77
		c-0.45-0.11-0.94-0.22-1.47-0.34c-0.53-0.11-1.03-0.17-1.47-0.17c-1.97,0-3.76,0.62-5.39,1.86c-1.63,1.24-3.03,2.93-4.21,5.07
		s-2.09,4.67-2.74,7.6c-0.65,2.93-0.97,6.11-0.97,9.54c0,1.52,0.13,2.7,0.38,3.55c0.25,0.84,0.83,1.27,1.73,1.27
		c0.9,0,1.88-0.46,2.95-1.39c1.07-0.93,2.13-2.17,3.2-3.71c1.07-1.55,2.09-3.31,3.07-5.28c0.98-1.97,1.85-4.01,2.61-6.12
		c0.76-2.11,1.35-4.19,1.77-6.25C298.33,44.33,298.51,42.46,298.46,40.77z"/>
</g>
</svg>
