<?xml version="1.0" encoding="utf-8"?>
<!-- Generator: Adobe Illustrator 23.0.1, SVG Export Plug-In . SVG Version: 6.00 Build 0)  -->
<svg version="1.1" id="Capa_1" xmlns="http://www.w3.org/2000/svg" xmlns:xlink="http://www.w3.org/1999/xlink" x="0px" y="0px"
	 viewBox="0 0 716.55 144.64" style="enable-background:new 0 0 716.55 144.64;" xml:space="preserve">
<style type="text/css">
	.st0{fill:#FCFCFB;}
	.st1{fill:#FFFFFF;}
</style>
<g>
	<g>
		<g>
			<path class="st0" d="M73.94,31.2c4.67,0.09,7.86,0.48,9.57,1.17c1.71,0.69,2.75,1.76,3.12,3.21c0.37,1.45,0.25,3.1-0.36,4.96
				l-3.83,11.61H91c0.74,2.29,1.1,4.76,1.1,7.4c0,1.73-0.37,3.14-1.1,4.22c-0.74,1.08-2.05,1.62-3.96,1.62h-8.89L71.86,84.6h9.6
				c0.73,2.29,1.1,4.76,1.1,7.4c0,1.73-0.37,3.14-1.1,4.22c-0.74,1.08-2.06,1.62-3.96,1.62h-9.93L59.6,122.3
				c-4.67-0.09-7.86-0.48-9.57-1.17c-1.71-0.69-2.76-1.76-3.15-3.21c-0.39-1.45-0.26-3.1,0.39-4.96l4.93-15.12H36.3l-7.98,24.46
				c-4.67-0.09-7.86-0.48-9.57-1.17c-1.71-0.69-2.76-1.76-3.15-3.21c-0.39-1.45-0.26-3.1,0.39-4.96l4.93-15.12H12.1
				c-0.74-2.72-1.1-5.02-1.1-6.88c0-2.33,0.39-3.98,1.17-4.93c0.78-0.95,1.84-1.43,3.18-1.43h9.86L31.5,65.4h-9.86
				c-0.74-2.73-1.1-5.02-1.1-6.88c0-2.34,0.39-3.98,1.17-4.93c0.78-0.95,1.84-1.43,3.18-1.43h10.9l6.88-20.96
				c4.67,0.09,7.86,0.48,9.57,1.17c1.71,0.69,2.75,1.76,3.11,3.21c0.37,1.45,0.25,3.1-0.36,4.96l-3.83,11.61h15.9L73.94,31.2z
				 M40.59,84.6h15.9l6.29-19.21h-15.9L40.59,84.6z"/>
		</g>
	</g>
	<g>
		<g>
			<g>
				<path class="st1" d="M119.47,36.83c0-0.37-0.15-0.56-0.45-0.56c-0.15,0-0.37,0.07-0.67,0.2c-0.3,0.13-0.62,0.26-0.95,0.39
					c-0.34,0.13-0.64,0.26-0.92,0.39c-0.28,0.13-0.49,0.2-0.64,0.2c-0.22,0-0.39-0.11-0.5-0.34c-0.11-0.22-0.21-0.48-0.28-0.78
					c0.67-0.41,1.45-0.85,2.35-1.31c0.89-0.47,1.76-0.89,2.6-1.29c0.84-0.39,1.58-0.72,2.24-0.98c0.65-0.26,1.09-0.39,1.31-0.39
					c0.26,0,0.48,0.07,0.67,0.2c0.19,0.13,0.28,0.38,0.28,0.75c0,0.26-0.04,0.54-0.11,0.84l-1.68,7.88h0.17
					c1.86-3.39,3.71-5.85,5.54-7.38c1.83-1.53,3.65-2.29,5.48-2.29c0.93,0,1.71,0.19,2.35,0.56c0.63,0.37,1.14,0.87,1.51,1.48
					c0.37,0.61,0.63,1.32,0.78,2.12c0.15,0.8,0.22,1.61,0.22,2.43c0,2.94-0.51,5.57-1.54,7.88c-1.03,2.31-2.3,4.28-3.83,5.9
					s-3.21,2.86-5.06,3.72c-1.85,0.86-3.57,1.29-5.17,1.29c-0.48,0-1.04-0.03-1.68-0.08c-0.63-0.06-1.17-0.14-1.62-0.25l-0.84,4.47
					c-0.37,2.09-0.56,3.63-0.56,4.64c0,0.56,0.2,0.84,0.62,0.84c0.3,0,0.78-0.05,1.45-0.14c0.67-0.09,1.17-0.14,1.51-0.14
					c0.22,0,0.38,0.11,0.48,0.34c0.09,0.22,0.16,0.47,0.2,0.73c-1.71,0.48-3.27,0.96-4.67,1.43c-1.4,0.47-2.79,1-4.17,1.59
					c-0.3-0.19-0.5-0.36-0.62-0.53c-0.11-0.17-0.17-0.36-0.17-0.59c0-0.19,0.04-0.47,0.11-0.84l6.21-31.54
					c0.04-0.19,0.06-0.35,0.06-0.5C119.47,37.02,119.47,36.91,119.47,36.83z M120.47,54.72c0.41,0.22,0.95,0.4,1.62,0.53
					c0.67,0.13,1.25,0.2,1.73,0.2c1.53,0,2.91-0.38,4.14-1.15c1.23-0.76,2.28-1.83,3.16-3.19c0.88-1.36,1.56-2.95,2.04-4.78
					c0.48-1.83,0.73-3.8,0.73-5.93c0-1.68-0.24-2.84-0.73-3.49c-0.48-0.65-1.1-0.98-1.84-0.98c-0.71,0-1.47,0.34-2.29,1.01
					s-1.63,1.55-2.43,2.63c-0.8,1.08-1.57,2.3-2.29,3.66c-0.73,1.36-1.38,2.74-1.96,4.14s-1.03,2.74-1.37,4.03
					C120.64,52.68,120.47,53.79,120.47,54.72z"/>
				<path class="st1" d="M154.25,32.36c1.38,0,2.58,0.23,3.61,0.7c1.02,0.47,1.85,1.12,2.49,1.96c0.63,0.84,1.11,1.84,1.43,2.99
					c0.32,1.16,0.47,2.4,0.47,3.75c0,2.68-0.43,5.03-1.29,7.05c-0.86,2.01-1.95,3.68-3.27,5c-1.32,1.32-2.81,2.31-4.45,2.96
					c-1.64,0.65-3.24,0.98-4.81,0.98c-1.31,0-2.41-0.21-3.33-0.61c-0.91-0.41-1.65-1.01-2.21-1.79c-0.56-0.78-0.96-1.74-1.2-2.88
					c-0.24-1.14-0.36-2.41-0.36-3.83c0-2.46,0.42-4.7,1.26-6.71c0.84-2.01,1.9-3.73,3.19-5.14c1.29-1.42,2.68-2.51,4.19-3.27
					C151.48,32.74,152.91,32.36,154.25,32.36z M149.83,55.56c1.12,0,2.15-0.34,3.1-1.01c0.95-0.67,1.77-1.6,2.46-2.8
					c0.69-1.19,1.22-2.6,1.59-4.22c0.37-1.62,0.56-3.4,0.56-5.34c0-2.35-0.28-4.21-0.84-5.59c-0.56-1.38-1.55-2.07-2.96-2.07
					c-1.23,0-2.33,0.41-3.3,1.23c-0.97,0.82-1.78,1.88-2.43,3.19c-0.65,1.31-1.15,2.76-1.48,4.36c-0.33,1.6-0.5,3.19-0.5,4.75
					c0,2.46,0.29,4.32,0.87,5.59C147.47,54.93,148.45,55.56,149.83,55.56z"/>
				<path class="st1" d="M181.2,37.67c-0.6,0-1.28,0.26-2.04,0.78c-0.76,0.52-1.53,1.23-2.29,2.12c-0.76,0.9-1.51,1.93-2.24,3.1
					s-1.37,2.42-1.93,3.75c-0.56,1.32-1.01,2.68-1.34,4.05c-0.34,1.38-0.5,2.7-0.5,3.97c0,0.52,0.06,1.03,0.17,1.51
					c-0.75,0.08-1.5,0.19-2.26,0.34c-0.76,0.15-1.52,0.32-2.26,0.5c-0.33-0.19-0.5-0.41-0.5-0.67c0-0.22,0.04-0.48,0.11-0.78
					c0.07-0.3,0.15-0.54,0.22-0.73c0.08-0.19,0.15-0.41,0.22-0.67c0.08-0.26,0.15-0.63,0.22-1.12l2.46-12.69
					c0.26-1.45,0.43-2.44,0.5-2.96c0.07-0.52,0.13-0.89,0.17-1.12c0-0.48-0.17-0.73-0.5-0.73c-0.15,0-0.36,0.06-0.64,0.17
					s-0.58,0.24-0.89,0.39c-0.32,0.15-0.62,0.28-0.89,0.39s-0.49,0.17-0.64,0.17c-0.19,0-0.34-0.11-0.47-0.34
					c-0.13-0.22-0.23-0.48-0.31-0.78c0.67-0.41,1.46-0.85,2.38-1.31c0.91-0.47,1.79-0.89,2.63-1.29c0.84-0.39,1.58-0.72,2.24-0.98
					c0.65-0.26,1.07-0.39,1.26-0.39c0.26,0,0.48,0.07,0.67,0.2c0.19,0.13,0.28,0.34,0.28,0.64c0,0.08-0.01,0.21-0.03,0.39
					c-0.02,0.19-0.05,0.37-0.08,0.56l-1.79,8.39h0.22c2.01-3.58,3.85-6.17,5.51-7.77c1.66-1.6,3.29-2.4,4.89-2.4
					c0.34,0,0.64,0.06,0.92,0.17s0.48,0.22,0.59,0.34c-0.33,0.86-0.63,1.75-0.89,2.68c-0.26,0.93-0.47,1.98-0.62,3.13h-0.89
					C182.45,38,181.9,37.67,181.2,37.67z"/>
			</g>
		</g>
		<g>
			<g>
				<path class="st1" d="M225.38,92.87c0.3-1.42,0.45-2.55,0.45-3.41c0-0.48-0.06-0.99-0.17-1.51c0.71-0.11,1.45-0.22,2.24-0.34
					c0.78-0.11,1.57-0.28,2.35-0.5c0.3,0.22,0.45,0.45,0.45,0.67c0,0.07-0.01,0.22-0.03,0.45s-0.05,0.41-0.08,0.56l-0.95,5.03h5.76
					c-0.11,0.33-0.22,0.75-0.34,1.23c-0.11,0.49-0.21,0.93-0.28,1.34c-0.93-0.17-1.88-0.29-2.85-0.37
					c-0.97-0.08-1.88-0.14-2.74-0.19l-3.08,17.49c-0.11,0.56-0.17,0.95-0.17,1.18c0,0.9,0.54,1.35,1.62,1.35
					c0.56,0,1.07-0.07,1.54-0.2c0.47-0.13,0.88-0.29,1.26-0.47c0.34-0.15,0.62-0.29,0.87-0.42c0.24-0.13,0.44-0.2,0.59-0.2
					c0.41,0,0.65,0.35,0.73,1.06c-1.16,0.89-2.41,1.6-3.77,2.13c-1.36,0.52-2.64,0.78-3.83,0.78c-1.34,0-2.29-0.21-2.85-0.64
					c-0.56-0.43-0.84-1.07-0.84-1.93c0-0.41,0.04-0.8,0.11-1.18l3.52-19.11h-4.08c0.08-0.62,0.2-1.08,0.36-1.38
					c0.17-0.31,0.46-0.46,0.87-0.46h3.19L225.38,92.87z"/>
				<path class="st1" d="M242.21,113.28c-0.04,0.15-0.08,0.34-0.11,0.59c-0.04,0.24-0.06,0.42-0.06,0.53c0,0.45,0.22,0.67,0.67,0.67
					c0.26,0,0.53-0.06,0.81-0.2c0.28-0.13,0.56-0.28,0.84-0.45c0.28-0.17,0.53-0.32,0.75-0.45c0.22-0.13,0.41-0.2,0.56-0.2
					c0.37,0,0.63,0.37,0.78,1.12c-0.63,0.48-1.31,0.94-2.04,1.37c-0.73,0.43-1.43,0.81-2.1,1.15s-1.31,0.61-1.9,0.81
					c-0.6,0.21-1.08,0.31-1.45,0.31c-0.41,0-0.8-0.08-1.17-0.25c-0.37-0.17-0.56-0.57-0.56-1.2c0-0.11,0.02-0.31,0.06-0.59
					c0.04-0.28,0.07-0.48,0.11-0.59c0.82-3.99,1.47-7.17,1.96-9.53s0.85-4.17,1.09-5.42c0.24-1.25,0.4-2.08,0.48-2.49
					c0.07-0.41,0.11-0.65,0.11-0.73c0-0.45-0.17-0.67-0.5-0.67c-0.15,0-0.37,0.07-0.67,0.2c-0.3,0.13-0.62,0.26-0.95,0.39
					c-0.33,0.13-0.64,0.26-0.92,0.39c-0.28,0.13-0.5,0.2-0.64,0.2c-0.22,0-0.39-0.11-0.5-0.33c-0.11-0.22-0.21-0.48-0.28-0.78
					c0.67-0.37,1.45-0.79,2.35-1.26c0.9-0.47,1.76-0.9,2.6-1.31s1.58-0.75,2.24-1.01c0.65-0.26,1.09-0.39,1.31-0.39
					c0.63,0,0.95,0.32,0.95,0.95c0,0.26-0.04,0.54-0.11,0.84L242.21,113.28z M248.02,80.79c0.97,0.19,1.76,0.51,2.38,0.98
					c0.62,0.47,0.92,0.96,0.92,1.48c0,0.6-0.39,1.14-1.17,1.62c-0.75,0.45-1.43,0.88-2.04,1.29s-1.23,0.83-1.84,1.26
					c-0.62,0.43-1.27,0.9-1.96,1.43c-0.69,0.52-1.45,1.12-2.26,1.79c-0.26-0.19-0.47-0.35-0.62-0.5c-0.15-0.15-0.22-0.35-0.22-0.61
					c0-0.22,0.09-0.45,0.28-0.67L248.02,80.79z"/>
				<path class="st1" d="M248.13,125.52c-0.56-0.34-0.84-0.73-0.84-1.17c0-0.34,0.19-0.65,0.56-0.95c1.34-1.12,2.28-2.1,2.82-2.94
					c0.54-0.84,0.81-1.57,0.81-2.21c0-0.45-0.13-0.83-0.39-1.15c-0.26-0.32-0.54-0.61-0.84-0.87c-0.3-0.26-0.58-0.51-0.84-0.76
					c-0.26-0.24-0.39-0.53-0.39-0.87c0-0.97,1.03-2.05,3.08-3.24c1.08,0.56,1.97,1.28,2.66,2.15c0.69,0.88,1.04,1.87,1.04,2.99
					c0,1.23-0.56,2.63-1.68,4.19C253,122.28,251,123.88,248.13,125.52z"/>
			</g>
		</g>
		<g>
			<g>
				<path class="st1" d="M210.52,58.48c-1.7,0-3.16,0.03-4.38,0.1s-2.4,0.15-3.53,0.24c-0.09-0.46-0.13-0.9-0.13-1.32
					c0-0.32,0.08-0.54,0.23-0.66c0.15-0.11,0.32-0.2,0.49-0.24c1.4-0.28,2.35-0.58,2.88-0.9c0.52-0.32,0.79-0.83,0.79-1.52V35.9
					c0-1.38-0.22-2.45-0.65-3.19c-0.44-0.74-1.46-1.18-3.07-1.32c-0.57-0.09-0.85-0.46-0.85-1.11c0-0.14,0-0.31,0-0.52
					c0-0.21,0.04-0.4,0.13-0.59c0.26,0,0.64-0.01,1.14-0.03c0.5-0.02,1.04-0.05,1.6-0.07c0.57-0.02,1.13-0.06,1.7-0.1
					c0.57-0.05,1.09-0.09,1.57-0.14c1.09-0.14,2.14-0.32,3.14-0.55c1-0.23,1.68-0.35,2.03-0.35c0.7,0,1.05,0.35,1.05,1.04
					c0,0.51-0.07,1.18-0.2,2.01s-0.2,1.99-0.2,3.46v19.74c0,0.69,0.28,1.2,0.85,1.52c0.57,0.32,1.5,0.62,2.81,0.9
					c0.48,0.09,0.72,0.39,0.72,0.9c0,0.23,0,0.46,0,0.69c0,0.23-0.04,0.44-0.13,0.62c-1.09-0.09-2.27-0.17-3.53-0.24
					C213.7,58.52,212.22,58.48,210.52,58.48z M205.74,17.83c0-1.48,0.45-2.69,1.34-3.64c0.89-0.95,2.02-1.42,3.37-1.42
					c1.4,0,2.53,0.47,3.4,1.42c0.87,0.95,1.31,2.16,1.31,3.64c0,1.48-0.44,2.69-1.31,3.64c-0.87,0.95-2.01,1.42-3.4,1.42
					c-1.35,0-2.48-0.47-3.37-1.42C206.19,20.52,205.74,19.3,205.74,17.83z"/>
				<path class="st1" d="M252.51,54.26c0,0.65,0.26,1.14,0.79,1.49c0.52,0.35,1.48,0.64,2.88,0.87c0.17,0.05,0.34,0.13,0.49,0.24
					c0.15,0.12,0.23,0.34,0.23,0.66c0,0.28-0.01,0.52-0.03,0.73c-0.02,0.21-0.05,0.4-0.1,0.59c-1.13-0.09-2.27-0.17-3.4-0.24
					s-2.55-0.1-4.25-0.1c-1.4,0-2.71,0.03-3.92,0.1c-1.22,0.07-2.4,0.15-3.53,0.24c-0.09-0.23-0.13-0.67-0.13-1.32
					c0-0.51,0.24-0.81,0.72-0.9c1.13-0.23,1.9-0.51,2.29-0.83c0.39-0.32,0.59-0.83,0.59-1.52V40.68c0-2.72-0.32-4.61-0.95-5.64
					c-0.63-1.04-1.65-1.56-3.04-1.56c-1.96,0-3.64,0.7-5.04,2.11c-1.4,1.41-2.09,3.5-2.09,6.27v12.4c0,0.69,0.2,1.2,0.59,1.52
					c0.39,0.32,1.16,0.6,2.29,0.83c0.48,0.09,0.72,0.39,0.72,0.9c0,0.65-0.04,1.08-0.13,1.32c-1.13-0.09-2.31-0.17-3.53-0.24
					s-2.53-0.1-3.92-0.1c-1.7,0-3.13,0.03-4.28,0.1c-1.16,0.07-2.28,0.15-3.37,0.24c-0.04-0.19-0.08-0.38-0.1-0.59
					c-0.02-0.21-0.03-0.45-0.03-0.73c0-0.32,0.08-0.54,0.23-0.66c0.15-0.11,0.32-0.2,0.49-0.24c1.4-0.28,2.35-0.58,2.88-0.9
					c0.52-0.32,0.79-0.83,0.79-1.52V35.9c0-1.38-0.24-2.45-0.72-3.19c-0.48-0.74-1.48-1.18-3.01-1.32
					c-0.57-0.14-0.85-0.51-0.85-1.11c0-0.14,0-0.31,0-0.52c0-0.21,0.04-0.4,0.13-0.59c0.26,0,0.64-0.01,1.14-0.03
					c0.5-0.02,1.04-0.05,1.6-0.07c0.57-0.02,1.13-0.06,1.7-0.1c0.57-0.05,1.09-0.09,1.57-0.14c1.09-0.14,2.14-0.32,3.14-0.55
					c1-0.23,1.68-0.35,2.03-0.35c0.7,0,1.05,0.35,1.05,1.04c0,0.51-0.07,1.18-0.2,2.01s-0.2,1.99-0.2,3.46
					c1.4-1.94,2.94-3.51,4.64-4.71c1.7-1.2,3.47-1.8,5.3-1.8c2.66,0,4.75,0.79,6.28,2.35c1.53,1.57,2.29,3.93,2.29,7.06V54.26z"/>
				<path class="st1" d="M277.7,53.98c0.44-0.28,0.81-0.42,1.11-0.42c0.44,0,0.89,0.48,1.37,1.45c-1.83,1.76-3.43,2.91-4.81,3.46
					s-2.82,0.83-4.35,0.83c-0.87,0-1.71-0.12-2.52-0.35c-0.81-0.23-1.54-0.65-2.19-1.25c-0.65-0.6-1.18-1.42-1.57-2.46
					c-0.39-1.04-0.59-2.37-0.59-3.98V32.23h-3.92V30.5c0-0.18,0.04-0.42,0.13-0.69c0.09-0.28,0.35-0.42,0.79-0.42
					c1.18,0,2.27-0.36,3.27-1.07c1-0.72,1.81-1.79,2.42-3.22c0.48-1.06,1.01-1.92,1.6-2.56c0.59-0.65,1.17-0.97,1.73-0.97h1.37v7.2
					h7.65c0,1.48-0.1,2.42-0.29,2.84s-0.56,0.62-1.08,0.62h-6.28v17.11c0,1.39,0.04,2.48,0.13,3.29c0.09,0.81,0.23,1.42,0.43,1.83
					s0.46,0.68,0.79,0.8c0.33,0.12,0.71,0.17,1.14,0.17c0.48,0,1.05-0.13,1.7-0.38C276.39,54.8,277.04,54.44,277.7,53.98z"/>
				<path class="st1" d="M307.47,52.11c0.39-0.32,0.74-0.48,1.04-0.48c0.22,0,0.47,0.1,0.75,0.31c0.28,0.21,0.58,0.61,0.88,1.21
					c-1.7,2.12-3.65,3.68-5.85,4.68c-2.2,0.99-4.81,1.49-7.82,1.49c-1.7,0-3.37-0.29-5-0.87c-1.64-0.58-3.11-1.48-4.42-2.7
					c-1.31-1.22-2.37-2.76-3.17-4.61c-0.81-1.85-1.21-4.06-1.21-6.65c0-2.54,0.47-4.84,1.41-6.89c0.94-2.05,2.13-3.8,3.57-5.23
					c1.44-1.43,3.01-2.53,4.71-3.29c1.7-0.76,3.34-1.14,4.91-1.14c4.23,0,7.42,1.29,9.58,3.88c2.16,2.59,3.24,6.12,3.24,10.6
					c0,0.32-0.15,0.48-0.46,0.48l-18.71,0.83c0,3.6,0.76,6.36,2.28,8.28c1.52,1.92,3.8,2.87,6.85,2.87c1.35,0,2.67-0.23,3.98-0.69
					C305.32,53.73,306.47,53.03,307.47,52.11z M296.31,30.99c-1.69,0-3.05,0.77-4.06,2.32c-1.02,1.55-1.53,3.98-1.53,7.31
					l10.15-0.48c0.65-0.05,0.97-0.35,0.97-0.9c0-0.88-0.11-1.8-0.32-2.77c-0.22-0.97-0.55-1.86-1.01-2.67
					c-0.46-0.81-1.03-1.48-1.72-2.01C298.08,31.25,297.26,30.99,296.31,30.99z"/>
				<path class="st1" d="M318.84,57.3c-0.87-0.51-1.54-1.2-2-2.08c-0.46-0.88-0.69-1.85-0.69-2.91c0-1.48,0.33-2.65,0.98-3.53
					c0.65-0.88,1.68-1.78,3.08-2.7c-1.13-0.78-2.14-1.79-3.01-3.01c-0.87-1.22-1.31-2.81-1.31-4.74c0-1.48,0.32-2.85,0.95-4.12
					c0.63-1.27,1.47-2.37,2.52-3.29c1.05-0.92,2.27-1.65,3.66-2.18c1.4-0.53,2.88-0.8,4.45-0.8c2.14,0,3.96,0.34,5.46,1
					c1.5,0.67,2.69,1.35,3.57,2.04l6.41-3.32c0.52,0.37,0.93,0.87,1.21,1.49c0.28,0.62,0.43,1.21,0.43,1.77
					c0,0.46-0.09,0.84-0.26,1.14c-0.17,0.3-0.5,0.45-0.98,0.45c-0.17,0-0.44-0.01-0.79-0.03c-0.35-0.02-0.63-0.03-0.85-0.03
					c-0.48,0-0.96,0.03-1.44,0.1c-0.48,0.07-1.09,0.22-1.83,0.45c1.05,1.43,1.57,3.19,1.57,5.26c0,2.82-1.06,5.15-3.17,7
					c-2.12,1.85-5.22,2.77-9.32,2.77c-0.92,0-1.79-0.06-2.62-0.17c-0.83-0.11-1.61-0.31-2.36-0.59c-0.87,0.51-1.48,1-1.83,1.49
					c-0.35,0.48-0.52,0.91-0.52,1.28c0,0.37,0.09,0.69,0.26,0.97c0.17,0.28,0.52,0.51,1.05,0.69c0.52,0.19,1.28,0.34,2.26,0.45
					c0.98,0.12,2.28,0.17,3.89,0.17c2.18,0,4.19,0.2,6.02,0.59c1.83,0.39,3.41,1,4.74,1.84c1.33,0.83,2.37,1.9,3.11,3.22
					s1.11,2.9,1.11,4.74c0,1.66-0.32,3.24-0.95,4.74c-0.63,1.5-1.58,2.82-2.85,3.95c-1.27,1.13-2.85,2.03-4.74,2.7
					c-1.9,0.67-4.11,1-6.64,1c-1.96,0-3.77-0.17-5.43-0.52s-3.08-0.91-4.28-1.7c-1.2-0.79-2.14-1.8-2.81-3.05
					c-0.68-1.25-1.01-2.79-1.01-4.64c0-1.8,0.49-3.36,1.47-4.67C316.32,59.21,317.49,58.13,318.84,57.3z M320.8,58.62
					c-0.48,0.65-0.8,1.36-0.95,2.15c-0.15,0.78-0.23,1.64-0.23,2.56c0,1.06,0.16,2.09,0.49,3.08c0.33,0.99,0.86,1.87,1.6,2.63
					c0.74,0.76,1.7,1.38,2.88,1.87c1.18,0.48,2.59,0.73,4.25,0.73c2.7,0,4.68-0.67,5.92-2.01c1.24-1.34,1.86-2.96,1.86-4.85
					c0-1.38-0.68-2.55-2.03-3.5c-1.35-0.95-3.64-1.42-6.87-1.42c-1.13,0-2.36-0.12-3.66-0.35C322.76,59.29,321.67,58.99,320.8,58.62
					z M328.13,44.98c1.26,0,2.32-0.46,3.17-1.39c0.85-0.92,1.28-2.4,1.28-4.43c0-1.02-0.06-2.01-0.16-2.98
					c-0.11-0.97-0.36-1.84-0.75-2.6c-0.39-0.76-0.95-1.39-1.67-1.87s-1.67-0.73-2.85-0.73s-2.16,0.51-2.94,1.52
					c-0.79,1.02-1.18,2.4-1.18,4.16c0,1.06,0.05,2.09,0.16,3.08c0.11,0.99,0.35,1.87,0.72,2.63c0.37,0.76,0.88,1.39,1.54,1.87
					C326.1,44.73,326.99,44.98,328.13,44.98z"/>
				<path class="st1" d="M368.1,28.01c1.26,0,2.21,0.35,2.85,1.04c0.63,0.69,0.95,1.57,0.95,2.63c0,0.32-0.05,0.6-0.16,0.83
					c-0.11,0.23-0.35,0.48-0.72,0.76c-0.37,0.28-0.88,0.59-1.54,0.94s-1.5,0.77-2.55,1.28c-0.7-0.74-1.34-1.23-1.93-1.49
					c-0.59-0.25-1.17-0.38-1.73-0.38c-0.52,0-1.04,0.09-1.54,0.28c-0.5,0.19-0.95,0.54-1.34,1.07c-0.39,0.53-0.71,1.24-0.95,2.11
					c-0.24,0.88-0.36,2.01-0.36,3.39v12.88c0,0.92,0.35,1.6,1.05,2.04c0.7,0.44,2.07,0.84,4.12,1.21c0.48,0.09,0.72,0.39,0.72,0.9
					c0,0.65-0.04,1.08-0.13,1.32c-0.57-0.05-1.27-0.08-2.09-0.1c-0.83-0.02-1.7-0.06-2.62-0.1c-0.92-0.05-1.82-0.08-2.71-0.1
					c-0.89-0.02-1.69-0.03-2.39-0.03c-1.66,0-3.07,0.03-4.25,0.1c-1.18,0.07-2.29,0.15-3.34,0.24c-0.09-0.23-0.13-0.67-0.13-1.32
					c0-0.51,0.24-0.81,0.72-0.9c1.4-0.28,2.35-0.58,2.88-0.9c0.52-0.32,0.79-0.83,0.79-1.52V35.56c0-1.06-0.19-1.92-0.56-2.56
					c-0.37-0.65-1.41-1.08-3.11-1.32c-0.61-0.09-0.92-0.44-0.92-1.04c0-0.14,0-0.32,0-0.55c0-0.23,0.04-0.42,0.13-0.55
					c0.26,0,0.63-0.01,1.11-0.03c0.48-0.02,1-0.05,1.57-0.07c0.57-0.02,1.13-0.06,1.7-0.1c0.57-0.05,1.07-0.11,1.5-0.21
					c0.96-0.14,1.95-0.31,2.98-0.52c1.02-0.21,1.71-0.31,2.06-0.31c0.61,0,0.92,0.35,0.92,1.04v3.74c1.53-1.75,2.99-3.04,4.38-3.84
					C364.85,28.41,366.39,28.01,368.1,28.01z"/>
				<path class="st1" d="M402.44,56.33c0.65,0,0.98,0.58,0.98,1.73c-0.57,0.42-1.28,0.73-2.13,0.94c-0.85,0.21-1.71,0.31-2.58,0.31
					c-1.96,0-3.47-0.51-4.51-1.52c-1.05-1.02-1.66-2.19-1.83-3.53c-0.87,1.85-2.04,3.15-3.5,3.91c-1.46,0.76-3.17,1.14-5.13,1.14
					c-0.92,0-1.93-0.08-3.04-0.24c-1.11-0.16-2.14-0.5-3.07-1c-0.94-0.51-1.73-1.22-2.39-2.15c-0.65-0.92-0.98-2.15-0.98-3.67
					c0-1.71,0.41-3.16,1.24-4.36c0.83-1.2,1.86-2.2,3.11-3.01c1.24-0.81,2.6-1.45,4.09-1.94c1.48-0.48,2.88-0.89,4.19-1.21
					c0.57-0.14,1.16-0.29,1.77-0.45c0.61-0.16,1.09-0.29,1.44-0.38c0.48-0.14,0.79-0.33,0.92-0.59c0.13-0.25,0.2-0.91,0.2-1.97
					c0-2.35-0.33-4.17-0.98-5.44c-0.65-1.27-1.77-1.9-3.34-1.9c-1.27,0-2.17,0.42-2.71,1.25c-0.55,0.83-1.06,2.15-1.54,3.95
					c-0.13,0.51-0.51,0.89-1.14,1.14c-0.63,0.25-1.43,0.52-2.39,0.8c-0.52,0.14-1.06,0.25-1.6,0.35c-0.55,0.09-1.04,0.14-1.47,0.14
					c-0.26,0-0.44-0.1-0.52-0.31c-0.09-0.21-0.13-0.61-0.13-1.21c0-1.15,0.4-2.29,1.21-3.39c0.81-1.11,1.82-2.09,3.04-2.94
					c1.22-0.85,2.56-1.53,4.02-2.04c1.46-0.51,2.87-0.76,4.22-0.76c1.61,0,3.07,0.15,4.38,0.45c1.31,0.3,2.43,0.83,3.37,1.59
					s1.67,1.77,2.19,3.04s0.79,2.89,0.79,4.87v12.16c0,1.61,0.03,2.79,0.1,3.52s0.18,1.29,0.36,1.66c0.39,0.83,1,1.24,1.83,1.24
					c0.35,0,0.64-0.02,0.88-0.07C401.99,56.36,402.22,56.33,402.44,56.33z M391.19,43.38l-1.44,0.28c-1,0.19-1.94,0.45-2.81,0.8
					c-0.87,0.35-1.63,0.81-2.26,1.39c-0.63,0.58-1.13,1.29-1.5,2.15c-0.37,0.85-0.56,1.88-0.56,3.08c0,1.8,0.27,3.06,0.82,3.77
					c0.54,0.72,1.34,1.07,2.39,1.07c1.66,0,2.97-0.65,3.92-1.94c0.96-1.29,1.44-3.09,1.44-5.4V43.38z"/>
				<path class="st1" d="M419.71,30.99c-1.83,0-3.21,0.96-4.12,2.87c-0.92,1.92-1.37,4.49-1.37,7.72c0,4.62,0.79,7.99,2.39,10.11
					c1.59,2.12,3.83,3.19,6.71,3.19c1.05,0,2.08-0.13,3.11-0.38c1.02-0.25,2.15-0.8,3.37-1.63c0.44-0.28,0.83-0.42,1.18-0.42
					c0.35,0,0.63,0.15,0.85,0.45c0.22,0.3,0.46,0.77,0.72,1.42c-1.44,1.38-3.15,2.56-5.14,3.53c-1.98,0.97-4.42,1.45-7.29,1.45
					c-1.92,0-3.74-0.3-5.46-0.9c-1.72-0.6-3.23-1.52-4.51-2.77c-1.29-1.25-2.3-2.81-3.04-4.68c-0.74-1.87-1.11-4.07-1.11-6.61
					c0-2.45,0.45-4.67,1.34-6.68c0.89-2.01,2.04-3.74,3.43-5.19c1.4-1.45,2.96-2.57,4.71-3.36c1.74-0.78,3.44-1.18,5.1-1.18
					c2.09,0,3.88,0.25,5.36,0.76c1.48,0.51,2.69,1.14,3.63,1.9c0.94,0.76,1.62,1.57,2.06,2.42c0.44,0.85,0.65,1.63,0.65,2.32
					c0,0.37-0.32,0.67-0.95,0.9c-0.63,0.23-1.34,0.4-2.13,0.52c-0.78,0.12-1.54,0.19-2.26,0.21c-0.72,0.02-1.19,0.03-1.41,0.03
					c-0.39,0-0.71-0.13-0.95-0.38c-0.24-0.25-0.4-0.52-0.49-0.8c-0.22-0.6-0.44-1.19-0.65-1.77c-0.22-0.58-0.47-1.1-0.75-1.56
					c-0.28-0.46-0.67-0.83-1.15-1.11C421.06,31.12,420.45,30.99,419.71,30.99z"/>
				<path class="st1" d="M444.11,58.48c-1.7,0-3.16,0.03-4.38,0.1c-1.22,0.07-2.4,0.15-3.53,0.24c-0.09-0.46-0.13-0.9-0.13-1.32
					c0-0.32,0.08-0.54,0.23-0.66c0.15-0.11,0.32-0.2,0.49-0.24c1.39-0.28,2.35-0.58,2.88-0.9c0.52-0.32,0.79-0.83,0.79-1.52V35.9
					c0-1.38-0.22-2.45-0.65-3.19c-0.44-0.74-1.46-1.18-3.07-1.32c-0.57-0.09-0.85-0.46-0.85-1.11c0-0.14,0-0.31,0-0.52
					c0-0.21,0.04-0.4,0.13-0.59c0.26,0,0.64-0.01,1.14-0.03c0.5-0.02,1.04-0.05,1.6-0.07c0.57-0.02,1.13-0.06,1.7-0.1
					c0.57-0.05,1.09-0.09,1.57-0.14c1.09-0.14,2.14-0.32,3.14-0.55c1-0.23,1.68-0.35,2.03-0.35c0.7,0,1.05,0.35,1.05,1.04
					c0,0.51-0.07,1.18-0.2,2.01s-0.2,1.99-0.2,3.46v19.74c0,0.69,0.28,1.2,0.85,1.52c0.57,0.32,1.5,0.62,2.81,0.9
					c0.48,0.09,0.72,0.39,0.72,0.9c0,0.23,0,0.46,0,0.69c0,0.23-0.04,0.44-0.13,0.62c-1.09-0.09-2.27-0.17-3.53-0.24
					C447.29,58.52,445.81,58.48,444.11,58.48z M439.33,17.83c0-1.48,0.45-2.69,1.34-3.64c0.89-0.95,2.02-1.42,3.37-1.42
					c1.39,0,2.53,0.47,3.4,1.42c0.87,0.95,1.31,2.16,1.31,3.64c0,1.48-0.44,2.69-1.31,3.64c-0.87,0.95-2.01,1.42-3.4,1.42
					c-1.35,0-2.48-0.47-3.37-1.42C439.78,20.52,439.33,19.3,439.33,17.83z"/>
				<path class="st1" d="M455.94,43.66c0-2.26,0.38-4.35,1.14-6.27c0.76-1.92,1.82-3.58,3.17-4.99c1.35-1.41,2.96-2.5,4.84-3.29
					c1.87-0.78,3.92-1.18,6.15-1.18c2.31,0,4.4,0.39,6.28,1.18c1.87,0.79,3.49,1.88,4.84,3.29c1.35,1.41,2.39,3.07,3.11,4.99
					c0.72,1.92,1.08,4.01,1.08,6.27c0,2.26-0.38,4.35-1.15,6.27c-0.76,1.92-1.83,3.57-3.21,4.95c-1.37,1.39-3,2.47-4.87,3.26
					c-1.88,0.78-3.92,1.18-6.15,1.18c-2.31,0-4.41-0.39-6.28-1.18c-1.88-0.78-3.48-1.87-4.81-3.26c-1.33-1.38-2.36-3.04-3.08-4.95
					C456.3,48.01,455.94,45.92,455.94,43.66z M464.19,42.27c0,4.25,0.66,7.64,2,10.18c1.33,2.54,3.24,3.81,5.72,3.81
					c2.31,0,3.96-0.98,4.94-2.94c0.98-1.96,1.47-4.72,1.47-8.28c0-4.2-0.68-7.59-2.03-10.18c-1.35-2.59-3.25-3.88-5.69-3.88
					c-2.31,0-3.96,1-4.94,3.01C464.68,36.01,464.19,38.77,464.19,42.27z M472.3,11.8c1.7,0,3,0.42,3.89,1.25
					c0.89,0.83,1.34,1.71,1.34,2.63c0,0.92-0.42,1.62-1.24,2.08c-0.79,0.51-1.52,0.97-2.19,1.39c-0.68,0.42-1.35,0.88-2.03,1.39
					c-0.68,0.51-1.38,1.07-2.13,1.7c-0.74,0.62-1.59,1.35-2.55,2.18c-0.57-0.23-0.95-0.48-1.14-0.76c-0.2-0.28-0.29-0.55-0.29-0.83
					c0-0.28,0.07-0.53,0.2-0.76L472.3,11.8z"/>
				<path class="st1" d="M521.16,54.26c0,0.65,0.26,1.14,0.79,1.49c0.52,0.35,1.48,0.64,2.88,0.87c0.17,0.05,0.34,0.13,0.49,0.24
					c0.15,0.12,0.23,0.34,0.23,0.66c0,0.28-0.01,0.52-0.03,0.73c-0.02,0.21-0.05,0.4-0.1,0.59c-1.13-0.09-2.27-0.17-3.4-0.24
					s-2.55-0.1-4.25-0.1c-1.4,0-2.71,0.03-3.92,0.1c-1.22,0.07-2.4,0.15-3.53,0.24c-0.09-0.23-0.13-0.67-0.13-1.32
					c0-0.51,0.24-0.81,0.72-0.9c1.13-0.23,1.9-0.51,2.29-0.83c0.39-0.32,0.59-0.83,0.59-1.52V40.68c0-2.72-0.32-4.61-0.95-5.64
					c-0.63-1.04-1.65-1.56-3.04-1.56c-1.96,0-3.64,0.7-5.04,2.11c-1.4,1.41-2.09,3.5-2.09,6.27v12.4c0,0.69,0.2,1.2,0.59,1.52
					c0.39,0.32,1.16,0.6,2.29,0.83c0.48,0.09,0.72,0.39,0.72,0.9c0,0.65-0.04,1.08-0.13,1.32c-1.13-0.09-2.31-0.17-3.53-0.24
					s-2.53-0.1-3.92-0.1c-1.7,0-3.13,0.03-4.28,0.1c-1.16,0.07-2.28,0.15-3.37,0.24c-0.04-0.19-0.08-0.38-0.1-0.59
					c-0.02-0.21-0.03-0.45-0.03-0.73c0-0.32,0.08-0.54,0.23-0.66c0.15-0.11,0.32-0.2,0.49-0.24c1.4-0.28,2.35-0.58,2.88-0.9
					c0.52-0.32,0.79-0.83,0.79-1.52V35.9c0-1.38-0.24-2.45-0.72-3.19c-0.48-0.74-1.48-1.18-3.01-1.32
					c-0.57-0.14-0.85-0.51-0.85-1.11c0-0.14,0-0.31,0-0.52c0-0.21,0.04-0.4,0.13-0.59c0.26,0,0.64-0.01,1.14-0.03
					c0.5-0.02,1.04-0.05,1.6-0.07c0.57-0.02,1.13-0.06,1.7-0.1c0.57-0.05,1.09-0.09,1.57-0.14c1.09-0.14,2.14-0.32,3.14-0.55
					c1-0.23,1.68-0.35,2.03-0.35c0.7,0,1.05,0.35,1.05,1.04c0,0.51-0.07,1.18-0.2,2.01s-0.2,1.99-0.2,3.46
					c1.4-1.94,2.94-3.51,4.64-4.71c1.7-1.2,3.47-1.8,5.3-1.8c2.66,0,4.75,0.79,6.28,2.35c1.53,1.57,2.29,3.93,2.29,7.06V54.26z"/>
			</g>
		</g>
		<g>
			<g>
				<path class="st1" d="M400.56,118.51c-3.66,0-6.87-0.6-9.62-1.8c-2.75-1.2-5.02-2.85-6.8-4.95c-1.79-2.1-3.13-4.57-4.02-7.41
					c-0.89-2.84-1.34-5.9-1.34-9.18c0-2.72,0.44-5.47,1.31-8.24c0.87-2.77,2.25-5.27,4.12-7.51c1.88-2.24,4.27-4.06,7.2-5.47
					c2.92-1.41,6.41-2.11,10.47-2.11c2.22,0,4.31,0.16,6.25,0.48c1.94,0.32,4.04,0.81,6.31,1.45c0.09,1.25,0.26,2.84,0.52,4.78
					c0.26,1.94,0.63,3.83,1.11,5.68c-0.22,0.05-0.5,0.1-0.85,0.17c-0.35,0.07-0.61,0.1-0.79,0.1c-0.35,0-0.64-0.06-0.88-0.17
					c-0.24-0.11-0.4-0.36-0.49-0.73c-0.48-1.52-1.03-2.8-1.63-3.84c-0.61-1.04-1.34-1.87-2.19-2.49c-0.85-0.62-1.84-1.07-2.98-1.35
					c-1.13-0.28-2.46-0.42-3.99-0.42c-2.36,0-4.44,0.43-6.25,1.28c-1.81,0.85-3.33,2.08-4.55,3.67s-2.15,3.51-2.78,5.75
					c-0.63,2.24-0.95,4.77-0.95,7.58c0,3,0.38,5.79,1.15,8.38c0.76,2.59,1.81,4.83,3.14,6.72c1.33,1.89,2.91,3.37,4.74,4.43
					c1.83,1.06,3.82,1.59,5.95,1.59c1.74,0,3.24-0.17,4.48-0.52c1.24-0.35,2.31-0.88,3.21-1.59c0.89-0.71,1.66-1.63,2.29-2.73
					c0.63-1.11,1.21-2.4,1.73-3.88c0.13-0.37,0.34-0.63,0.62-0.8c0.28-0.16,0.58-0.24,0.88-0.24c0.22,0,0.49,0.04,0.82,0.1
					c0.33,0.07,0.6,0.15,0.82,0.24c-0.26,0.79-0.53,1.67-0.82,2.67c-0.28,0.99-0.58,2.01-0.88,3.05c-0.31,1.04-0.58,2.08-0.82,3.12
					c-0.24,1.04-0.45,2.04-0.62,3.01c-2.14,0.42-4.32,0.71-6.54,0.9C405.66,118.41,403.22,118.51,400.56,118.51z"/>
				<path class="st1" d="M436.87,118.02c-1.13-0.09-2.31-0.17-3.53-0.24s-2.53-0.1-3.92-0.1c-1.7,0-3.13,0.04-4.28,0.1
					c-1.16,0.07-2.28,0.15-3.37,0.24c-0.09-0.46-0.13-0.9-0.13-1.32c0-0.32,0.08-0.54,0.23-0.66c0.15-0.12,0.32-0.2,0.49-0.24
					c1.4-0.23,2.35-0.52,2.88-0.87s0.79-0.87,0.79-1.56V77.09c0-1.39-0.22-2.44-0.65-3.15c-0.44-0.72-1.46-1.14-3.07-1.28
					c-0.57-0.09-0.85-0.46-0.85-1.11c0-0.14,0-0.31,0-0.52c0-0.21,0.04-0.4,0.13-0.59c0.26,0,0.64-0.01,1.14-0.03
					c0.5-0.02,1.04-0.05,1.6-0.07c0.57-0.02,1.13-0.06,1.7-0.1c0.57-0.05,1.09-0.09,1.57-0.14c1.09-0.14,2.14-0.32,3.14-0.55
					c1-0.23,1.68-0.35,2.03-0.35c0.7,0,1.05,0.35,1.05,1.04c0,0.51-0.07,1.17-0.2,1.97c-0.13,0.81-0.2,1.95-0.2,3.43v17.94
					c1.4-1.94,2.94-3.5,4.64-4.67c1.7-1.18,3.47-1.77,5.3-1.77c2.66,0,4.75,0.79,6.28,2.35c1.53,1.57,2.29,3.93,2.29,7.06v16.9
					c0,0.65,0.25,1.13,0.75,1.46c0.5,0.32,1.47,0.62,2.91,0.9c0.17,0.05,0.34,0.13,0.49,0.24c0.15,0.12,0.23,0.34,0.23,0.66
					c0,0.42-0.04,0.85-0.13,1.32c-1.13-0.09-2.27-0.17-3.4-0.24s-2.55-0.1-4.25-0.1c-1.4,0-2.71,0.04-3.92,0.1
					c-1.22,0.07-2.4,0.15-3.53,0.24c-0.09-0.18-0.13-0.39-0.13-0.62c0-0.23,0-0.46,0-0.69c0-0.51,0.24-0.81,0.72-0.9
					c1.18-0.23,1.95-0.51,2.32-0.83c0.37-0.32,0.56-0.83,0.56-1.52V99.87c0-2.72-0.32-4.61-0.95-5.64
					c-0.63-1.04-1.65-1.56-3.04-1.56c-1.96,0-3.64,0.71-5.04,2.11c-1.4,1.41-2.09,3.5-2.09,6.27v12.4c0,0.69,0.17,1.2,0.52,1.52
					c0.35,0.32,1.13,0.6,2.36,0.83c0.48,0.09,0.72,0.39,0.72,0.9c0,0.23,0,0.46,0,0.69C437,117.63,436.95,117.84,436.87,118.02z"/>
				<path class="st1" d="M467.81,117.67c-1.7,0-3.16,0.04-4.38,0.1s-2.4,0.15-3.53,0.24c-0.09-0.46-0.13-0.9-0.13-1.32
					c0-0.32,0.08-0.54,0.23-0.66c0.15-0.12,0.32-0.2,0.49-0.24c1.4-0.28,2.35-0.58,2.88-0.9c0.52-0.32,0.79-0.83,0.79-1.52V95.1
					c0-1.38-0.22-2.45-0.65-3.19c-0.44-0.74-1.46-1.18-3.07-1.32c-0.57-0.09-0.85-0.46-0.85-1.11c0-0.14,0-0.31,0-0.52
					c0-0.21,0.04-0.4,0.13-0.59c0.26,0,0.64-0.01,1.14-0.04s1.04-0.04,1.6-0.07c0.57-0.02,1.13-0.06,1.7-0.1
					c0.57-0.04,1.09-0.09,1.57-0.14c1.09-0.14,2.14-0.32,3.14-0.55c1-0.23,1.68-0.35,2.03-0.35c0.7,0,1.05,0.35,1.05,1.04
					c0,0.51-0.07,1.18-0.2,2.01c-0.13,0.83-0.2,1.98-0.2,3.46v19.74c0,0.69,0.28,1.2,0.85,1.52c0.57,0.32,1.5,0.62,2.81,0.9
					c0.48,0.09,0.72,0.39,0.72,0.9c0,0.23,0,0.46,0,0.69c0,0.23-0.04,0.44-0.13,0.62c-1.09-0.09-2.27-0.17-3.53-0.24
					C470.99,117.71,469.51,117.67,467.81,117.67z M463.03,77.02c0-1.48,0.45-2.69,1.34-3.64c0.89-0.95,2.02-1.42,3.37-1.42
					c1.4,0,2.53,0.47,3.4,1.42c0.87,0.95,1.31,2.16,1.31,3.64c0,1.48-0.44,2.69-1.31,3.64c-0.87,0.95-2.01,1.42-3.4,1.42
					c-1.35,0-2.48-0.47-3.37-1.42C463.48,79.71,463.03,78.5,463.03,77.02z"/>
				<path class="st1" d="M495.54,118.02c-1.13-0.09-2.43-0.17-3.89-0.24c-1.46-0.07-2.82-0.1-4.09-0.1c-1.4,0-2.78,0.04-4.15,0.1
					c-1.37,0.07-2.63,0.15-3.76,0.24c-0.04-0.18-0.08-0.38-0.1-0.59c-0.02-0.21-0.03-0.45-0.03-0.73c0-0.32,0.08-0.54,0.23-0.66
					c0.15-0.12,0.32-0.2,0.49-0.24c1.4-0.28,2.35-0.58,2.88-0.9c0.52-0.32,0.79-0.83,0.79-1.52V77.09c0-1.39-0.24-2.44-0.72-3.15
					c-0.48-0.72-1.48-1.14-3.01-1.28c-0.57-0.14-0.85-0.51-0.85-1.11c0-0.14,0-0.32,0-0.55c0-0.23,0.04-0.42,0.13-0.55
					c0.26,0,0.64-0.01,1.14-0.03c0.5-0.02,1.04-0.05,1.6-0.07c0.57-0.02,1.13-0.06,1.7-0.1c0.57-0.05,1.09-0.09,1.57-0.14
					c1.09-0.14,2.14-0.32,3.14-0.55c1-0.23,1.68-0.35,2.03-0.35c0.7,0,1.05,0.35,1.05,1.04c0,0.51-0.07,1.17-0.2,1.97
					c-0.13,0.81-0.2,1.95-0.2,3.43v37.75c0,0.69,0.26,1.2,0.79,1.52c0.52,0.32,1.48,0.62,2.88,0.9c0.48,0.09,0.72,0.39,0.72,0.9
					C495.67,117.35,495.63,117.79,495.54,118.02z"/>
				<path class="st1" d="M524.13,111.3c0.39-0.32,0.74-0.48,1.04-0.48c0.22,0,0.47,0.1,0.75,0.31c0.28,0.21,0.58,0.61,0.88,1.21
					c-1.7,2.12-3.65,3.68-5.85,4.67c-2.2,0.99-4.81,1.49-7.82,1.49c-1.7,0-3.37-0.29-5-0.87c-1.64-0.58-3.11-1.48-4.42-2.7
					c-1.31-1.22-2.37-2.76-3.17-4.61s-1.21-4.06-1.21-6.65c0-2.54,0.47-4.84,1.41-6.89c0.94-2.05,2.13-3.8,3.57-5.23
					c1.44-1.43,3.01-2.53,4.71-3.29c1.7-0.76,3.34-1.14,4.91-1.14c4.23,0,7.42,1.29,9.58,3.88c2.16,2.59,3.24,6.12,3.24,10.6
					c0,0.32-0.15,0.49-0.46,0.49l-18.71,0.83c0,3.6,0.76,6.36,2.28,8.28c1.52,1.92,3.8,2.87,6.85,2.87c1.35,0,2.67-0.23,3.98-0.69
					C521.98,112.92,523.14,112.23,524.13,111.3z M512.97,90.18c-1.69,0-3.05,0.77-4.06,2.32c-1.02,1.55-1.53,3.98-1.53,7.31
					l10.15-0.48c0.65-0.05,0.97-0.35,0.97-0.9c0-0.88-0.11-1.8-0.32-2.77c-0.22-0.97-0.55-1.86-1.01-2.67
					c-0.46-0.81-1.03-1.48-1.72-2.01C514.75,90.44,513.93,90.18,512.97,90.18z"/>
			</g>
		</g>
		<g>
			<g>
				<path class="st1" d="M560.36,36.94c-0.35,0-0.6-0.08-0.75-0.24c-0.15-0.16-0.25-0.33-0.29-0.52c-0.31-1.89-1.01-3.24-2.13-4.05
					c-1.11-0.81-2.5-1.21-4.15-1.21c-1.27,0-2.39,0.38-3.37,1.14c-0.98,0.76-1.47,1.81-1.47,3.15c0,1.2,0.45,2.21,1.34,3.01
					c0.89,0.81,2.52,1.6,4.87,2.39c1.26,0.42,2.43,0.88,3.5,1.39c1.07,0.51,1.98,1.12,2.75,1.84c0.76,0.72,1.36,1.59,1.8,2.63
					c0.44,1.04,0.65,2.27,0.65,3.71c0,1.2-0.21,2.35-0.62,3.46c-0.42,1.11-1.05,2.08-1.9,2.91c-0.85,0.83-1.92,1.5-3.21,2.01
					c-1.29,0.51-2.82,0.76-4.61,0.76c-1.4,0-2.96-0.17-4.68-0.52c-1.72-0.35-3.28-0.94-4.68-1.77c-0.09-1.2-0.16-2.46-0.23-3.77
					s-0.1-2.64-0.1-3.98h0.65c0.44,0,0.81,0.08,1.11,0.24c0.3,0.16,0.48,0.43,0.52,0.8c0.17,1.94,0.88,3.5,2.13,4.67
					s2.98,1.77,5.2,1.77c1.79,0,3.16-0.43,4.12-1.28c0.96-0.85,1.44-2.02,1.44-3.5c0-1.52-0.52-2.69-1.57-3.5
					c-1.05-0.81-2.59-1.53-4.64-2.18c-2.57-0.83-4.59-1.92-6.05-3.25c-1.46-1.34-2.19-3.3-2.19-5.89c0-1.2,0.22-2.33,0.65-3.39
					c0.44-1.06,1.05-1.98,1.83-2.77c0.79-0.78,1.74-1.41,2.88-1.87c1.13-0.46,2.4-0.69,3.79-0.69c1.74,0,3.39,0.24,4.94,0.73
					s2.76,1,3.63,1.56c0.04,0.37,0.09,0.82,0.13,1.35c0.04,0.53,0.08,1.09,0.1,1.66c0.02,0.58,0.04,1.15,0.07,1.73
					c0.02,0.58,0.03,1.1,0.03,1.56L560.36,36.94z"/>
				<path class="st1" d="M568.01,43.87c0-2.12,0.38-4.13,1.14-6.03c0.76-1.89,1.8-3.53,3.11-4.92s2.85-2.48,4.61-3.29
					c1.77-0.81,3.67-1.21,5.72-1.21c2.14,0,4.1,0.38,5.89,1.14c1.79,0.76,3.33,1.81,4.61,3.15c1.29,1.34,2.29,2.97,3.01,4.88
					c0.72,1.92,1.08,4.01,1.08,6.27c0,2.17-0.38,4.19-1.14,6.06c-0.76,1.87-1.8,3.5-3.11,4.88c-1.31,1.38-2.85,2.48-4.61,3.29
					c-1.77,0.81-3.67,1.21-5.72,1.21c-2.14,0-4.1-0.38-5.89-1.14c-1.79-0.76-3.33-1.81-4.61-3.15c-1.29-1.34-2.29-2.95-3.01-4.85
					C568.37,48.28,568.01,46.18,568.01,43.87z M574.16,41.58c0,1.71,0.17,3.46,0.52,5.26c0.35,1.8,0.88,3.43,1.6,4.88
					c0.72,1.45,1.65,2.66,2.78,3.6c1.13,0.95,2.51,1.42,4.12,1.42c2.49,0,4.42-0.92,5.79-2.77c1.37-1.85,2.06-4.22,2.06-7.13
					c0-1.71-0.16-3.5-0.49-5.37c-0.33-1.87-0.85-3.58-1.57-5.13c-0.72-1.55-1.66-2.83-2.81-3.84c-1.16-1.02-2.58-1.52-4.28-1.52
					c-2.31,0-4.18,0.84-5.59,2.53C574.87,35.2,574.16,37.89,574.16,41.58z"/>
				<path class="st1" d="M614.85,31.05c-2.05,0-3.72,0.95-5,2.84c-1.29,1.89-1.93,4.46-1.93,7.69c0,4.48,0.95,7.96,2.84,10.46
					c1.9,2.49,4.42,3.74,7.56,3.74c1.4,0,2.56-0.23,3.5-0.69c0.94-0.46,1.75-0.92,2.45-1.39c0.13-0.09,0.28-0.2,0.46-0.31
					c0.17-0.11,0.35-0.17,0.52-0.17c0.22,0,0.46,0.16,0.72,0.48c0.26,0.32,0.44,0.58,0.52,0.76c-0.44,0.55-0.98,1.11-1.64,1.66
					c-0.65,0.55-1.44,1.07-2.35,1.56s-2,0.88-3.24,1.18c-1.24,0.3-2.65,0.45-4.22,0.45c-1.79,0-3.48-0.31-5.07-0.94
					c-1.59-0.62-2.99-1.56-4.19-2.8c-1.2-1.25-2.15-2.81-2.85-4.67c-0.7-1.87-1.05-4.05-1.05-6.54c0-2.35,0.43-4.51,1.28-6.48
					c0.85-1.96,1.94-3.64,3.27-5.02c1.33-1.38,2.81-2.47,4.45-3.25c1.64-0.78,3.24-1.18,4.81-1.18c1.61,0,3.07,0.19,4.38,0.55
					c1.31,0.37,2.42,0.85,3.34,1.45c0.92,0.6,1.62,1.31,2.13,2.11c0.5,0.81,0.75,1.65,0.75,2.53c0,0.28-0.22,0.51-0.65,0.69
					c-0.44,0.19-0.93,0.34-1.47,0.45c-0.55,0.12-1.07,0.2-1.57,0.24c-0.5,0.05-0.8,0.07-0.88,0.07c-0.57,0-1.01-0.29-1.34-0.87
					c-0.33-0.58-0.69-1.2-1.08-1.87c-0.39-0.67-0.93-1.29-1.6-1.87C617.01,31.34,616.07,31.05,614.85,31.05z"/>
				<path class="st1" d="M637.25,58.48c-0.75,0-1.51,0.01-2.28,0.03c-0.77,0.02-1.48,0.06-2.13,0.1c-0.65,0.05-1.22,0.09-1.7,0.14
					c-0.48,0.05-0.79,0.07-0.92,0.07c0-0.05-0.02-0.21-0.07-0.48c-0.04-0.28-0.07-0.48-0.07-0.62c0-0.46,0.2-0.74,0.59-0.83
					c1.13-0.23,2.05-0.51,2.75-0.83c0.7-0.32,1.05-0.85,1.05-1.59V35.63c0-1.39-0.23-2.38-0.69-2.98c-0.46-0.6-1.45-0.97-2.98-1.11
					c-0.57-0.09-0.85-0.42-0.85-0.97c0-0.23,0.04-0.53,0.13-0.9c0.57,0,1.36-0.03,2.39-0.1c1.02-0.07,1.87-0.15,2.52-0.24
					c1.01-0.18,1.92-0.38,2.71-0.59c0.79-0.21,1.37-0.31,1.72-0.31c0.62,0,0.93,0.35,0.93,1.04c0,0.65-0.07,1.42-0.2,2.32
					s-0.2,2.09-0.2,3.57v19.11c0,0.74,0.34,1.27,1.01,1.59c0.68,0.32,1.62,0.6,2.85,0.83c0.35,0.09,0.52,0.37,0.52,0.83
					c0,0.14-0.01,0.35-0.03,0.62c-0.02,0.28-0.05,0.44-0.1,0.48c-0.13,0-0.43-0.02-0.88-0.07c-0.46-0.05-1.01-0.09-1.67-0.14
					c-0.65-0.05-1.37-0.08-2.14-0.1C638.76,58.49,638,58.48,637.25,58.48z M633.42,16.86c0-1.11,0.36-2.07,1.08-2.87
					c0.72-0.81,1.62-1.21,2.71-1.21c1.05,0,1.92,0.4,2.62,1.21c0.7,0.81,1.05,1.77,1.05,2.87c0,1.2-0.35,2.17-1.05,2.91
					c-0.7,0.74-1.57,1.11-2.62,1.11c-1.09,0-2-0.37-2.71-1.11C633.78,19.03,633.42,18.06,633.42,16.86z"/>
				<path class="st1" d="M675.42,56.61c0.48,0,0.74,0.48,0.79,1.45c-1.13,0.83-2.57,1.25-4.32,1.25c-0.96,0-1.8-0.15-2.51-0.45
					c-0.71-0.3-1.3-0.7-1.79-1.21c-0.49-0.51-0.86-1.08-1.13-1.73c-0.27-0.65-0.44-1.32-0.53-2.01c-1.09,2.08-2.39,3.5-3.89,4.26
					c-1.5,0.76-3.24,1.14-5.2,1.14c-0.87,0-1.8-0.08-2.78-0.24c-0.98-0.16-1.91-0.5-2.78-1s-1.59-1.22-2.16-2.15
					c-0.57-0.92-0.85-2.15-0.85-3.67c0-1.71,0.38-3.15,1.14-4.33c0.76-1.18,1.74-2.15,2.94-2.91c1.2-0.76,2.51-1.37,3.92-1.84
					c1.42-0.46,2.78-0.85,4.09-1.18c0.74-0.14,1.43-0.29,2.06-0.45c0.63-0.16,1.19-0.33,1.67-0.52c0.61-0.18,0.99-0.44,1.14-0.76
					c0.15-0.32,0.23-0.95,0.23-1.87c0-2.17-0.39-3.96-1.18-5.37c-0.79-1.41-2.18-2.11-4.19-2.11c-0.74,0-1.37,0.09-1.9,0.28
					c-0.52,0.19-0.96,0.47-1.31,0.87c-0.35,0.39-0.65,0.91-0.92,1.56c-0.26,0.65-0.52,1.41-0.79,2.29
					c-0.13,0.51-0.42,0.88-0.88,1.11c-0.46,0.23-1.23,0.51-2.32,0.83c-0.26,0.09-0.59,0.19-0.98,0.28
					c-0.39,0.09-0.72,0.14-0.98,0.14c-0.44,0-0.65-0.48-0.65-1.45c0-1.02,0.37-2.03,1.11-3.05c0.74-1.02,1.69-1.92,2.84-2.7
					c1.16-0.78,2.41-1.42,3.76-1.9c1.35-0.48,2.64-0.73,3.86-0.73c1.53,0,2.9,0.14,4.13,0.42c1.23,0.28,2.28,0.79,3.17,1.52
					c0.88,0.74,1.56,1.73,2.02,2.98c0.46,1.25,0.69,2.86,0.69,4.85V50.1c0,1.62,0.05,2.78,0.16,3.5c0.11,0.72,0.27,1.28,0.49,1.7
					c0.3,0.65,0.64,1.07,1.01,1.28c0.37,0.21,0.75,0.31,1.14,0.31c0.48,0,0.82-0.05,1.01-0.14
					C674.99,56.66,675.2,56.61,675.42,56.61z M665.48,43.11l-2.11,0.35c-1.14,0.23-2.25,0.51-3.32,0.83
					c-1.08,0.32-2.03,0.77-2.86,1.35c-0.83,0.58-1.5,1.31-2.01,2.18c-0.5,0.88-0.76,1.96-0.76,3.25c0,1.76,0.43,3.09,1.28,4.02
					c0.86,0.92,1.92,1.39,3.19,1.39c0.83,0,1.66-0.2,2.47-0.59c0.81-0.39,1.51-0.95,2.11-1.66c0.59-0.72,1.08-1.56,1.45-2.53
					c0.37-0.97,0.56-2.03,0.56-3.19V43.11z"/>
				<path class="st1" d="M693.34,58.83c-1.13-0.09-2.29-0.17-3.47-0.24s-2.37-0.1-3.56-0.1s-2.41,0.03-3.66,0.1
					s-2.42,0.15-3.51,0.24c-0.09-0.46-0.13-0.83-0.13-1.11c0-0.46,0.2-0.74,0.59-0.83c0.96-0.18,1.85-0.45,2.68-0.8
					c0.83-0.35,1.24-0.89,1.24-1.63V17.2c0-1.48-0.27-2.48-0.82-3.01c-0.55-0.53-1.58-0.87-3.11-1c-0.57-0.09-0.85-0.42-0.85-0.97
					c0-0.28,0.04-0.6,0.13-0.97c0.57,0,1.35-0.03,2.36-0.1c1-0.07,1.92-0.15,2.75-0.24c1.01-0.14,1.92-0.32,2.71-0.55
					c0.79-0.23,1.37-0.35,1.72-0.35c0.4,0,0.66,0.09,0.79,0.28c0.13,0.19,0.2,0.44,0.2,0.76c0,0.79-0.07,1.7-0.2,2.74
					c-0.13,1.04-0.2,2.25-0.2,3.64v37.05c0,0.74,0.4,1.28,1.21,1.63c0.81,0.35,1.71,0.61,2.71,0.8c0.35,0.09,0.52,0.37,0.52,0.83
					C693.47,58,693.43,58.37,693.34,58.83z"/>
				<path class="st1" d="M699.16,68.38c-0.65-0.51-0.98-1.06-0.98-1.66c0-0.37,0.13-0.69,0.39-0.97c1.22-1.29,2.08-2.42,2.58-3.39
					c0.5-0.97,0.75-1.85,0.75-2.63c0-1.06-0.34-1.88-1.01-2.46c-0.68-0.58-1.38-1.05-2.13-1.42c-0.74-0.37-1.11-0.97-1.11-1.8
					c0-0.65,0.25-1.37,0.75-2.18c0.5-0.81,1.32-1.53,2.45-2.18c0.7,0.28,1.38,0.66,2.06,1.14c0.68,0.48,1.29,1.06,1.83,1.73
					c0.54,0.67,0.98,1.43,1.31,2.29c0.33,0.85,0.49,1.77,0.49,2.74c0,1.62-0.55,3.34-1.64,5.16
					C703.83,64.56,701.91,66.45,699.16,68.38z"/>
			</g>
		</g>
		<g>
			<g>
				<path class="st1" d="M120.14,94.54c0-1.29-0.21-2.22-0.62-2.77c-0.42-0.55-1.36-0.9-2.84-1.04c-0.57-0.09-0.85-0.39-0.85-0.9
					c0-0.28,0.04-0.6,0.13-0.97c0.57,0,1.34-0.04,2.32-0.1c0.98-0.07,1.8-0.17,2.45-0.31c0.96-0.14,1.82-0.31,2.58-0.52
					c0.76-0.21,1.32-0.31,1.67-0.31c0.57,0,0.85,0.35,0.85,1.04c0,0.55-0.03,1.21-0.1,1.97s-0.1,1.88-0.1,3.36
					c1.31-1.8,2.78-3.31,4.42-4.54c1.63-1.22,3.65-1.83,6.05-1.83c1.48,0,2.91,0.32,4.28,0.97c1.37,0.65,2.58,1.61,3.63,2.88
					s1.89,2.83,2.52,4.67c0.63,1.85,0.95,3.95,0.95,6.3c0,2.59-0.46,4.87-1.37,6.86c-0.92,1.99-2.05,3.66-3.4,5.02
					c-1.35,1.36-2.82,2.4-4.42,3.12c-1.59,0.71-3.06,1.07-4.42,1.07c-1.4,0-2.76-0.14-4.09-0.42c-1.33-0.28-2.71-0.76-4.15-1.46
					v12.54c0,1.2,0.5,2.02,1.5,2.46c1,0.44,2.64,0.77,4.91,1c0.48,0.09,0.72,0.39,0.72,0.9c0,0.28-0.04,0.65-0.13,1.11
					c-1-0.09-2.38-0.17-4.12-0.24c-1.75-0.07-3.38-0.1-4.91-0.1c-1.13,0-2.33,0.03-3.6,0.1c-1.27,0.07-2.46,0.15-3.6,0.24
					c-0.09-0.46-0.13-0.83-0.13-1.11c0-0.46,0.2-0.74,0.59-0.83c0.96-0.23,1.74-0.51,2.35-0.83c0.61-0.32,0.92-0.85,0.92-1.59V94.54
					z M125.63,112.06c1.09,1.2,2.29,2.16,3.6,2.87c1.31,0.72,2.79,1.07,4.45,1.07c1.26,0,2.38-0.3,3.34-0.9
					c0.96-0.6,1.75-1.42,2.39-2.46c0.63-1.04,1.11-2.29,1.44-3.74s0.49-3.04,0.49-4.74c0-1.75-0.19-3.43-0.56-5.02
					c-0.37-1.59-0.92-2.99-1.64-4.19c-0.72-1.2-1.59-2.15-2.62-2.84c-1.03-0.69-2.17-1.04-3.43-1.04c-0.87,0-1.74,0.27-2.62,0.8
					c-0.87,0.53-1.67,1.21-2.39,2.04s-1.31,1.77-1.77,2.81c-0.46,1.04-0.69,2.09-0.69,3.15V112.06z"/>
				<path class="st1" d="M152.13,103.06c0-2.12,0.38-4.13,1.14-6.03c0.76-1.89,1.8-3.53,3.11-4.92c1.31-1.39,2.84-2.48,4.61-3.29
					c1.77-0.81,3.67-1.21,5.72-1.21c2.14,0,4.1,0.38,5.89,1.14c1.79,0.76,3.32,1.81,4.61,3.15c1.29,1.34,2.29,2.97,3.01,4.88
					c0.72,1.92,1.08,4.01,1.08,6.27c0,2.17-0.38,4.19-1.14,6.06c-0.76,1.87-1.8,3.5-3.11,4.88c-1.31,1.38-2.84,2.48-4.61,3.29
					c-1.77,0.81-3.67,1.21-5.72,1.21c-2.14,0-4.1-0.38-5.89-1.14c-1.79-0.76-3.33-1.81-4.61-3.15c-1.29-1.34-2.29-2.95-3.01-4.85
					C152.48,107.47,152.13,105.37,152.13,103.06z M158.27,100.77c0,1.71,0.17,3.46,0.52,5.26c0.35,1.8,0.88,3.43,1.6,4.88
					c0.72,1.45,1.65,2.66,2.78,3.6c1.13,0.95,2.51,1.42,4.12,1.42c2.49,0,4.42-0.92,5.79-2.77c1.37-1.85,2.06-4.22,2.06-7.13
					c0-1.71-0.16-3.5-0.49-5.37c-0.33-1.87-0.85-3.58-1.57-5.13s-1.66-2.83-2.81-3.84c-1.16-1.02-2.58-1.52-4.29-1.52
					c-2.31,0-4.18,0.84-5.59,2.53C158.98,94.39,158.27,97.08,158.27,100.77z"/>
				<path class="st1" d="M204.65,87.69c1.26,0,2.2,0.32,2.81,0.97c0.61,0.65,0.92,1.36,0.92,2.15c0,0.28-0.04,0.53-0.13,0.76
					c-0.09,0.23-0.29,0.47-0.62,0.73c-0.33,0.25-0.79,0.55-1.37,0.9c-0.59,0.35-1.41,0.77-2.45,1.28c-0.39-0.51-0.86-0.95-1.41-1.32
					c-0.55-0.37-1.15-0.55-1.8-0.55c-0.74,0-1.42,0.22-2.03,0.66c-0.61,0.44-1.13,1.04-1.57,1.8c-0.44,0.76-0.77,1.64-1.01,2.63
					c-0.24,0.99-0.36,2.02-0.36,3.08v11.91c0,1.02,0.5,1.77,1.5,2.25s2.44,0.87,4.32,1.14c0.44,0.09,0.65,0.37,0.65,0.83
					c0,0.28-0.04,0.65-0.13,1.11c-0.48-0.05-1.08-0.08-1.8-0.1s-1.47-0.06-2.26-0.1c-0.79-0.05-1.59-0.08-2.43-0.1
					c-0.83-0.02-1.6-0.04-2.31-0.04c-1.19,0-2.42,0.04-3.69,0.1s-2.47,0.15-3.61,0.24c-0.09-0.46-0.13-0.83-0.13-1.11
					c0-0.46,0.2-0.74,0.59-0.83c1-0.18,1.89-0.46,2.65-0.83c0.76-0.37,1.14-0.9,1.14-1.59V96.07c0-0.97-0.05-1.78-0.16-2.42
					c-0.11-0.65-0.29-1.17-0.56-1.56s-0.64-0.68-1.14-0.87c-0.5-0.18-1.14-0.32-1.93-0.42c-0.57-0.09-0.85-0.39-0.85-0.9
					c0-0.28,0.04-0.6,0.13-0.97c0.57,0,1.36-0.03,2.39-0.1c1.02-0.07,1.87-0.15,2.52-0.24c0.97-0.18,1.82-0.38,2.55-0.59
					c0.73-0.21,1.27-0.31,1.62-0.31c0.62,0,0.93,0.35,0.93,1.04v4.64c1.39-1.62,2.8-2.97,4.22-4.05S202.86,87.69,204.65,87.69z"/>
			</g>
		</g>
		<g>
			<g>
				<path class="st1" d="M276.12,94.54c0-1.29-0.21-2.22-0.62-2.77c-0.42-0.55-1.36-0.9-2.84-1.04c-0.57-0.09-0.85-0.39-0.85-0.9
					c0-0.28,0.04-0.6,0.13-0.97c0.57,0,1.34-0.04,2.32-0.1c0.98-0.07,1.8-0.17,2.45-0.31c0.96-0.14,1.82-0.31,2.58-0.52
					c0.76-0.21,1.32-0.31,1.67-0.31c0.57,0,0.85,0.35,0.85,1.04c0,0.55-0.03,1.21-0.1,1.97s-0.1,1.88-0.1,3.36
					c1.31-1.8,2.78-3.31,4.42-4.54c1.63-1.22,3.65-1.83,6.05-1.83c1.48,0,2.91,0.32,4.28,0.97c1.37,0.65,2.58,1.61,3.63,2.88
					s1.89,2.83,2.52,4.67c0.63,1.85,0.95,3.95,0.95,6.3c0,2.59-0.46,4.87-1.37,6.86c-0.92,1.99-2.05,3.66-3.4,5.02
					c-1.35,1.36-2.82,2.4-4.42,3.12c-1.59,0.71-3.06,1.07-4.42,1.07c-1.4,0-2.76-0.14-4.09-0.42c-1.33-0.28-2.71-0.76-4.15-1.46
					v12.54c0,1.2,0.5,2.02,1.5,2.46c1,0.44,2.64,0.77,4.91,1c0.48,0.09,0.72,0.39,0.72,0.9c0,0.28-0.04,0.65-0.13,1.11
					c-1-0.09-2.38-0.17-4.12-0.24c-1.75-0.07-3.38-0.1-4.91-0.1c-1.13,0-2.33,0.03-3.6,0.1c-1.27,0.07-2.46,0.15-3.6,0.24
					c-0.09-0.46-0.13-0.83-0.13-1.11c0-0.46,0.2-0.74,0.59-0.83c0.96-0.23,1.74-0.51,2.35-0.83c0.61-0.32,0.92-0.85,0.92-1.59V94.54
					z M281.61,112.06c1.09,1.2,2.29,2.16,3.6,2.87c1.31,0.72,2.79,1.07,4.45,1.07c1.26,0,2.38-0.3,3.34-0.9
					c0.96-0.6,1.75-1.42,2.39-2.46c0.63-1.04,1.11-2.29,1.44-3.74s0.49-3.04,0.49-4.74c0-1.75-0.19-3.43-0.56-5.02
					c-0.37-1.59-0.92-2.99-1.64-4.19c-0.72-1.2-1.59-2.15-2.62-2.84c-1.03-0.69-2.17-1.04-3.43-1.04c-0.87,0-1.74,0.27-2.62,0.8
					c-0.87,0.53-1.67,1.21-2.39,2.04s-1.31,1.77-1.77,2.81c-0.46,1.04-0.69,2.09-0.69,3.15V112.06z"/>
				<path class="st1" d="M308.11,103.06c0-2.12,0.38-4.13,1.14-6.03c0.76-1.89,1.8-3.53,3.11-4.92c1.31-1.39,2.84-2.48,4.61-3.29
					c1.77-0.81,3.67-1.21,5.72-1.21c2.14,0,4.1,0.38,5.89,1.14c1.79,0.76,3.32,1.81,4.61,3.15c1.29,1.34,2.29,2.97,3.01,4.88
					c0.72,1.92,1.08,4.01,1.08,6.27c0,2.17-0.38,4.19-1.14,6.06c-0.76,1.87-1.8,3.5-3.11,4.88c-1.31,1.38-2.84,2.48-4.61,3.29
					c-1.77,0.81-3.67,1.21-5.72,1.21c-2.14,0-4.1-0.38-5.89-1.14c-1.79-0.76-3.33-1.81-4.61-3.15c-1.29-1.34-2.29-2.95-3.01-4.85
					C308.47,107.47,308.11,105.37,308.11,103.06z M314.26,100.77c0,1.71,0.17,3.46,0.52,5.26c0.35,1.8,0.88,3.43,1.6,4.88
					c0.72,1.45,1.65,2.66,2.78,3.6c1.13,0.95,2.51,1.42,4.12,1.42c2.49,0,4.42-0.92,5.79-2.77c1.37-1.85,2.06-4.22,2.06-7.13
					c0-1.71-0.16-3.5-0.49-5.37c-0.33-1.87-0.85-3.58-1.57-5.13s-1.66-2.83-2.81-3.84c-1.16-1.02-2.58-1.52-4.29-1.52
					c-2.31,0-4.18,0.84-5.59,2.53C314.96,94.39,314.26,97.08,314.26,100.77z"/>
				<path class="st1" d="M360.63,87.69c1.26,0,2.2,0.32,2.81,0.97c0.61,0.65,0.92,1.36,0.92,2.15c0,0.28-0.04,0.53-0.13,0.76
					c-0.09,0.23-0.29,0.47-0.62,0.73c-0.33,0.25-0.79,0.55-1.37,0.9c-0.59,0.35-1.41,0.77-2.45,1.28c-0.39-0.51-0.86-0.95-1.41-1.32
					c-0.55-0.37-1.15-0.55-1.8-0.55c-0.74,0-1.42,0.22-2.03,0.66c-0.61,0.44-1.13,1.04-1.57,1.8c-0.44,0.76-0.77,1.64-1.01,2.63
					c-0.24,0.99-0.36,2.02-0.36,3.08v11.91c0,1.02,0.5,1.77,1.5,2.25s2.44,0.87,4.32,1.14c0.44,0.09,0.65,0.37,0.65,0.83
					c0,0.28-0.04,0.65-0.13,1.11c-0.48-0.05-1.08-0.08-1.8-0.1s-1.47-0.06-2.26-0.1c-0.79-0.05-1.59-0.08-2.43-0.1
					c-0.83-0.02-1.6-0.04-2.31-0.04c-1.19,0-2.42,0.04-3.69,0.1s-2.47,0.15-3.61,0.24c-0.09-0.46-0.13-0.83-0.13-1.11
					c0-0.46,0.2-0.74,0.59-0.83c1-0.18,1.89-0.46,2.65-0.83c0.76-0.37,1.14-0.9,1.14-1.59V96.07c0-0.97-0.05-1.78-0.16-2.42
					c-0.11-0.65-0.29-1.17-0.56-1.56s-0.64-0.68-1.14-0.87c-0.5-0.18-1.14-0.32-1.93-0.42c-0.57-0.09-0.85-0.39-0.85-0.9
					c0-0.28,0.04-0.6,0.13-0.97c0.57,0,1.36-0.03,2.39-0.1c1.02-0.07,1.87-0.15,2.52-0.24c0.97-0.18,1.82-0.38,2.55-0.59
					c0.73-0.21,1.27-0.31,1.62-0.31c0.62,0,0.93,0.35,0.93,1.04v4.64c1.39-1.62,2.8-2.97,4.22-4.05S358.85,87.69,360.63,87.69z"/>
			</g>
		</g>
	</g>
</g>
</svg>
