<?xml version="1.0" encoding="utf-8"?>
<!-- Generator: Adobe Illustrator 23.0.1, SVG Export Plug-In . SVG Version: 6.00 Build 0)  -->
<svg version="1.1" id="Capa_1" xmlns="http://www.w3.org/2000/svg" xmlns:xlink="http://www.w3.org/1999/xlink" x="0px" y="0px"
	 viewBox="0 0 28.72 28.72" style="enable-background:new 0 0 28.72 28.72;" xml:space="preserve">
<style type="text/css">
	.st0{fill:#FFFFFF;}
</style>
<g>
	<path class="st0" d="M14.79,27.8h-0.84c-0.04-0.02-0.08-0.04-0.12-0.04c-1.53-0.28-2.63-1.61-2.5-3.14c0.1-1.15,0.31-2.3,0.5-3.44
		c0.08-0.49,0.22-0.96,0.34-1.44c-0.09,0.07-0.15,0.15-0.2,0.24c-0.78,1.31-1.62,2.59-2.64,3.74c-0.81,0.93-1.9,1.26-3.15,0.93
		c-0.9-0.23-1.65-0.89-1.97-1.76c-0.51-1.36-0.22-2.57,0.85-3.51c1.15-1.01,2.42-1.84,3.73-2.62c0.07-0.04,0.15-0.1,0.27-0.18
		c-0.09,0-0.12-0.01-0.14,0c-1.15,0.23-2.29,0.49-3.43,0.69c-0.9,0.16-1.81,0.28-2.73-0.09c-1.06-0.44-1.8-1.5-1.83-2.65
		c-0.06-1.87,1.46-3.36,3.21-3.2c1.15,0.11,2.29,0.32,3.44,0.5c0.48,0.08,0.95,0.22,1.43,0.34c-0.15-0.15-0.32-0.25-0.49-0.36
		c-1.23-0.74-2.42-1.54-3.5-2.49C4.09,8.51,3.77,7.44,4.09,6.19c0.23-0.9,0.9-1.66,1.77-1.99C7.24,3.69,8.45,4,9.39,5.08
		c0.99,1.15,1.82,2.41,2.6,3.71c0.05,0.08,0.1,0.15,0.18,0.28c0-0.09,0-0.12,0-0.14c-0.24-1.15-0.49-2.3-0.7-3.46
		c-0.13-0.71-0.23-1.42-0.08-2.14c0.31-1.51,1.83-2.6,3.35-2.39c1.62,0.22,2.81,1.58,2.68,3.14c-0.1,1.17-0.31,2.32-0.5,3.47
		C16.82,8.04,16.68,8.52,16.56,9c0.09-0.07,0.15-0.15,0.2-0.24c0.78-1.3,1.61-2.56,2.6-3.71c0.61-0.71,1.39-1.08,2.33-1.08
		c0.97,0,1.92,0.45,2.48,1.24c0.97,1.37,0.7,3.11-0.49,4.14c-1.15,1-2.42,1.84-3.72,2.62c-0.09,0.05-0.17,0.11-0.26,0.17
		c0.06,0.03,0.12,0.02,0.16,0.01c1.39-0.35,2.79-0.63,4.21-0.79c1.26-0.15,2.33,0.17,3.13,1.22c0.32,0.41,0.46,0.89,0.58,1.38v0.84
		c-0.02,0.03-0.04,0.06-0.04,0.09c-0.31,1.58-1.58,2.65-3.17,2.52c-1.15-0.09-2.28-0.31-3.42-0.5c-0.49-0.08-0.96-0.22-1.44-0.34
		c0.07,0.1,0.15,0.15,0.24,0.2c1.32,0.79,2.59,1.62,3.74,2.63c0.92,0.81,1.25,1.88,0.94,3.12c-0.23,0.91-0.89,1.67-1.77,2.01
		c-1.37,0.52-2.58,0.22-3.51-0.85c-1-1.14-1.82-2.41-2.6-3.7c-0.05-0.09-0.11-0.17-0.16-0.26c-0.03,0.07-0.02,0.11-0.01,0.16
		c0.39,1.55,0.73,3.11,0.82,4.71c0.06,1.22-0.46,2.15-1.49,2.78C15.58,27.57,15.17,27.65,14.79,27.8 M19.37,14.27
		c-0.01-2.77-2.27-5-5.03-4.99c-2.74,0.01-4.97,2.26-4.97,5.01c0,2.76,2.29,5.04,5.02,5.01C17.14,19.27,19.38,17,19.37,14.27"/>
</g>
</svg>
