<?xml version="1.0" encoding="utf-8"?>
<!-- Generator: Adobe Illustrator 23.0.1, SVG Export Plug-In . SVG Version: 6.00 Build 0)  -->
<svg version="1.1" id="Capa_1" xmlns="http://www.w3.org/2000/svg" xmlns:xlink="http://www.w3.org/1999/xlink" x="0px" y="0px"
	 viewBox="0 0 364.98 212.07" style="enable-background:new 0 0 364.98 212.07;" xml:space="preserve">
<style type="text/css">
	.st0{fill:#1C63AD;}
	.st1{fill:#FFFFFF;}
	.st2{fill:#FFCF00;}
</style>
<rect x="-14.51" y="-8.43" class="st0" width="394" height="228.93"/>
<g>
	<g>
		<path class="st1" d="M176.95,165.3c-0.72,0-1.33,0.28-1.81,0.84c-0.48,0.56-0.86,1.25-1.15,2.05c-0.28,0.8-0.48,1.63-0.59,2.49
			c-0.11,0.85-0.17,1.58-0.17,2.19c0,0.95,0.18,1.72,0.54,2.32c0.36,0.6,0.96,0.9,1.81,0.9c0.36,0,0.7-0.05,1.03-0.14
			c0.32-0.09,0.61-0.2,0.86-0.33c0.25-0.13,0.47-0.26,0.66-0.39c0.19-0.13,0.35-0.24,0.47-0.32c0.06-0.04,0.12-0.08,0.18-0.12
			c0.06-0.04,0.14-0.06,0.24-0.06c0.2,0,0.34,0.09,0.42,0.26c0.08,0.17,0.13,0.34,0.15,0.5c-0.28,0.24-0.61,0.5-0.98,0.78
			c-0.37,0.28-0.78,0.54-1.24,0.77c-0.45,0.23-0.95,0.42-1.48,0.57c-0.53,0.15-1.09,0.23-1.67,0.23c-0.84,0-1.55-0.13-2.11-0.39
			c-0.56-0.26-1.02-0.61-1.37-1.04c-0.35-0.43-0.6-0.93-0.75-1.49c-0.15-0.56-0.23-1.15-0.23-1.75c0-0.97,0.16-1.98,0.47-3.05
			c0.31-1.07,0.77-2.04,1.39-2.93c0.61-0.88,1.38-1.61,2.31-2.19c0.92-0.57,1.99-0.86,3.2-0.86c0.66,0,1.32,0.09,1.96,0.26
			s1.23,0.4,1.75,0.68c-0.04,0.12-0.09,0.3-0.14,0.54s-0.1,0.5-0.14,0.78c-0.04,0.28-0.08,0.57-0.12,0.86
			c-0.04,0.29-0.07,0.56-0.09,0.8l-0.48-0.03c-0.22-0.02-0.38-0.06-0.48-0.11c-0.1-0.05-0.18-0.18-0.24-0.38
			c-0.26-0.84-0.55-1.43-0.86-1.76C177.98,165.47,177.53,165.3,176.95,165.3z"/>
		<path class="st1" d="M188.41,164.15c0.78,0,1.46,0.13,2.02,0.39c0.56,0.26,1.04,0.62,1.42,1.09c0.38,0.46,0.66,1,0.84,1.61
			s0.27,1.28,0.27,2.01c0,1.45-0.23,2.71-0.69,3.79c-0.46,1.08-1.07,1.97-1.81,2.68c-0.74,0.71-1.58,1.25-2.5,1.6
			s-1.84,0.53-2.74,0.53c-0.76,0-1.42-0.12-1.96-0.36c-0.54-0.24-0.98-0.58-1.31-1.01c-0.33-0.43-0.57-0.95-0.72-1.57
			c-0.15-0.61-0.23-1.28-0.23-2.01c0-1.35,0.24-2.56,0.71-3.65c0.47-1.09,1.07-2.01,1.79-2.76c0.72-0.75,1.52-1.33,2.4-1.73
			C186.76,164.36,187.6,164.15,188.41,164.15z M186.05,176.52c0.5,0,0.96-0.18,1.39-0.53c0.42-0.35,0.78-0.84,1.09-1.46
			c0.3-0.62,0.54-1.37,0.71-2.23c0.17-0.86,0.26-1.8,0.26-2.8c0-1.23-0.11-2.2-0.32-2.93s-0.63-1.09-1.25-1.09
			c-0.56,0-1.06,0.22-1.49,0.65c-0.43,0.43-0.79,0.99-1.09,1.67c-0.29,0.68-0.51,1.45-0.66,2.29c-0.15,0.84-0.23,1.68-0.23,2.5
			c0,1.27,0.12,2.24,0.36,2.91C185.06,176.18,185.47,176.52,186.05,176.52z"/>
		<path class="st1" d="M204.06,168.56c0.08-0.34,0.14-0.63,0.18-0.88c0.04-0.24,0.06-0.45,0.06-0.63c0-0.4-0.16-0.6-0.48-0.6
			c-0.22,0-0.51,0.16-0.86,0.47c-0.35,0.31-0.74,0.72-1.16,1.22c-0.42,0.5-0.85,1.07-1.28,1.7c-0.43,0.63-0.83,1.28-1.19,1.95
			c-0.36,0.64-0.67,1.41-0.92,2.31c-0.25,0.9-0.38,1.69-0.38,2.4c0,0.32,0.03,0.61,0.09,0.87c-0.48,0.06-0.97,0.13-1.46,0.21
			c-0.49,0.08-1.02,0.2-1.58,0.36c-0.34-0.14-0.51-0.32-0.51-0.54c0-0.1,0.01-0.21,0.03-0.32c0.02-0.11,0.04-0.2,0.06-0.26
			l1.93-9.74c0.04-0.12,0.05-0.23,0.03-0.32c-0.02-0.09-0.07-0.14-0.15-0.14c-0.06,0-0.15,0.03-0.27,0.08
			c-0.12,0.05-0.26,0.11-0.41,0.17c-0.15,0.06-0.3,0.12-0.45,0.17c-0.15,0.05-0.28,0.08-0.38,0.08c-0.18,0-0.32-0.09-0.41-0.27
			s-0.16-0.35-0.2-0.51c0.38-0.24,0.83-0.49,1.36-0.74c0.52-0.25,1.04-0.48,1.55-0.69s0.98-0.39,1.4-0.53
			c0.42-0.14,0.73-0.21,0.93-0.21c0.16,0,0.31,0.04,0.45,0.12c0.14,0.08,0.21,0.22,0.21,0.42c0,0.06,0,0.14,0,0.24
			s-0.02,0.2-0.06,0.3l-1.15,4.64l0.09,0.03c0.44-0.72,0.91-1.43,1.4-2.13c0.49-0.69,1.01-1.31,1.55-1.85s1.11-0.98,1.7-1.3
			c0.59-0.32,1.21-0.48,1.85-0.48c0.54,0,1.02,0.13,1.42,0.38c0.4,0.25,0.6,0.71,0.6,1.37c0,0.24-0.02,0.53-0.05,0.86
			c-0.03,0.33-0.09,0.69-0.17,1.07l-1.45,6.91c-0.06,0.24-0.09,0.42-0.09,0.54c0,0.18,0.09,0.27,0.27,0.27
			c0.12,0,0.27-0.03,0.44-0.11c0.17-0.07,0.34-0.15,0.5-0.24c0.16-0.09,0.31-0.17,0.45-0.24s0.25-0.11,0.33-0.11
			c0.16,0,0.29,0.09,0.38,0.26c0.09,0.17,0.15,0.34,0.17,0.5c-0.32,0.22-0.7,0.46-1.13,0.72c-0.43,0.26-0.87,0.5-1.33,0.72
			c-0.45,0.22-0.9,0.41-1.33,0.56c-0.43,0.15-0.81,0.23-1.13,0.23c-0.34,0-0.63-0.07-0.86-0.21c-0.23-0.14-0.35-0.38-0.35-0.72
			c0-0.12,0.01-0.24,0.03-0.35c0.02-0.11,0.04-0.21,0.06-0.29L204.06,168.56z"/>
		<path class="st1" d="M218.72,167.59c-0.26,0-0.43-0.03-0.51-0.11c-0.08-0.07-0.15-0.21-0.21-0.41c-0.16-0.5-0.39-0.94-0.69-1.33
			c-0.3-0.38-0.79-0.57-1.48-0.57c-0.48,0-0.92,0.14-1.31,0.42c-0.39,0.28-0.59,0.71-0.59,1.3c0,0.6,0.21,1.11,0.63,1.52
			c0.42,0.41,0.91,0.82,1.45,1.22c0.32,0.24,0.65,0.5,1,0.77s0.64,0.56,0.9,0.87c0.26,0.31,0.48,0.65,0.65,1.03
			c0.17,0.37,0.26,0.79,0.26,1.25c0,0.66-0.15,1.26-0.45,1.79c-0.3,0.53-0.7,0.98-1.19,1.34c-0.49,0.36-1.06,0.64-1.69,0.84
			c-0.63,0.2-1.29,0.3-1.97,0.3c-0.72,0-1.44-0.06-2.14-0.17c-0.7-0.11-1.38-0.31-2.02-0.59c0.14-0.54,0.25-1.09,0.32-1.64
			c0.07-0.55,0.12-1.18,0.14-1.89h0.42c0.36,0,0.6,0.06,0.72,0.17c0.12,0.11,0.19,0.28,0.21,0.5c0.04,0.76,0.29,1.37,0.75,1.81
			c0.46,0.44,1.04,0.66,1.75,0.66c0.62,0,1.15-0.17,1.58-0.51c0.43-0.34,0.65-0.85,0.65-1.54c0-0.3-0.07-0.58-0.2-0.84
			c-0.13-0.26-0.31-0.51-0.53-0.74c-0.22-0.23-0.47-0.45-0.74-0.66c-0.27-0.21-0.56-0.43-0.86-0.65c-0.32-0.24-0.64-0.48-0.95-0.72
			c-0.31-0.24-0.59-0.51-0.83-0.8s-0.44-0.61-0.59-0.95s-0.23-0.72-0.23-1.15c0-0.64,0.15-1.21,0.44-1.7
			c0.29-0.49,0.67-0.91,1.15-1.25c0.47-0.34,1.01-0.6,1.61-0.77s1.23-0.26,1.87-0.26c1.27,0,2.44,0.26,3.53,0.78
			c-0.08,0.26-0.16,0.65-0.24,1.16c-0.08,0.51-0.12,1.02-0.12,1.52L218.72,167.59z"/>
		<path class="st1" d="M223.33,164.06c0.16-0.74,0.24-1.34,0.24-1.78c0-0.32-0.03-0.62-0.09-0.9c0.44-0.06,0.92-0.12,1.43-0.18
			c0.51-0.06,1.07-0.17,1.67-0.33c0.16,0.08,0.28,0.15,0.36,0.21c0.08,0.06,0.12,0.16,0.12,0.3c0,0.1-0.02,0.25-0.06,0.45
			l-0.51,2.68h3.26c-0.06,0.2-0.14,0.47-0.23,0.8c-0.09,0.33-0.16,0.64-0.2,0.92c-0.56-0.1-1.12-0.18-1.67-0.23
			c-0.55-0.05-1.02-0.08-1.4-0.11l-1.63,8.99c-0.02,0.1-0.04,0.19-0.05,0.26c-0.01,0.07-0.01,0.14-0.01,0.2
			c0,0.46,0.25,0.69,0.75,0.69c0.28,0,0.54-0.03,0.78-0.11c0.24-0.07,0.47-0.16,0.69-0.26c0.16-0.08,0.31-0.15,0.45-0.2
			s0.26-0.08,0.36-0.08c0.18,0,0.3,0.08,0.35,0.24c0.05,0.16,0.09,0.32,0.11,0.48c-0.66,0.52-1.43,0.94-2.31,1.25
			c-0.88,0.31-1.67,0.47-2.4,0.47c-0.84,0-1.43-0.13-1.75-0.38c-0.32-0.25-0.48-0.63-0.48-1.13c0-0.1,0-0.2,0.02-0.3
			c0.01-0.1,0.02-0.2,0.04-0.3l1.81-9.92h-2.29c0.06-0.38,0.14-0.69,0.24-0.94s0.34-0.36,0.72-0.36h1.57L223.33,164.06z"/>
		<path class="st1" d="M234.04,174.74c-0.06,0.24-0.09,0.42-0.09,0.54c0,0.18,0.09,0.27,0.27,0.27c0.12,0,0.27-0.03,0.44-0.11
			c0.17-0.07,0.34-0.15,0.5-0.24c0.16-0.09,0.31-0.17,0.45-0.24s0.25-0.11,0.33-0.11c0.16,0,0.29,0.09,0.38,0.26
			c0.09,0.17,0.15,0.34,0.17,0.5c-0.32,0.22-0.7,0.46-1.13,0.72c-0.43,0.26-0.88,0.5-1.33,0.72c-0.45,0.22-0.9,0.41-1.33,0.56
			c-0.43,0.15-0.81,0.23-1.13,0.23c-0.34,0-0.63-0.07-0.86-0.21c-0.23-0.14-0.35-0.38-0.35-0.72c0-0.12,0.01-0.24,0.03-0.35
			c0.02-0.11,0.04-0.21,0.06-0.29l1.93-9.2c0.06-0.3,0.01-0.45-0.15-0.45c-0.06,0-0.15,0.03-0.27,0.08
			c-0.12,0.05-0.26,0.11-0.41,0.17c-0.15,0.06-0.3,0.12-0.45,0.17c-0.15,0.05-0.28,0.08-0.38,0.08c-0.18,0-0.32-0.09-0.41-0.27
			c-0.09-0.18-0.16-0.35-0.2-0.51c0.38-0.2,0.84-0.43,1.37-0.69c0.53-0.26,1.05-0.5,1.57-0.71c0.51-0.21,0.98-0.39,1.4-0.54
			c0.42-0.15,0.72-0.23,0.9-0.23c0.16,0,0.31,0.04,0.45,0.12c0.14,0.08,0.21,0.22,0.21,0.42c0,0.06,0,0.14-0.01,0.24
			c-0.01,0.1-0.03,0.2-0.04,0.3L234.04,174.74z M234.76,161.65c-0.54,0-0.98-0.14-1.3-0.41c-0.32-0.27-0.48-0.64-0.48-1.1
			c0-0.62,0.24-1.16,0.72-1.6c0.48-0.44,1.06-0.66,1.72-0.66c0.58,0,1,0.18,1.27,0.53c0.26,0.35,0.39,0.71,0.39,1.07
			c0,0.64-0.23,1.17-0.68,1.57C235.95,161.45,235.4,161.65,234.76,161.65z"/>
		<path class="st1" d="M240.79,164.06c0.16-0.74,0.24-1.34,0.24-1.78c0-0.32-0.03-0.62-0.09-0.9c0.44-0.06,0.92-0.12,1.43-0.18
			c0.51-0.06,1.07-0.17,1.67-0.33c0.16,0.08,0.28,0.15,0.36,0.21c0.08,0.06,0.12,0.16,0.12,0.3c0,0.1-0.02,0.25-0.06,0.45
			l-0.51,2.68h3.26c-0.06,0.2-0.14,0.47-0.23,0.8c-0.09,0.33-0.16,0.64-0.2,0.92c-0.56-0.1-1.12-0.18-1.67-0.23
			c-0.55-0.05-1.02-0.08-1.4-0.11l-1.63,8.99c-0.02,0.1-0.04,0.19-0.04,0.26c-0.01,0.07-0.02,0.14-0.02,0.2
			c0,0.46,0.25,0.69,0.75,0.69c0.28,0,0.54-0.03,0.78-0.11c0.24-0.07,0.47-0.16,0.69-0.26c0.16-0.08,0.31-0.15,0.45-0.2
			s0.26-0.08,0.36-0.08c0.18,0,0.3,0.08,0.35,0.24c0.05,0.16,0.08,0.32,0.11,0.48c-0.66,0.52-1.43,0.94-2.31,1.25
			c-0.87,0.31-1.67,0.47-2.4,0.47c-0.84,0-1.43-0.13-1.75-0.38c-0.32-0.25-0.48-0.63-0.48-1.13c0-0.1,0-0.2,0.01-0.3
			c0.01-0.1,0.03-0.2,0.05-0.3l1.81-9.92h-2.29c0.06-0.38,0.14-0.69,0.24-0.94c0.1-0.24,0.34-0.36,0.72-0.36h1.57L240.79,164.06z"/>
		<path class="st1" d="M251.77,173.44c-0.08,0.34-0.14,0.63-0.18,0.88s-0.06,0.45-0.06,0.63c0,0.4,0.16,0.6,0.48,0.6
			c0.2,0,0.48-0.16,0.84-0.47c0.36-0.31,0.75-0.72,1.18-1.22c0.42-0.5,0.85-1.07,1.28-1.7c0.43-0.63,0.83-1.28,1.19-1.94
			c0.36-0.64,0.67-1.41,0.92-2.31c0.25-0.89,0.38-1.69,0.38-2.4c0-0.3-0.03-0.59-0.09-0.87c0.48-0.06,0.97-0.13,1.46-0.21
			c0.49-0.08,1.02-0.2,1.58-0.36c0.34,0.14,0.51,0.32,0.51,0.54c0,0.1-0.01,0.21-0.03,0.32c-0.02,0.11-0.04,0.2-0.06,0.26
			l-1.93,9.62c-0.06,0.32-0.07,0.53-0.01,0.62c0.05,0.09,0.14,0.14,0.26,0.14c0.24,0,0.52-0.1,0.83-0.29
			c0.31-0.19,0.56-0.29,0.74-0.29c0.18,0,0.29,0.08,0.33,0.23s0.07,0.31,0.09,0.47c-0.38,0.24-0.8,0.49-1.27,0.75
			c-0.46,0.26-0.92,0.5-1.37,0.71c-0.45,0.21-0.88,0.38-1.28,0.51c-0.4,0.13-0.72,0.2-0.96,0.2c-0.62,0-0.94-0.27-0.94-0.81
			c0-0.16,0.03-0.35,0.09-0.57l1.03-4.34l-0.09-0.03c-0.46,0.72-0.93,1.43-1.42,2.13c-0.48,0.69-1,1.31-1.54,1.85
			s-1.11,0.98-1.7,1.3s-1.21,0.48-1.85,0.48c-0.54,0-1.02-0.13-1.42-0.38c-0.4-0.25-0.6-0.71-0.6-1.37c0-0.24,0.01-0.53,0.04-0.86
			c0.03-0.33,0.08-0.69,0.17-1.07l1.42-6.73c0.06-0.28,0.09-0.49,0.08-0.62c-0.01-0.13-0.1-0.2-0.26-0.2
			c-0.12,0-0.26,0.03-0.42,0.08c-0.16,0.05-0.32,0.11-0.48,0.18c-0.16,0.07-0.31,0.13-0.45,0.18c-0.14,0.05-0.25,0.08-0.33,0.08
			c-0.16,0-0.29-0.09-0.38-0.26c-0.09-0.17-0.15-0.34-0.17-0.5c0.28-0.18,0.66-0.4,1.15-0.65c0.48-0.25,0.98-0.5,1.49-0.74
			s1-0.44,1.48-0.6c0.47-0.16,0.83-0.24,1.07-0.24c0.28,0,0.51,0.07,0.68,0.21c0.17,0.14,0.26,0.38,0.26,0.72
			c0,0.12-0.01,0.24-0.03,0.35c-0.02,0.11-0.04,0.21-0.06,0.29L251.77,173.44z"/>
		<path class="st1" d="M267.63,183.76c0.78,0,1.43-0.35,1.95-1.04c0.51-0.69,0.91-1.69,1.19-3l1.63-7.6l-0.09-0.03
			c-0.46,0.72-0.93,1.43-1.42,2.13c-0.48,0.69-1,1.31-1.54,1.85s-1.11,0.98-1.7,1.3c-0.59,0.32-1.21,0.48-1.85,0.48
			c-0.54,0-1.02-0.13-1.42-0.38c-0.4-0.25-0.6-0.71-0.6-1.37c0-0.24,0.02-0.53,0.05-0.86c0.03-0.33,0.08-0.69,0.17-1.07l1.42-6.73
			c0.06-0.24,0.09-0.42,0.09-0.54c0-0.18-0.09-0.27-0.27-0.27c-0.12,0-0.26,0.03-0.42,0.08c-0.16,0.05-0.32,0.11-0.48,0.18
			s-0.31,0.13-0.45,0.18c-0.14,0.05-0.25,0.08-0.33,0.08c-0.16,0-0.29-0.09-0.38-0.26c-0.09-0.17-0.15-0.34-0.17-0.5
			c0.28-0.18,0.66-0.4,1.15-0.65c0.48-0.25,0.98-0.5,1.49-0.74s1-0.44,1.48-0.6c0.47-0.16,0.83-0.24,1.07-0.24
			c0.28,0,0.51,0.07,0.68,0.21c0.17,0.14,0.26,0.38,0.26,0.72c0,0.12-0.01,0.24-0.03,0.35c-0.02,0.11-0.04,0.21-0.06,0.29
			l-1.63,7.72c-0.08,0.34-0.14,0.63-0.18,0.88s-0.06,0.45-0.06,0.63c0,0.4,0.16,0.6,0.48,0.6c0.2,0,0.48-0.16,0.84-0.47
			c0.36-0.31,0.75-0.72,1.18-1.22c0.42-0.5,0.85-1.07,1.28-1.7c0.43-0.63,0.83-1.28,1.19-1.94c0.36-0.64,0.67-1.41,0.92-2.31
			c0.25-0.89,0.38-1.69,0.38-2.4c0-0.3-0.03-0.59-0.09-0.87c0.48-0.06,0.97-0.13,1.46-0.21c0.49-0.08,1.02-0.2,1.58-0.36
			c0.34,0.14,0.51,0.32,0.51,0.54c0,0.1-0.01,0.21-0.03,0.32c-0.02,0.11-0.04,0.2-0.06,0.26l-2.68,13.48
			c-0.22,1.09-0.59,2.03-1.12,2.83c-0.52,0.8-1.13,1.47-1.81,2.01c-0.68,0.53-1.41,0.93-2.19,1.19c-0.77,0.26-1.52,0.39-2.25,0.39
			c-0.83,0-1.53-0.06-2.13-0.18c-0.59-0.12-1.14-0.29-1.64-0.51c0.38-0.9,0.63-1.85,0.75-2.83l0.75-0.12
			c0.32,0.66,0.76,1.22,1.33,1.66C266.39,183.54,266.99,183.76,267.63,183.76z"/>
		<path class="st1" d="M289.16,166.99c0,0.72-0.18,1.35-0.54,1.88c-0.36,0.53-0.88,0.98-1.54,1.33c-0.66,0.35-1.46,0.63-2.38,0.83
			c-0.92,0.2-1.95,0.33-3.08,0.39c-0.02,0.2-0.04,0.39-0.04,0.57c-0.01,0.18-0.02,0.37-0.02,0.57c0,0.44,0.04,0.87,0.11,1.3
			s0.2,0.79,0.38,1.12c0.18,0.32,0.43,0.58,0.74,0.78c0.31,0.2,0.71,0.3,1.19,0.3c0.36,0,0.8-0.08,1.31-0.23s1.06-0.42,1.64-0.8
			c0.18-0.12,0.33-0.22,0.44-0.3c0.11-0.08,0.24-0.12,0.38-0.12c0.2,0,0.34,0.11,0.41,0.32c0.07,0.21,0.11,0.36,0.11,0.44
			c-0.26,0.24-0.59,0.51-0.98,0.8c-0.39,0.29-0.83,0.56-1.33,0.8c-0.49,0.24-1.03,0.45-1.6,0.62c-0.57,0.17-1.16,0.26-1.76,0.26
			c-0.92,0-1.68-0.15-2.26-0.45c-0.58-0.3-1.04-0.69-1.36-1.18c-0.32-0.48-0.54-1.02-0.66-1.6c-0.12-0.58-0.18-1.16-0.18-1.72
			c0-1.09,0.18-2.15,0.53-3.2s0.85-1.98,1.51-2.81c0.65-0.82,1.43-1.49,2.34-1.99c0.9-0.5,1.91-0.75,3.02-0.75
			c1.03,0,1.89,0.22,2.59,0.65C288.81,165.24,289.16,165.96,289.16,166.99z M284.94,165.36c-0.38,0-0.74,0.14-1.09,0.41
			s-0.65,0.64-0.93,1.1s-0.52,0.99-0.72,1.58c-0.2,0.59-0.35,1.22-0.45,1.89c0.8-0.08,1.48-0.23,2.02-0.45
			c0.54-0.22,0.97-0.49,1.3-0.8c0.32-0.31,0.55-0.66,0.69-1.06s0.21-0.8,0.21-1.22c0-0.46-0.1-0.82-0.29-1.07
			C285.49,165.49,285.24,165.36,284.94,165.36z"/>
		<path class="st1" d="M299.87,168.56c0.08-0.34,0.14-0.63,0.18-0.88s0.06-0.45,0.06-0.63c0-0.4-0.16-0.6-0.48-0.6
			c-0.22,0-0.51,0.16-0.86,0.47c-0.35,0.31-0.74,0.72-1.16,1.22s-0.85,1.07-1.28,1.7c-0.43,0.63-0.83,1.28-1.19,1.95
			c-0.36,0.64-0.67,1.41-0.92,2.31c-0.25,0.9-0.38,1.69-0.38,2.4c0,0.32,0.03,0.61,0.09,0.87c-0.48,0.06-0.97,0.13-1.46,0.21
			c-0.49,0.08-1.02,0.2-1.58,0.36c-0.34-0.14-0.51-0.32-0.51-0.54c0-0.1,0.01-0.21,0.03-0.32c0.02-0.11,0.04-0.2,0.06-0.26
			l1.93-9.74c0.04-0.12,0.05-0.23,0.03-0.32c-0.02-0.09-0.07-0.14-0.15-0.14c-0.06,0-0.15,0.03-0.27,0.08
			c-0.12,0.05-0.26,0.11-0.41,0.17c-0.15,0.06-0.3,0.12-0.45,0.17c-0.15,0.05-0.28,0.08-0.38,0.08c-0.18,0-0.32-0.09-0.41-0.27
			c-0.09-0.18-0.16-0.35-0.2-0.51c0.38-0.24,0.83-0.49,1.36-0.74c0.52-0.25,1.04-0.48,1.55-0.69s0.98-0.39,1.4-0.53
			c0.42-0.14,0.73-0.21,0.93-0.21c0.16,0,0.31,0.04,0.45,0.12c0.14,0.08,0.21,0.22,0.21,0.42c0,0.06,0,0.14,0,0.24
			s-0.02,0.2-0.06,0.3l-1.15,4.64l0.09,0.03c0.44-0.72,0.91-1.43,1.4-2.13c0.49-0.69,1.01-1.31,1.55-1.85s1.11-0.98,1.7-1.3
			c0.59-0.32,1.21-0.48,1.85-0.48c0.54,0,1.01,0.13,1.42,0.38s0.6,0.71,0.6,1.37c0,0.24-0.01,0.53-0.04,0.86
			c-0.03,0.33-0.09,0.69-0.17,1.07l-1.45,6.91c-0.06,0.24-0.09,0.42-0.09,0.54c0,0.18,0.09,0.27,0.27,0.27
			c0.12,0,0.27-0.03,0.44-0.11c0.17-0.07,0.34-0.15,0.5-0.24c0.16-0.09,0.31-0.17,0.45-0.24s0.25-0.11,0.33-0.11
			c0.16,0,0.29,0.09,0.38,0.26c0.09,0.17,0.15,0.34,0.17,0.5c-0.32,0.22-0.7,0.46-1.13,0.72c-0.43,0.26-0.88,0.5-1.33,0.72
			c-0.45,0.22-0.89,0.41-1.33,0.56s-0.81,0.23-1.13,0.23c-0.34,0-0.63-0.07-0.86-0.21c-0.23-0.14-0.35-0.38-0.35-0.72
			c0-0.12,0.01-0.24,0.03-0.35c0.02-0.11,0.04-0.21,0.06-0.29L299.87,168.56z"/>
		<path class="st1" d="M308.62,164.06c0.16-0.74,0.24-1.34,0.24-1.78c0-0.32-0.03-0.62-0.09-0.9c0.44-0.06,0.92-0.12,1.43-0.18
			c0.51-0.06,1.07-0.17,1.67-0.33c0.16,0.08,0.28,0.15,0.36,0.21c0.08,0.06,0.12,0.16,0.12,0.3c0,0.1-0.02,0.25-0.06,0.45
			l-0.51,2.68h3.26c-0.06,0.2-0.14,0.47-0.23,0.8c-0.09,0.33-0.16,0.64-0.2,0.92c-0.56-0.1-1.12-0.18-1.67-0.23
			c-0.55-0.05-1.02-0.08-1.4-0.11l-1.63,8.99c-0.02,0.1-0.04,0.19-0.04,0.26c-0.01,0.07-0.02,0.14-0.02,0.2
			c0,0.46,0.25,0.69,0.75,0.69c0.28,0,0.54-0.03,0.78-0.11c0.24-0.07,0.47-0.16,0.69-0.26c0.16-0.08,0.31-0.15,0.45-0.2
			s0.26-0.08,0.36-0.08c0.18,0,0.3,0.08,0.35,0.24c0.05,0.16,0.08,0.32,0.11,0.48c-0.66,0.52-1.43,0.94-2.31,1.25
			c-0.87,0.31-1.67,0.47-2.4,0.47c-0.84,0-1.43-0.13-1.75-0.38c-0.32-0.25-0.48-0.63-0.48-1.13c0-0.1,0-0.2,0.01-0.3
			c0.01-0.1,0.03-0.2,0.05-0.3l1.81-9.92h-2.29c0.06-0.38,0.14-0.69,0.24-0.94c0.1-0.24,0.34-0.36,0.72-0.36h1.57L308.62,164.06z"/>
		<path class="st1" d="M325.93,166.99c0,0.72-0.18,1.35-0.54,1.88c-0.36,0.53-0.87,0.98-1.54,1.33c-0.66,0.35-1.46,0.63-2.38,0.83
			c-0.93,0.2-1.95,0.33-3.08,0.39c-0.02,0.2-0.04,0.39-0.05,0.57c-0.01,0.18-0.01,0.37-0.01,0.57c0,0.44,0.04,0.87,0.11,1.3
			s0.2,0.79,0.38,1.12s0.43,0.58,0.74,0.78c0.31,0.2,0.71,0.3,1.19,0.3c0.36,0,0.8-0.08,1.31-0.23s1.06-0.42,1.64-0.8
			c0.18-0.12,0.33-0.22,0.44-0.3c0.11-0.08,0.24-0.12,0.38-0.12c0.2,0,0.34,0.11,0.41,0.32c0.07,0.21,0.11,0.36,0.11,0.44
			c-0.26,0.24-0.59,0.51-0.98,0.8c-0.39,0.29-0.83,0.56-1.33,0.8c-0.49,0.24-1.03,0.45-1.6,0.62c-0.57,0.17-1.16,0.26-1.76,0.26
			c-0.92,0-1.68-0.15-2.26-0.45c-0.58-0.3-1.04-0.69-1.36-1.18c-0.32-0.48-0.54-1.02-0.66-1.6c-0.12-0.58-0.18-1.16-0.18-1.72
			c0-1.09,0.18-2.15,0.53-3.2c0.35-1.05,0.85-1.98,1.51-2.81c0.65-0.82,1.43-1.49,2.34-1.99c0.91-0.5,1.91-0.75,3.02-0.75
			c1.03,0,1.89,0.22,2.59,0.65C325.58,165.24,325.93,165.96,325.93,166.99z M321.71,165.36c-0.38,0-0.74,0.14-1.09,0.41
			s-0.65,0.64-0.93,1.1c-0.28,0.46-0.52,0.99-0.72,1.58c-0.2,0.59-0.35,1.22-0.45,1.89c0.8-0.08,1.48-0.23,2.02-0.45
			c0.54-0.22,0.98-0.49,1.3-0.8c0.32-0.31,0.55-0.66,0.69-1.06c0.14-0.39,0.21-0.8,0.21-1.22c0-0.46-0.1-0.82-0.29-1.07
			C322.25,165.49,322.01,165.36,321.71,165.36z"/>
	</g>
	<g>
		<path class="st2" d="M48.64,63.77c-0.75,3.73-1.52,6.94-2.32,9.63c-0.8,2.69-1.88,5.14-3.24,7.35c-1.36,2.21-3.11,4.32-5.24,6.32
			c-2.13,2-4.88,4.17-8.23,6.52c-0.53-0.48-0.8-1.04-0.8-1.68c0-0.27,0.07-0.48,0.2-0.64c0.13-0.16,0.28-0.32,0.44-0.48
			c1.76-1.76,3.24-3.4,4.44-4.92s2.21-3.03,3.04-4.52c0.83-1.49,1.5-3.02,2.04-4.6c0.53-1.57,0.96-3.26,1.28-5.08l7.2-38.13
			c0.21-1.07,0.03-1.89-0.56-2.48c-0.59-0.59-1.84-0.99-3.76-1.2c-0.43-0.05-0.73-0.2-0.92-0.44c-0.19-0.24-0.28-0.52-0.28-0.84
			c0-0.27,0.05-0.67,0.16-1.2c1.6,0.16,3.3,0.28,5.12,0.36c1.81,0.08,3.38,0.12,4.72,0.12c1.12,0,2.44-0.04,3.96-0.12
			c1.52-0.08,3-0.2,4.44-0.36c0.11,0.53,0.16,0.93,0.16,1.2c0,0.69-0.4,1.12-1.2,1.28c-1.55,0.21-2.68,0.57-3.4,1.08
			c-0.72,0.51-1.19,1.29-1.4,2.36L48.64,63.77z"/>
		<path class="st2" d="M80.78,66.56h-0.32c-1.33,2.61-2.69,4.82-4.08,6.64c-1.39,1.81-2.76,3.28-4.12,4.4
			c-1.36,1.12-2.69,1.93-4,2.44c-1.31,0.51-2.54,0.76-3.72,0.76c-0.8,0-1.56-0.12-2.28-0.36c-0.72-0.24-1.36-0.65-1.92-1.24
			c-0.56-0.59-1-1.39-1.32-2.4c-0.32-1.01-0.48-2.29-0.48-3.84c0-4.53,0.73-8.55,2.2-12.07c1.47-3.52,3.29-6.49,5.48-8.91
			c2.18-2.42,4.54-4.28,7.08-5.56c2.53-1.28,4.89-1.92,7.08-1.92c1.71,0,3.34,0.08,4.92,0.24c1.57,0.16,3.34,0.45,5.32,0.88
			l-5.52,27.74c-0.11,0.53-0.16,1.01-0.16,1.44c0,0.69,0.29,1.04,0.88,1.04c0.37,0,0.76-0.09,1.16-0.28c0.4-0.19,0.8-0.4,1.2-0.64
			c0.4-0.24,0.77-0.45,1.12-0.64c0.35-0.19,0.63-0.28,0.84-0.28c0.53,0,0.91,0.53,1.12,1.6c-0.96,0.69-1.96,1.35-3,1.96
			c-1.04,0.61-2.04,1.16-3,1.64c-0.96,0.48-1.87,0.87-2.72,1.16c-0.85,0.29-1.55,0.44-2.08,0.44c-0.59,0-1.12-0.12-1.6-0.36
			c-0.48-0.24-0.72-0.76-0.72-1.56c0-0.27,0.03-0.57,0.08-0.92c0.05-0.35,0.13-0.71,0.24-1.08L80.78,66.56z M83.65,48.42
			c-0.64-0.21-1.35-0.39-2.12-0.52c-0.77-0.13-1.51-0.2-2.2-0.2c-2.13,0-4.05,0.56-5.76,1.68c-1.71,1.12-3.17,2.69-4.4,4.72
			c-1.23,2.03-2.17,4.42-2.84,7.2c-0.67,2.77-1,5.78-1,9.03c0,1.92,0.24,3.29,0.72,4.12c0.48,0.83,1.15,1.24,2,1.24
			c1.07,0,2.21-0.48,3.44-1.44c1.23-0.96,2.41-2.21,3.56-3.76c1.15-1.54,2.25-3.29,3.32-5.24c1.07-1.94,1.99-3.93,2.76-5.96
			c0.77-2.02,1.38-3.98,1.84-5.88C83.43,51.52,83.65,49.85,83.65,48.42z"/>
		<path class="st2" d="M104.76,73.28c-0.05,0.21-0.11,0.49-0.16,0.84c-0.05,0.35-0.08,0.6-0.08,0.76c0,0.64,0.32,0.96,0.96,0.96
			c0.37,0,0.76-0.09,1.16-0.28c0.4-0.19,0.8-0.4,1.2-0.64c0.4-0.24,0.76-0.45,1.08-0.64c0.32-0.19,0.59-0.28,0.8-0.28
			c0.53,0,0.91,0.53,1.12,1.6c-0.91,0.69-1.88,1.35-2.92,1.96c-1.04,0.61-2.04,1.16-3,1.64c-0.96,0.48-1.87,0.87-2.72,1.16
			c-0.85,0.29-1.55,0.44-2.08,0.44c-0.59,0-1.15-0.12-1.68-0.36c-0.53-0.24-0.8-0.81-0.8-1.72c0-0.16,0.03-0.44,0.08-0.84
			c0.05-0.4,0.11-0.68,0.16-0.84c1.17-5.7,2.11-10.25,2.8-13.63c0.69-3.38,1.21-5.97,1.56-7.75c0.35-1.79,0.57-2.97,0.68-3.56
			c0.11-0.59,0.16-0.93,0.16-1.04c0-0.64-0.24-0.96-0.72-0.96c-0.21,0-0.53,0.09-0.96,0.28c-0.43,0.19-0.88,0.37-1.36,0.56
			c-0.48,0.19-0.92,0.37-1.32,0.56c-0.4,0.19-0.71,0.28-0.92,0.28c-0.32,0-0.56-0.16-0.72-0.48c-0.16-0.32-0.29-0.69-0.4-1.12
			c0.96-0.53,2.08-1.13,3.36-1.8c1.28-0.67,2.52-1.29,3.72-1.88c1.2-0.59,2.26-1.07,3.2-1.44c0.93-0.37,1.56-0.56,1.88-0.56
			c0.91,0,1.36,0.45,1.36,1.36c0,0.37-0.05,0.77-0.16,1.2L104.76,73.28z M108.84,35.94c-1.01,0-1.81-0.31-2.4-0.92
			c-0.59-0.61-0.88-1.43-0.88-2.44c0-1.44,0.49-2.73,1.48-3.88c0.99-1.15,2.17-1.72,3.56-1.72c1.07,0,1.83,0.35,2.28,1.04
			c0.45,0.69,0.68,1.57,0.68,2.64c0,1.33-0.45,2.55-1.36,3.64C111.29,35.4,110.17,35.94,108.84,35.94z"/>
		<path class="st2" d="M142.09,55.69c0.32-1.44,0.48-2.64,0.48-3.6c0-1.54-0.59-2.32-1.76-2.32c-0.75,0-1.67,0.44-2.76,1.32
			c-1.09,0.88-2.25,2.03-3.48,3.44c-1.23,1.41-2.45,3-3.68,4.76c-1.23,1.76-2.32,3.55-3.28,5.36c-0.48,0.91-0.95,1.91-1.4,3
			c-0.45,1.09-0.85,2.21-1.2,3.36c-0.35,1.15-0.61,2.28-0.8,3.4c-0.19,1.12-0.28,2.16-0.28,3.12c0,0.75,0.08,1.47,0.24,2.16
			c-2.03,0.21-4.13,0.61-6.32,1.2c-0.43-0.27-0.64-0.59-0.64-0.96c0-0.11,0.03-0.33,0.08-0.68c0.05-0.35,0.11-0.63,0.16-0.84
			c1.17-6.13,2.1-10.99,2.79-14.59c0.69-3.6,1.22-6.32,1.6-8.15c0.37-1.84,0.6-3.04,0.68-3.6c0.08-0.56,0.12-0.89,0.12-1
			c0-0.64-0.21-0.96-0.64-0.96c-0.21,0-0.53,0.09-0.96,0.28c-0.43,0.19-0.86,0.37-1.32,0.56c-0.45,0.19-0.89,0.37-1.32,0.56
			c-0.43,0.19-0.75,0.28-0.96,0.28c-0.27,0-0.49-0.16-0.68-0.48c-0.19-0.32-0.33-0.69-0.44-1.12c0.96-0.59,2.08-1.21,3.35-1.88
			c1.28-0.67,2.51-1.28,3.71-1.84c1.2-0.56,2.26-1.03,3.19-1.4c0.93-0.37,1.56-0.56,1.88-0.56c0.37,0,0.69,0.09,0.96,0.28
			c0.27,0.19,0.4,0.49,0.4,0.92c0,0.11-0.01,0.29-0.04,0.56c-0.03,0.27-0.07,0.53-0.12,0.8l-2.88,13.91h0.32
			c1.38-2.34,2.79-4.53,4.22-6.56c1.43-2.02,2.88-3.77,4.34-5.24c1.46-1.47,2.94-2.61,4.42-3.44c1.49-0.83,3-1.24,4.54-1.24
			c1.17,0,2.19,0.39,3.07,1.16c0.88,0.77,1.32,2.01,1.32,3.72c0,0.69-0.05,1.43-0.16,2.2c-0.11,0.77-0.26,1.67-0.47,2.68l-1.27,6.4
			h0.24c1.38-2.29,2.79-4.42,4.23-6.4c1.44-1.97,2.89-3.68,4.35-5.12s2.94-2.57,4.43-3.4c1.49-0.83,2.98-1.24,4.47-1.24
			c1.17,0,2.18,0.37,3.04,1.12c0.85,0.75,1.28,1.97,1.28,3.68c0,0.75-0.05,1.53-0.16,2.36c-0.1,0.83-0.24,1.64-0.39,2.44
			l-4.03,19.19c-0.05,0.27-0.11,0.55-0.16,0.84c-0.05,0.29-0.08,0.52-0.08,0.68c0,0.69,0.31,1.04,0.95,1.04
			c0.37,0,0.75-0.09,1.15-0.28c0.39-0.19,0.79-0.4,1.18-0.64c0.4-0.24,0.76-0.45,1.11-0.64c0.34-0.19,0.62-0.28,0.83-0.28
			c0.53,0,0.88,0.53,1.04,1.6c-0.91,0.69-1.87,1.35-2.9,1.96c-1.03,0.61-2.01,1.16-2.96,1.64c-0.95,0.48-1.85,0.87-2.7,1.16
			c-0.85,0.29-1.54,0.44-2.08,0.44c-0.59,0-1.15-0.12-1.68-0.36c-0.53-0.24-0.8-0.81-0.8-1.72c0-0.16,0.03-0.44,0.08-0.84
			c0.05-0.4,0.11-0.68,0.16-0.84l4.56-21.35c0.27-1.33,0.4-2.53,0.4-3.6c0-1.54-0.56-2.32-1.68-2.32c-0.75,0-1.67,0.44-2.76,1.32
			c-1.09,0.88-2.25,2.03-3.48,3.44c-1.23,1.41-2.47,3-3.72,4.76c-1.25,1.76-2.36,3.55-3.32,5.36c-0.43,0.75-0.85,1.65-1.28,2.72
			c-0.43,1.07-0.83,2.17-1.2,3.32c-0.37,1.15-0.67,2.32-0.88,3.52c-0.21,1.2-0.32,2.31-0.32,3.32c0,0.75,0.08,1.47,0.24,2.16
			c-2.08,0.27-4.18,0.67-6.32,1.2c-0.43-0.32-0.64-0.64-0.64-0.96c0-0.11,0.03-0.32,0.08-0.64c0.05-0.32,0.11-0.61,0.16-0.88
			L142.09,55.69z"/>
		<path class="st2" d="M182.79,63.61c-0.05,0.53-0.09,1.07-0.12,1.6c-0.03,0.53-0.04,1.09-0.04,1.68c0,1.23,0.11,2.43,0.32,3.6
			c0.21,1.17,0.59,2.21,1.12,3.12c0.53,0.91,1.27,1.64,2.2,2.2c0.93,0.56,2.12,0.84,3.56,0.84c1.39,0,2.82-0.25,4.32-0.76
			c1.49-0.51,3.01-1.29,4.56-2.36c0.53-0.37,0.91-0.56,1.12-0.56c0.43,0,0.71,0.21,0.84,0.64c0.13,0.43,0.2,0.75,0.2,0.96
			c-0.8,0.75-1.71,1.49-2.72,2.24c-1.01,0.75-2.11,1.41-3.28,2c-1.17,0.59-2.43,1.07-3.76,1.44c-1.33,0.37-2.72,0.56-4.16,0.56
			c-2.24,0-4.06-0.41-5.48-1.24s-2.53-1.89-3.36-3.2c-0.83-1.31-1.39-2.73-1.68-4.28c-0.29-1.55-0.44-3.04-0.44-4.48
			c0-2.82,0.44-5.62,1.32-8.39c0.88-2.77,2.12-5.25,3.72-7.44c1.6-2.18,3.54-3.94,5.84-5.28c2.29-1.33,4.85-2,7.67-2
			c1.12,0,2.21,0.15,3.28,0.44c1.07,0.29,2.01,0.73,2.84,1.32c0.83,0.59,1.49,1.36,2,2.32c0.51,0.96,0.76,2.11,0.76,3.44
			c0,1.97-0.52,3.67-1.56,5.08c-1.04,1.41-2.48,2.59-4.32,3.52c-1.84,0.93-4.01,1.64-6.52,2.12
			C188.51,63.21,185.77,63.5,182.79,63.61z M183.03,61.21c5.06-0.43,8.66-1.47,10.79-3.12c2.13-1.65,3.2-3.73,3.2-6.24
			c0-1.49-0.36-2.62-1.08-3.4c-0.72-0.77-1.69-1.16-2.92-1.16c-1.28,0-2.47,0.39-3.56,1.16c-1.09,0.77-2.08,1.8-2.96,3.08
			c-0.88,1.28-1.61,2.76-2.2,4.44C183.72,57.65,183.29,59.4,183.03,61.21z"/>
	</g>
	<g>
		<path class="st2" d="M48.09,93.56h35.32c1.57,0,2.64,0.22,3.22,0.66c0.58,0.44,0.87,1.32,0.87,2.64c0,1.68-0.52,3.41-1.57,5.2
			c-5.2-2.12-12.35-3.18-21.46-3.18h-3.59c-0.19,3.11-0.29,9.7-0.29,19.77h20.38c0.36,1.07,0.54,2.2,0.54,3.38
			c0,0.77-0.14,1.29-0.41,1.55c-0.28,0.26-0.81,0.39-1.61,0.39h-18.9c0.03,11.28,0.12,18.5,0.29,21.66h6.64
			c0.33,0.83,0.5,1.62,0.5,2.39c0,0.69-0.14,1.17-0.41,1.44c-0.28,0.28-0.76,0.41-1.44,0.41H46.77c-0.36-0.94-0.54-1.8-0.54-2.6
			c0-0.58,0.14-1,0.43-1.26c0.29-0.26,0.76-0.39,1.42-0.39h3.05c0.19-3.82,0.29-13.63,0.29-29.42c0-8.45-0.1-14.58-0.29-18.4h-4.37
			c-0.36-0.94-0.54-1.8-0.54-2.6c0-0.58,0.14-1,0.43-1.26C46.96,93.69,47.43,93.56,48.09,93.56z"/>
		<path class="st2" d="M105.62,144.56h3.51c8.36,0,15.05-0.96,20.05-2.89c0.88,1.51,1.32,3.08,1.32,4.7c0,1.21-0.4,2.1-1.2,2.66
			c-0.8,0.56-2.42,0.85-4.87,0.85l-32.93,0.04c-0.36-0.93-0.54-1.82-0.54-2.64c0-0.55,0.14-0.96,0.43-1.22
			c0.29-0.26,0.76-0.39,1.42-0.39h3.05c0.19-3.85,0.29-13.67,0.29-29.46c0-8.45-0.11-14.58-0.33-18.4h-4.33
			c-0.36-0.94-0.54-1.8-0.54-2.6c0-0.58,0.14-1,0.43-1.26c0.29-0.26,0.76-0.39,1.42-0.39h17.87c0.36,0.83,0.54,1.62,0.54,2.39
			c0,0.69-0.14,1.17-0.41,1.44c-0.28,0.28-0.77,0.41-1.49,0.41h-3.71c-0.19,3.82-0.29,10.12-0.29,18.9
			C105.33,132.17,105.43,141.45,105.62,144.56z"/>
		<path class="st2" d="M210.13,145.64h5.9c0.33,0.83,0.5,1.62,0.5,2.39c0,0.69-0.14,1.17-0.41,1.44c-0.28,0.28-0.76,0.41-1.44,0.41
			h-19.39c-0.36-0.94-0.54-1.8-0.54-2.6c0-0.58,0.14-1,0.43-1.26c0.29-0.26,0.76-0.39,1.42-0.39h3.75
			c0.22-3.82,0.33-13.63,0.33-29.42c0-8.45-0.11-14.58-0.33-18.4h-4.79c-0.33-0.94-0.5-1.8-0.5-2.6c0-0.58,0.14-1,0.43-1.26
			c0.29-0.26,0.76-0.39,1.42-0.39h17.79c8.39,0,14.36,1.16,17.91,3.47c3.55,2.31,5.32,5.96,5.32,10.94c0,7.62-4.57,12.82-13.7,15.6
			c2.61,0.8,4.73,2.26,6.35,4.39c1.62,2.13,3.33,5.18,5.14,9.14c1.8,3.96,3.22,6.39,4.25,7.28c1.03,0.89,2.5,1.31,4.39,1.26
			c0.58,1.98,0.51,3.32-0.21,4.02c-0.72,0.7-2.49,1.05-5.32,1.05c-3.27,0-5.63-0.43-7.06-1.28c-1.43-0.85-2.92-3.89-4.48-9.1
			c-1.55-5.21-3.2-8.88-4.93-11c-1.73-2.12-4.24-3.18-7.51-3.18c-1.71,0-3.4,0.14-5.08,0.41
			C209.86,136.06,209.97,142.42,210.13,145.64z M209.8,120.96h3.47c4.79,0,8.41-0.84,10.87-2.52c2.46-1.68,3.69-4.18,3.69-7.51
			c0-3.91-1.11-6.77-3.34-8.6c-2.23-1.83-5.42-2.74-9.57-2.74c-1.9,0-3.49,0.14-4.79,0.41c-0.22,2.37-0.33,7.94-0.33,16.71V120.96z"
			/>
		<path class="st2" d="M250.5,93.56h35.32c1.57,0,2.64,0.22,3.22,0.66c0.58,0.44,0.87,1.32,0.87,2.64c0,1.68-0.52,3.41-1.57,5.2
			c-5.2-2.12-12.35-3.18-21.46-3.18h-3.59c-0.19,3.11-0.28,9.28-0.25,18.53h21.58c0.36,1.07,0.54,2.2,0.54,3.38
			c0,0.77-0.14,1.29-0.41,1.55c-0.27,0.26-0.81,0.39-1.61,0.39H263c0.03,11.88,0.12,19.16,0.29,21.83h5.78
			c8.77,0,15.67-0.96,20.67-2.89c0.88,1.51,1.32,3.08,1.32,4.7c0,1.21-0.4,2.1-1.2,2.66c-0.8,0.56-2.42,0.85-4.87,0.85l-35.82,0.04
			c-0.36-0.93-0.54-1.82-0.54-2.64c0-0.55,0.14-0.96,0.43-1.22c0.29-0.26,0.76-0.39,1.42-0.39h3.05c0.19-3.85,0.29-13.67,0.29-29.46
			c0-8.45-0.1-14.58-0.29-18.4h-4.37c-0.36-0.94-0.54-1.8-0.54-2.6c0-0.58,0.14-1,0.43-1.26C249.36,93.69,249.84,93.56,250.5,93.56z
			"/>
		<path class="st2" d="M318.22,92.74c5.97,0,10.11,0.35,12.42,1.05c2.31,0.7,3.47,2.06,3.47,4.06c0,1.84-0.74,3.48-2.23,4.91
			c-5.78-2.64-11.14-3.96-16.09-3.96c-3.49,0-5.96,0.69-7.41,2.08c-1.44,1.39-2.17,3.31-2.17,5.76c0,2.56,0.86,4.59,2.58,6.11
			c1.72,1.51,4.99,3.03,9.8,4.54c5.69,1.71,10.01,3.67,12.94,5.88c2.93,2.21,4.48,5.8,4.64,10.75c0,5.53-1.89,9.71-5.67,12.54
			c-3.78,2.83-9.57,4.25-17.35,4.25c-5.42,0-9.53-0.39-12.34-1.16c-2.81-0.77-4.21-2.2-4.21-4.29c0-1.9,0.8-3.58,2.39-5.03
			c5.45,2.97,11.11,4.46,17,4.46c4.04,0,6.92-0.66,8.62-1.98c1.71-1.32,2.56-3.36,2.56-6.11c0-3.3-1.23-5.78-3.69-7.43
			c-2.46-1.65-6.39-3.33-11.78-5.03c-5.23-1.59-8.95-3.6-11.16-6c-2.21-2.41-3.32-5.56-3.32-9.47c0-4.87,1.81-8.74,5.43-11.62
			C306.26,94.17,311.46,92.74,318.22,92.74z"/>
	</g>
	<path class="st1" d="M161.55,152.64h-2.06c-0.1-0.04-0.19-0.1-0.29-0.12c-3.75-0.68-6.45-3.95-6.12-7.71
		c0.25-2.83,0.76-5.64,1.22-8.44c0.2-1.19,0.55-2.36,0.83-3.54c-0.23,0.16-0.37,0.37-0.5,0.58c-1.93,3.23-3.99,6.36-6.47,9.2
		c-1.74,1.99-3.98,2.86-6.56,2.52c-3.15-0.41-5.35-2.22-6.26-5.27c-0.91-3.06-0.11-5.77,2.33-7.9c2.82-2.47,5.94-4.51,9.15-6.43
		c0.19-0.11,0.37-0.24,0.69-0.44c-0.23,0-0.3-0.01-0.36,0c-2.81,0.57-5.61,1.19-8.42,1.71c-1.73,0.32-3.48,0.56-5.24,0.21
		c-3.73-0.75-6.38-4.43-5.91-8.18c0.5-3.98,3.91-6.96,7.83-6.61c2.83,0.26,5.64,0.77,8.44,1.23c1.19,0.19,2.35,0.54,3.52,0.82
		c-0.37-0.36-0.79-0.62-1.2-0.87c-3.01-1.82-5.94-3.78-8.59-6.1c-1.99-1.74-2.84-3.99-2.5-6.57c0.42-3.15,2.24-5.34,5.29-6.24
		c3.09-0.91,5.8-0.07,7.94,2.4c2.44,2.82,4.47,5.92,6.38,9.1c0.11,0.19,0.23,0.37,0.43,0.68c0-0.23,0.01-0.3,0-0.36
		c-0.58-2.83-1.21-5.65-1.72-8.49c-0.31-1.73-0.55-3.48-0.19-5.24c0.76-3.72,4.5-6.38,8.21-5.86c3.96,0.55,6.91,3.88,6.57,7.73
		c-0.25,2.85-0.77,5.68-1.23,8.51c-0.2,1.19-0.55,2.36-0.83,3.54c0.23-0.17,0.37-0.37,0.5-0.58c1.91-3.19,3.95-6.28,6.38-9.1
		c1.53-1.78,3.47-2.68,5.82-2.66c3.12,0.02,5.9,1.97,6.97,4.9c1.09,2.96,0.22,6.23-2.17,8.29c-2.83,2.45-5.94,4.51-9.14,6.43
		c-0.21,0.13-0.42,0.27-0.62,0.41c0.16,0.06,0.28,0.05,0.4,0.02c3.4-0.87,6.84-1.54,10.34-1.95c3.11-0.36,5.73,0.42,7.69,2.99
		c0.77,1.01,1.13,2.19,1.43,3.4v2.06c-0.04,0.07-0.09,0.15-0.11,0.23c-0.75,3.88-3.88,6.49-7.78,6.18
		c-2.81-0.22-5.59-0.76-8.38-1.22c-1.19-0.2-2.36-0.55-3.54-0.83c0.17,0.23,0.38,0.37,0.59,0.5c3.23,1.93,6.36,3.99,9.19,6.47
		c1.99,1.74,2.85,3.99,2.51,6.57c-0.42,3.15-2.23,5.35-5.28,6.25c-3.06,0.91-5.77,0.1-7.9-2.34c-2.45-2.8-4.48-5.91-6.39-9.09
		c-0.13-0.21-0.27-0.42-0.4-0.62c-0.06,0.16-0.05,0.28-0.02,0.4c0.95,3.81,1.81,7.63,2,11.56c0.15,2.99-1.11,5.29-3.65,6.82
		C163.5,152.08,162.49,152.29,161.55,152.64 M172.8,119.42c-0.04-6.8-5.57-12.29-12.36-12.26c-6.71,0.03-12.2,5.56-12.19,12.3
		c0,6.78,5.61,12.38,12.33,12.31C167.34,131.7,172.84,126.15,172.8,119.42"/>
</g>
</svg>
