<?xml version="1.0" encoding="utf-8"?>
<!-- Generator: Adobe Illustrator 23.0.1, SVG Export Plug-In . SVG Version: 6.00 Build 0)  -->
<svg version="1.1" id="Capa_1" xmlns="http://www.w3.org/2000/svg" xmlns:xlink="http://www.w3.org/1999/xlink" x="0px" y="0px"
	 viewBox="0 0 530.55 144.64" style="enable-background:new 0 0 530.55 144.64;" xml:space="preserve">
<style type="text/css">
	.st0{fill:#FCFCFB;}
</style>
<g>
	<g>
		<g>
			<path class="st0" d="M443.11,48.39c0-0.79-0.14-1.35-0.4-1.69c-0.27-0.34-0.88-0.55-1.83-0.63c-0.37-0.06-0.55-0.24-0.55-0.55
				c0-0.17,0.03-0.37,0.08-0.59c0.37,0,0.87-0.02,1.5-0.06c0.63-0.04,1.16-0.1,1.58-0.19c0.62-0.08,1.17-0.19,1.67-0.32
				c0.49-0.13,0.85-0.19,1.08-0.19c0.37,0,0.55,0.21,0.55,0.63c0,0.34-0.02,0.74-0.06,1.2c-0.04,0.46-0.06,1.15-0.06,2.05
				c0.85-1.1,1.79-2.02,2.85-2.77c1.06-0.74,2.36-1.12,3.91-1.12c0.95,0,1.88,0.2,2.76,0.59c0.89,0.39,1.67,0.98,2.34,1.75
				c0.67,0.77,1.22,1.72,1.62,2.85c0.41,1.12,0.61,2.4,0.61,3.84c0,1.58-0.3,2.97-0.89,4.18c-0.59,1.21-1.32,2.23-2.19,3.06
				c-0.87,0.83-1.82,1.46-2.85,1.9c-1.03,0.43-1.98,0.65-2.85,0.65c-0.9,0-1.78-0.08-2.64-0.25c-0.86-0.17-1.75-0.46-2.68-0.89v7.64
				c0,0.73,0.32,1.23,0.97,1.5c0.65,0.27,1.7,0.47,3.17,0.61c0.31,0.06,0.46,0.24,0.46,0.55c0,0.17-0.03,0.39-0.08,0.68
				c-0.65-0.06-1.54-0.11-2.66-0.15c-1.12-0.04-2.18-0.06-3.17-0.06c-0.73,0-1.5,0.02-2.32,0.06c-0.82,0.04-1.59,0.09-2.32,0.15
				c-0.06-0.28-0.08-0.51-0.08-0.68c0-0.28,0.13-0.45,0.38-0.51c0.62-0.14,1.12-0.31,1.52-0.51c0.39-0.2,0.59-0.52,0.59-0.97V48.39z
				 M446.65,59.07c0.7,0.73,1.48,1.32,2.32,1.75c0.84,0.44,1.8,0.66,2.87,0.66c0.81,0,1.53-0.18,2.15-0.55
				c0.62-0.37,1.13-0.87,1.54-1.5c0.41-0.63,0.72-1.39,0.93-2.28c0.21-0.89,0.32-1.85,0.32-2.89c0-1.07-0.12-2.09-0.36-3.06
				c-0.24-0.97-0.59-1.82-1.06-2.55c-0.46-0.73-1.03-1.31-1.69-1.73c-0.66-0.42-1.4-0.63-2.21-0.63c-0.56,0-1.13,0.16-1.69,0.49
				c-0.56,0.32-1.08,0.74-1.54,1.25c-0.47,0.51-0.85,1.08-1.14,1.71c-0.3,0.63-0.45,1.27-0.45,1.92V59.07z"/>
			<path class="st0" d="M481.52,61.35c0.31,0,0.48,0.29,0.51,0.89c-0.73,0.51-1.66,0.76-2.79,0.76c-0.62,0-1.16-0.09-1.62-0.27
				c-0.46-0.18-0.84-0.43-1.16-0.74c-0.31-0.31-0.56-0.66-0.73-1.06c-0.17-0.39-0.28-0.8-0.34-1.23c-0.7,1.27-1.54,2.13-2.51,2.6
				c-0.97,0.46-2.09,0.7-3.36,0.7c-0.56,0-1.16-0.05-1.79-0.15c-0.64-0.1-1.23-0.3-1.79-0.61c-0.56-0.31-1.03-0.74-1.39-1.31
				c-0.37-0.56-0.55-1.31-0.55-2.24c0-1.04,0.24-1.92,0.74-2.64c0.49-0.72,1.12-1.31,1.9-1.77c0.77-0.46,1.62-0.84,2.53-1.12
				c0.91-0.28,1.79-0.52,2.64-0.72c0.48-0.08,0.92-0.18,1.33-0.27c0.41-0.1,0.77-0.2,1.08-0.32c0.39-0.11,0.64-0.26,0.74-0.46
				c0.1-0.2,0.15-0.58,0.15-1.14c0-1.32-0.25-2.41-0.76-3.27c-0.51-0.86-1.41-1.29-2.7-1.29c-0.48,0-0.89,0.05-1.22,0.17
				c-0.34,0.12-0.62,0.29-0.85,0.53s-0.42,0.56-0.59,0.95c-0.17,0.39-0.34,0.86-0.51,1.39c-0.08,0.31-0.27,0.53-0.57,0.68
				c-0.29,0.14-0.79,0.31-1.5,0.51c-0.17,0.06-0.38,0.12-0.63,0.17c-0.25,0.06-0.46,0.08-0.63,0.08c-0.28,0-0.42-0.29-0.42-0.89
				c0-0.62,0.24-1.24,0.72-1.86c0.48-0.62,1.09-1.17,1.83-1.64c0.74-0.48,1.56-0.87,2.43-1.16c0.87-0.29,1.7-0.44,2.49-0.44
				c0.98,0,1.87,0.09,2.66,0.25c0.79,0.17,1.47,0.48,2.04,0.93c0.57,0.45,1.01,1.06,1.31,1.81c0.3,0.76,0.45,1.75,0.45,2.96v7.26
				c0,0.99,0.03,1.7,0.1,2.13c0.07,0.44,0.18,0.78,0.32,1.04c0.2,0.39,0.42,0.65,0.66,0.78c0.24,0.13,0.49,0.19,0.74,0.19
				c0.31,0,0.53-0.03,0.65-0.08C481.24,61.38,481.38,61.35,481.52,61.35z M475.1,53.12l-1.36,0.21c-0.74,0.14-1.45,0.31-2.14,0.51
				c-0.7,0.2-1.31,0.47-1.85,0.82c-0.54,0.35-0.97,0.8-1.29,1.33c-0.32,0.53-0.49,1.2-0.49,1.98c0,1.07,0.28,1.88,0.83,2.45
				c0.55,0.56,1.24,0.84,2.06,0.84c0.54,0,1.07-0.12,1.59-0.36c0.52-0.24,0.97-0.58,1.36-1.02c0.38-0.43,0.7-0.95,0.93-1.54
				c0.24-0.59,0.36-1.24,0.36-1.94V53.12z"/>
			<path class="st0" d="M496.12,44.21c0.82,0,1.42,0.2,1.81,0.59c0.39,0.4,0.59,0.83,0.59,1.31c0,0.17-0.03,0.32-0.09,0.47
				c-0.06,0.14-0.19,0.29-0.4,0.44c-0.21,0.16-0.51,0.34-0.89,0.55c-0.38,0.21-0.91,0.47-1.58,0.78c-0.25-0.31-0.56-0.58-0.91-0.8
				c-0.35-0.22-0.74-0.34-1.16-0.34c-0.48,0-0.91,0.14-1.31,0.4c-0.39,0.27-0.73,0.64-1.01,1.1c-0.28,0.46-0.5,1-0.66,1.6
				c-0.16,0.6-0.23,1.23-0.23,1.88v7.26c0,0.62,0.32,1.08,0.97,1.37c0.65,0.3,1.58,0.53,2.79,0.7c0.28,0.06,0.42,0.23,0.42,0.51
				c0,0.17-0.03,0.39-0.09,0.67c-0.31-0.03-0.7-0.05-1.16-0.06c-0.47-0.01-0.95-0.03-1.46-0.06c-0.51-0.03-1.03-0.05-1.57-0.06
				s-1.04-0.02-1.49-0.02c-0.77,0-1.56,0.02-2.38,0.06c-0.82,0.04-1.6,0.09-2.33,0.15c-0.06-0.28-0.09-0.51-0.09-0.67
				c0-0.28,0.13-0.45,0.38-0.51c0.65-0.11,1.22-0.28,1.71-0.51c0.49-0.22,0.74-0.55,0.74-0.97V49.32c0-0.59-0.04-1.08-0.11-1.48
				c-0.07-0.39-0.19-0.71-0.36-0.95c-0.17-0.24-0.41-0.41-0.74-0.53c-0.32-0.11-0.74-0.2-1.25-0.25c-0.37-0.05-0.55-0.24-0.55-0.55
				c0-0.17,0.03-0.37,0.08-0.59c0.37,0,0.88-0.02,1.54-0.06c0.66-0.04,1.2-0.09,1.63-0.15c0.63-0.11,1.17-0.23,1.64-0.36
				c0.47-0.13,0.82-0.19,1.05-0.19c0.4,0,0.6,0.21,0.6,0.63v2.83c0.9-0.98,1.81-1.81,2.72-2.47
				C493.93,44.54,494.97,44.21,496.12,44.21z"/>
			<path class="st0" d="M517.02,61.35c0.31,0,0.48,0.29,0.51,0.89c-0.73,0.51-1.66,0.76-2.79,0.76c-0.62,0-1.16-0.09-1.62-0.27
				c-0.46-0.18-0.84-0.43-1.16-0.74c-0.31-0.31-0.56-0.66-0.73-1.06c-0.17-0.39-0.28-0.8-0.34-1.23c-0.7,1.27-1.54,2.13-2.51,2.6
				c-0.97,0.46-2.09,0.7-3.36,0.7c-0.56,0-1.16-0.05-1.79-0.15c-0.64-0.1-1.23-0.3-1.79-0.61c-0.56-0.31-1.03-0.74-1.39-1.31
				c-0.37-0.56-0.55-1.31-0.55-2.24c0-1.04,0.24-1.92,0.74-2.64c0.49-0.72,1.12-1.31,1.9-1.77c0.77-0.46,1.62-0.84,2.53-1.12
				c0.91-0.28,1.79-0.52,2.64-0.72c0.48-0.08,0.92-0.18,1.33-0.27c0.41-0.1,0.77-0.2,1.08-0.32c0.39-0.11,0.64-0.26,0.74-0.46
				c0.1-0.2,0.15-0.58,0.15-1.14c0-1.32-0.25-2.41-0.76-3.27c-0.51-0.86-1.41-1.29-2.7-1.29c-0.48,0-0.89,0.05-1.22,0.17
				c-0.34,0.12-0.62,0.29-0.85,0.53c-0.22,0.24-0.42,0.56-0.59,0.95c-0.17,0.39-0.34,0.86-0.51,1.39c-0.08,0.31-0.27,0.53-0.57,0.68
				c-0.29,0.14-0.79,0.31-1.5,0.51c-0.17,0.06-0.38,0.12-0.63,0.17c-0.25,0.06-0.46,0.08-0.63,0.08c-0.28,0-0.42-0.29-0.42-0.89
				c0-0.62,0.24-1.24,0.72-1.86c0.48-0.62,1.09-1.17,1.83-1.64c0.74-0.48,1.56-0.87,2.43-1.16c0.87-0.29,1.7-0.44,2.49-0.44
				c0.98,0,1.87,0.09,2.66,0.25c0.79,0.17,1.47,0.48,2.04,0.93c0.57,0.45,1.01,1.06,1.31,1.81c0.3,0.76,0.45,1.75,0.45,2.96v7.26
				c0,0.99,0.03,1.7,0.1,2.13c0.07,0.44,0.18,0.78,0.32,1.04c0.2,0.39,0.42,0.65,0.66,0.78c0.24,0.13,0.49,0.19,0.74,0.19
				c0.31,0,0.53-0.03,0.65-0.08C516.74,61.38,516.87,61.35,517.02,61.35z M510.6,53.12l-1.36,0.21c-0.74,0.14-1.45,0.31-2.14,0.51
				c-0.7,0.2-1.31,0.47-1.85,0.82c-0.54,0.35-0.97,0.8-1.29,1.33c-0.32,0.53-0.49,1.2-0.49,1.98c0,1.07,0.28,1.88,0.83,2.45
				c0.55,0.56,1.24,0.84,2.06,0.84c0.54,0,1.07-0.12,1.59-0.36c0.52-0.24,0.97-0.58,1.36-1.02c0.38-0.43,0.7-0.95,0.93-1.54
				c0.24-0.59,0.36-1.24,0.36-1.94V53.12z"/>
		</g>
		<g>
			<path class="st0" d="M131.26,40.01c-0.71-0.05-1.11-0.33-1.21-0.83c-0.35-2.07-1.16-3.58-2.42-4.54
				c-1.26-0.96-2.85-1.44-4.76-1.44c-1.71,0-3.02,0.43-3.93,1.28c-0.91,0.86-1.36,1.87-1.36,3.03c0,0.55,0.08,1.06,0.23,1.51
				c0.15,0.45,0.46,0.88,0.95,1.29c0.48,0.4,1.14,0.79,2,1.17c0.86,0.38,2.02,0.79,3.48,1.25c1.71,0.5,3.23,1.05,4.54,1.62
				c1.31,0.58,2.42,1.27,3.33,2.08s1.6,1.78,2.08,2.91c0.48,1.14,0.72,2.48,0.72,4.05c0,1.46-0.24,2.85-0.72,4.16
				c-0.48,1.31-1.25,2.46-2.31,3.44c-1.06,0.98-2.39,1.75-4.01,2.3c-1.61,0.55-3.55,0.83-5.82,0.83c-1.61,0-3.47-0.18-5.56-0.53
				c-2.09-0.35-4-0.98-5.71-1.89c-0.1-1.31-0.19-2.71-0.27-4.19c-0.07-1.49-0.11-2.96-0.11-4.42h0.98c0.55,0,1.03,0.09,1.44,0.27
				c0.4,0.18,0.63,0.47,0.68,0.87c0.2,2.12,1.03,3.74,2.5,4.88c1.46,1.13,3.48,1.7,6.05,1.7c1.76,0,3.2-0.4,4.31-1.21
				c1.11-0.81,1.66-1.86,1.66-3.18c0-1.21-0.49-2.24-1.48-3.1c-0.98-0.86-2.84-1.69-5.56-2.5c-3.68-1.06-6.26-2.46-7.75-4.2
				c-1.49-1.74-2.23-3.82-2.23-6.24c0-3.18,1.07-5.72,3.21-7.64c2.14-1.91,4.92-2.87,8.35-2.87c1.97,0,3.87,0.24,5.71,0.72
				c1.84,0.48,3.31,1,4.42,1.55c0.05,0.41,0.1,0.95,0.15,1.63c0.05,0.68,0.1,1.41,0.15,2.19c0.05,0.78,0.09,1.54,0.11,2.27
				c0.03,0.73,0.04,1.35,0.04,1.85L131.26,40.01z"/>
			<path class="st0" d="M168.39,56.27c0.45-0.35,0.85-0.53,1.21-0.53c0.25,0,0.54,0.11,0.87,0.34c0.33,0.23,0.67,0.67,1.02,1.32
				c-1.96,2.32-4.22,4.02-6.77,5.1s-5.56,1.63-9.04,1.63c-1.96,0-3.89-0.32-5.78-0.95s-3.59-1.61-5.1-2.95
				c-1.51-1.34-2.74-3.01-3.67-5.03c-0.93-2.02-1.4-4.44-1.4-7.26c0-2.77,0.54-5.28,1.63-7.52c1.08-2.24,2.46-4.14,4.12-5.71
				c1.66-1.56,3.48-2.76,5.44-3.59c1.96-0.83,3.86-1.25,5.67-1.25c4.89,0,8.58,1.41,11.08,4.23c2.5,2.82,3.74,6.68,3.74,11.57
				c0,0.35-0.18,0.53-0.53,0.53l-21.62,0.91c0,3.93,0.88,6.94,2.64,9.04c1.76,2.09,4.4,3.14,7.91,3.14c1.56,0,3.09-0.25,4.6-0.76
				C165.9,58.03,167.23,57.28,168.39,56.27z M155.49,33.21c-1.96,0-3.52,0.84-4.7,2.53c-1.18,1.69-1.77,4.35-1.77,7.98l11.73-0.53
				c0.75-0.05,1.13-0.38,1.13-0.98c0-0.96-0.12-1.97-0.37-3.03c-0.25-1.06-0.64-2.03-1.17-2.91c-0.53-0.88-1.19-1.61-1.99-2.19
				C157.54,33.5,156.59,33.21,155.49,33.21z"/>
			<path class="st0" d="M181.53,61.94c-1.01-0.55-1.78-1.31-2.3-2.27c-0.53-0.96-0.8-2.02-0.8-3.18c0-1.61,0.38-2.9,1.14-3.86
				c0.76-0.96,1.94-1.94,3.55-2.95c-1.31-0.86-2.47-1.95-3.48-3.29c-1.01-1.34-1.51-3.06-1.51-5.18c0-1.61,0.37-3.11,1.1-4.5
				c0.73-1.39,1.7-2.58,2.91-3.59s2.62-1.8,4.23-2.38c1.61-0.58,3.33-0.87,5.14-0.87c2.47,0,4.57,0.37,6.31,1.1
				c1.74,0.73,3.11,1.47,4.12,2.23l7.41-3.63c0.61,0.4,1.07,0.95,1.4,1.62c0.33,0.68,0.49,1.32,0.49,1.93c0,0.5-0.1,0.92-0.3,1.25
				c-0.2,0.33-0.58,0.49-1.13,0.49c-0.2,0-0.5-0.01-0.91-0.04c-0.4-0.03-0.73-0.04-0.98-0.04c-0.55,0-1.11,0.04-1.66,0.11
				c-0.55,0.08-1.26,0.24-2.12,0.49c1.21,1.56,1.81,3.48,1.81,5.75c0,3.07-1.22,5.62-3.67,7.64c-2.44,2.02-6.04,3.02-10.78,3.02
				c-1.06,0-2.07-0.06-3.02-0.19c-0.96-0.12-1.87-0.34-2.72-0.64c-1.01,0.55-1.71,1.1-2.12,1.62c-0.41,0.53-0.61,1-0.61,1.4
				c0,0.4,0.1,0.76,0.3,1.06c0.2,0.3,0.61,0.55,1.21,0.76c0.6,0.2,1.47,0.37,2.61,0.49c1.13,0.12,2.63,0.19,4.5,0.19
				c2.52,0,4.84,0.21,6.96,0.64c2.12,0.43,3.94,1.1,5.48,2c1.54,0.91,2.73,2.08,3.59,3.51c0.86,1.44,1.29,3.16,1.29,5.18
				c0,1.82-0.37,3.54-1.1,5.18c-0.73,1.64-1.83,3.07-3.29,4.31c-1.46,1.23-3.29,2.22-5.48,2.95c-2.19,0.73-4.75,1.1-7.67,1.1
				c-2.27,0-4.36-0.19-6.28-0.57c-1.92-0.38-3.57-1-4.95-1.85c-1.39-0.86-2.47-1.96-3.25-3.33c-0.78-1.36-1.17-3.05-1.17-5.07
				c0-1.97,0.57-3.67,1.7-5.1C178.63,64.02,179.97,62.85,181.53,61.94z M183.8,63.38c-0.56,0.71-0.92,1.49-1.1,2.34
				c-0.18,0.86-0.27,1.79-0.27,2.8c0,1.16,0.19,2.28,0.57,3.36c0.38,1.08,0.99,2.04,1.85,2.87c0.86,0.83,1.97,1.51,3.33,2.04
				c1.36,0.53,3,0.79,4.91,0.79c3.12,0,5.41-0.73,6.84-2.19c1.44-1.46,2.16-3.23,2.16-5.29c0-1.51-0.78-2.79-2.34-3.82
				c-1.56-1.03-4.21-1.55-7.94-1.55c-1.31,0-2.72-0.13-4.23-0.38C186.07,64.11,184.81,63.78,183.8,63.38z M192.27,48.48
				c1.46,0,2.68-0.5,3.67-1.51c0.98-1.01,1.48-2.62,1.48-4.84c0-1.11-0.06-2.19-0.19-3.25c-0.12-1.06-0.41-2-0.87-2.84
				c-0.45-0.83-1.1-1.51-1.93-2.04c-0.83-0.53-1.93-0.79-3.29-0.79c-1.36,0-2.5,0.55-3.4,1.66s-1.36,2.62-1.36,4.54
				c0,1.16,0.06,2.28,0.19,3.36c0.12,1.09,0.4,2.04,0.83,2.87c0.43,0.83,1.02,1.51,1.78,2.04
				C189.93,48.22,190.96,48.48,192.27,48.48z"/>
			<path class="st0" d="M218.81,37.44c0-1.21-0.19-2.09-0.57-2.65c-0.38-0.55-1.43-0.93-3.14-1.13c-0.71-0.15-1.06-0.5-1.06-1.06
				c0-0.15,0-0.35,0-0.6c0-0.25,0.05-0.5,0.15-0.76c0.3,0,0.73-0.01,1.28-0.04c0.55-0.02,1.13-0.05,1.74-0.07
				c0.61-0.02,1.22-0.06,1.85-0.11c0.63-0.05,1.2-0.12,1.7-0.23c1.16-0.15,2.27-0.34,3.33-0.57c1.06-0.23,1.79-0.34,2.19-0.34
				c0.45,0,0.74,0.1,0.87,0.3c0.12,0.2,0.19,0.48,0.19,0.83v19.36c0,2.92,0.37,4.95,1.1,6.09c0.73,1.13,1.9,1.7,3.52,1.7
				c2.27,0,4.21-0.76,5.82-2.27c1.61-1.51,2.42-3.8,2.42-6.88V37.44c0-0.61-0.04-1.12-0.11-1.55c-0.07-0.43-0.24-0.79-0.49-1.1
				s-0.62-0.54-1.1-0.72c-0.48-0.18-1.15-0.32-2-0.42c-0.3-0.1-0.57-0.2-0.79-0.3c-0.23-0.1-0.34-0.35-0.34-0.76
				c0-0.15,0.01-0.35,0.04-0.6c0.03-0.25,0.06-0.5,0.11-0.76c0.35,0,0.79-0.01,1.32-0.04c0.53-0.02,1.11-0.05,1.74-0.07
				c0.63-0.02,1.26-0.06,1.89-0.11c0.63-0.05,1.2-0.12,1.7-0.23c1.11-0.15,2.2-0.34,3.29-0.57c1.08-0.23,1.83-0.34,2.23-0.34
				c0.71,0,1.06,0.38,1.06,1.13v25.18c0,0.61,0.04,1.12,0.11,1.55c0.08,0.43,0.24,0.79,0.49,1.1c0.25,0.3,0.63,0.54,1.13,0.72
				c0.5,0.18,1.18,0.31,2.04,0.41c0.65,0.05,0.98,0.38,0.98,0.98c0,0.25,0,0.5,0,0.75c0,0.25-0.05,0.45-0.15,0.61
				c-0.66,0-1.68,0.04-3.06,0.11c-1.39,0.07-2.56,0.19-3.52,0.34c-1.11,0.15-2.21,0.34-3.29,0.57c-1.08,0.23-1.83,0.34-2.23,0.34
				c-0.45,0-0.75-0.09-0.87-0.27c-0.12-0.18-0.19-0.46-0.19-0.87V57.1c-1.61,2.12-3.4,3.82-5.37,5.1c-1.97,1.29-4.01,1.93-6.12,1.93
				c-3.08,0-5.49-0.84-7.26-2.53c-1.77-1.69-2.65-4.22-2.65-7.6V37.44z"/>
			<path class="st0" d="M282.02,29.95c1.46,0,2.56,0.38,3.29,1.14c0.73,0.76,1.1,1.71,1.1,2.87c0,0.35-0.06,0.66-0.19,0.91
				c-0.13,0.25-0.4,0.53-0.83,0.83c-0.43,0.3-1.02,0.64-1.78,1.02c-0.76,0.38-1.74,0.84-2.95,1.4c-0.81-0.81-1.55-1.35-2.23-1.63
				c-0.68-0.28-1.35-0.41-2-0.41c-0.61,0-1.2,0.1-1.78,0.3c-0.58,0.2-1.1,0.59-1.55,1.17c-0.45,0.58-0.82,1.35-1.1,2.31
				c-0.28,0.96-0.42,2.19-0.42,3.7v14.06c0,1.01,0.4,1.75,1.21,2.23c0.81,0.48,2.39,0.92,4.76,1.32c0.55,0.1,0.83,0.43,0.83,0.98
				c0,0.71-0.05,1.18-0.15,1.44c-0.66-0.05-1.46-0.09-2.42-0.11c-0.96-0.03-1.96-0.06-3.02-0.11c-1.06-0.05-2.11-0.09-3.14-0.11
				c-1.03-0.03-1.95-0.04-2.76-0.04c-1.91,0-3.55,0.04-4.91,0.11c-1.36,0.07-2.65,0.16-3.86,0.26c-0.1-0.25-0.15-0.73-0.15-1.44
				c0-0.55,0.28-0.88,0.83-0.98c1.61-0.3,2.72-0.63,3.33-0.98c0.61-0.35,0.91-0.91,0.91-1.66V38.2c0-1.16-0.21-2.09-0.64-2.8
				c-0.43-0.7-1.63-1.18-3.59-1.44c-0.71-0.1-1.06-0.48-1.06-1.13c0-0.15,0-0.35,0-0.61c0-0.25,0.05-0.45,0.15-0.61
				c0.3,0,0.73-0.01,1.28-0.04c0.55-0.02,1.16-0.05,1.82-0.08c0.65-0.02,1.31-0.06,1.96-0.11c0.66-0.05,1.23-0.12,1.74-0.23
				c1.11-0.15,2.26-0.34,3.44-0.57c1.18-0.23,1.98-0.34,2.38-0.34c0.7,0,1.06,0.38,1.06,1.14v4.08c1.77-1.92,3.45-3.32,5.07-4.2
				C278.27,30.4,280.05,29.95,282.02,29.95z"/>
			<path class="st0" d="M298.13,63.22c-1.97,0-3.66,0.04-5.07,0.11c-1.41,0.07-2.77,0.16-4.09,0.26c-0.1-0.5-0.15-0.98-0.15-1.44
				c0-0.35,0.09-0.59,0.27-0.72c0.18-0.12,0.37-0.21,0.57-0.27c1.61-0.3,2.72-0.63,3.33-0.98c0.61-0.35,0.91-0.91,0.91-1.66V38.58
				c0-1.51-0.25-2.67-0.76-3.48c-0.5-0.8-1.69-1.28-3.55-1.44c-0.66-0.1-0.98-0.5-0.98-1.21c0-0.15,0-0.34,0-0.57
				c0-0.23,0.05-0.44,0.15-0.64c0.3,0,0.74-0.01,1.32-0.04c0.58-0.02,1.2-0.05,1.85-0.07c0.66-0.02,1.31-0.06,1.97-0.11
				c0.65-0.05,1.26-0.1,1.81-0.15c1.26-0.15,2.47-0.35,3.63-0.61c1.16-0.25,1.94-0.38,2.34-0.38c0.8,0,1.21,0.38,1.21,1.13
				c0,0.55-0.07,1.28-0.23,2.19c-0.15,0.91-0.23,2.17-0.23,3.78v21.55c0,0.76,0.33,1.31,0.98,1.66c0.65,0.35,1.74,0.68,3.25,0.98
				c0.55,0.1,0.83,0.43,0.83,0.98c0,0.25,0,0.5,0,0.76c0,0.25-0.05,0.48-0.15,0.68c-1.26-0.1-2.62-0.19-4.08-0.26
				C301.81,63.26,300.09,63.22,298.13,63.22z M292.61,18.84c0-1.61,0.52-2.93,1.55-3.97c1.03-1.03,2.33-1.55,3.89-1.55
				c1.61,0,2.92,0.52,3.93,1.55c1.01,1.03,1.51,2.36,1.51,3.97c0,1.61-0.5,2.94-1.51,3.97c-1.01,1.03-2.32,1.55-3.93,1.55
				c-1.56,0-2.86-0.52-3.89-1.55C293.12,21.78,292.61,20.45,292.61,18.84z"/>
			<path class="st0" d="M345.46,56.19c0,0.61,0.03,1.12,0.08,1.55c0.05,0.43,0.2,0.79,0.45,1.1c0.25,0.3,0.63,0.54,1.13,0.72
				c0.5,0.18,1.18,0.31,2.04,0.41c0.71,0.1,1.06,0.43,1.06,0.98c0,0.25,0,0.5,0,0.75c0,0.25-0.05,0.45-0.15,0.61
				c-0.66,0-1.68,0.04-3.06,0.11c-1.39,0.07-2.56,0.19-3.51,0.34c-1.11,0.15-2.21,0.34-3.29,0.57c-1.09,0.23-1.83,0.34-2.23,0.34
				c-0.45,0-0.75-0.09-0.87-0.27c-0.13-0.18-0.19-0.46-0.19-0.87v-4.54c-0.66,0.91-1.34,1.74-2.04,2.5c-0.71,0.75-1.5,1.4-2.38,1.93
				c-0.88,0.53-1.88,0.95-2.99,1.25c-1.11,0.3-2.37,0.45-3.78,0.45c-1.96,0-3.79-0.35-5.48-1.06c-1.69-0.71-3.16-1.75-4.42-3.14
				c-1.26-1.39-2.24-3.09-2.95-5.1c-0.71-2.02-1.06-4.31-1.06-6.88c0-2.77,0.54-5.28,1.63-7.52c1.08-2.24,2.46-4.14,4.12-5.71
				c1.66-1.56,3.48-2.76,5.44-3.59c1.96-0.83,3.86-1.25,5.67-1.25c1.46,0,2.81,0.14,4.05,0.42c1.23,0.28,2.63,0.67,4.2,1.17V18.92
				c0-1.56-0.25-2.71-0.76-3.44c-0.5-0.73-1.69-1.2-3.55-1.4c-0.3-0.1-0.55-0.23-0.76-0.38s-0.3-0.43-0.3-0.83
				c0-0.3,0.05-0.7,0.15-1.21c0.35,0,0.81-0.01,1.36-0.04c0.55-0.02,1.16-0.05,1.82-0.07c0.65-0.02,1.31-0.06,1.96-0.11
				c0.66-0.05,1.26-0.1,1.82-0.15c1.31-0.15,2.53-0.35,3.67-0.61c1.14-0.25,1.9-0.38,2.31-0.38c0.86,0,1.28,0.38,1.28,1.13
				c0,0.96-0.07,2.05-0.23,3.29c-0.15,1.24-0.23,2.66-0.23,4.27V56.19z M336.91,36.68c-2.32-2.32-4.94-3.48-7.86-3.48
				c-2.62,0-4.56,1.15-5.82,3.44c-1.26,2.3-1.89,5.43-1.89,9.41c0,1.92,0.16,3.72,0.49,5.41c0.33,1.69,0.82,3.15,1.48,4.39
				c0.65,1.23,1.5,2.21,2.53,2.91c1.03,0.71,2.28,1.06,3.74,1.06c0.91,0,1.8-0.29,2.68-0.87c0.88-0.58,1.66-1.32,2.34-2.23
				c0.68-0.91,1.23-1.94,1.66-3.1c0.43-1.16,0.64-2.32,0.64-3.48V36.68z"/>
			<path class="st0" d="M387.42,60.88c0.75,0,1.13,0.63,1.13,1.89c-0.66,0.45-1.48,0.79-2.46,1.02c-0.98,0.23-1.98,0.34-2.99,0.34
				c-2.27,0-4.01-0.55-5.22-1.66c-1.21-1.11-1.92-2.39-2.12-3.85c-1.01,2.02-2.36,3.44-4.05,4.27c-1.69,0.83-3.67,1.25-5.94,1.25
				c-1.06,0-2.23-0.09-3.51-0.27c-1.28-0.18-2.47-0.54-3.55-1.1c-1.08-0.55-2-1.34-2.76-2.34c-0.76-1.01-1.14-2.34-1.14-4.01
				c0-1.87,0.48-3.45,1.44-4.76c0.96-1.31,2.15-2.41,3.59-3.29c1.44-0.88,3.01-1.59,4.73-2.12c1.71-0.53,3.33-0.97,4.84-1.32
				c0.65-0.15,1.33-0.31,2.04-0.49c0.7-0.18,1.26-0.31,1.66-0.42c0.55-0.15,0.91-0.36,1.06-0.64c0.15-0.28,0.23-0.99,0.23-2.16
				c0-2.57-0.38-4.55-1.13-5.93s-2.04-2.08-3.85-2.08c-1.46,0-2.51,0.45-3.14,1.36c-0.63,0.91-1.22,2.34-1.78,4.31
				c-0.15,0.56-0.59,0.97-1.32,1.25c-0.73,0.28-1.65,0.57-2.76,0.87c-0.61,0.15-1.22,0.28-1.85,0.38c-0.63,0.1-1.2,0.15-1.7,0.15
				c-0.3,0-0.5-0.11-0.6-0.34c-0.1-0.23-0.15-0.67-0.15-1.32c0-1.26,0.46-2.5,1.4-3.71c0.93-1.21,2.1-2.28,3.51-3.21
				c1.41-0.93,2.96-1.68,4.65-2.23c1.69-0.55,3.31-0.83,4.88-0.83c1.86,0,3.55,0.16,5.07,0.49c1.51,0.33,2.81,0.91,3.89,1.73
				c1.08,0.83,1.93,1.94,2.53,3.32c0.61,1.38,0.91,3.16,0.91,5.32v13.27c0,1.76,0.04,3.04,0.11,3.85c0.07,0.8,0.21,1.41,0.41,1.81
				c0.45,0.91,1.16,1.36,2.12,1.36c0.4,0,0.74-0.02,1.02-0.07C386.91,60.91,387.17,60.88,387.42,60.88z M374.42,46.74l-1.66,0.3
				c-1.16,0.2-2.24,0.49-3.25,0.87c-1.01,0.38-1.88,0.88-2.61,1.51c-0.73,0.63-1.31,1.41-1.74,2.34c-0.43,0.93-0.64,2.05-0.64,3.36
				c0,1.97,0.32,3.34,0.95,4.12c0.63,0.78,1.55,1.17,2.76,1.17c1.91,0,3.43-0.71,4.54-2.12c1.11-1.41,1.66-3.38,1.66-5.9V46.74z"/>
			<path class="st0" d="M425.15,56.19c0,0.61,0.03,1.12,0.08,1.55c0.05,0.43,0.2,0.79,0.45,1.1c0.25,0.3,0.63,0.54,1.13,0.72
				c0.5,0.18,1.18,0.31,2.04,0.41c0.71,0.1,1.06,0.43,1.06,0.98c0,0.25,0,0.5,0,0.75c0,0.25-0.05,0.45-0.15,0.61
				c-0.66,0-1.68,0.04-3.06,0.11c-1.39,0.07-2.56,0.19-3.51,0.34c-1.11,0.15-2.21,0.34-3.29,0.57c-1.09,0.23-1.83,0.34-2.23,0.34
				c-0.45,0-0.75-0.09-0.87-0.27c-0.13-0.18-0.19-0.46-0.19-0.87v-4.54c-0.66,0.91-1.34,1.74-2.04,2.5c-0.71,0.75-1.5,1.4-2.38,1.93
				c-0.88,0.53-1.88,0.95-2.99,1.25c-1.11,0.3-2.37,0.45-3.78,0.45c-1.96,0-3.79-0.35-5.48-1.06c-1.69-0.71-3.16-1.75-4.42-3.14
				c-1.26-1.39-2.24-3.09-2.95-5.1c-0.71-2.02-1.06-4.31-1.06-6.88c0-2.77,0.54-5.28,1.63-7.52c1.08-2.24,2.46-4.14,4.12-5.71
				c1.66-1.56,3.48-2.76,5.44-3.59c1.96-0.83,3.86-1.25,5.67-1.25c1.46,0,2.81,0.14,4.05,0.42c1.23,0.28,2.63,0.67,4.2,1.17V18.92
				c0-1.56-0.25-2.71-0.76-3.44c-0.5-0.73-1.69-1.2-3.55-1.4c-0.3-0.1-0.55-0.23-0.76-0.38s-0.3-0.43-0.3-0.83
				c0-0.3,0.05-0.7,0.15-1.21c0.35,0,0.81-0.01,1.36-0.04c0.55-0.02,1.16-0.05,1.82-0.07c0.65-0.02,1.31-0.06,1.96-0.11
				c0.66-0.05,1.26-0.1,1.82-0.15c1.31-0.15,2.53-0.35,3.67-0.61c1.14-0.25,1.9-0.38,2.31-0.38c0.86,0,1.28,0.38,1.28,1.13
				c0,0.96-0.07,2.05-0.23,3.29c-0.15,1.24-0.23,2.66-0.23,4.27V56.19z M416.61,36.68c-2.32-2.32-4.94-3.48-7.86-3.48
				c-2.62,0-4.56,1.15-5.82,3.44c-1.26,2.3-1.89,5.43-1.89,9.41c0,1.92,0.16,3.72,0.49,5.41c0.33,1.69,0.82,3.15,1.48,4.39
				c0.65,1.23,1.5,2.21,2.53,2.91c1.03,0.71,2.28,1.06,3.74,1.06c0.91,0,1.8-0.29,2.68-0.87c0.88-0.58,1.66-1.32,2.34-2.23
				c0.68-0.91,1.23-1.94,1.66-3.1c0.43-1.16,0.64-2.32,0.64-3.48V36.68z"/>
		</g>
		<g>
			<path class="st0" d="M113.04,111.84c-0.09,0.7-0.14,1.22-0.14,1.59c0,0.42,0.06,0.71,0.18,0.86c0.12,0.15,0.35,0.23,0.68,0.23
				c0.48,0,1.02-0.2,1.61-0.61c0.59-0.41,1.17-0.95,1.75-1.61c0.57-0.66,1.13-1.43,1.68-2.31c0.54-0.87,1.03-1.77,1.45-2.67
				c0.42-0.91,0.75-1.81,1-2.72s0.36-1.72,0.36-2.44c0-0.66-0.1-1.32-0.29-1.97c-0.2-0.65-0.54-1.2-1.02-1.65l0.5-0.72
				c0.97-0.06,1.85-0.16,2.65-0.29c0.8-0.14,1.59-0.32,2.38-0.57c0.27,0.81,0.41,1.63,0.41,2.44c0,0.85-0.23,1.89-0.68,3.12
				c-0.45,1.24-1.06,2.54-1.81,3.89c-0.75,1.36-1.64,2.72-2.65,4.08c-1.01,1.36-2.08,2.57-3.19,3.65c-1.12,1.07-2.26,1.94-3.42,2.6
				c-1.16,0.66-2.27,1-3.33,1c-1.21,0-2.08-0.23-2.63-0.7c-0.54-0.47-0.82-1.2-0.82-2.2c0-0.39,0.02-0.79,0.05-1.2
				c0.03-0.41,0.07-0.87,0.14-1.38l1.27-10.24c0.06-0.39,0.07-0.68,0.05-0.86c-0.03-0.18-0.14-0.27-0.32-0.27
				c-0.18,0-0.39,0.04-0.63,0.11c-0.24,0.08-0.48,0.17-0.72,0.27c-0.24,0.11-0.47,0.2-0.68,0.27c-0.21,0.08-0.38,0.11-0.5,0.11
				c-0.24,0-0.43-0.13-0.57-0.39c-0.14-0.26-0.22-0.5-0.25-0.75c0.42-0.27,1-0.59,1.72-0.97c0.72-0.38,1.46-0.75,2.21-1.11
				c0.75-0.36,1.47-0.66,2.16-0.91c0.69-0.24,1.21-0.36,1.57-0.36c0.42,0,0.74,0.11,0.96,0.32c0.22,0.21,0.34,0.57,0.34,1.09
				c0,0.18,0,0.37,0,0.57c0,0.2-0.03,0.45-0.09,0.75L113.04,111.84z"/>
			<path class="st0" d="M133.83,113.06c-0.09,0.36-0.14,0.64-0.14,0.82c0,0.27,0.14,0.41,0.41,0.41c0.18,0,0.4-0.05,0.66-0.16
				c0.26-0.11,0.5-0.23,0.75-0.36c0.24-0.14,0.47-0.26,0.68-0.36c0.21-0.11,0.38-0.16,0.5-0.16c0.24,0,0.43,0.13,0.57,0.39
				c0.14,0.26,0.22,0.5,0.25,0.75c-0.48,0.33-1.05,0.7-1.7,1.09c-0.65,0.39-1.31,0.75-1.99,1.09c-0.68,0.33-1.34,0.61-1.99,0.84
				c-0.65,0.23-1.22,0.34-1.7,0.34c-0.51,0-0.95-0.11-1.29-0.32s-0.52-0.57-0.52-1.09c0-0.18,0.02-0.36,0.04-0.52
				c0.03-0.16,0.06-0.31,0.09-0.43l2.9-13.81c0.09-0.45,0.01-0.68-0.23-0.68c-0.09,0-0.23,0.04-0.41,0.11
				c-0.18,0.08-0.38,0.16-0.61,0.25c-0.23,0.09-0.45,0.17-0.68,0.25c-0.23,0.08-0.42,0.11-0.57,0.11c-0.27,0-0.48-0.14-0.61-0.41
				c-0.14-0.27-0.23-0.53-0.29-0.77c0.57-0.3,1.26-0.65,2.06-1.04c0.8-0.39,1.59-0.75,2.35-1.06c0.77-0.32,1.47-0.59,2.11-0.82
				c0.63-0.23,1.09-0.34,1.36-0.34c0.24,0,0.47,0.06,0.68,0.18c0.21,0.12,0.32,0.33,0.32,0.64c0,0.09-0.01,0.21-0.02,0.36
				s-0.04,0.3-0.07,0.45L133.83,113.06z M134.91,93.41c-0.81,0-1.46-0.2-1.95-0.61c-0.48-0.41-0.72-0.96-0.72-1.65
				c0-0.94,0.36-1.74,1.09-2.4c0.73-0.66,1.59-1,2.58-1c0.87,0,1.51,0.26,1.9,0.79c0.39,0.53,0.59,1.07,0.59,1.61
				c0,0.97-0.34,1.75-1.02,2.35C136.7,93.11,135.88,93.41,134.91,93.41z"/>
			<path class="st0" d="M147.1,111.84c-0.09,0.7-0.14,1.22-0.14,1.59c0,0.42,0.06,0.71,0.18,0.86s0.35,0.23,0.68,0.23
				c0.48,0,1.02-0.2,1.61-0.61c0.59-0.41,1.17-0.95,1.75-1.61c0.57-0.66,1.13-1.43,1.68-2.31c0.54-0.87,1.03-1.77,1.45-2.67
				c0.42-0.91,0.75-1.81,1-2.72s0.36-1.72,0.36-2.44c0-0.66-0.1-1.32-0.29-1.97c-0.2-0.65-0.54-1.2-1.02-1.65l0.5-0.72
				c0.97-0.06,1.85-0.16,2.65-0.29c0.8-0.14,1.59-0.32,2.38-0.57c0.27,0.81,0.41,1.63,0.41,2.44c0,0.85-0.23,1.89-0.68,3.12
				c-0.45,1.24-1.06,2.54-1.81,3.89c-0.75,1.36-1.64,2.72-2.65,4.08c-1.01,1.36-2.08,2.57-3.19,3.65c-1.12,1.07-2.26,1.94-3.42,2.6
				c-1.16,0.66-2.27,1-3.33,1c-1.21,0-2.08-0.23-2.63-0.7c-0.54-0.47-0.82-1.2-0.82-2.2c0-0.39,0.02-0.79,0.05-1.2
				c0.03-0.41,0.07-0.87,0.14-1.38l1.27-10.24c0.06-0.39,0.07-0.68,0.05-0.86c-0.03-0.18-0.14-0.27-0.32-0.27
				c-0.18,0-0.39,0.04-0.63,0.11c-0.24,0.08-0.48,0.17-0.72,0.27c-0.24,0.11-0.47,0.2-0.68,0.27c-0.21,0.08-0.38,0.11-0.5,0.11
				c-0.24,0-0.43-0.13-0.57-0.39c-0.14-0.26-0.22-0.5-0.25-0.75c0.42-0.27,1-0.59,1.72-0.97c0.72-0.38,1.46-0.75,2.21-1.11
				c0.75-0.36,1.47-0.66,2.16-0.91s1.21-0.36,1.57-0.36c0.42,0,0.74,0.11,0.96,0.32c0.22,0.21,0.34,0.57,0.34,1.09
				c0,0.18,0,0.37,0,0.57c0,0.2-0.03,0.45-0.09,0.75L147.1,111.84z"/>
			<path class="st0" d="M167.88,113.06c-0.09,0.36-0.14,0.64-0.14,0.82c0,0.27,0.14,0.41,0.41,0.41c0.18,0,0.4-0.05,0.66-0.16
				c0.26-0.11,0.5-0.23,0.75-0.36c0.24-0.14,0.47-0.26,0.68-0.36c0.21-0.11,0.38-0.16,0.5-0.16c0.24,0,0.43,0.13,0.57,0.39
				c0.14,0.26,0.22,0.5,0.25,0.75c-0.48,0.33-1.05,0.7-1.7,1.09c-0.65,0.39-1.31,0.75-1.99,1.09c-0.68,0.33-1.34,0.61-1.99,0.84
				c-0.65,0.23-1.22,0.34-1.7,0.34c-0.51,0-0.95-0.11-1.29-0.32s-0.52-0.57-0.52-1.09c0-0.18,0.02-0.36,0.04-0.52
				c0.03-0.16,0.06-0.31,0.09-0.43l2.9-13.81c0.09-0.45,0.01-0.68-0.23-0.68c-0.09,0-0.23,0.04-0.41,0.11
				c-0.18,0.08-0.38,0.16-0.61,0.25c-0.23,0.09-0.45,0.17-0.68,0.25c-0.23,0.08-0.42,0.11-0.57,0.11c-0.27,0-0.48-0.14-0.61-0.41
				c-0.14-0.27-0.23-0.53-0.29-0.77c0.57-0.3,1.26-0.65,2.06-1.04c0.8-0.39,1.59-0.75,2.35-1.06c0.77-0.32,1.47-0.59,2.11-0.82
				c0.63-0.23,1.09-0.34,1.36-0.34c0.24,0,0.47,0.06,0.68,0.18c0.21,0.12,0.32,0.33,0.32,0.64c0,0.09-0.01,0.21-0.02,0.36
				s-0.04,0.3-0.07,0.45L167.88,113.06z M168.97,93.41c-0.81,0-1.46-0.2-1.95-0.61c-0.48-0.41-0.72-0.96-0.72-1.65
				c0-0.94,0.36-1.74,1.09-2.4c0.73-0.66,1.59-1,2.58-1c0.87,0,1.51,0.26,1.9,0.79s0.59,1.07,0.59,1.61c0,0.97-0.34,1.75-1.02,2.35
				C170.76,93.11,169.94,93.41,168.97,93.41z"/>
			<path class="st0" d="M187.13,101.47c-0.42,0-0.88,0.17-1.36,0.52c-0.48,0.35-0.99,0.81-1.52,1.4c-0.53,0.59-1.06,1.3-1.58,2.13
				c-0.53,0.83-1.02,1.71-1.47,2.65c-0.24,0.48-0.47,1.05-0.68,1.7c-0.21,0.65-0.4,1.32-0.57,2.02c-0.17,0.7-0.29,1.37-0.38,2.04
				c-0.09,0.66-0.14,1.25-0.14,1.77c0,0.48,0.04,0.92,0.14,1.31c-0.73,0.09-1.46,0.2-2.2,0.32c-0.74,0.12-1.53,0.3-2.38,0.54
				c-0.52-0.21-0.77-0.48-0.77-0.82c0-0.15,0.01-0.31,0.04-0.48c0.03-0.16,0.06-0.29,0.09-0.38l2.9-14.63
				c0.06-0.18,0.08-0.34,0.05-0.48s-0.11-0.2-0.23-0.2c-0.09,0-0.23,0.04-0.41,0.11c-0.18,0.08-0.39,0.16-0.61,0.25
				c-0.23,0.09-0.45,0.17-0.68,0.25c-0.23,0.08-0.41,0.11-0.57,0.11c-0.27,0-0.48-0.14-0.61-0.41c-0.14-0.27-0.23-0.53-0.29-0.77
				c0.57-0.36,1.25-0.73,2.04-1.11s1.56-0.73,2.33-1.04c0.77-0.32,1.47-0.58,2.11-0.79c0.63-0.21,1.1-0.32,1.4-0.32
				c0.24,0,0.47,0.06,0.68,0.18c0.21,0.12,0.32,0.33,0.32,0.64c0,0.09,0,0.21,0,0.36s-0.03,0.3-0.09,0.45l-1.59,6.02l0.18,0.05
				c1.57-2.78,2.95-4.76,4.14-5.93c1.19-1.18,2.39-1.77,3.6-1.77c0.39,0,0.77,0.06,1.13,0.18c0.36,0.12,0.62,0.26,0.77,0.41
				c-0.51,1.21-0.91,2.85-1.18,4.94h-0.91c-0.18-0.33-0.41-0.62-0.68-0.86C187.9,101.59,187.55,101.47,187.13,101.47z"/>
		</g>
		<g>
			<path class="st0" d="M215.51,114.49c0.43-0.26,0.79-0.39,1.09-0.39c0.43,0,0.88,0.45,1.35,1.35c-1.79,1.62-3.36,2.69-4.71,3.2
				s-2.77,0.77-4.26,0.77c-0.85,0-1.68-0.11-2.47-0.32c-0.79-0.21-1.51-0.6-2.15-1.15c-0.64-0.56-1.15-1.31-1.54-2.28
				c-0.39-0.96-0.58-2.19-0.58-3.68V94.37h-3.84v-1.6c0-0.17,0.04-0.39,0.13-0.64c0.08-0.26,0.34-0.39,0.77-0.39
				c1.15,0,2.22-0.33,3.2-0.99c0.98-0.66,1.77-1.65,2.37-2.98c0.47-0.98,0.99-1.77,1.57-2.37c0.58-0.6,1.14-0.9,1.7-0.9h1.35v6.66
				h7.5c0,1.37-0.1,2.24-0.29,2.63c-0.19,0.39-0.54,0.58-1.06,0.58h-6.15v15.82c0,1.28,0.04,2.3,0.13,3.04
				c0.09,0.75,0.22,1.31,0.42,1.7c0.19,0.39,0.45,0.63,0.77,0.74c0.32,0.11,0.69,0.16,1.12,0.16c0.47,0,1.02-0.12,1.67-0.35
				C214.23,115.24,214.87,114.91,215.51,114.49z"/>
			<path class="st0" d="M240.88,90.46c1.24,0,2.17,0.32,2.79,0.96c0.62,0.64,0.93,1.45,0.93,2.44c0,0.3-0.05,0.56-0.16,0.77
				c-0.11,0.21-0.34,0.45-0.71,0.7c-0.36,0.26-0.86,0.55-1.51,0.87c-0.64,0.32-1.47,0.72-2.5,1.18c-0.68-0.68-1.31-1.14-1.89-1.38
				c-0.58-0.23-1.14-0.35-1.7-0.35c-0.51,0-1.01,0.09-1.51,0.26c-0.49,0.17-0.93,0.5-1.31,0.99c-0.38,0.49-0.69,1.14-0.93,1.96
				s-0.35,1.86-0.35,3.14v11.92c0,0.85,0.34,1.48,1.02,1.89c0.68,0.41,2.03,0.78,4.04,1.12c0.47,0.09,0.7,0.36,0.7,0.83
				c0,0.6-0.04,1-0.13,1.22c-0.56-0.04-1.24-0.08-2.05-0.1c-0.81-0.02-1.67-0.06-2.56-0.1c-0.9-0.04-1.78-0.08-2.66-0.1
				c-0.88-0.02-1.66-0.03-2.34-0.03c-1.62,0-3.01,0.03-4.16,0.1c-1.15,0.06-2.24,0.14-3.27,0.22c-0.09-0.22-0.13-0.62-0.13-1.22
				c0-0.47,0.23-0.75,0.7-0.83c1.37-0.26,2.31-0.53,2.82-0.83c0.51-0.3,0.77-0.77,0.77-1.41V97.45c0-0.98-0.18-1.77-0.54-2.37
				c-0.36-0.6-1.38-1-3.04-1.22c-0.6-0.09-0.9-0.41-0.9-0.96c0-0.13,0-0.3,0-0.51c0-0.21,0.04-0.39,0.13-0.51
				c0.26,0,0.62-0.01,1.09-0.03c0.47-0.02,0.98-0.04,1.54-0.06c0.56-0.02,1.11-0.05,1.67-0.1s1.05-0.11,1.47-0.19
				c0.94-0.13,1.91-0.29,2.91-0.48c1-0.19,1.68-0.29,2.02-0.29c0.6,0,0.9,0.32,0.9,0.96v3.46c1.49-1.62,2.92-2.81,4.29-3.56
				C237.7,90.84,239.22,90.46,240.88,90.46z"/>
			<path class="st0" d="M273.56,116.66c0.64,0,0.96,0.54,0.96,1.6c-0.56,0.39-1.25,0.67-2.08,0.87c-0.83,0.19-1.68,0.29-2.53,0.29
				c-1.92,0-3.4-0.47-4.42-1.41c-1.02-0.94-1.62-2.03-1.79-3.27c-0.85,1.71-2,2.92-3.43,3.62c-1.43,0.7-3.11,1.06-5.03,1.06
				c-0.9,0-1.89-0.07-2.98-0.22c-1.09-0.15-2.09-0.46-3.01-0.93c-0.92-0.47-1.7-1.13-2.34-1.98c-0.64-0.85-0.96-1.99-0.96-3.4
				c0-1.58,0.4-2.92,1.22-4.04c0.81-1.11,1.83-2.04,3.04-2.79c1.22-0.75,2.55-1.35,4-1.79c1.45-0.45,2.82-0.82,4.1-1.12
				c0.56-0.13,1.13-0.27,1.73-0.42c0.6-0.15,1.07-0.27,1.41-0.35c0.47-0.13,0.77-0.31,0.9-0.55c0.13-0.23,0.19-0.84,0.19-1.83
				c0-2.18-0.32-3.85-0.96-5.03c-0.64-1.17-1.73-1.76-3.27-1.76c-1.24,0-2.13,0.39-2.66,1.15c-0.53,0.77-1.04,1.99-1.51,3.65
				c-0.13,0.47-0.5,0.82-1.12,1.06c-0.62,0.24-1.4,0.48-2.34,0.74c-0.51,0.13-1.04,0.23-1.57,0.32c-0.54,0.09-1.01,0.13-1.44,0.13
				c-0.26,0-0.43-0.1-0.51-0.29c-0.09-0.19-0.13-0.56-0.13-1.12c0-1.07,0.39-2.12,1.18-3.14c0.79-1.02,1.78-1.93,2.98-2.72
				c1.19-0.79,2.51-1.42,3.94-1.89c1.43-0.47,2.81-0.71,4.13-0.71c1.58,0,3.01,0.14,4.29,0.42s2.38,0.77,3.3,1.47
				c0.92,0.7,1.63,1.64,2.14,2.81c0.51,1.17,0.77,2.67,0.77,4.51v11.25c0,1.49,0.03,2.58,0.1,3.26c0.06,0.68,0.18,1.19,0.35,1.53
				c0.38,0.77,0.98,1.15,1.79,1.15c0.34,0,0.63-0.02,0.87-0.06C273.12,116.69,273.34,116.66,273.56,116.66z M262.54,104.69
				l-1.41,0.26c-0.98,0.17-1.9,0.42-2.75,0.73c-0.85,0.32-1.59,0.75-2.21,1.28c-0.62,0.53-1.11,1.2-1.47,1.99
				c-0.36,0.79-0.55,1.74-0.55,2.85c0,1.67,0.27,2.83,0.8,3.49c0.53,0.66,1.31,0.99,2.34,0.99c1.62,0,2.9-0.6,3.84-1.79
				c0.94-1.19,1.41-2.86,1.41-5V104.69z"/>
			<path class="st0" d="M306.8,114.74c0,0.6,0.26,1.06,0.77,1.38c0.51,0.32,1.45,0.59,2.82,0.8c0.17,0.04,0.33,0.12,0.48,0.22
				c0.15,0.11,0.22,0.31,0.22,0.61c0,0.26-0.01,0.48-0.03,0.67c-0.02,0.19-0.05,0.37-0.1,0.55c-1.11-0.09-2.22-0.16-3.33-0.22
				c-1.11-0.06-2.5-0.1-4.16-0.1c-1.37,0-2.65,0.03-3.84,0.1c-1.2,0.06-2.35,0.14-3.46,0.22c-0.09-0.22-0.13-0.62-0.13-1.22
				c0-0.47,0.23-0.75,0.71-0.83c1.11-0.21,1.86-0.47,2.24-0.77c0.38-0.3,0.57-0.77,0.57-1.41v-12.56c0-2.52-0.31-4.26-0.93-5.22
				c-0.62-0.96-1.61-1.44-2.98-1.44c-1.92,0-3.57,0.65-4.93,1.95c-1.37,1.3-2.05,3.24-2.05,5.8v11.47c0,0.64,0.19,1.11,0.58,1.41
				c0.38,0.3,1.13,0.56,2.24,0.77c0.47,0.09,0.7,0.36,0.7,0.83c0,0.6-0.04,1-0.13,1.22c-1.11-0.09-2.26-0.16-3.46-0.22
				c-1.2-0.06-2.48-0.1-3.84-0.1c-1.67,0-3.07,0.03-4.2,0.1c-1.13,0.06-2.23,0.14-3.3,0.22c-0.04-0.17-0.07-0.35-0.1-0.55
				c-0.02-0.19-0.03-0.42-0.03-0.67c0-0.3,0.07-0.5,0.22-0.61c0.15-0.11,0.31-0.18,0.48-0.22c1.37-0.26,2.31-0.53,2.82-0.83
				c0.51-0.3,0.77-0.77,0.77-1.41V97.77c0-1.28-0.23-2.26-0.7-2.95c-0.47-0.68-1.45-1.09-2.95-1.22c-0.56-0.13-0.83-0.47-0.83-1.03
				c0-0.13,0-0.29,0-0.48c0-0.19,0.04-0.37,0.13-0.55c0.26,0,0.63-0.01,1.12-0.03c0.49-0.02,1.01-0.04,1.57-0.06s1.11-0.05,1.67-0.1
				c0.56-0.04,1.07-0.09,1.54-0.13c1.07-0.13,2.09-0.3,3.08-0.51c0.98-0.21,1.64-0.32,1.99-0.32c0.68,0,1.02,0.32,1.02,0.96
				c0,0.47-0.06,1.09-0.19,1.86c-0.13,0.77-0.19,1.84-0.19,3.2c1.37-1.79,2.88-3.25,4.55-4.36c1.67-1.11,3.4-1.67,5.19-1.67
				c2.6,0,4.65,0.73,6.15,2.18c1.5,1.45,2.24,3.63,2.24,6.54V114.74z"/>
			<path class="st0" d="M343.32,130.12c0,0.64,0.16,1.1,0.48,1.38c0.32,0.28,1.1,0.55,2.34,0.8c0.47,0.08,0.7,0.36,0.7,0.83
				c0,0.38-0.04,0.79-0.13,1.22c-1.15-0.09-2.42-0.16-3.81-0.22c-1.39-0.06-2.83-0.1-4.32-0.1c-1.67,0-3.35,0.03-5.06,0.1
				c-1.71,0.06-3.1,0.14-4.16,0.22c-0.09-0.17-0.13-0.37-0.13-0.61s0-0.44,0-0.61c0-0.34,0.09-0.57,0.26-0.67
				c0.17-0.11,0.36-0.18,0.58-0.22c1.41-0.17,2.52-0.35,3.33-0.55c0.81-0.19,1.41-0.42,1.79-0.67c0.39-0.26,0.63-0.56,0.74-0.93
				c0.11-0.36,0.16-0.8,0.16-1.31v-14.54c-0.56,0.77-1.13,1.47-1.73,2.11c-0.6,0.64-1.27,1.19-2.02,1.63
				c-0.75,0.45-1.59,0.8-2.53,1.06c-0.94,0.26-2.01,0.38-3.2,0.38c-1.66,0-3.21-0.3-4.64-0.9c-1.43-0.6-2.68-1.48-3.75-2.66
				c-1.07-1.18-1.9-2.62-2.5-4.32s-0.9-3.65-0.9-5.83c0-2.35,0.45-4.47,1.35-6.38c0.9-1.9,2.05-3.51,3.46-4.84
				c1.41-1.32,2.96-2.34,4.64-3.04c1.69-0.71,3.3-1.06,4.84-1.06c1.41,0,2.91,0.2,4.48,0.61c1.58,0.41,3.27,0.99,5.06,1.76
				c0.51-0.09,0.97-0.23,1.38-0.45c0.41-0.21,0.77-0.44,1.09-0.67c0.32-0.23,0.6-0.44,0.83-0.61s0.44-0.26,0.61-0.26
				c0.26,0,0.48,0.03,0.67,0.1c0.19,0.06,0.35,0.12,0.48,0.16c-0.26,2.39-0.39,4.65-0.39,6.79V130.12z M336.08,96.29
				c-1.79-2.05-4.01-3.08-6.66-3.08c-2.22,0-3.87,0.98-4.93,2.95c-1.07,1.96-1.6,4.61-1.6,7.95c0,1.62,0.14,3.15,0.42,4.58
				s0.69,2.67,1.25,3.71c0.56,1.05,1.27,1.87,2.15,2.47c0.87,0.6,1.93,0.9,3.17,0.9c0.77,0,1.53-0.24,2.27-0.73
				c0.75-0.49,1.41-1.12,1.99-1.89c0.58-0.77,1.05-1.64,1.41-2.63c0.36-0.98,0.54-1.96,0.54-2.95V96.29z"/>
			<path class="st0" d="M354.21,96.8c0-1.02-0.16-1.77-0.48-2.24c-0.32-0.47-1.21-0.79-2.66-0.96c-0.6-0.13-0.9-0.43-0.9-0.9
				c0-0.13,0-0.3,0-0.51c0-0.21,0.04-0.43,0.13-0.64c0.26,0,0.62-0.01,1.09-0.03c0.47-0.02,0.96-0.04,1.47-0.06
				c0.51-0.02,1.03-0.05,1.57-0.1c0.53-0.04,1.01-0.11,1.44-0.19c0.98-0.13,1.92-0.29,2.82-0.48c0.9-0.19,1.51-0.29,1.86-0.29
				c0.39,0,0.63,0.09,0.74,0.26c0.11,0.17,0.16,0.41,0.16,0.71v16.4c0,2.48,0.31,4.2,0.93,5.16c0.62,0.96,1.61,1.44,2.98,1.44
				c1.92,0,3.57-0.64,4.93-1.92c1.37-1.28,2.05-3.22,2.05-5.83v-9.8c0-0.51-0.03-0.95-0.1-1.31c-0.06-0.36-0.2-0.67-0.42-0.93
				c-0.21-0.26-0.52-0.46-0.93-0.61c-0.41-0.15-0.97-0.27-1.7-0.35c-0.26-0.09-0.48-0.17-0.67-0.26c-0.19-0.09-0.29-0.3-0.29-0.64
				c0-0.13,0.01-0.3,0.03-0.51c0.02-0.21,0.05-0.43,0.1-0.64c0.3,0,0.67-0.01,1.12-0.03c0.45-0.02,0.94-0.04,1.47-0.06
				c0.53-0.02,1.07-0.05,1.6-0.1c0.53-0.04,1.01-0.11,1.44-0.19c0.94-0.13,1.87-0.29,2.79-0.48c0.92-0.19,1.55-0.29,1.89-0.29
				c0.6,0,0.9,0.32,0.9,0.96v21.33c0,0.51,0.03,0.95,0.1,1.31c0.06,0.36,0.2,0.67,0.42,0.93c0.21,0.26,0.53,0.46,0.96,0.61
				c0.43,0.15,1,0.27,1.73,0.35c0.56,0.04,0.83,0.32,0.83,0.83c0,0.21,0,0.43,0,0.64c0,0.21-0.04,0.38-0.13,0.51
				c-0.56,0-1.42,0.03-2.59,0.1c-1.18,0.06-2.17,0.16-2.98,0.29c-0.94,0.13-1.87,0.29-2.79,0.48s-1.55,0.29-1.89,0.29
				c-0.38,0-0.63-0.08-0.74-0.22c-0.11-0.15-0.16-0.39-0.16-0.74v-4.61c-1.37,1.79-2.88,3.24-4.55,4.32
				c-1.67,1.09-3.4,1.63-5.19,1.63c-2.61,0-4.66-0.72-6.15-2.15c-1.5-1.43-2.24-3.58-2.24-6.44V96.8z"/>
			<path class="st0" d="M395.53,118.65c-1.67,0-3.1,0.03-4.29,0.1c-1.2,0.06-2.35,0.14-3.46,0.22c-0.09-0.43-0.13-0.83-0.13-1.22
				c0-0.3,0.07-0.5,0.22-0.61c0.15-0.11,0.31-0.18,0.48-0.22c1.37-0.26,2.31-0.53,2.82-0.83c0.51-0.3,0.77-0.77,0.77-1.41V97.77
				c0-1.28-0.21-2.26-0.64-2.95c-0.43-0.68-1.43-1.09-3.01-1.22c-0.56-0.09-0.83-0.43-0.83-1.03c0-0.13,0-0.29,0-0.48
				c0-0.19,0.04-0.37,0.13-0.55c0.26,0,0.63-0.01,1.12-0.03s1.01-0.04,1.57-0.06s1.11-0.05,1.67-0.1c0.56-0.04,1.07-0.09,1.54-0.13
				c1.07-0.13,2.09-0.3,3.08-0.51c0.98-0.21,1.64-0.32,1.99-0.32c0.68,0,1.02,0.32,1.02,0.96c0,0.47-0.06,1.09-0.19,1.86
				c-0.13,0.77-0.19,1.84-0.19,3.2v18.26c0,0.64,0.28,1.11,0.83,1.41c0.56,0.3,1.47,0.58,2.75,0.83c0.47,0.09,0.7,0.36,0.7,0.83
				c0,0.22,0,0.43,0,0.64c0,0.21-0.04,0.4-0.13,0.58c-1.07-0.09-2.22-0.16-3.46-0.22C398.65,118.68,397.2,118.65,395.53,118.65z
				 M390.86,81.05c0-1.37,0.44-2.49,1.31-3.36c0.87-0.88,1.97-1.31,3.3-1.31c1.37,0,2.48,0.44,3.33,1.31s1.28,2,1.28,3.36
				s-0.43,2.49-1.28,3.36c-0.85,0.88-1.96,1.31-3.33,1.31c-1.32,0-2.42-0.44-3.3-1.31C391.29,83.53,390.86,82.41,390.86,81.05z"/>
			<path class="st0" d="M422.95,118.97c-1.11-0.09-2.38-0.16-3.81-0.22c-1.43-0.06-2.77-0.1-4-0.1c-1.37,0-2.72,0.03-4.07,0.1
				c-1.35,0.06-2.57,0.14-3.68,0.22c-0.04-0.17-0.07-0.35-0.1-0.55c-0.02-0.19-0.03-0.42-0.03-0.67c0-0.3,0.07-0.5,0.22-0.61
				c0.15-0.11,0.31-0.18,0.48-0.22c1.37-0.26,2.31-0.53,2.82-0.83c0.51-0.3,0.77-0.77,0.77-1.41V81.11c0-1.28-0.23-2.25-0.7-2.92
				c-0.47-0.66-1.45-1.06-2.95-1.18c-0.56-0.13-0.83-0.47-0.83-1.03c0-0.13,0-0.3,0-0.51c0-0.21,0.04-0.38,0.13-0.51
				c0.26,0,0.63-0.01,1.12-0.03c0.49-0.02,1.01-0.04,1.57-0.06c0.56-0.02,1.11-0.05,1.67-0.1s1.07-0.09,1.54-0.13
				c1.07-0.13,2.09-0.3,3.08-0.51c0.98-0.21,1.64-0.32,1.99-0.32c0.68,0,1.02,0.32,1.02,0.96c0,0.47-0.06,1.08-0.19,1.83
				c-0.13,0.75-0.19,1.8-0.19,3.17v34.91c0,0.64,0.26,1.11,0.77,1.41c0.51,0.3,1.45,0.58,2.82,0.83c0.47,0.09,0.7,0.36,0.7,0.83
				C423.08,118.35,423.03,118.76,422.95,118.97z"/>
			<path class="st0" d="M426.86,104.94c0-2.09,0.37-4.03,1.12-5.8c0.75-1.77,1.78-3.31,3.11-4.61c1.32-1.3,2.9-2.32,4.74-3.04
				c1.84-0.73,3.84-1.09,6.02-1.09c2.26,0,4.31,0.36,6.15,1.09c1.84,0.73,3.42,1.74,4.74,3.04c1.32,1.3,2.34,2.84,3.04,4.61
				c0.7,1.77,1.06,3.7,1.06,5.8c0,2.09-0.38,4.03-1.12,5.8c-0.75,1.77-1.79,3.3-3.14,4.58c-1.35,1.28-2.94,2.29-4.77,3.01
				c-1.84,0.73-3.84,1.09-6.02,1.09c-2.26,0-4.32-0.36-6.15-1.09c-1.84-0.73-3.41-1.73-4.71-3.01c-1.3-1.28-2.31-2.81-3.01-4.58
				C427.21,108.97,426.86,107.03,426.86,104.94z M434.93,103.66c0,3.93,0.65,7.07,1.95,9.42c1.3,2.35,3.17,3.52,5.61,3.52
				c2.26,0,3.87-0.91,4.84-2.72c0.96-1.82,1.44-4.37,1.44-7.66c0-3.89-0.66-7.02-1.99-9.42c-1.32-2.39-3.18-3.59-5.57-3.59
				c-2.26,0-3.87,0.93-4.84,2.79C435.41,97.86,434.93,100.41,434.93,103.66z"/>
			<path class="st0" d="M479.45,98.98c-0.6-0.04-0.94-0.28-1.03-0.7c-0.3-1.75-0.98-3.03-2.05-3.84c-1.07-0.81-2.41-1.22-4.04-1.22
				c-1.45,0-2.56,0.36-3.33,1.09c-0.77,0.73-1.15,1.58-1.15,2.56c0,0.47,0.06,0.9,0.19,1.28c0.13,0.39,0.39,0.75,0.8,1.09
				c0.4,0.34,0.97,0.67,1.7,0.99c0.73,0.32,1.71,0.67,2.95,1.06c1.45,0.43,2.73,0.89,3.84,1.38c1.11,0.49,2.05,1.08,2.82,1.76
				c0.77,0.68,1.36,1.51,1.76,2.47c0.41,0.96,0.61,2.1,0.61,3.43c0,1.24-0.2,2.41-0.61,3.52c-0.4,1.11-1.06,2.08-1.95,2.92
				c-0.9,0.83-2.03,1.49-3.4,1.96c-1.37,0.47-3.01,0.7-4.93,0.7c-1.37,0-2.94-0.15-4.71-0.45c-1.77-0.3-3.39-0.83-4.84-1.6
				c-0.09-1.11-0.16-2.3-0.22-3.56c-0.06-1.26-0.1-2.51-0.1-3.75h0.83c0.47,0,0.87,0.07,1.22,0.22c0.34,0.15,0.53,0.39,0.58,0.74
				c0.17,1.79,0.88,3.17,2.12,4.13c1.24,0.96,2.95,1.44,5.12,1.44c1.5,0,2.71-0.34,3.65-1.02c0.94-0.68,1.41-1.58,1.41-2.69
				c0-1.02-0.42-1.9-1.25-2.63c-0.83-0.73-2.4-1.43-4.71-2.11c-3.12-0.9-5.31-2.08-6.56-3.56c-1.26-1.47-1.89-3.23-1.89-5.28
				c0-2.69,0.91-4.85,2.72-6.47c1.81-1.62,4.17-2.43,7.08-2.43c1.67,0,3.28,0.2,4.84,0.61c1.56,0.41,2.81,0.84,3.75,1.31
				c0.04,0.34,0.09,0.8,0.13,1.38c0.04,0.58,0.08,1.2,0.13,1.86c0.04,0.66,0.07,1.3,0.1,1.92c0.02,0.62,0.03,1.14,0.03,1.57
				L479.45,98.98z"/>
		</g>
	</g>
	<g>
		<path class="st0" d="M75.97,28.94c4.67,0.09,7.86,0.48,9.57,1.17c1.71,0.69,2.75,1.76,3.11,3.21c0.37,1.45,0.25,3.1-0.36,4.96
			l-3.83,11.61h8.56c0.73,2.29,1.1,4.76,1.1,7.4c0,1.73-0.37,3.14-1.1,4.22c-0.74,1.08-2.05,1.62-3.96,1.62h-8.89l-6.29,19.21h9.6
			c0.73,2.29,1.1,4.76,1.1,7.4c0,1.73-0.37,3.14-1.1,4.22c-0.74,1.08-2.06,1.62-3.96,1.62h-9.93l-7.98,24.46
			c-4.67-0.09-7.86-0.48-9.57-1.17c-1.71-0.69-2.76-1.76-3.15-3.21s-0.26-3.1,0.39-4.96l4.93-15.12h-15.9l-7.98,24.46
			c-4.67-0.09-7.86-0.48-9.57-1.17c-1.71-0.69-2.76-1.76-3.15-3.21c-0.39-1.45-0.26-3.1,0.39-4.96l4.93-15.12h-8.82
			c-0.74-2.72-1.1-5.02-1.1-6.88c0-2.34,0.39-3.98,1.17-4.93c0.78-0.95,1.84-1.43,3.18-1.43h9.86l6.29-19.21h-9.86
			c-0.74-2.72-1.1-5.02-1.1-6.88c0-2.34,0.39-3.98,1.17-4.93c0.78-0.95,1.84-1.43,3.18-1.43h10.9l6.88-20.96
			c4.67,0.09,7.86,0.48,9.57,1.17c1.71,0.69,2.75,1.76,3.11,3.21c0.37,1.45,0.25,3.1-0.36,4.96L53.2,49.89h15.9L75.97,28.94z
			 M42.62,82.33h15.9l6.29-19.21h-15.9L42.62,82.33z"/>
	</g>
</g>
</svg>
