<?xml version="1.0" encoding="utf-8"?>
<!-- Generator: Adobe Illustrator 23.0.1, SVG Export Plug-In . SVG Version: 6.00 Build 0)  -->
<svg version="1.1" id="Capa_1" xmlns="http://www.w3.org/2000/svg" xmlns:xlink="http://www.w3.org/1999/xlink" x="0px" y="0px"
	 viewBox="0 0 396 155" style="enable-background:new 0 0 396 155;" xml:space="preserve">
<style type="text/css">
	.st0{fill:#FCFCFB;}
</style>
<g>
	<path class="st0" d="M13.33,119.26c-0.49-1.74-1.07-2.84-1.74-3.3c-0.67-0.46-1.93-0.52-3.76-0.18c-0.71,0.09-1.15-0.16-1.32-0.74
		c-0.09-0.32-0.14-0.7-0.15-1.15c0.68-0.19,1.58-0.49,2.69-0.89c1.11-0.4,2.04-0.79,2.78-1.17c1.11-0.48,2.07-0.97,2.88-1.45
		c0.8-0.48,1.41-0.78,1.84-0.9c0.74-0.21,1.22,0.08,1.44,0.87l5.57,19.75c0.37,1.32,0.79,2.51,1.26,3.57
		c0.47,1.06,1.03,1.94,1.68,2.64c0.65,0.7,1.44,1.16,2.35,1.38c0.92,0.23,1.98,0.17,3.19-0.18c1.32-0.37,2.54-0.96,3.68-1.76
		c1.14-0.8,2.07-1.78,2.8-2.92c0.73-1.14,1.2-2.43,1.43-3.86c0.22-1.43,0.1-2.98-0.38-4.67l-3.25-11.54
		c-0.48-1.68-1.05-2.77-1.73-3.26c-0.68-0.49-1.96-0.56-3.85-0.19c-0.71,0.09-1.15-0.16-1.32-0.74c-0.09-0.32-0.14-0.7-0.15-1.15
		c0.68-0.19,1.58-0.49,2.69-0.89c1.11-0.4,2.06-0.79,2.86-1.19c1.13-0.49,2.09-0.97,2.87-1.45s1.39-0.78,1.82-0.9
		c0.75-0.21,1.23,0.08,1.45,0.87l7.24,25.68c0.25,0.9,0.51,1.61,0.77,2.13c0.26,0.52,0.6,0.91,1.01,1.16
		c0.41,0.25,0.92,0.4,1.53,0.42c0.6,0.03,1.36-0.06,2.27-0.26c0.71-0.09,1.15,0.16,1.32,0.74c0.09,0.32,0.14,0.7,0.15,1.15
		c-1,0.28-2.03,0.66-3.09,1.13c-1.06,0.47-2.08,0.93-3.04,1.37c-0.97,0.44-1.82,0.85-2.54,1.23c-0.73,0.38-1.25,0.61-1.57,0.7
		c-0.75,0.21-1.23-0.08-1.45-0.87l-1.85-6.56c-0.11,0.2-0.42,0.83-0.92,1.88c-0.5,1.05-1.21,2.22-2.13,3.5
		c-0.92,1.28-2.05,2.53-3.38,3.73c-1.34,1.2-2.9,2.06-4.69,2.56c-3.21,0.91-5.88,0.66-8.01-0.73c-2.13-1.39-3.67-3.77-4.62-7.14
		L13.33,119.26z"/>
	<path class="st0" d="M97.08,118.92c0.22,0.79,0.86,1.25,1.92,1.38c1.06,0.13,2.2,0.13,3.42,0.02c0.5-0.03,0.83,0.22,0.98,0.75
		c0.09,0.32,0.16,0.75,0.2,1.31c-1.4,0.28-2.77,0.57-4.11,0.86c-1.34,0.29-2.77,0.65-4.3,1.08c-1.42,0.4-2.82,0.84-4.19,1.31
		c-1.37,0.47-2.73,0.95-4.07,1.45c-0.25-0.5-0.42-0.9-0.51-1.22c-0.15-0.53,0-0.91,0.44-1.15c1.05-0.52,1.96-1.11,2.75-1.75
		c0.78-0.65,1.06-1.37,0.84-2.16l-4.37-15.49c-0.37-1.32-0.79-2.51-1.26-3.57c-0.47-1.06-1.04-1.94-1.72-2.63
		c-0.68-0.69-1.46-1.15-2.34-1.39s-1.93-0.18-3.14,0.16c-1.31,0.37-2.53,0.96-3.66,1.76c-1.13,0.8-2.06,1.77-2.79,2.92
		c-0.72,1.14-1.2,2.43-1.42,3.85c-0.22,1.43-0.1,2.96,0.36,4.59l4.06,14.38c0.22,0.79,0.85,1.25,1.88,1.39
		c1.03,0.13,2.11,0.16,3.22,0.07c0.5-0.03,0.83,0.22,0.98,0.75c0.09,0.32,0.16,0.75,0.2,1.31c-1.4,0.28-2.77,0.57-4.12,0.86
		c-1.34,0.29-2.76,0.65-4.25,1.07c-1.55,0.44-3,0.89-4.35,1.35c-1.35,0.47-2.67,0.94-3.96,1.41c-0.25-0.5-0.43-0.9-0.52-1.22
		c-0.15-0.53,0-0.91,0.44-1.15c1.1-0.54,2.07-1.14,2.9-1.8c0.84-0.66,1.14-1.42,0.9-2.26l-6.06-21.49
		c-0.45-1.58-1.04-2.63-1.79-3.16c-0.75-0.53-2.06-0.61-3.95-0.25c-0.71,0.09-1.16-0.18-1.34-0.82c-0.08-0.26-0.12-0.62-0.13-1.07
		c0.68-0.19,1.63-0.5,2.85-0.93c1.21-0.43,2.21-0.81,2.97-1.14c1.17-0.56,2.19-1.09,3.08-1.6c0.89-0.51,1.55-0.82,1.98-0.94
		c0.75-0.21,1.23,0.08,1.45,0.87c0.21,0.74,0.38,1.64,0.51,2.71c0.13,1.07,0.44,2.45,0.91,4.14c1.54-3.16,3.16-5.72,4.85-7.68
		c1.69-1.95,3.76-3.28,6.23-3.98c3.2-0.9,5.87-0.64,8,0.77c2.13,1.42,3.66,3.79,4.6,7.11L97.08,118.92z"/>
	<path class="st0" d="M143.89,108.28c0.58-0.16,1.05,0.3,1.42,1.39c-1.1,1.33-2.71,2.3-4.81,2.89c-1.17,0.33-2.22,0.44-3.17,0.34
		c-0.95-0.1-1.8-0.36-2.55-0.77c-0.75-0.41-1.39-0.94-1.92-1.59c-0.53-0.65-0.96-1.35-1.29-2.11c-0.65,2.74-1.76,4.8-3.33,6.19
		c-1.57,1.38-3.54,2.41-5.91,3.08c-1.05,0.3-2.2,0.52-3.44,0.67c-1.24,0.15-2.46,0.08-3.68-0.2c-1.22-0.28-2.32-0.85-3.3-1.71
		c-0.98-0.86-1.72-2.16-2.21-3.9c-0.55-1.95-0.55-3.73-0.01-5.33c0.54-1.6,1.42-3.04,2.62-4.32c1.2-1.28,2.59-2.42,4.15-3.43
		c1.56-1.01,3.08-1.92,4.56-2.74c0.85-0.41,1.63-0.81,2.34-1.21c0.71-0.4,1.33-0.79,1.85-1.16c0.68-0.42,1.06-0.84,1.14-1.26
		c0.08-0.42-0.03-1.16-0.32-2.21c-0.7-2.48-1.75-4.38-3.15-5.72c-1.4-1.34-3.31-1.67-5.74-0.98c-0.9,0.25-1.63,0.57-2.2,0.96
		c-0.57,0.39-1.01,0.87-1.3,1.43c-0.3,0.57-0.5,1.26-0.6,2.09c-0.11,0.83-0.18,1.79-0.21,2.88c0.01,0.63-0.23,1.15-0.71,1.56
		c-0.48,0.42-1.33,1-2.54,1.74c-0.29,0.2-0.65,0.41-1.1,0.65c-0.44,0.24-0.82,0.4-1.14,0.49c-0.53,0.15-0.95-0.33-1.26-1.44
		c-0.33-1.16-0.21-2.44,0.36-3.86c0.57-1.41,1.42-2.76,2.57-4.05c1.14-1.29,2.45-2.44,3.93-3.45c1.48-1.01,2.95-1.73,4.43-2.14
		c1.84-0.52,3.55-0.83,5.12-0.93c1.57-0.1,3.01,0.12,4.31,0.66c1.3,0.54,2.44,1.45,3.4,2.71c0.96,1.26,1.76,3.03,2.4,5.29
		l3.83,13.59c0.52,1.84,0.96,3.16,1.32,3.93c0.36,0.78,0.74,1.37,1.14,1.77c0.58,0.63,1.12,1.01,1.64,1.12
		c0.51,0.11,1.01,0.1,1.48-0.04c0.58-0.16,0.97-0.33,1.18-0.5C143.39,108.48,143.63,108.35,143.89,108.28z M127.53,96.26l-2.43,1.11
		c-1.3,0.65-2.55,1.35-3.75,2.08c-1.2,0.74-2.2,1.57-3.02,2.52c-0.82,0.94-1.4,2-1.72,3.17c-0.33,1.17-0.28,2.5,0.13,3.97
		c0.56,2,1.51,3.38,2.84,4.15c1.33,0.76,2.76,0.93,4.3,0.49c1.01-0.28,1.94-0.79,2.79-1.51c0.85-0.72,1.52-1.59,2.01-2.61
		c0.49-1.02,0.8-2.14,0.94-3.38c0.14-1.23,0.02-2.51-0.35-3.83L127.53,96.26z"/>
	<path class="st0" d="M206.74,87.65c0.21,0.74,0.68,1.21,1.43,1.43c0.74,0.22,1.99,0.22,3.75,0.01c0.22-0.01,0.45,0.03,0.67,0.11
		c0.22,0.08,0.38,0.31,0.49,0.67c0.09,0.32,0.15,0.6,0.2,0.84c0.04,0.24,0.06,0.48,0.07,0.7c-1.4,0.28-2.79,0.58-4.19,0.88
		s-3.11,0.75-5.17,1.33c-1.69,0.48-3.26,0.96-4.71,1.46s-2.85,0.99-4.19,1.48c-0.18-0.23-0.37-0.72-0.58-1.46
		c-0.16-0.58,0.03-1,0.58-1.27c1.29-0.65,2.13-1.23,2.5-1.73c0.37-0.5,0.44-1.15,0.22-1.94l-4.37-15.49
		c-0.88-3.11-1.87-5.15-2.96-6.12c-1.1-0.97-2.49-1.22-4.17-0.74c-2.37,0.67-4.17,2.04-5.4,4.13c-1.23,2.08-1.4,4.7-0.51,7.86
		l3.99,14.14c0.22,0.79,0.62,1.3,1.2,1.54c0.58,0.24,1.59,0.29,3.03,0.17c0.61-0.06,1,0.2,1.16,0.78c0.21,0.74,0.3,1.25,0.27,1.55
		c-1.4,0.28-2.85,0.59-4.34,0.93c-1.5,0.34-3.09,0.74-4.77,1.22c-2.05,0.58-3.77,1.1-5.14,1.58c-1.37,0.47-2.71,0.95-3.99,1.42
		c-0.11-0.2-0.21-0.41-0.31-0.64c-0.09-0.23-0.18-0.5-0.27-0.82c-0.1-0.37-0.08-0.64,0.07-0.83c0.15-0.18,0.32-0.33,0.51-0.44
		c1.6-0.79,2.66-1.46,3.19-2.01c0.53-0.55,0.68-1.21,0.46-2.01l-5.88-20.86c-0.45-1.58-1.08-2.71-1.89-3.39
		c-0.82-0.68-2.17-0.84-4.06-0.48c-0.73,0.04-1.19-0.29-1.38-0.98c-0.04-0.16-0.1-0.36-0.17-0.59c-0.07-0.24-0.08-0.47-0.03-0.72
		c0.32-0.09,0.77-0.23,1.37-0.43c0.6-0.2,1.24-0.4,1.91-0.63c0.68-0.22,1.35-0.45,2.02-0.7c0.67-0.24,1.29-0.48,1.85-0.69
		c1.27-0.53,2.48-1.1,3.62-1.7c1.14-0.6,1.92-0.97,2.34-1.09c0.84-0.24,1.38,0.04,1.6,0.83c0.16,0.58,0.3,1.37,0.41,2.36
		c0.11,0.99,0.4,2.33,0.88,4.02c1.06-2.69,2.43-5.01,4.09-6.96c1.67-1.95,3.61-3.23,5.82-3.86c3.21-0.91,5.99-0.72,8.34,0.55
		c2.35,1.27,4.03,3.7,5.04,7.28L206.74,87.65z"/>
	<path class="st0" d="M217.72,60.67c-0.36-1.26-0.81-2.13-1.37-2.6c-0.56-0.47-1.76-0.56-3.61-0.26c-0.78,0.05-1.25-0.21-1.42-0.79
		c-0.04-0.16-0.1-0.37-0.18-0.63c-0.07-0.26-0.1-0.54-0.07-0.83c0.32-0.09,0.76-0.23,1.33-0.42c0.57-0.19,1.17-0.39,1.8-0.59
		c0.62-0.2,1.26-0.43,1.9-0.67c0.64-0.24,1.21-0.48,1.71-0.74c1.17-0.5,2.27-1.02,3.31-1.57c1.04-0.55,1.77-0.88,2.19-1
		c0.47-0.13,0.81-0.11,1,0.06c0.19,0.17,0.34,0.45,0.44,0.81l5.71,20.23c0.86,3.06,1.84,5.07,2.94,6.04
		c1.1,0.97,2.49,1.22,4.18,0.74c2.37-0.67,4.17-2.03,5.42-4.09c1.24-2.06,1.41-4.69,0.5-7.9l-3.41-12.09
		c-0.18-0.63-0.37-1.16-0.58-1.59c-0.21-0.42-0.48-0.76-0.84-1c-0.35-0.24-0.81-0.38-1.36-0.43c-0.55-0.04-1.29,0.01-2.22,0.16
		c-0.35-0.02-0.65-0.04-0.92-0.08s-0.46-0.27-0.58-0.69c-0.04-0.16-0.09-0.37-0.14-0.64c-0.05-0.27-0.08-0.54-0.1-0.82
		c0.37-0.1,0.83-0.25,1.37-0.43c0.55-0.18,1.14-0.38,1.79-0.59c0.65-0.21,1.3-0.44,1.94-0.68c0.64-0.24,1.21-0.48,1.71-0.74
		c1.12-0.48,2.2-1,3.27-1.56c1.06-0.56,1.81-0.89,2.23-1.01c0.74-0.21,1.22,0.08,1.44,0.87l7.42,26.31
		c0.18,0.63,0.37,1.16,0.58,1.59c0.21,0.43,0.48,0.76,0.84,1c0.35,0.24,0.82,0.38,1.4,0.42c0.58,0.04,1.33-0.02,2.26-0.17
		c0.7-0.14,1.14,0.11,1.32,0.74c0.07,0.26,0.15,0.53,0.22,0.79s0.08,0.49,0.02,0.68c-0.68,0.19-1.74,0.53-3.17,1.02
		c-1.43,0.49-2.62,0.95-3.57,1.39c-1.11,0.48-2.21,1-3.27,1.56c-1.07,0.56-1.81,0.89-2.23,1.01c-0.47,0.13-0.8,0.13-0.99-0.02
		c-0.18-0.15-0.33-0.43-0.45-0.85l-1.6-5.69c-1.06,2.69-2.43,4.99-4.11,6.92c-1.68,1.92-3.62,3.2-5.83,3.82
		c-3.21,0.91-5.99,0.74-8.33-0.51c-2.34-1.24-4.01-3.63-5-7.16L217.72,60.67z"/>
	<path class="st0" d="M297.48,59.42c0.37-0.5,0.74-0.81,1.1-0.91c0.26-0.07,0.6-0.04,1.01,0.1c0.41,0.14,0.89,0.5,1.45,1.08
		c-1.37,3-3.23,5.45-5.57,7.33c-2.34,1.88-5.33,3.34-8.96,4.36c-2.05,0.58-4.16,0.82-6.32,0.72c-2.16-0.1-4.23-0.63-6.2-1.58
		c-1.97-0.95-3.75-2.34-5.31-4.17c-1.57-1.83-2.77-4.22-3.6-7.17c-0.82-2.9-0.99-5.68-0.52-8.34c0.47-2.66,1.35-5.06,2.62-7.18
		c1.28-2.12,2.82-3.91,4.63-5.36c1.81-1.45,3.66-2.44,5.56-2.98c5.11-1.44,9.38-1.05,12.82,1.16c3.44,2.22,5.88,5.88,7.32,10.99
		c0.1,0.37-0.03,0.61-0.4,0.71l-22.33,7.32c1.16,4.11,2.97,7,5.42,8.67c2.45,1.67,5.52,1.98,9.19,0.95
		c1.63-0.46,3.15-1.17,4.58-2.15C295.4,61.99,296.57,60.81,297.48,59.42z M277.2,39.12c-2.04,0.58-3.43,1.92-4.16,4.03
		c-0.73,2.11-0.56,5.06,0.51,8.86l12.1-4.01c0.77-0.27,1.07-0.73,0.89-1.36c-0.28-1-0.71-2.02-1.28-3.05
		c-0.57-1.03-1.27-1.93-2.08-2.7c-0.81-0.77-1.72-1.33-2.73-1.7C279.43,38.82,278.35,38.8,277.2,39.12z"/>
	<path class="st0" d="M326.05,46.75c0.39-3.46,0.7-6.34,0.94-8.62c0.24-2.29,0.39-4.15,0.47-5.59c0.08-1.44,0.1-2.57,0.07-3.39
		c-0.03-0.82-0.12-1.49-0.27-2.01c-0.3-1.05-1.35-1.55-3.15-1.5c-0.4,0-0.7-0.04-0.89-0.13c-0.19-0.09-0.35-0.34-0.47-0.76
		c-0.04-0.16-0.07-0.36-0.09-0.62c-0.01-0.25-0.03-0.52-0.05-0.8c2.15-0.44,4.46-1,6.94-1.7c2.21-0.62,4.22-1.27,6.02-1.95
		c0.18,0.24,0.33,0.51,0.44,0.81c0.12,0.31,0.19,0.52,0.22,0.62c0.16,0.58-0.08,1.05-0.71,1.4c-0.69,0.37-1.25,0.68-1.65,0.94
		c-0.41,0.26-0.75,0.58-1.01,0.97c-0.26,0.39-0.46,0.84-0.6,1.36c-0.14,0.52-0.25,1.22-0.34,2.1l-3.64,31.56
		c-0.23,0.18-0.5,0.31-0.79,0.39c-0.29,0.08-0.57,0.16-0.83,0.23c-0.37,0.1-0.78-0.01-1.24-0.33c-0.46-0.32-1.17-1.09-2.14-2.3
		l-17.91-22.07c-0.59-0.69-1.09-1.23-1.48-1.63c-0.4-0.4-0.79-0.69-1.18-0.86c-0.39-0.17-0.82-0.27-1.27-0.28
		c-0.46-0.01-1.05,0.02-1.76,0.11c-0.7,0.14-1.16-0.18-1.38-0.97c-0.1-0.37-0.16-0.87-0.16-1.49c1.35-0.26,2.66-0.56,3.93-0.89
		c1.27-0.33,2.94-0.79,4.99-1.36c1.9-0.53,3.55-1.02,4.97-1.44c1.42-0.43,2.82-0.89,4.21-1.4c0.32,0.54,0.53,0.96,0.62,1.28
		c0.19,0.68-0.04,1.18-0.69,1.47c-1.22,0.51-1.93,0.96-2.14,1.33c-0.21,0.37-0.25,0.77-0.13,1.19c0.07,0.26,0.33,0.77,0.77,1.53
		c0.44,0.76,1.4,2.04,2.87,3.84L326.05,46.75z"/>
	<path class="st0" d="M382.89,40.53c0.79-0.22,1.37,0.32,1.74,1.64c-0.55,0.67-1.31,1.26-2.27,1.79c-0.96,0.53-1.97,0.94-3.02,1.24
		c-2.37,0.67-4.35,0.6-5.94-0.2c-1.59-0.8-2.71-1.94-3.35-3.41c-0.46,2.4-1.45,4.29-2.97,5.66c-1.52,1.37-3.46,2.38-5.83,3.05
		c-1.11,0.31-2.36,0.56-3.75,0.76c-1.4,0.19-2.74,0.16-4.04-0.1c-1.3-0.26-2.49-0.81-3.57-1.64c-1.09-0.83-1.88-2.12-2.37-3.85
		c-0.55-1.95-0.52-3.75,0.1-5.4c0.61-1.65,1.54-3.15,2.78-4.5c1.24-1.34,2.68-2.55,4.31-3.61c1.63-1.06,3.19-1.99,4.67-2.81
		c0.64-0.35,1.3-0.72,1.99-1.12c0.69-0.39,1.22-0.7,1.62-0.92c0.53-0.32,0.84-0.65,0.92-0.99c0.08-0.33-0.06-1.11-0.4-2.32
		c-0.76-2.69-1.74-4.64-2.93-5.87c-1.2-1.22-2.75-1.57-4.64-1.04c-1.53,0.43-2.49,1.21-2.88,2.35c-0.39,1.13-0.59,2.81-0.59,5.03
		c0.01,0.63-0.33,1.19-1.01,1.69c-0.68,0.51-1.56,1.08-2.63,1.72c-0.59,0.34-1.2,0.65-1.82,0.94c-0.63,0.29-1.21,0.51-1.73,0.66
		c-0.32,0.09-0.56,0.03-0.73-0.18c-0.17-0.21-0.36-0.65-0.55-1.34c-0.37-1.32-0.25-2.74,0.37-4.28c0.62-1.54,1.53-3,2.73-4.39
		c1.2-1.39,2.6-2.62,4.2-3.7c1.6-1.08,3.22-1.84,4.85-2.31c1.95-0.55,3.76-0.88,5.44-0.98c1.68-0.1,3.2,0.12,4.58,0.67
		c1.38,0.55,2.58,1.46,3.63,2.72c1.04,1.27,1.88,3.03,2.52,5.29l3.91,13.87c0.52,1.84,0.94,3.17,1.25,3.99
		c0.32,0.82,0.64,1.41,0.97,1.77c0.74,0.81,1.61,1.08,2.61,0.79c0.42-0.12,0.77-0.25,1.04-0.38
		C382.36,40.71,382.63,40.61,382.89,40.53z M365.14,29.59l-1.65,0.81c-1.15,0.55-2.2,1.17-3.14,1.87c-0.94,0.69-1.7,1.48-2.28,2.35
		c-0.58,0.87-0.95,1.86-1.13,2.96c-0.17,1.1-0.07,2.34,0.32,3.71c0.58,2.05,1.31,3.4,2.2,4.03c0.89,0.63,1.96,0.77,3.23,0.41
		c2-0.56,3.37-1.75,4.12-3.55c0.74-1.8,0.74-4.02,0-6.65L365.14,29.59z"/>
</g>
</svg>
