<?xml version="1.0" encoding="utf-8"?>
<!-- Generator: Adobe Illustrator 23.0.1, SVG Export Plug-In . SVG Version: 6.00 Build 0)  -->
<svg version="1.1" id="Capa_1" xmlns="http://www.w3.org/2000/svg" xmlns:xlink="http://www.w3.org/1999/xlink" x="0px" y="0px"
	 viewBox="0 0 266 96" style="enable-background:new 0 0 266 96;" xml:space="preserve">
<style type="text/css">
	.st0{fill:#E85644;}
</style>
<g>
	<g>
		<path class="st0" d="M48.45,41.65c0.13-0.69,0.17-1.23,0.1-1.63c-0.12-0.69-0.53-1.14-1.23-1.35c-0.7-0.21-1.86-0.27-3.48-0.19
			c-0.6,0.06-0.98-0.36-1.14-1.26c-0.02-0.1-0.02-0.21-0.02-0.34c0-0.13-0.01-0.27-0.03-0.42l-0.03-0.61
			c0.46-0.03,1.01-0.07,1.66-0.14c0.65-0.06,1.36-0.15,2.14-0.26c0.77-0.11,1.54-0.22,2.32-0.33c0.77-0.11,1.48-0.22,2.13-0.33
			c1.44-0.25,2.81-0.52,4.11-0.8c1.3-0.28,2.41-0.58,3.33-0.89l0.18,0.58c0.07,0.14,0.13,0.28,0.15,0.43
			c0.03,0.15,0.05,0.27,0.06,0.37c0.17,0.94-0.05,1.49-0.63,1.64c-1.56,0.43-2.64,0.88-3.25,1.37c-0.6,0.49-1.02,1.24-1.25,2.25
			L42.88,86.82c-0.24,0.09-0.43,0.15-0.58,0.18s-0.32,0.06-0.52,0.09c-0.4,0.07-0.7,0.04-0.89-0.07c-0.2-0.12-0.45-0.43-0.74-0.94
			L15.21,46.09c-0.21-0.32-0.42-0.6-0.65-0.84c-0.22-0.24-0.52-0.43-0.9-0.57c-0.38-0.14-0.87-0.22-1.46-0.24
			c-0.59-0.02-1.37,0-2.33,0.06c-0.65,0.06-1.07-0.4-1.24-1.39c-0.03-0.15-0.06-0.36-0.11-0.63c-0.05-0.27-0.04-0.49,0.04-0.66
			c0.75-0.08,1.6-0.18,2.55-0.29c0.95-0.11,1.91-0.24,2.88-0.39c0.97-0.14,1.92-0.28,2.84-0.42c0.92-0.13,1.73-0.26,2.42-0.39
			c1.64-0.29,3.41-0.64,5.33-1.05c1.92-0.41,3.64-0.8,5.16-1.17c0.14,0.23,0.24,0.47,0.28,0.72c0.04,0.25,0.08,0.45,0.1,0.59
			c0.16,0.89-0.06,1.42-0.64,1.57c-1.56,0.43-2.63,0.87-3.21,1.33c-0.58,0.46-0.82,0.99-0.72,1.58c0.06,0.35,0.2,0.73,0.43,1.15
			L41.98,72.5L48.45,41.65z"/>
		<path class="st0" d="M64.37,57.32c-0.61-3.47-0.52-6.83,0.26-10.08c0.78-3.25,2.12-6.22,4-8.9c1.88-2.68,4.23-4.94,7.05-6.79
			c2.82-1.85,5.96-3.07,9.43-3.68c3.57-0.62,7-0.59,10.29,0.11c3.29,0.7,6.26,1.97,8.9,3.8c2.65,1.84,4.88,4.18,6.71,7.02
			c1.83,2.85,3.06,6.08,3.69,9.7c0.61,3.47,0.52,6.84-0.26,10.12c-0.78,3.28-2.11,6.24-4,8.9c-1.88,2.65-4.25,4.91-7.09,6.76
			c-2.84,1.85-6,3.08-9.47,3.69c-3.57,0.62-7,0.59-10.28-0.11c-3.29-0.7-6.24-1.97-8.86-3.81c-2.62-1.84-4.84-4.17-6.66-6.99
			C66.24,64.23,65.01,60.99,64.37,57.32z M94.32,73.91c2.08-0.36,3.88-1.15,5.41-2.36c1.52-1.21,2.75-2.72,3.69-4.52
			c0.94-1.8,1.55-3.82,1.85-6.07c0.3-2.25,0.23-4.59-0.19-7.01c-0.62-3.52-1.52-6.73-2.72-9.64c-1.2-2.9-2.67-5.34-4.42-7.31
			c-1.75-1.97-3.76-3.4-6.04-4.3c-2.28-0.9-4.78-1.12-7.5-0.64c-1.73,0.3-3.35,0.98-4.85,2.04c-1.5,1.06-2.74,2.42-3.73,4.1
			c-0.98,1.68-1.66,3.62-2.04,5.84c-0.38,2.21-0.34,4.63,0.12,7.26c0.64,3.67,1.6,7,2.86,9.99c1.26,3,2.78,5.5,4.53,7.52
			c1.76,2.02,3.74,3.48,5.94,4.4C89.42,74.11,91.79,74.35,94.32,73.91z"/>
		<path class="st0" d="M137.74,65.54l15.01-2.63c1.49-0.26,2.71-0.65,3.66-1.18c0.95-0.52,1.72-1.19,2.29-2.01
			c0.57-0.81,1.03-1.79,1.37-2.92c0.34-1.13,0.63-2.46,0.87-3.98c0.03-0.41,0.17-0.73,0.41-0.95c0.24-0.22,0.49-0.35,0.73-0.4
			c0.45-0.08,1.04-0.03,1.79,0.15c-0.06,2.26-0.03,4.49,0.1,6.69c0.13,2.2,0.26,3.95,0.38,5.26c0.05,0.6-0.05,1.04-0.31,1.32
			c-0.26,0.27-0.61,0.45-1.06,0.53c-0.94,0.16-2.11,0.29-3.5,0.38c-1.39,0.09-2.88,0.27-4.46,0.55l-29.51,5.17
			c-0.08-0.45-0.05-0.88,0.08-1.32l18.87-47.97l-13.82,2.42c-1.54,0.27-2.8,0.58-3.78,0.93c-0.99,0.35-1.79,0.86-2.41,1.53
			c-0.62,0.67-1.06,1.53-1.31,2.57c-0.25,1.04-0.41,2.41-0.47,4.1c-0.02,0.77-0.52,1.24-1.51,1.41c-0.25,0.04-0.52,0.05-0.8,0.03
			c-0.29-0.03-0.54-0.1-0.76-0.21c-0.04-2.24-0.13-4.33-0.29-6.27c-0.16-1.94-0.3-3.51-0.4-4.72c-0.03-1.02,0.41-1.6,1.3-1.76
			c0.99-0.17,2.08-0.3,3.27-0.38c1.19-0.08,2.57-0.26,4.16-0.54l28.99-5.08c0.05,0.3,0.09,0.57,0.11,0.82
			c0.02,0.25-0.03,0.49-0.14,0.71L137.74,65.54z"/>
	</g>
	<g>
		<path class="st0" d="M217.91,49.96c0.09,0.54,0.22,0.99,0.38,1.35c0.16,0.37,0.39,0.66,0.71,0.88c0.31,0.22,0.72,0.37,1.22,0.44
			c0.5,0.07,1.13,0.09,1.91,0.04c0.6-0.01,0.94,0.23,1.03,0.72c0.05,0.27,0.06,0.59,0.03,0.96c-0.58,0.1-1.35,0.27-2.3,0.51
			c-0.95,0.24-1.75,0.46-2.41,0.66c-0.96,0.35-1.8,0.7-2.52,1.03c-0.71,0.33-1.25,0.53-1.61,0.59c-0.63,0.11-1.01-0.17-1.13-0.84
			l-0.89-5.1c-0.48,0.96-0.96,1.89-1.45,2.78c-0.49,0.89-1.09,1.71-1.82,2.46c-0.72,0.75-1.59,1.4-2.6,1.94
			c-1.01,0.55-2.28,0.95-3.8,1.22c-1.52,0.27-3.03,0.21-4.52-0.18c-1.5-0.38-2.89-1.09-4.18-2.14c-1.29-1.04-2.41-2.4-3.38-4.08
			c-0.96-1.67-1.64-3.65-2.04-5.93c-0.43-2.46-0.35-4.74,0.25-6.85c0.6-2.11,1.47-3.95,2.63-5.51c1.15-1.56,2.49-2.83,4-3.81
			c1.51-0.98,2.96-1.59,4.35-1.83c1.7-0.3,3.24-0.39,4.62-0.29c1.38,0.1,2.76,0.31,4.15,0.62l-2.22-12.68
			c-0.23-1.34-0.64-2.25-1.2-2.73c-0.57-0.48-1.65-0.65-3.23-0.51c-0.6,0.01-0.94-0.25-1.04-0.79c-0.05-0.27-0.06-0.59-0.03-0.96
			c0.58-0.1,1.39-0.28,2.43-0.53c1.04-0.25,1.89-0.48,2.55-0.69c1.02-0.32,1.91-0.66,2.69-1.02s1.34-0.58,1.71-0.64
			c0.63-0.11,1.01,0.17,1.13,0.84c0.13,0.76,0.22,1.65,0.26,2.65s0.18,2.23,0.43,3.66L217.91,49.96z M209.3,33.98
			c-1.32-0.97-2.71-1.67-4.17-2.1c-1.46-0.44-3.04-0.51-4.74-0.21c-2.59,0.45-4.36,1.87-5.3,4.25c-0.94,2.38-1.12,5.24-0.53,8.6
			c0.3,1.7,0.77,3.29,1.42,4.76c0.65,1.48,1.45,2.73,2.39,3.77c0.94,1.03,2,1.79,3.16,2.28s2.4,0.62,3.7,0.39
			c0.89-0.16,1.74-0.58,2.54-1.27c0.8-0.69,1.5-1.52,2.09-2.48c0.59-0.96,1.03-2,1.32-3.13c0.29-1.13,0.34-2.21,0.16-3.24
			L209.3,33.98z"/>
		<path class="st0" d="M253.42,43.47c0.26-0.37,0.56-0.58,0.92-0.65c0.45-0.08,0.94,0.23,1.47,0.92c-0.44,0.91-0.97,1.81-1.6,2.7
			c-0.63,0.89-1.41,1.73-2.36,2.52c-0.95,0.79-2.06,1.48-3.34,2.07c-1.28,0.59-2.79,1.04-4.53,1.35c-1.79,0.31-3.54,0.32-5.25,0.02
			c-1.71-0.3-3.29-0.94-4.73-1.94c-1.44-0.99-2.69-2.32-3.74-3.98c-1.05-1.66-1.79-3.7-2.21-6.11c-0.4-2.28-0.33-4.46,0.2-6.53
			c0.54-2.08,1.38-3.92,2.52-5.52c1.15-1.61,2.49-2.94,4.04-3.99s3.1-1.72,4.66-1.99c4.16-0.73,7.4-0.05,9.72,2.03
			c2.32,2.08,3.83,5.07,4.51,8.96c0.05,0.27-0.06,0.43-0.33,0.47l-19.23,4.27c0.31,1.74,0.83,3.31,1.58,4.7
			c0.75,1.39,1.66,2.54,2.74,3.46c1.08,0.92,2.31,1.57,3.68,1.95c1.38,0.38,2.87,0.43,4.47,0.15c1.43-0.25,2.74-0.83,3.94-1.73
			C251.75,45.69,252.71,44.65,253.42,43.47z M238.99,24.9c-2.23,0.39-3.81,1.57-4.75,3.53c-0.94,1.96-1.16,4.35-0.67,7.17
			l12.51-2.81c0.67-0.12,0.95-0.46,0.85-1.05c-0.15-0.85-0.44-1.72-0.87-2.61c-0.43-0.89-0.98-1.68-1.66-2.37
			c-0.67-0.69-1.46-1.22-2.38-1.59C241.12,24.8,240.11,24.71,238.99,24.9z"/>
	</g>
</g>
</svg>
